<svg width="139" height="52" viewBox="0 0 139 52" fill="none" xmlns="http://www.w3.org/2000/svg">
<path d="M9.61469 0H134C136.761 0 139 2.23858 139 5V47C139 49.7614 136.761 52 134 52H14.6147C11.8533 52 9.61469 49.7614 9.61469 47V0Z" fill="#3D3D3D"/>
<path d="M27.7237 26.6H26.8431C26.791 26.3467 26.6998 26.1241 26.5696 25.9324C26.4418 25.7406 26.2855 25.5796 26.1009 25.4494C25.9186 25.3168 25.7162 25.2174 25.4936 25.1511C25.2711 25.0848 25.0391 25.0517 24.7976 25.0517C24.3573 25.0517 23.9584 25.1629 23.6009 25.3855C23.2458 25.608 22.9629 25.9359 22.7522 26.3692C22.5438 26.8024 22.4397 27.3339 22.4397 27.9636C22.4397 28.5933 22.5438 29.1248 22.7522 29.5581C22.9629 29.9913 23.2458 30.3192 23.6009 30.5417C23.9584 30.7643 24.3573 30.8755 24.7976 30.8755C25.0391 30.8755 25.2711 30.8424 25.4936 30.7761C25.7162 30.7098 25.9186 30.6116 26.1009 30.4814C26.2855 30.3488 26.4418 30.1866 26.5696 29.9949C26.6998 29.8007 26.791 29.5782 26.8431 29.3272H27.7237C27.6575 29.6989 27.5367 30.0316 27.3615 30.3251C27.1863 30.6187 26.9685 30.8684 26.7081 31.0744C26.4477 31.278 26.1553 31.4331 25.831 31.5396C25.509 31.6461 25.1646 31.6994 24.7976 31.6994C24.1773 31.6994 23.6257 31.5479 23.1428 31.2449C22.6598 30.9418 22.2799 30.511 22.0029 29.9522C21.7259 29.3935 21.5874 28.7307 21.5874 27.9636C21.5874 27.1966 21.7259 26.5337 22.0029 25.975C22.2799 25.4163 22.6598 24.9854 23.1428 24.6824C23.6257 24.3793 24.1773 24.2278 24.7976 24.2278C25.1646 24.2278 25.509 24.2811 25.831 24.3876C26.1553 24.4942 26.4477 24.6504 26.7081 24.8564C26.9685 25.06 27.1863 25.3085 27.3615 25.6021C27.5367 25.8933 27.6575 26.2259 27.7237 26.6ZM29.0332 31.6V26.1454H29.8429V26.9693H29.8997C29.9991 26.6994 30.1791 26.4804 30.4395 26.3123C30.6999 26.1442 30.9935 26.0602 31.3202 26.0602C31.3817 26.0602 31.4586 26.0614 31.551 26.0638C31.6433 26.0661 31.7131 26.0697 31.7605 26.0744V26.9267C31.7321 26.9196 31.667 26.9089 31.5652 26.8947C31.4658 26.8781 31.3604 26.8699 31.2491 26.8699C30.984 26.8699 30.7472 26.9255 30.5389 27.0368C30.3329 27.1457 30.1696 27.2972 30.0488 27.4913C29.9305 27.6831 29.8713 27.9021 29.8713 28.1483V31.6H29.0332ZM34.8748 31.7136C34.3493 31.7136 33.8959 31.5976 33.5148 31.3656C33.136 31.1312 32.8436 30.8045 32.6376 30.3855C32.434 29.9641 32.3322 29.474 32.3322 28.9153C32.3322 28.3566 32.434 27.8642 32.6376 27.438C32.8436 27.0095 33.1301 26.6757 33.497 26.4366C33.8663 26.1951 34.2972 26.0744 34.7896 26.0744C35.0737 26.0744 35.3542 26.1218 35.6312 26.2165C35.9082 26.3111 36.1604 26.465 36.3876 26.6781C36.6149 26.8888 36.796 27.1682 36.931 27.5162C37.0659 27.8642 37.1334 28.2927 37.1334 28.8017V29.1568H32.9288V28.4324H36.2811C36.2811 28.1246 36.2195 27.85 36.0964 27.6085C35.9757 27.367 35.8029 27.1764 35.578 27.0368C35.3554 26.8971 35.0926 26.8272 34.7896 26.8272C34.4558 26.8272 34.167 26.9101 33.9231 27.0758C33.6817 27.2392 33.4958 27.4522 33.3656 27.715C33.2354 27.9778 33.1703 28.2595 33.1703 28.5602V29.0432C33.1703 29.4551 33.2413 29.8043 33.3834 30.0907C33.5278 30.3748 33.7278 30.5915 33.9835 30.7406C34.2392 30.8874 34.5363 30.9608 34.8748 30.9608C35.095 30.9608 35.2939 30.93 35.4714 30.8684C35.6514 30.8045 35.8064 30.7098 35.9366 30.5844C36.0668 30.4565 36.1675 30.2979 36.2385 30.1085L37.0481 30.3358C36.9629 30.6104 36.8197 30.8519 36.6185 31.0602C36.4172 31.2662 36.1686 31.4272 35.8727 31.5432C35.5768 31.6568 35.2442 31.7136 34.8748 31.7136ZM40.0133 31.7278C39.6677 31.7278 39.354 31.6627 39.0723 31.5325C38.7906 31.3999 38.5668 31.2094 38.4011 30.9608C38.2354 30.7098 38.1525 30.4068 38.1525 30.0517C38.1525 29.7392 38.2141 29.4859 38.3372 29.2917C38.4603 29.0952 38.6248 28.9414 38.8308 28.8301C39.0368 28.7188 39.264 28.636 39.5126 28.5815C39.7636 28.5247 40.0157 28.4797 40.269 28.4466C40.6005 28.404 40.8692 28.372 41.0751 28.3507C41.2835 28.327 41.435 28.2879 41.5297 28.2335C41.6267 28.179 41.6753 28.0844 41.6753 27.9494V27.921C41.6753 27.5706 41.5794 27.2984 41.3876 27.1042C41.1982 26.9101 40.9106 26.813 40.5247 26.813C40.1246 26.813 39.8109 26.9006 39.5836 27.0758C39.3564 27.251 39.1966 27.438 39.1042 27.6369L38.3088 27.3528C38.4508 27.0214 38.6402 26.7633 38.877 26.5787C39.1161 26.3916 39.3765 26.2614 39.6582 26.188C39.9423 26.1123 40.2217 26.0744 40.4963 26.0744C40.6715 26.0744 40.8727 26.0957 41.1 26.1383C41.3296 26.1786 41.551 26.2626 41.764 26.3905C41.9795 26.5183 42.1582 26.7112 42.3003 26.9693C42.4423 27.2273 42.5133 27.573 42.5133 28.0062V31.6H41.6753V30.8613H41.6327C41.5758 30.9797 41.4811 31.1064 41.3486 31.2413C41.216 31.3763 41.0396 31.4911 40.8194 31.5858C40.5993 31.6805 40.3306 31.7278 40.0133 31.7278ZM40.1412 30.975C40.4726 30.975 40.752 30.9099 40.9792 30.7797C41.2089 30.6495 41.3817 30.4814 41.4977 30.2754C41.6161 30.0694 41.6753 29.8528 41.6753 29.6255V28.8585C41.6398 28.9011 41.5616 28.9402 41.4409 28.9757C41.3225 29.0088 41.1852 29.0384 41.029 29.0645C40.8751 29.0881 40.7247 29.1094 40.578 29.1284C40.4336 29.145 40.3164 29.1592 40.2264 29.171C40.0086 29.1994 39.805 29.2456 39.6156 29.3095C39.4286 29.371 39.2771 29.4646 39.1611 29.59C39.0474 29.7131 38.9906 29.8812 38.9906 30.0943C38.9906 30.3855 39.0983 30.6057 39.3138 30.7548C39.5316 30.9016 39.8074 30.975 40.1412 30.975ZM46.4151 26.1454V26.8557H43.5884V26.1454H46.4151ZM44.4123 24.8386H45.2504V30.0375C45.2504 30.2742 45.2847 30.4518 45.3534 30.5701C45.4244 30.6861 45.5143 30.7643 45.6232 30.8045C45.7345 30.8424 45.8517 30.8613 45.9748 30.8613C46.0671 30.8613 46.1429 30.8566 46.2021 30.8471C46.2613 30.8353 46.3086 30.8258 46.3441 30.8187L46.5146 31.5716C46.4578 31.5929 46.3785 31.6142 46.2767 31.6355C46.1749 31.6592 46.0458 31.671 45.8896 31.671C45.6528 31.671 45.4208 31.6201 45.1936 31.5183C44.9687 31.4165 44.7816 31.2614 44.6325 31.0531C44.4857 30.8448 44.4123 30.582 44.4123 30.2647V24.8386ZM49.9041 31.7136C49.3786 31.7136 48.9252 31.5976 48.5441 31.3656C48.1653 31.1312 47.8729 30.8045 47.6669 30.3855C47.4633 29.9641 47.3615 29.474 47.3615 28.9153C47.3615 28.3566 47.4633 27.8642 47.6669 27.438C47.8729 27.0095 48.1593 26.6757 48.5263 26.4366C48.8956 26.1951 49.3265 26.0744 49.8189 26.0744C50.103 26.0744 50.3835 26.1218 50.6605 26.2165C50.9375 26.3111 51.1897 26.465 51.4169 26.6781C51.6442 26.8888 51.8253 27.1682 51.9602 27.5162C52.0952 27.8642 52.1627 28.2927 52.1627 28.8017V29.1568H47.9581V28.4324H51.3104C51.3104 28.1246 51.2488 27.85 51.1257 27.6085C51.005 27.367 50.8322 27.1764 50.6073 27.0368C50.3847 26.8971 50.1219 26.8272 49.8189 26.8272C49.4851 26.8272 49.1963 26.9101 48.9524 27.0758C48.711 27.2392 48.5251 27.4522 48.3949 27.715C48.2647 27.9778 48.1996 28.2595 48.1996 28.5602V29.0432C48.1996 29.4551 48.2706 29.8043 48.4127 30.0907C48.5571 30.3748 48.7571 30.5915 49.0128 30.7406C49.2685 30.8874 49.5656 30.9608 49.9041 30.9608C50.1243 30.9608 50.3232 30.93 50.5007 30.8684C50.6807 30.8045 50.8357 30.7098 50.9659 30.5844C51.0961 30.4565 51.1968 30.2979 51.2678 30.1085L52.0774 30.3358C51.9922 30.6104 51.849 30.8519 51.6477 31.0602C51.4465 31.2662 51.1979 31.4272 50.902 31.5432C50.6061 31.6568 50.2735 31.7136 49.9041 31.7136ZM57.3012 27.367L56.5483 27.5801C56.501 27.4546 56.4311 27.3327 56.3388 27.2143C56.2488 27.0936 56.1257 26.9942 55.9695 26.916C55.8132 26.8379 55.6132 26.7988 55.3693 26.7988C55.0355 26.7988 54.7574 26.8758 54.5348 27.0297C54.3147 27.1812 54.2046 27.3741 54.2046 27.6085C54.2046 27.8168 54.2803 27.9814 54.4318 28.1021C54.5834 28.2228 54.8201 28.3235 55.1421 28.404L55.9517 28.6028C56.4394 28.7212 56.8028 28.9023 57.0419 29.1461C57.281 29.3876 57.4006 29.6989 57.4006 30.0801C57.4006 30.3926 57.3106 30.6719 57.1307 30.9182C56.9531 31.1644 56.7046 31.3585 56.385 31.5005C56.0654 31.6426 55.6937 31.7136 55.2699 31.7136C54.7136 31.7136 54.2531 31.5929 53.8885 31.3514C53.5239 31.1099 53.2931 30.7572 53.196 30.2932L53.9915 30.0943C54.0673 30.3879 54.2105 30.608 54.4212 30.7548C54.6343 30.9016 54.9124 30.975 55.2557 30.975C55.6463 30.975 55.9565 30.8921 56.1861 30.7264C56.4181 30.5583 56.5341 30.3571 56.5341 30.1227C56.5341 29.9333 56.4678 29.7747 56.3352 29.6469C56.2027 29.5166 55.9991 29.4196 55.7245 29.3557L54.8154 29.1426C54.3158 29.0242 53.9489 28.8407 53.7145 28.5922C53.4825 28.3412 53.3665 28.0275 53.3665 27.6511C53.3665 27.3433 53.4529 27.0711 53.6257 26.8344C53.8009 26.5976 54.0388 26.4118 54.3395 26.2768C54.6425 26.1419 54.9858 26.0744 55.3693 26.0744C55.9091 26.0744 56.3329 26.1928 56.6406 26.4295C56.9508 26.6663 57.1709 26.9788 57.3012 27.367ZM63.0797 31.7278C62.7341 31.7278 62.4204 31.6627 62.1387 31.5325C61.857 31.3999 61.6332 31.2094 61.4675 30.9608C61.3018 30.7098 61.2189 30.4068 61.2189 30.0517C61.2189 29.7392 61.2805 29.4859 61.4036 29.2917C61.5267 29.0952 61.6912 28.9414 61.8972 28.8301C62.1032 28.7188 62.3305 28.636 62.579 28.5815C62.83 28.5247 63.0821 28.4797 63.3354 28.4466C63.6669 28.404 63.9356 28.372 64.1415 28.3507C64.3499 28.327 64.5014 28.2879 64.5961 28.2335C64.6931 28.179 64.7417 28.0844 64.7417 27.9494V27.921C64.7417 27.5706 64.6458 27.2984 64.454 27.1042C64.2646 26.9101 63.977 26.813 63.5911 26.813C63.191 26.813 62.8773 26.9006 62.6501 27.0758C62.4228 27.251 62.263 27.438 62.1707 27.6369L61.3752 27.3528C61.5172 27.0214 61.7066 26.7633 61.9434 26.5787C62.1825 26.3916 62.4429 26.2614 62.7246 26.188C63.0087 26.1123 63.2881 26.0744 63.5627 26.0744C63.7379 26.0744 63.9391 26.0957 64.1664 26.1383C64.396 26.1786 64.6174 26.2626 64.8305 26.3905C65.0459 26.5183 65.2246 26.7112 65.3667 26.9693C65.5087 27.2273 65.5797 27.573 65.5797 28.0062V31.6H64.7417V30.8613H64.6991C64.6422 30.9797 64.5475 31.1064 64.415 31.2413C64.2824 31.3763 64.106 31.4911 63.8859 31.5858C63.6657 31.6805 63.397 31.7278 63.0797 31.7278ZM63.2076 30.975C63.539 30.975 63.8184 30.9099 64.0457 30.7797C64.2753 30.6495 64.4481 30.4814 64.5641 30.2754C64.6825 30.0694 64.7417 29.8528 64.7417 29.6255V28.8585C64.7062 28.9011 64.628 28.9402 64.5073 28.9757C64.3889 29.0088 64.2516 29.0384 64.0954 29.0645C63.9415 29.0881 63.7912 29.1094 63.6444 29.1284C63.5 29.145 63.3828 29.1592 63.2928 29.171C63.075 29.1994 62.8714 29.2456 62.682 29.3095C62.495 29.371 62.3435 29.4646 62.2275 29.59C62.1138 29.7131 62.057 29.8812 62.057 30.0943C62.057 30.3855 62.1647 30.6057 62.3802 30.7548C62.598 30.9016 62.8738 30.975 63.2076 30.975ZM70.76 24.3272V31.6H69.9219V24.3272H70.76ZM72.2949 31.6V26.1454H73.133V31.6H72.2949ZM72.7211 25.2363C72.5577 25.2363 72.4169 25.1807 72.2985 25.0694C72.1825 24.9582 72.1245 24.8244 72.1245 24.6682C72.1245 24.5119 72.1825 24.3781 72.2985 24.2669C72.4169 24.1556 72.5577 24.1 72.7211 24.1C72.8844 24.1 73.0241 24.1556 73.1401 24.2669C73.2585 24.3781 73.3177 24.5119 73.3177 24.6682C73.3177 24.8244 73.2585 24.9582 73.1401 25.0694C73.0241 25.1807 72.8844 25.2363 72.7211 25.2363ZM75.5061 28.3187V31.6H74.668V26.1454H75.4776V26.9977H75.5487C75.6765 26.7207 75.8706 26.4982 76.1311 26.3301C76.3915 26.1596 76.7276 26.0744 77.1396 26.0744C77.5089 26.0744 77.8321 26.1502 78.109 26.3017C78.386 26.4508 78.6015 26.6781 78.7553 26.9835C78.9092 27.2865 78.9862 27.6701 78.9862 28.1341V31.6H78.1481V28.1909C78.1481 27.7624 78.0368 27.4286 77.8143 27.1895C77.5918 26.948 77.2864 26.8272 76.8981 26.8272C76.6306 26.8272 76.3915 26.8852 76.1808 27.0013C75.9724 27.1173 75.8079 27.2865 75.6872 27.5091C75.5664 27.7316 75.5061 28.0015 75.5061 28.3187ZM81.2988 29.6113L81.2846 28.5744H81.4551L83.8415 26.1454H84.8784L82.3358 28.7165H82.2648L81.2988 29.6113ZM80.5176 31.6V24.3272H81.3557V31.6H80.5176ZM83.9835 31.6L81.8528 28.9011L82.4494 28.3187L85.0488 31.6H83.9835ZM88.8832 31.6V24.3272H89.7213V27.0119H89.7923C89.8538 26.9172 89.9391 26.7965 90.048 26.6497C90.1592 26.5005 90.3178 26.368 90.5238 26.252C90.7321 26.1336 91.0139 26.0744 91.369 26.0744C91.8283 26.0744 92.2331 26.1892 92.5835 26.4189C92.9338 26.6485 93.2073 26.974 93.4038 27.3954C93.6003 27.8168 93.6985 28.314 93.6985 28.8869C93.6985 29.4646 93.6003 29.9653 93.4038 30.389C93.2073 30.8104 92.935 31.1371 92.587 31.3692C92.239 31.5988 91.8377 31.7136 91.3832 31.7136C91.0328 31.7136 90.7523 31.6556 90.5416 31.5396C90.3309 31.4212 90.1687 31.2875 90.0551 31.1383C89.9414 30.9868 89.8538 30.8613 89.7923 30.7619H89.6928V31.6H88.8832ZM89.707 28.8727C89.707 29.2846 89.7674 29.648 89.8882 29.9629C90.0089 30.2754 90.1853 30.5204 90.4173 30.698C90.6493 30.8732 90.9334 30.9608 91.2695 30.9608C91.6199 30.9608 91.9123 30.8684 92.1467 30.6838C92.3834 30.4968 92.561 30.2458 92.6793 29.9309C92.8001 29.6137 92.8605 29.261 92.8605 28.8727C92.8605 28.4892 92.8013 28.1435 92.6829 27.8358C92.5669 27.5256 92.3905 27.2806 92.1538 27.1007C91.9194 26.9184 91.6247 26.8272 91.2695 26.8272C90.9286 26.8272 90.6422 26.9137 90.4102 27.0865C90.1782 27.2569 90.003 27.496 89.8846 27.8038C89.7662 28.1092 89.707 28.4655 89.707 28.8727ZM97.2674 31.7136C96.7418 31.7136 96.2885 31.5976 95.9073 31.3656C95.5285 31.1312 95.2362 30.8045 95.0302 30.3855C94.8266 29.9641 94.7248 29.474 94.7248 28.9153C94.7248 28.3566 94.8266 27.8642 95.0302 27.438C95.2362 27.0095 95.5226 26.6757 95.8896 26.4366C96.2589 26.1951 96.6898 26.0744 97.1822 26.0744C97.4663 26.0744 97.7468 26.1218 98.0238 26.2165C98.3008 26.3111 98.5529 26.465 98.7802 26.6781C99.0075 26.8888 99.1886 27.1682 99.3235 27.5162C99.4585 27.8642 99.5259 28.2927 99.5259 28.8017V29.1568H95.3214V28.4324H98.6737C98.6737 28.1246 98.6121 27.85 98.489 27.6085C98.3683 27.367 98.1954 27.1764 97.9705 27.0368C97.748 26.8971 97.4852 26.8272 97.1822 26.8272C96.8484 26.8272 96.5596 26.9101 96.3157 27.0758C96.0742 27.2392 95.8884 27.4522 95.7582 27.715C95.628 27.9778 95.5629 28.2595 95.5629 28.5602V29.0432C95.5629 29.4551 95.6339 29.8043 95.7759 30.0907C95.9204 30.3748 96.1204 30.5915 96.3761 30.7406C96.6318 30.8874 96.9289 30.9608 97.2674 30.9608C97.4876 30.9608 97.6865 30.93 97.864 30.8684C98.0439 30.8045 98.199 30.7098 98.3292 30.5844C98.4594 30.4565 98.56 30.2979 98.6311 30.1085L99.4407 30.3358C99.3555 30.6104 99.2123 30.8519 99.011 31.0602C98.8098 31.2662 98.5612 31.4272 98.2653 31.5432C97.9694 31.6568 97.6367 31.7136 97.2674 31.7136ZM103.173 26.1454V26.8557H100.346V26.1454H103.173ZM101.17 24.8386H102.008V30.0375C102.008 30.2742 102.043 30.4518 102.111 30.5701C102.182 30.6861 102.272 30.7643 102.381 30.8045C102.492 30.8424 102.61 30.8613 102.733 30.8613C102.825 30.8613 102.901 30.8566 102.96 30.8471C103.019 30.8353 103.066 30.8258 103.102 30.8187L103.272 31.5716C103.216 31.5929 103.136 31.6142 103.034 31.6355C102.933 31.6592 102.804 31.671 102.647 31.671C102.411 31.671 102.179 31.6201 101.951 31.5183C101.726 31.4165 101.539 31.2614 101.39 31.0531C101.244 30.8448 101.17 30.582 101.17 30.2647V24.8386ZM105.669 31.6L104.007 26.1454H104.888L106.067 30.3216H106.124L107.289 26.1454H108.184L109.334 30.3074H109.391L110.57 26.1454H111.451L109.789 31.6H108.965L107.772 27.4096H107.686L106.493 31.6H105.669ZM114.66 31.7136C114.134 31.7136 113.681 31.5976 113.3 31.3656C112.921 31.1312 112.629 30.8045 112.423 30.3855C112.219 29.9641 112.117 29.474 112.117 28.9153C112.117 28.3566 112.219 27.8642 112.423 27.438C112.629 27.0095 112.915 26.6757 113.282 26.4366C113.651 26.1951 114.082 26.0744 114.575 26.0744C114.859 26.0744 115.139 26.1218 115.416 26.2165C115.693 26.3111 115.946 26.465 116.173 26.6781C116.4 26.8888 116.581 27.1682 116.716 27.5162C116.851 27.8642 116.919 28.2927 116.919 28.8017V29.1568H112.714V28.4324H116.066C116.066 28.1246 116.005 27.85 115.882 27.6085C115.761 27.367 115.588 27.1764 115.363 27.0368C115.141 26.8971 114.878 26.8272 114.575 26.8272C114.241 26.8272 113.952 26.9101 113.708 27.0758C113.467 27.2392 113.281 27.4522 113.151 27.715C113.021 27.9778 112.955 28.2595 112.955 28.5602V29.0432C112.955 29.4551 113.026 29.8043 113.169 30.0907C113.313 30.3748 113.513 30.5915 113.769 30.7406C114.024 30.8874 114.321 30.9608 114.66 30.9608C114.88 30.9608 115.079 30.93 115.257 30.8684C115.437 30.8045 115.592 30.7098 115.722 30.5844C115.852 30.4565 115.953 30.2979 116.024 30.1085L116.833 30.3358C116.748 30.6104 116.605 30.8519 116.404 31.0602C116.202 31.2662 115.954 31.4272 115.658 31.5432C115.362 31.6568 115.029 31.7136 114.66 31.7136ZM120.48 31.7136C119.955 31.7136 119.501 31.5976 119.12 31.3656C118.741 31.1312 118.449 30.8045 118.243 30.3855C118.039 29.9641 117.938 29.474 117.938 28.9153C117.938 28.3566 118.039 27.8642 118.243 27.438C118.449 27.0095 118.736 26.6757 119.102 26.4366C119.472 26.1951 119.903 26.0744 120.395 26.0744C120.679 26.0744 120.96 26.1218 121.237 26.2165C121.514 26.3111 121.766 26.465 121.993 26.6781C122.22 26.8888 122.401 27.1682 122.536 27.5162C122.671 27.8642 122.739 28.2927 122.739 28.8017V29.1568H118.534V28.4324H121.887C121.887 28.1246 121.825 27.85 121.702 27.6085C121.581 27.367 121.408 27.1764 121.183 27.0368C120.961 26.8971 120.698 26.8272 120.395 26.8272C120.061 26.8272 119.772 26.9101 119.529 27.0758C119.287 27.2392 119.101 27.4522 118.971 27.715C118.841 27.9778 118.776 28.2595 118.776 28.5602V29.0432C118.776 29.4551 118.847 29.8043 118.989 30.0907C119.133 30.3748 119.333 30.5915 119.589 30.7406C119.845 30.8874 120.142 30.9608 120.48 30.9608C120.7 30.9608 120.899 30.93 121.077 30.8684C121.257 30.8045 121.412 30.7098 121.542 30.5844C121.672 30.4565 121.773 30.2979 121.844 30.1085L122.654 30.3358C122.568 30.6104 122.425 30.8519 122.224 31.0602C122.023 31.2662 121.774 31.4272 121.478 31.5432C121.182 31.6568 120.85 31.7136 120.48 31.7136ZM124.852 28.3187V31.6H124.014V26.1454H124.823V26.9977H124.894C125.022 26.7207 125.216 26.4982 125.477 26.3301C125.737 26.1596 126.073 26.0744 126.485 26.0744C126.855 26.0744 127.178 26.1502 127.455 26.3017C127.732 26.4508 127.947 26.6781 128.101 26.9835C128.255 27.2865 128.332 27.6701 128.332 28.1341V31.6H127.494V28.1909C127.494 27.7624 127.383 27.4286 127.16 27.1895C126.937 26.948 126.632 26.8272 126.244 26.8272C125.976 26.8272 125.737 26.8852 125.526 27.0013C125.318 27.1173 125.154 27.2865 125.033 27.5091C124.912 27.7316 124.852 28.0015 124.852 28.3187ZM62.1125 40.3187V43.6H61.2744V38.1454H62.0841V38.9977H62.1551C62.283 38.7207 62.4771 38.4982 62.7375 38.3301C62.9979 38.1596 63.3341 38.0744 63.746 38.0744C64.1153 38.0744 64.4385 38.1502 64.7155 38.3017C64.9925 38.4508 65.2079 38.6781 65.3618 38.9835C65.5157 39.2865 65.5926 39.6701 65.5926 40.1341V43.6H64.7545V40.1909C64.7545 39.7624 64.6433 39.4286 64.4207 39.1895C64.1982 38.948 63.8928 38.8272 63.5045 38.8272C63.237 38.8272 62.9979 38.8852 62.7872 39.0013C62.5789 39.1173 62.4143 39.2865 62.2936 39.5091C62.1729 39.7316 62.1125 40.0015 62.1125 40.3187ZM69.34 43.7136C68.8475 43.7136 68.4155 43.5964 68.0438 43.362C67.6745 43.1277 67.3856 42.7998 67.1773 42.3784C66.9713 41.957 66.8684 41.4646 66.8684 40.9011C66.8684 40.3329 66.9713 39.837 67.1773 39.4132C67.3856 38.9894 67.6745 38.6603 68.0438 38.426C68.4155 38.1916 68.8475 38.0744 69.34 38.0744C69.8324 38.0744 70.2632 38.1916 70.6326 38.426C71.0043 38.6603 71.2931 38.9894 71.499 39.4132C71.7074 39.837 71.8115 40.3329 71.8115 40.9011C71.8115 41.4646 71.7074 41.957 71.499 42.3784C71.2931 42.7998 71.0043 43.1277 70.6326 43.362C70.2632 43.5964 69.8324 43.7136 69.34 43.7136ZM69.34 42.9608C69.714 42.9608 70.0218 42.8649 70.2632 42.6731C70.5047 42.4814 70.6835 42.2292 70.7995 41.9167C70.9155 41.6042 70.9735 41.2657 70.9735 40.9011C70.9735 40.5365 70.9155 40.1968 70.7995 39.8819C70.6835 39.5671 70.5047 39.3126 70.2632 39.1184C70.0218 38.9243 69.714 38.8272 69.34 38.8272C68.9659 38.8272 68.6581 38.9243 68.4167 39.1184C68.1752 39.3126 67.9964 39.5671 67.8804 39.8819C67.7644 40.1968 67.7064 40.5365 67.7064 40.9011C67.7064 41.2657 67.7644 41.6042 67.8804 41.9167C67.9964 42.2292 68.1752 42.4814 68.4167 42.6731C68.6581 42.8649 68.9659 42.9608 69.34 42.9608ZM75.1505 43.7136C74.696 43.7136 74.2947 43.5988 73.9467 43.3692C73.5987 43.1371 73.3264 42.8104 73.1299 42.389C72.9334 41.9653 72.8352 41.4646 72.8352 40.8869C72.8352 40.314 72.9334 39.8168 73.1299 39.3954C73.3264 38.974 73.5998 38.6485 73.9502 38.4189C74.3006 38.1892 74.7054 38.0744 75.1647 38.0744C75.5198 38.0744 75.8004 38.1336 76.0063 38.252C76.2147 38.368 76.3733 38.5005 76.4822 38.6497C76.5934 38.7965 76.6799 38.9172 76.7414 39.0119H76.8124V36.3272H77.6505V43.6H76.8408V42.7619H76.7414C76.6799 42.8613 76.5923 42.9868 76.4786 43.1383C76.365 43.2875 76.2028 43.4212 75.9921 43.5396C75.7814 43.6556 75.5009 43.7136 75.1505 43.7136ZM75.2641 42.9608C75.6003 42.9608 75.8844 42.8732 76.1164 42.698C76.3484 42.5204 76.5248 42.2754 76.6455 41.9629C76.7663 41.648 76.8266 41.2846 76.8266 40.8727C76.8266 40.4655 76.7675 40.1092 76.6491 39.8038C76.5307 39.496 76.3555 39.2569 76.1235 39.0865C75.8915 38.9137 75.605 38.8272 75.2641 38.8272C74.909 38.8272 74.6131 38.9184 74.3764 39.1007C74.142 39.2806 73.9656 39.5256 73.8472 39.8358C73.7312 40.1435 73.6732 40.4892 73.6732 40.8727C73.6732 41.261 73.7324 41.6137 73.8508 41.9309C73.9715 42.2458 74.1491 42.4968 74.3835 42.6838C74.6202 42.8684 74.9138 42.9608 75.2641 42.9608ZM81.5887 43.7136C81.0631 43.7136 80.6098 43.5976 80.2286 43.3656C79.8498 43.1312 79.5575 42.8045 79.3515 42.3855C79.1479 41.9641 79.0461 41.474 79.0461 40.9153C79.0461 40.3566 79.1479 39.8642 79.3515 39.438C79.5575 39.0095 79.8439 38.6757 80.2109 38.4366C80.5802 38.1951 81.0111 38.0744 81.5035 38.0744C81.7876 38.0744 82.0681 38.1218 82.3451 38.2165C82.6221 38.3111 82.8742 38.465 83.1015 38.6781C83.3288 38.8888 83.5099 39.1682 83.6448 39.5162C83.7798 39.8642 83.8472 40.2927 83.8472 40.8017V41.1568H79.6427V40.4324H82.995C82.995 40.1246 82.9334 39.85 82.8103 39.6085C82.6896 39.367 82.5167 39.1764 82.2918 39.0368C82.0693 38.8971 81.8065 38.8272 81.5035 38.8272C81.1697 38.8272 80.8809 38.9101 80.637 39.0758C80.3955 39.2392 80.2097 39.4522 80.0795 39.715C79.9493 39.9778 79.8842 40.2595 79.8842 40.5602V41.0432C79.8842 41.4551 79.9552 41.8043 80.0972 42.0907C80.2416 42.3748 80.4417 42.5915 80.6974 42.7406C80.9531 42.8874 81.2502 42.9608 81.5887 42.9608C81.8089 42.9608 82.0077 42.93 82.1853 42.8684C82.3652 42.8045 82.5203 42.7098 82.6505 42.5844C82.7807 42.4565 82.8813 42.2979 82.9523 42.1085L83.762 42.3358C83.6768 42.6104 83.5335 42.8519 83.3323 43.0602C83.1311 43.2662 82.8825 43.4272 82.5866 43.5432C82.2907 43.6568 81.958 43.7136 81.5887 43.7136ZM88.9857 39.367L88.2329 39.5801C88.1855 39.4546 88.1157 39.3327 88.0234 39.2143C87.9334 39.0936 87.8103 38.9942 87.654 38.916C87.4978 38.8379 87.2977 38.7988 87.0539 38.7988C86.7201 38.7988 86.4419 38.8758 86.2194 39.0297C85.9992 39.1812 85.8891 39.3741 85.8891 39.6085C85.8891 39.8168 85.9649 39.9814 86.1164 40.1021C86.2679 40.2228 86.5047 40.3235 86.8266 40.404L87.6363 40.6028C88.124 40.7212 88.4874 40.9023 88.7265 41.1461C88.9656 41.3876 89.0852 41.6989 89.0852 42.0801C89.0852 42.3926 88.9952 42.6719 88.8153 42.9182C88.6377 43.1644 88.3891 43.3585 88.0695 43.5005C87.7499 43.6426 87.3782 43.7136 86.9545 43.7136C86.3981 43.7136 85.9377 43.5929 85.5731 43.3514C85.2085 43.1099 84.9777 42.7572 84.8806 42.2932L85.6761 42.0943C85.7518 42.3879 85.8951 42.608 86.1058 42.7548C86.3188 42.9016 86.597 42.975 86.9403 42.975C87.3309 42.975 87.641 42.8921 87.8707 42.7264C88.1027 42.5583 88.2187 42.3571 88.2187 42.1227C88.2187 41.9333 88.1524 41.7747 88.0198 41.6469C87.8872 41.5166 87.6836 41.4196 87.409 41.3557L86.4999 41.1426C86.0004 41.0242 85.6335 40.8407 85.3991 40.5922C85.1671 40.3412 85.0511 40.0275 85.0511 39.6511C85.0511 39.3433 85.1375 39.0711 85.3103 38.8344C85.4855 38.5976 85.7234 38.4118 86.0241 38.2768C86.3271 38.1419 86.6704 38.0744 87.0539 38.0744C87.5937 38.0744 88.0174 38.1928 88.3252 38.4295C88.6353 38.6663 88.8555 38.9788 88.9857 39.367Z" fill="white"/>
<path d="M11.375 15.0216C11.3697 15.889 10.1327 16.0406 9.91952 15.2L9.48824 13.6L9.05695 12.4L8.19439 10.4L7.33182 8.39999L6.46925 6.39999L5.60668 4.79999L4.74411 3.59999L3.99839 2.56254C3.92068 2.45444 3.83237 2.35438 3.73476 2.26386L2.65321 1.26076C2.60977 1.22047 2.56062 1.18679 2.50735 1.16082C1.9301 0.879381 2.13369 0.0105085 2.7761 0.0138763L9.46622 0.0489487C10.5708 0.0547393 11.4607 0.954846 11.454 2.0594L11.375 15.0216Z" fill="#3D3D3D"/>
<path d="M61.9995 13V5H67.0151V6.03906H63.2065V8.47656H66.7534V9.51172H63.2065V11.9609H67.062V13H61.9995ZM70.7798 13.1172C70.2954 13.1172 69.8631 12.9935 69.4829 12.7461C69.1053 12.4961 68.8084 12.1406 68.5923 11.6797C68.3787 11.2161 68.272 10.6602 68.272 10.0117C68.272 9.36328 68.38 8.80859 68.5962 8.34766C68.8149 7.88672 69.1144 7.53385 69.4946 7.28906C69.8748 7.04427 70.3058 6.92188 70.7876 6.92188C71.16 6.92188 71.4595 6.98438 71.686 7.10937C71.9152 7.23177 72.0923 7.375 72.2173 7.53906C72.3449 7.70312 72.4438 7.84766 72.5142 7.97266H72.5845V5H73.7524V13H72.6118V12.0664H72.5142C72.4438 12.194 72.3423 12.3398 72.2095 12.5039C72.0793 12.668 71.8996 12.8112 71.6704 12.9336C71.4412 13.056 71.1444 13.1172 70.7798 13.1172ZM71.0376 12.1211C71.3735 12.1211 71.6574 12.0326 71.8892 11.8555C72.1235 11.6758 72.3006 11.4271 72.4204 11.1094C72.5428 10.7917 72.604 10.4219 72.604 10C72.604 9.58333 72.5441 9.21875 72.4243 8.90625C72.3045 8.59375 72.1287 8.35026 71.897 8.17578C71.6652 8.0013 71.3787 7.91406 71.0376 7.91406C70.686 7.91406 70.3931 8.00521 70.1587 8.1875C69.9243 8.36979 69.7472 8.61849 69.6274 8.93359C69.5103 9.2487 69.4517 9.60417 69.4517 10C69.4517 10.401 69.5116 10.7617 69.6313 11.082C69.7511 11.4023 69.9282 11.6562 70.1626 11.8437C70.3996 12.0286 70.6912 12.1211 71.0376 12.1211ZM77.9351 15.375C77.4585 15.375 77.0483 15.3125 76.7046 15.1875C76.3634 15.0625 76.0848 14.8971 75.8687 14.6914C75.6525 14.4857 75.491 14.2604 75.3843 14.0156L76.3882 13.6016C76.4585 13.7161 76.5522 13.8372 76.6694 13.9648C76.7892 14.0951 76.9507 14.2057 77.1538 14.2969C77.3595 14.388 77.6239 14.4336 77.9468 14.4336C78.3895 14.4336 78.7554 14.3255 79.0444 14.1094C79.3335 13.8958 79.478 13.5547 79.478 13.0859V11.9062H79.4038C79.3335 12.0339 79.2319 12.1758 79.0991 12.332C78.9689 12.4883 78.7892 12.6237 78.5601 12.7383C78.3309 12.8529 78.0327 12.9102 77.6655 12.9102C77.1916 12.9102 76.7645 12.7995 76.3843 12.5781C76.0067 12.3542 75.7072 12.0247 75.4858 11.5898C75.2671 11.1523 75.1577 10.6146 75.1577 9.97656C75.1577 9.33854 75.2658 8.79167 75.4819 8.33594C75.7007 7.88021 76.0002 7.53125 76.3804 7.28906C76.7606 7.04427 77.1916 6.92188 77.6733 6.92188C78.0457 6.92188 78.3465 6.98438 78.5757 7.10937C78.8049 7.23177 78.9832 7.375 79.1108 7.53906C79.241 7.70312 79.3413 7.84766 79.4116 7.97266H79.4976V7H80.6421V13.1328C80.6421 13.6484 80.5223 14.0716 80.2827 14.4023C80.0431 14.7331 79.7189 14.9779 79.3101 15.1367C78.9038 15.2956 78.4455 15.375 77.9351 15.375ZM77.9233 11.9414C78.2593 11.9414 78.5431 11.8633 78.7749 11.707C79.0093 11.5482 79.1864 11.3216 79.3062 11.0273C79.4285 10.7305 79.4897 10.375 79.4897 9.96094C79.4897 9.55729 79.4299 9.20182 79.3101 8.89453C79.1903 8.58724 79.0145 8.34766 78.7827 8.17578C78.5509 8.0013 78.2645 7.91406 77.9233 7.91406C77.5718 7.91406 77.2788 8.00521 77.0444 8.1875C76.8101 8.36719 76.633 8.61198 76.5132 8.92187C76.396 9.23177 76.3374 9.57812 76.3374 9.96094C76.3374 10.3542 76.3973 10.6992 76.5171 10.9961C76.6369 11.293 76.814 11.5247 77.0483 11.6914C77.2853 11.8581 77.577 11.9414 77.9233 11.9414ZM84.7944 13.1211C84.2033 13.1211 83.6942 12.9948 83.2671 12.7422C82.8426 12.487 82.5145 12.1289 82.2827 11.668C82.0535 11.2044 81.939 10.6615 81.939 10.0391C81.939 9.42448 82.0535 8.88281 82.2827 8.41406C82.5145 7.94531 82.8374 7.57943 83.2515 7.31641C83.6681 7.05339 84.1551 6.92188 84.7124 6.92188C85.0509 6.92188 85.3791 6.97786 85.6968 7.08984C86.0145 7.20182 86.2996 7.3776 86.5522 7.61719C86.8049 7.85677 87.0041 8.16797 87.1499 8.55078C87.2957 8.93099 87.3687 9.39323 87.3687 9.9375V10.3516H82.5991V9.47656H86.2241C86.2241 9.16927 86.1616 8.89714 86.0366 8.66016C85.9116 8.42057 85.7358 8.23177 85.5093 8.09375C85.2853 7.95573 85.0223 7.88672 84.7202 7.88672C84.3921 7.88672 84.1056 7.96745 83.8608 8.12891C83.6187 8.28776 83.4312 8.49609 83.2983 8.75391C83.1681 9.00911 83.103 9.28646 83.103 9.58594V10.2695C83.103 10.6706 83.1733 11.0117 83.314 11.293C83.4572 11.5742 83.6564 11.7891 83.9116 11.9375C84.1668 12.0833 84.465 12.1562 84.8062 12.1562C85.0275 12.1562 85.2293 12.125 85.4116 12.0625C85.5939 11.9974 85.7515 11.901 85.8843 11.7734C86.0171 11.6458 86.1187 11.4883 86.189 11.3008L87.2944 11.5C87.2059 11.8255 87.047 12.1107 86.8179 12.3555C86.5913 12.5977 86.3062 12.7865 85.9624 12.9219C85.6213 13.0547 85.2319 13.1211 84.7944 13.1211Z" fill="white"/>
</svg>
