<svg width="139" height="52" viewBox="0 0 139 52" fill="none" xmlns="http://www.w3.org/2000/svg">
<path d="M9.61469 0H134C136.761 0 139 2.23858 139 5V47C139 49.7614 136.761 52 134 52H14.6147C11.8533 52 9.61469 49.7614 9.61469 47V0Z" fill="#3D3D3D"/>
<path d="M28.0145 31.6H27.0912L29.7617 24.3272H30.6707L33.3412 31.6H32.4179L30.2446 25.4778H30.1878L28.0145 31.6ZM28.3554 28.7591H32.077V29.5403H28.3554V28.7591ZM36.42 31.7136C35.9655 31.7136 35.5642 31.5988 35.2162 31.3692C34.8682 31.1371 34.5959 30.8104 34.3994 30.389C34.2029 29.9653 34.1047 29.4646 34.1047 28.8869C34.1047 28.314 34.2029 27.8168 34.3994 27.3954C34.5959 26.974 34.8694 26.6485 35.2197 26.4189C35.5701 26.1892 35.975 26.0744 36.4342 26.0744C36.7893 26.0744 37.0699 26.1336 37.2759 26.252C37.4842 26.368 37.6428 26.5005 37.7517 26.6497C37.863 26.7965 37.9494 26.9172 38.0109 27.0119H38.082V24.3272H38.92V31.6H38.1104V30.7619H38.0109C37.9494 30.8613 37.8618 30.9868 37.7482 31.1383C37.6345 31.2875 37.4724 31.4212 37.2617 31.5396C37.0509 31.6556 36.7704 31.7136 36.42 31.7136ZM36.5337 30.9608C36.8698 30.9608 37.1539 30.8732 37.3859 30.698C37.6179 30.5204 37.7943 30.2754 37.9151 29.9629C38.0358 29.648 38.0962 29.2846 38.0962 28.8727C38.0962 28.4655 38.037 28.1092 37.9186 27.8038C37.8002 27.496 37.6251 27.2569 37.393 27.0865C37.161 26.9137 36.8746 26.8272 36.5337 26.8272C36.1786 26.8272 35.8826 26.9184 35.6459 27.1007C35.4115 27.2806 35.2351 27.5256 35.1168 27.8358C35.0008 28.1435 34.9428 28.4892 34.9428 28.8727C34.9428 29.261 35.0019 29.6137 35.1203 29.9309C35.2411 30.2458 35.4186 30.4968 35.653 30.6838C35.8897 30.8684 36.1833 30.9608 36.5337 30.9608ZM42.631 31.7136C42.1764 31.7136 41.7751 31.5988 41.4271 31.3692C41.0791 31.1371 40.8069 30.8104 40.6104 30.389C40.4139 29.9653 40.3156 29.4646 40.3156 28.8869C40.3156 28.314 40.4139 27.8168 40.6104 27.3954C40.8069 26.974 41.0803 26.6485 41.4307 26.4189C41.7811 26.1892 42.1859 26.0744 42.6452 26.0744C43.0003 26.0744 43.2808 26.1336 43.4868 26.252C43.6951 26.368 43.8537 26.5005 43.9626 26.6497C44.0739 26.7965 44.1603 26.9172 44.2219 27.0119H44.2929V24.3272H45.131V31.6H44.3213V30.7619H44.2219C44.1603 30.8613 44.0727 30.9868 43.9591 31.1383C43.8455 31.2875 43.6833 31.4212 43.4726 31.5396C43.2619 31.6556 42.9813 31.7136 42.631 31.7136ZM42.7446 30.9608C43.0808 30.9608 43.3649 30.8732 43.5969 30.698C43.8289 30.5204 44.0053 30.2754 44.126 29.9629C44.2467 29.648 44.3071 29.2846 44.3071 28.8727C44.3071 28.4655 44.2479 28.1092 44.1295 27.8038C44.0112 27.496 43.836 27.2569 43.604 27.0865C43.372 26.9137 43.0855 26.8272 42.7446 26.8272C42.3895 26.8272 42.0936 26.9184 41.8568 27.1007C41.6224 27.2806 41.4461 27.5256 41.3277 27.8358C41.2117 28.1435 41.1537 28.4892 41.1537 28.8727C41.1537 29.261 41.2129 29.6137 41.3313 29.9309C41.452 30.2458 41.6295 30.4968 41.8639 30.6838C42.1007 30.8684 42.3942 30.9608 42.7446 30.9608ZM50.4328 28.3187V31.6H49.5947V26.1454H50.4044V26.9977H50.4754C50.6033 26.7207 50.7974 26.4982 51.0578 26.3301C51.3182 26.1596 51.6544 26.0744 52.0663 26.0744C52.4357 26.0744 52.7588 26.1502 53.0358 26.3017C53.3128 26.4508 53.5282 26.6781 53.6821 26.9835C53.836 27.2865 53.9129 27.6701 53.9129 28.1341V31.6H53.0749V28.1909C53.0749 27.7624 52.9636 27.4286 52.7411 27.1895C52.5185 26.948 52.2131 26.8272 51.8249 26.8272C51.5573 26.8272 51.3182 26.8852 51.1075 27.0013C50.8992 27.1173 50.7347 27.2865 50.6139 27.5091C50.4932 27.7316 50.4328 28.0015 50.4328 28.3187ZM57.6603 31.7136C57.1678 31.7136 56.7358 31.5964 56.3641 31.362C55.9948 31.1277 55.706 30.7998 55.4976 30.3784C55.2917 29.957 55.1887 29.4646 55.1887 28.9011C55.1887 28.3329 55.2917 27.837 55.4976 27.4132C55.706 26.9894 55.9948 26.6603 56.3641 26.426C56.7358 26.1916 57.1678 26.0744 57.6603 26.0744C58.1527 26.0744 58.5836 26.1916 58.9529 26.426C59.3246 26.6603 59.6134 26.9894 59.8194 27.4132C60.0277 27.837 60.1319 28.3329 60.1319 28.9011C60.1319 29.4646 60.0277 29.957 59.8194 30.3784C59.6134 30.7998 59.3246 31.1277 58.9529 31.362C58.5836 31.5964 58.1527 31.7136 57.6603 31.7136ZM57.6603 30.9608C58.0343 30.9608 58.3421 30.8649 58.5836 30.6731C58.825 30.4814 59.0038 30.2292 59.1198 29.9167C59.2358 29.6042 59.2938 29.2657 59.2938 28.9011C59.2938 28.5365 59.2358 28.1968 59.1198 27.8819C59.0038 27.5671 58.825 27.3126 58.5836 27.1184C58.3421 26.9243 58.0343 26.8272 57.6603 26.8272C57.2862 26.8272 56.9784 26.9243 56.737 27.1184C56.4955 27.3126 56.3168 27.5671 56.2007 27.8819C56.0847 28.1968 56.0267 28.5365 56.0267 28.9011C56.0267 29.2657 56.0847 29.6042 56.2007 29.9167C56.3168 30.2292 56.4955 30.4814 56.737 30.6731C56.9784 30.8649 57.2862 30.9608 57.6603 30.9608ZM63.4708 31.7136C63.0163 31.7136 62.615 31.5988 62.267 31.3692C61.919 31.1371 61.6467 30.8104 61.4502 30.389C61.2537 29.9653 61.1555 29.4646 61.1555 28.8869C61.1555 28.314 61.2537 27.8168 61.4502 27.3954C61.6467 26.974 61.9201 26.6485 62.2705 26.4189C62.6209 26.1892 63.0257 26.0744 63.485 26.0744C63.8401 26.0744 64.1207 26.1336 64.3266 26.252C64.535 26.368 64.6936 26.5005 64.8025 26.6497C64.9138 26.7965 65.0002 26.9172 65.0617 27.0119H65.1327V24.3272H65.9708V31.6H65.1612V30.7619H65.0617C65.0002 30.8613 64.9126 30.9868 64.7989 31.1383C64.6853 31.2875 64.5231 31.4212 64.3124 31.5396C64.1017 31.6556 63.8212 31.7136 63.4708 31.7136ZM63.5844 30.9608C63.9206 30.9608 64.2047 30.8732 64.4367 30.698C64.6687 30.5204 64.8451 30.2754 64.9658 29.9629C65.0866 29.648 65.1469 29.2846 65.1469 28.8727C65.1469 28.4655 65.0878 28.1092 64.9694 27.8038C64.851 27.496 64.6758 27.2569 64.4438 27.0865C64.2118 26.9137 63.9254 26.8272 63.5844 26.8272C63.2293 26.8272 62.9334 26.9184 62.6967 27.1007C62.4623 27.2806 62.2859 27.5256 62.1675 27.8358C62.0515 28.1435 61.9935 28.4892 61.9935 28.8727C61.9935 29.261 62.0527 29.6137 62.1711 29.9309C62.2918 30.2458 62.4694 30.4968 62.7038 30.6838C62.9405 30.8684 63.2341 30.9608 63.5844 30.9608ZM69.909 31.7136C69.3835 31.7136 68.9301 31.5976 68.5489 31.3656C68.1701 31.1312 67.8778 30.8045 67.6718 30.3855C67.4682 29.9641 67.3664 29.474 67.3664 28.9153C67.3664 28.3566 67.4682 27.8642 67.6718 27.438C67.8778 27.0095 68.1642 26.6757 68.5312 26.4366C68.9005 26.1951 69.3314 26.0744 69.8238 26.0744C70.1079 26.0744 70.3884 26.1218 70.6654 26.2165C70.9424 26.3111 71.1945 26.465 71.4218 26.6781C71.6491 26.8888 71.8302 27.1682 71.9651 27.5162C72.1001 27.8642 72.1675 28.2927 72.1675 28.8017V29.1568H67.963V28.4324H71.3153C71.3153 28.1246 71.2537 27.85 71.1306 27.6085C71.0099 27.367 70.8371 27.1764 70.6121 27.0368C70.3896 26.8971 70.1268 26.8272 69.8238 26.8272C69.49 26.8272 69.2012 26.9101 68.9573 27.0758C68.7158 27.2392 68.53 27.4522 68.3998 27.715C68.2696 27.9778 68.2045 28.2595 68.2045 28.5602V29.0432C68.2045 29.4551 68.2755 29.8043 68.4175 30.0907C68.562 30.3748 68.762 30.5915 69.0177 30.7406C69.2734 30.8874 69.5705 30.9608 69.909 30.9608C70.1292 30.9608 70.3281 30.93 70.5056 30.8684C70.6855 30.8045 70.8406 30.7098 70.9708 30.5844C71.101 30.4565 71.2016 30.2979 71.2727 30.1085L72.0823 30.3358C71.9971 30.6104 71.8539 30.8519 71.6526 31.0602C71.4514 31.2662 71.2028 31.4272 70.9069 31.5432C70.611 31.6568 70.2783 31.7136 69.909 31.7136ZM78.4708 31.7136C77.9784 31.7136 77.5463 31.5964 77.1746 31.362C76.8053 31.1277 76.5165 30.7998 76.3082 30.3784C76.1022 29.957 75.9992 29.4646 75.9992 28.9011C75.9992 28.3329 76.1022 27.837 76.3082 27.4132C76.5165 26.9894 76.8053 26.6603 77.1746 26.426C77.5463 26.1916 77.9784 26.0744 78.4708 26.0744C78.9632 26.0744 79.3941 26.1916 79.7634 26.426C80.1351 26.6603 80.4239 26.9894 80.6299 27.4132C80.8382 27.837 80.9424 28.3329 80.9424 28.9011C80.9424 29.4646 80.8382 29.957 80.6299 30.3784C80.4239 30.7998 80.1351 31.1277 79.7634 31.362C79.3941 31.5964 78.9632 31.7136 78.4708 31.7136ZM78.4708 30.9608C78.8449 30.9608 79.1526 30.8649 79.3941 30.6731C79.6356 30.4814 79.8143 30.2292 79.9303 29.9167C80.0463 29.6042 80.1043 29.2657 80.1043 28.9011C80.1043 28.5365 80.0463 28.1968 79.9303 27.8819C79.8143 27.5671 79.6356 27.3126 79.3941 27.1184C79.1526 26.9243 78.8449 26.8272 78.4708 26.8272C78.0968 26.8272 77.789 26.9243 77.5475 27.1184C77.306 27.3126 77.1273 27.5671 77.0113 27.8819C76.8953 28.1968 76.8373 28.5365 76.8373 28.9011C76.8373 29.2657 76.8953 29.6042 77.0113 29.9167C77.1273 30.2292 77.306 30.4814 77.5475 30.6731C77.789 30.8649 78.0968 30.9608 78.4708 30.9608ZM83.0598 28.3187V31.6H82.2217V26.1454H83.0314V26.9977H83.1024C83.2302 26.7207 83.4243 26.4982 83.6848 26.3301C83.9452 26.1596 84.2814 26.0744 84.6933 26.0744C85.0626 26.0744 85.3858 26.1502 85.6627 26.3017C85.9397 26.4508 86.1552 26.6781 86.3091 26.9835C86.4629 27.2865 86.5399 27.6701 86.5399 28.1341V31.6H85.7018V28.1909C85.7018 27.7624 85.5905 27.4286 85.368 27.1895C85.1455 26.948 84.8401 26.8272 84.4518 26.8272C84.1843 26.8272 83.9452 26.8852 83.7345 27.0013C83.5261 27.1173 83.3616 27.2865 83.2409 27.5091C83.1201 27.7316 83.0598 28.0015 83.0598 28.3187ZM93.0997 31.7136C92.5884 31.7136 92.148 31.5929 91.7787 31.3514C91.4094 31.1099 91.1253 30.7773 90.9264 30.3535C90.7276 29.9298 90.6281 29.4456 90.6281 28.9011C90.6281 28.3471 90.7299 27.8583 90.9335 27.4345C91.1395 27.0084 91.4259 26.6757 91.7929 26.4366C92.1622 26.1951 92.5931 26.0744 93.0855 26.0744C93.469 26.0744 93.8147 26.1454 94.1224 26.2875C94.4302 26.4295 94.6823 26.6284 94.8788 26.8841C95.0753 27.1397 95.1973 27.438 95.2446 27.779H94.4065C94.3426 27.5304 94.2006 27.3102 93.9804 27.1184C93.7626 26.9243 93.469 26.8272 93.0997 26.8272C92.773 26.8272 92.4866 26.9125 92.2403 27.0829C91.9965 27.251 91.8059 27.4889 91.6686 27.7967C91.5337 28.1021 91.4662 28.4608 91.4662 28.8727C91.4662 29.2941 91.5325 29.6611 91.6651 29.9736C91.8 30.2861 91.9894 30.5287 92.2332 30.7015C92.4794 30.8744 92.7683 30.9608 93.0997 30.9608C93.3175 30.9608 93.5152 30.9229 93.6928 30.8471C93.8703 30.7714 94.0206 30.6625 94.1437 30.5204C94.2669 30.3784 94.3544 30.2079 94.4065 30.0091H95.2446C95.1973 30.331 95.0801 30.621 94.893 30.8791C94.7084 31.1348 94.4634 31.3384 94.158 31.4899C93.8549 31.639 93.5022 31.7136 93.0997 31.7136ZM98.0749 31.7278C97.7292 31.7278 97.4155 31.6627 97.1338 31.5325C96.8521 31.3999 96.6284 31.2094 96.4626 30.9608C96.2969 30.7098 96.2141 30.4068 96.2141 30.0517C96.2141 29.7392 96.2756 29.4859 96.3987 29.2917C96.5218 29.0952 96.6864 28.9414 96.8923 28.8301C97.0983 28.7188 97.3256 28.636 97.5741 28.5815C97.8251 28.5247 98.0772 28.4797 98.3305 28.4466C98.662 28.404 98.9307 28.372 99.1366 28.3507C99.345 28.327 99.4965 28.2879 99.5912 28.2335C99.6883 28.179 99.7368 28.0844 99.7368 27.9494V27.921C99.7368 27.5706 99.6409 27.2984 99.4491 27.1042C99.2598 26.9101 98.9721 26.813 98.5862 26.813C98.1861 26.813 97.8724 26.9006 97.6452 27.0758C97.4179 27.251 97.2581 27.438 97.1658 27.6369L96.3703 27.3528C96.5124 27.0214 96.7018 26.7633 96.9385 26.5787C97.1776 26.3916 97.438 26.2614 97.7197 26.188C98.0038 26.1123 98.2832 26.0744 98.5578 26.0744C98.733 26.0744 98.9342 26.0957 99.1615 26.1383C99.3911 26.1786 99.6125 26.2626 99.8256 26.3905C100.041 26.5183 100.22 26.7112 100.362 26.9693C100.504 27.2273 100.575 27.573 100.575 28.0062V31.6H99.7368V30.8613H99.6942C99.6374 30.9797 99.5427 31.1064 99.4101 31.2413C99.2775 31.3763 99.1011 31.4911 98.881 31.5858C98.6608 31.6805 98.3921 31.7278 98.0749 31.7278ZM98.2027 30.975C98.5341 30.975 98.8135 30.9099 99.0408 30.7797C99.2704 30.6495 99.4432 30.4814 99.5592 30.2754C99.6776 30.0694 99.7368 29.8528 99.7368 29.6255V28.8585C99.7013 28.9011 99.6232 28.9402 99.5024 28.9757C99.384 29.0088 99.2467 29.0384 99.0905 29.0645C98.9366 29.0881 98.7863 29.1094 98.6395 29.1284C98.4951 29.145 98.3779 29.1592 98.2879 29.171C98.0701 29.1994 97.8665 29.2456 97.6771 29.3095C97.4901 29.371 97.3386 29.4646 97.2226 29.59C97.1089 29.7131 97.0521 29.8812 97.0521 30.0943C97.0521 30.3855 97.1598 30.6057 97.3753 30.7548C97.5931 30.9016 97.8689 30.975 98.2027 30.975ZM102.943 28.3187V31.6H102.105V26.1454H102.914V26.9977H102.985C103.113 26.7207 103.307 26.4982 103.568 26.3301C103.828 26.1596 104.164 26.0744 104.576 26.0744C104.945 26.0744 105.269 26.1502 105.546 26.3017C105.823 26.4508 106.038 26.6781 106.192 26.9835C106.346 27.2865 106.423 27.6701 106.423 28.1341V31.6H105.585V28.1909C105.585 27.7624 105.473 27.4286 105.251 27.1895C105.028 26.948 104.723 26.8272 104.335 26.8272C104.067 26.8272 103.828 26.8852 103.617 27.0013C103.409 27.1173 103.244 27.2865 103.124 27.5091C103.003 27.7316 102.943 28.0015 102.943 28.3187ZM112.219 26.1454L110.202 31.6H109.35L107.333 26.1454H108.242L109.747 30.492H109.804L111.31 26.1454H112.219ZM114.764 31.7278C114.419 31.7278 114.105 31.6627 113.823 31.5325C113.542 31.3999 113.318 31.2094 113.152 30.9608C112.986 30.7098 112.904 30.4068 112.904 30.0517C112.904 29.7392 112.965 29.4859 113.088 29.2917C113.211 29.0952 113.376 28.9414 113.582 28.8301C113.788 28.7188 114.015 28.636 114.264 28.5815C114.515 28.5247 114.767 28.4797 115.02 28.4466C115.351 28.404 115.62 28.372 115.826 28.3507C116.034 28.327 116.186 28.2879 116.281 28.2335C116.378 28.179 116.426 28.0844 116.426 27.9494V27.921C116.426 27.5706 116.33 27.2984 116.139 27.1042C115.949 26.9101 115.662 26.813 115.276 26.813C114.876 26.813 114.562 26.9006 114.335 27.0758C114.107 27.251 113.948 27.438 113.855 27.6369L113.06 27.3528C113.202 27.0214 113.391 26.7633 113.628 26.5787C113.867 26.3916 114.127 26.2614 114.409 26.188C114.693 26.1123 114.973 26.0744 115.247 26.0744C115.422 26.0744 115.624 26.0957 115.851 26.1383C116.081 26.1786 116.302 26.2626 116.515 26.3905C116.73 26.5183 116.909 26.7112 117.051 26.9693C117.193 27.2273 117.264 27.573 117.264 28.0062V31.6H116.426V30.8613H116.384C116.327 30.9797 116.232 31.1064 116.1 31.2413C115.967 31.3763 115.791 31.4911 115.57 31.5858C115.35 31.6805 115.082 31.7278 114.764 31.7278ZM114.892 30.975C115.224 30.975 115.503 30.9099 115.73 30.7797C115.96 30.6495 116.133 30.4814 116.249 30.2754C116.367 30.0694 116.426 29.8528 116.426 29.6255V28.8585C116.391 28.9011 116.313 28.9402 116.192 28.9757C116.073 29.0088 115.936 29.0384 115.78 29.0645C115.626 29.0881 115.476 29.1094 115.329 29.1284C115.185 29.145 115.067 29.1592 114.977 29.171C114.76 29.1994 114.556 29.2456 114.367 29.3095C114.18 29.371 114.028 29.4646 113.912 29.59C113.798 29.7131 113.742 29.8812 113.742 30.0943C113.742 30.3855 113.849 30.6057 114.065 30.7548C114.283 30.9016 114.558 30.975 114.892 30.975ZM122.658 27.367L121.905 27.5801C121.857 27.4546 121.788 27.3327 121.695 27.2143C121.605 27.0936 121.482 26.9942 121.326 26.916C121.17 26.8379 120.97 26.7988 120.726 26.7988C120.392 26.7988 120.114 26.8758 119.891 27.0297C119.671 27.1812 119.561 27.3741 119.561 27.6085C119.561 27.8168 119.637 27.9814 119.788 28.1021C119.94 28.2228 120.177 28.3235 120.499 28.404L121.308 28.6028C121.796 28.7212 122.159 28.9023 122.398 29.1461C122.637 29.3876 122.757 29.6989 122.757 30.0801C122.757 30.3926 122.667 30.6719 122.487 30.9182C122.31 31.1644 122.061 31.3585 121.741 31.5005C121.422 31.6426 121.05 31.7136 120.626 31.7136C120.07 31.7136 119.61 31.5929 119.245 31.3514C118.88 31.1099 118.65 30.7572 118.552 30.2932L119.348 30.0943C119.424 30.3879 119.567 30.608 119.778 30.7548C119.991 30.9016 120.269 30.975 120.612 30.975C121.003 30.975 121.313 30.8921 121.543 30.7264C121.775 30.5583 121.891 30.3571 121.891 30.1227C121.891 29.9333 121.824 29.7747 121.692 29.6469C121.559 29.5166 121.356 29.4196 121.081 29.3557L120.172 29.1426C119.672 29.0242 119.305 28.8407 119.071 28.5922C118.839 28.3412 118.723 28.0275 118.723 27.6511C118.723 27.3433 118.809 27.0711 118.982 26.8344C119.157 26.5976 119.395 26.4118 119.696 26.2768C119.999 26.1419 120.342 26.0744 120.726 26.0744C121.266 26.0744 121.689 26.1928 121.997 26.4295C122.307 26.6663 122.527 26.9788 122.658 27.367Z" fill="white"/>
<path d="M11.375 15.0216C11.3697 15.889 10.1327 16.0406 9.91952 15.2V15.2L9.48824 13.6L9.05695 12.4L8.19439 10.4L7.33182 8.39999L6.46925 6.39999L5.60668 4.79999L4.74411 3.59999L3.99839 2.56254C3.92068 2.45444 3.83237 2.35438 3.73476 2.26386L2.65321 1.26076C2.60977 1.22046 2.56062 1.18679 2.50735 1.16082V1.16082C1.9301 0.879381 2.13369 0.0105082 2.7761 0.013876L9.46622 0.0489485C10.5708 0.054739 11.4607 0.954847 11.454 2.0594L11.375 15.0216Z" fill="#3D3D3D"/>
<path d="M67.7422 5V13H66.6328L62.5664 7.13281H62.4922V13H61.2852V5H62.4023L66.4727 10.875H66.5469V5H67.7422ZM71.9365 13.1211C71.374 13.1211 70.8831 12.9922 70.4639 12.7344C70.0446 12.4766 69.7191 12.1159 69.4873 11.6523C69.2555 11.1888 69.1396 10.6471 69.1396 10.0273C69.1396 9.40495 69.2555 8.86068 69.4873 8.39453C69.7191 7.92839 70.0446 7.56641 70.4639 7.30859C70.8831 7.05078 71.374 6.92188 71.9365 6.92188C72.499 6.92188 72.9899 7.05078 73.4092 7.30859C73.8285 7.56641 74.154 7.92839 74.3857 8.39453C74.6175 8.86068 74.7334 9.40495 74.7334 10.0273C74.7334 10.6471 74.6175 11.1888 74.3857 11.6523C74.154 12.1159 73.8285 12.4766 73.4092 12.7344C72.9899 12.9922 72.499 13.1211 71.9365 13.1211ZM71.9404 12.1406C72.305 12.1406 72.6071 12.0443 72.8467 11.8516C73.0863 11.6589 73.2633 11.4023 73.3779 11.082C73.4951 10.7617 73.5537 10.4089 73.5537 10.0234C73.5537 9.64062 73.4951 9.28906 73.3779 8.96875C73.2633 8.64583 73.0863 8.38672 72.8467 8.19141C72.6071 7.99609 72.305 7.89844 71.9404 7.89844C71.5732 7.89844 71.2686 7.99609 71.0264 8.19141C70.7868 8.38672 70.6084 8.64583 70.4912 8.96875C70.3766 9.28906 70.3193 9.64062 70.3193 10.0234C70.3193 10.4089 70.3766 10.7617 70.4912 11.082C70.6084 11.4023 70.7868 11.6589 71.0264 11.8516C71.2686 12.0443 71.5732 12.1406 71.9404 12.1406ZM78.2832 13.1172C77.7988 13.1172 77.3665 12.9935 76.9863 12.7461C76.6087 12.4961 76.3118 12.1406 76.0957 11.6797C75.8822 11.2161 75.7754 10.6602 75.7754 10.0117C75.7754 9.36328 75.8835 8.80859 76.0996 8.34766C76.3184 7.88672 76.6178 7.53385 76.998 7.28906C77.3783 7.04427 77.8092 6.92188 78.291 6.92188C78.6634 6.92188 78.9629 6.98438 79.1895 7.10937C79.4186 7.23177 79.5957 7.375 79.7207 7.53906C79.8483 7.70312 79.9473 7.84766 80.0176 7.97266H80.0879V5H81.2559V13H80.1152V12.0664H80.0176C79.9473 12.194 79.8457 12.3398 79.7129 12.5039C79.5827 12.668 79.403 12.8112 79.1738 12.9336C78.9447 13.056 78.6478 13.1172 78.2832 13.1172ZM78.541 12.1211C78.877 12.1211 79.1608 12.0326 79.3926 11.8555C79.627 11.6758 79.804 11.4271 79.9238 11.1094C80.0462 10.7917 80.1074 10.4219 80.1074 10C80.1074 9.58333 80.0475 9.21875 79.9277 8.90625C79.8079 8.59375 79.6322 8.35026 79.4004 8.17578C79.1686 8.0013 78.8822 7.91406 78.541 7.91406C78.1895 7.91406 77.8965 8.00521 77.6621 8.1875C77.4277 8.36979 77.2507 8.61849 77.1309 8.93359C77.0137 9.2487 76.9551 9.60417 76.9551 10C76.9551 10.401 77.015 10.7617 77.1348 11.082C77.2546 11.4023 77.4316 11.6562 77.666 11.8437C77.903 12.0286 78.1947 12.1211 78.541 12.1211ZM85.5088 13.1211C84.9176 13.1211 84.4085 12.9948 83.9814 12.7422C83.557 12.487 83.2288 12.1289 82.9971 11.668C82.7679 11.2044 82.6533 10.6615 82.6533 10.0391C82.6533 9.42448 82.7679 8.88281 82.9971 8.41406C83.2288 7.94531 83.5518 7.57943 83.9658 7.31641C84.3825 7.05339 84.8695 6.92188 85.4268 6.92188C85.7653 6.92188 86.0934 6.97786 86.4111 7.08984C86.7288 7.20182 87.014 7.3776 87.2666 7.61719C87.5192 7.85677 87.7184 8.16797 87.8643 8.55078C88.0101 8.93099 88.083 9.39323 88.083 9.9375V10.3516H83.3135V9.47656H86.9385C86.9385 9.16927 86.876 8.89714 86.751 8.66016C86.626 8.42057 86.4502 8.23177 86.2236 8.09375C85.9997 7.95573 85.7367 7.88672 85.4346 7.88672C85.1064 7.88672 84.82 7.96745 84.5752 8.12891C84.333 8.28776 84.1455 8.49609 84.0127 8.75391C83.8825 9.00911 83.8174 9.28646 83.8174 9.58594V10.2695C83.8174 10.6706 83.8877 11.0117 84.0283 11.293C84.1715 11.5742 84.3708 11.7891 84.626 11.9375C84.8812 12.0833 85.1794 12.1562 85.5205 12.1562C85.7419 12.1562 85.9437 12.125 86.126 12.0625C86.3083 11.9974 86.4658 11.901 86.5986 11.7734C86.7314 11.6458 86.833 11.4883 86.9033 11.3008L88.0088 11.5C87.9202 11.8255 87.7614 12.1107 87.5322 12.3555C87.3057 12.5977 87.0205 12.7865 86.6768 12.9219C86.3356 13.0547 85.9463 13.1211 85.5088 13.1211Z" fill="white"/>
</svg>
