<svg width="60" height="60" viewBox="0 0 60 60" fill="none" xmlns="http://www.w3.org/2000/svg">
<path d="M60 30C60 46.5685 46.5685 60 30 60C13.4315 60 0 46.5685 0 30C0 13.4315 13.4315 0 30 0C46.5685 0 60 13.4315 60 30Z" fill="#64A6E3"/>
<path d="M21.1176 19.1289C21.1176 18.9356 20.9609 18.7789 20.7676 18.7789C20.5743 18.7789 20.4176 18.9356 20.4176 19.1289H21.1176ZM20.7676 25.7003L22.7883 22.2003H18.7469L20.7676 25.7003ZM20.4176 19.1289V22.5503H21.1176V19.1289H20.4176Z" fill="white"/>
<path d="M20.7676 19.1289L32.5391 19.1429" stroke="white" stroke-width="0.7" stroke-linecap="round"/>
<path d="M39.122 11.2856C39.122 11.0923 38.9653 10.9356 38.772 10.9356C38.5787 10.9356 38.422 11.0923 38.422 11.2856H39.122ZM38.772 16.9999L40.7928 13.4999H36.7513L38.772 16.9999ZM38.422 11.2856V13.8499H39.122V11.2856H38.422Z" fill="white"/>
<path d="M39.122 40.5714C39.122 40.3781 38.9653 40.2214 38.772 40.2214C38.5787 40.2214 38.422 40.3781 38.422 40.5714H39.122ZM38.772 45.5713L40.7928 42.0713H36.7513L38.772 45.5713ZM38.422 40.5714V42.4213H39.122V40.5714H38.422Z" fill="white"/>
<path d="M39.122 20.5714C39.122 20.3781 38.9653 20.2214 38.772 20.2214C38.5787 20.2214 38.422 20.3781 38.422 20.5714H39.122ZM38.772 25.7857L40.7928 22.2857H36.7513L38.772 25.7857ZM38.422 20.5714V22.6357H39.122V20.5714H38.422Z" fill="white"/>
<path d="M39.122 32.0001C39.122 31.8068 38.9653 31.6501 38.772 31.6501C38.5787 31.6501 38.422 31.8068 38.422 32.0001H39.122ZM38.772 37.0001L40.7928 33.5001H36.7513L38.772 37.0001ZM38.422 32.0001V33.8501H39.122V32.0001H38.422Z" fill="white"/>
<path d="M21.0297 31.9609C21.0297 31.7676 20.873 31.6109 20.6797 31.6109C20.4864 31.6109 20.3297 31.7676 20.3297 31.9609H21.0297ZM20.6797 46.6038L22.7004 43.1038H18.6589L20.6797 46.6038ZM20.3297 31.9609V43.4538H21.0297V31.9609H20.3297Z" fill="white"/>
<path d="M14.4395 48.7815C14.4395 47.5981 15.3988 46.6387 16.5823 46.6387H24.7623C25.9458 46.6387 26.9052 47.5981 26.9052 48.7815V48.7815C26.9052 49.965 25.9458 50.9244 24.7623 50.9244H16.5823C15.3988 50.9244 14.4395 49.965 14.4395 48.7815V48.7815Z" fill="white"/>
<path d="M32.5391 9.14285C32.5391 7.95939 33.4985 7 34.682 7H42.862C44.0455 7 45.0049 7.95939 45.0049 9.14285V9.14285C45.0049 10.3263 44.0455 11.2857 42.862 11.2857H34.682C33.4985 11.2857 32.5391 10.3263 32.5391 9.14285V9.14285Z" fill="white"/>
<path d="M14 28.935L20.7676 25.7207L27.4247 28.935L20.7123 32.1493L14 28.935Z" fill="white"/>
<path d="M32.0597 48.7857L38.772 45.5714L45.4843 48.7857L38.772 52L32.0597 48.7857Z" fill="white"/>
<path d="M32.0597 28.9642L38.772 25.7499L45.4843 28.9642L38.772 32.1785L32.0597 28.9642Z" fill="white"/>
<rect x="32.5391" y="17" width="12.4657" height="3.92857" fill="white"/>
<path d="M32.5391 37H45.0049V40.9286H32.5391V37Z" fill="white"/>
</svg>
