<svg width="139" height="52" viewBox="0 0 139 52" fill="none" xmlns="http://www.w3.org/2000/svg">
<path d="M9.61469 0H134C136.761 0 139 2.23858 139 5V47C139 49.7614 136.761 52 134 52H14.6147C11.8533 52 9.61469 49.7614 9.61469 47V0Z" fill="#3D3D3D"/>
<path d="M45.9983 26H45.075L47.7454 18.7273H48.6545L51.325 26H50.4017L48.2284 19.8778H48.1716L45.9983 26ZM46.3392 23.1591H50.0608V23.9403H46.3392V23.1591ZM53.1822 18.7273V26H52.3441V18.7273H53.1822ZM56.9189 28.1591C56.5141 28.1591 56.166 28.107 55.8749 28.0028C55.5837 27.901 55.341 27.7661 55.1469 27.598C54.9551 27.4323 54.8024 27.2547 54.6888 27.0653L55.3564 26.5966C55.4321 26.696 55.528 26.8097 55.644 26.9375C55.76 27.0677 55.9187 27.1802 56.1199 27.2749C56.3235 27.3719 56.5898 27.4205 56.9189 27.4205C57.3592 27.4205 57.7226 27.3139 58.0091 27.1009C58.2955 26.8878 58.4388 26.554 58.4388 26.0994V24.9915H58.3678C58.3062 25.0909 58.2186 25.214 58.105 25.3608C57.9937 25.5052 57.8327 25.6342 57.622 25.7479C57.4137 25.8591 57.132 25.9148 56.7768 25.9148C56.3365 25.9148 55.9411 25.8106 55.5908 25.6023C55.2428 25.3939 54.9669 25.0909 54.7633 24.6932C54.5621 24.2955 54.4615 23.8125 54.4615 23.2443C54.4615 22.6856 54.5597 22.1991 54.7562 21.7848C54.9527 21.3681 55.2262 21.0462 55.5766 20.8189C55.9269 20.5893 56.3318 20.4744 56.791 20.4744C57.1462 20.4744 57.4279 20.5336 57.6362 20.652C57.8469 20.768 58.0079 20.9006 58.1192 21.0497C58.2328 21.1965 58.3204 21.3172 58.382 21.4119H58.4672V20.5455H59.2768V26.1562C59.2768 26.625 59.1703 27.0062 58.9572 27.2997C58.7465 27.5956 58.4624 27.8123 58.105 27.9496C57.7499 28.0893 57.3545 28.1591 56.9189 28.1591ZM56.8905 25.1619C57.2267 25.1619 57.5107 25.085 57.7428 24.9311C57.9748 24.7772 58.1511 24.5559 58.2719 24.267C58.3926 23.9782 58.453 23.6326 58.453 23.2301C58.453 22.8371 58.3938 22.4903 58.2754 22.1896C58.1571 21.889 57.9819 21.6534 57.7499 21.483C57.5178 21.3125 57.2314 21.2273 56.8905 21.2273C56.5354 21.2273 56.2394 21.3172 56.0027 21.4972C55.7683 21.6771 55.5919 21.9186 55.4736 22.2216C55.3576 22.5246 55.2996 22.8608 55.2996 23.2301C55.2996 23.6089 55.3588 23.9439 55.4771 24.2351C55.5979 24.5239 55.7754 24.7512 56.0098 24.9169C56.2465 25.0803 56.5401 25.1619 56.8905 25.1619ZM63.0268 26.1136C62.5344 26.1136 62.1024 25.9964 61.7307 25.7621C61.3614 25.5277 61.0725 25.1998 60.8642 24.7784C60.6582 24.357 60.5553 23.8646 60.5553 23.3011C60.5553 22.733 60.6582 22.237 60.8642 21.8132C61.0725 21.3894 61.3614 21.0604 61.7307 20.826C62.1024 20.5916 62.5344 20.4744 63.0268 20.4744C63.5193 20.4744 63.9501 20.5916 64.3195 20.826C64.6911 21.0604 64.98 21.3894 65.1859 21.8132C65.3943 22.237 65.4984 22.733 65.4984 23.3011C65.4984 23.8646 65.3943 24.357 65.1859 24.7784C64.98 25.1998 64.6911 25.5277 64.3195 25.7621C63.9501 25.9964 63.5193 26.1136 63.0268 26.1136ZM63.0268 25.3608C63.4009 25.3608 63.7087 25.2649 63.9501 25.0732C64.1916 24.8814 64.3704 24.6293 64.4864 24.3168C64.6024 24.0043 64.6604 23.6657 64.6604 23.3011C64.6604 22.9366 64.6024 22.5968 64.4864 22.282C64.3704 21.9671 64.1916 21.7126 63.9501 21.5185C63.7087 21.3243 63.4009 21.2273 63.0268 21.2273C62.6528 21.2273 62.345 21.3243 62.1035 21.5185C61.8621 21.7126 61.6833 21.9671 61.5673 22.282C61.4513 22.5968 61.3933 22.9366 61.3933 23.3011C61.3933 23.6657 61.4513 24.0043 61.5673 24.3168C61.6833 24.6293 61.8621 24.8814 62.1035 25.0732C62.345 25.2649 62.6528 25.3608 63.0268 25.3608ZM66.7777 26V20.5455H67.5874V21.3693H67.6442C67.7436 21.0994 67.9236 20.8804 68.184 20.7124C68.4444 20.5443 68.738 20.4602 69.0647 20.4602C69.1262 20.4602 69.2032 20.4614 69.2955 20.4638C69.3878 20.4661 69.4577 20.4697 69.505 20.4744V21.3267C69.4766 21.3196 69.4115 21.3089 69.3097 21.2947C69.2103 21.2782 69.1049 21.2699 68.9936 21.2699C68.7285 21.2699 68.4917 21.3255 68.2834 21.4368C68.0774 21.5457 67.9141 21.6972 67.7934 21.8913C67.675 22.0831 67.6158 22.3021 67.6158 22.5483V26H66.7777ZM70.4984 26V20.5455H71.3365V26H70.4984ZM70.9246 19.6364C70.7612 19.6364 70.6204 19.5807 70.502 19.4695C70.386 19.3582 70.328 19.2244 70.328 19.0682C70.328 18.9119 70.386 18.7782 70.502 18.6669C70.6204 18.5556 70.7612 18.5 70.9246 18.5C71.0879 18.5 71.2276 18.5556 71.3436 18.6669C71.462 18.7782 71.5212 18.9119 71.5212 19.0682C71.5212 19.2244 71.462 19.3582 71.3436 19.4695C71.2276 19.5807 71.0879 19.6364 70.9246 19.6364ZM75.2436 20.5455V21.2557H72.4169V20.5455H75.2436ZM73.2408 19.2386H74.0789V24.4375C74.0789 24.6742 74.1132 24.8518 74.1818 24.9702C74.2529 25.0862 74.3428 25.1643 74.4517 25.2045C74.563 25.2424 74.6802 25.2614 74.8033 25.2614C74.8956 25.2614 74.9714 25.2566 75.0306 25.2472C75.0898 25.2353 75.1371 25.2259 75.1726 25.2188L75.3431 25.9716C75.2863 25.9929 75.2069 26.0142 75.1051 26.0355C75.0033 26.0592 74.8743 26.071 74.7181 26.071C74.4813 26.071 74.2493 26.0201 74.022 25.9183C73.7971 25.8165 73.6101 25.6615 73.461 25.4531C73.3142 25.2448 73.2408 24.982 73.2408 24.6648V19.2386ZM77.4595 22.7188V26H76.6215V18.7273H77.4595V21.3977H77.5306C77.6584 21.116 77.8502 20.8923 78.1059 20.7266C78.3639 20.5585 78.7072 20.4744 79.1357 20.4744C79.5074 20.4744 79.8329 20.549 80.1122 20.6982C80.3916 20.8449 80.6082 21.071 80.7621 21.3764C80.9184 21.6795 80.9965 22.0653 80.9965 22.5341V26H80.1584V22.5909C80.1584 22.1577 80.046 21.8227 79.8211 21.5859C79.5985 21.3468 79.2896 21.2273 78.8942 21.2273C78.6196 21.2273 78.3734 21.2853 78.1556 21.4013C77.9401 21.5173 77.7697 21.6866 77.6442 21.9091C77.5211 22.1316 77.4595 22.4015 77.4595 22.7188ZM82.5297 26V20.5455H83.3393V21.3977H83.4104C83.524 21.1065 83.7075 20.8804 83.9608 20.7195C84.2141 20.5561 84.5183 20.4744 84.8734 20.4744C85.2333 20.4744 85.5328 20.5561 85.7719 20.7195C86.0133 20.8804 86.2016 21.1065 86.3365 21.3977H86.3933C86.533 21.116 86.7425 20.8923 87.0219 20.7266C87.3012 20.5585 87.6362 20.4744 88.0268 20.4744C88.5145 20.4744 88.9134 20.6271 89.2236 20.9325C89.5337 21.2356 89.6888 21.7079 89.6888 22.3494V26H88.8507V22.3494C88.8507 21.947 88.7406 21.6593 88.5204 21.4865C88.3003 21.3137 88.041 21.2273 87.7427 21.2273C87.3592 21.2273 87.0621 21.3433 86.8514 21.5753C86.6407 21.8049 86.5354 22.0961 86.5354 22.4489V26H85.6831V22.2642C85.6831 21.9541 85.5825 21.7043 85.3812 21.5149C85.18 21.3232 84.9208 21.2273 84.6035 21.2273C84.3857 21.2273 84.1821 21.2853 83.9927 21.4013C83.8057 21.5173 83.6542 21.6783 83.5382 21.8842C83.4246 22.0878 83.3677 22.3234 83.3677 22.5909V26H82.5297ZM95.0847 21.767L94.3319 21.9801C94.2845 21.8546 94.2147 21.7327 94.1224 21.6143C94.0324 21.4936 93.9093 21.3942 93.753 21.3161C93.5968 21.2379 93.3967 21.1989 93.1529 21.1989C92.8191 21.1989 92.5409 21.2758 92.3184 21.4297C92.0982 21.5812 91.9881 21.7741 91.9881 22.0085C91.9881 22.2169 92.0639 22.3814 92.2154 22.5021C92.3669 22.6229 92.6037 22.7235 92.9256 22.804L93.7353 23.0028C94.223 23.1212 94.5864 23.3023 94.8255 23.5462C95.0646 23.7876 95.1842 24.099 95.1842 24.4801C95.1842 24.7926 95.0942 25.072 94.9143 25.3182C94.7367 25.5644 94.4881 25.7585 94.1685 25.9006C93.8489 26.0426 93.4772 26.1136 93.0535 26.1136C92.4971 26.1136 92.0367 25.9929 91.6721 25.7514C91.3075 25.5099 91.0767 25.1572 90.9796 24.6932L91.7751 24.4943C91.8508 24.7879 91.9941 25.008 92.2048 25.1548C92.4178 25.3016 92.696 25.375 93.0393 25.375C93.4299 25.375 93.74 25.2921 93.9697 25.1264C94.2017 24.9583 94.3177 24.7571 94.3177 24.5227C94.3177 24.3333 94.2514 24.1747 94.1188 24.0469C93.9862 23.9167 93.7826 23.8196 93.508 23.7557L92.5989 23.5426C92.0994 23.4242 91.7324 23.2408 91.4981 22.9922C91.2661 22.7412 91.1501 22.4276 91.1501 22.0511C91.1501 21.7434 91.2365 21.4711 91.4093 21.2344C91.5845 20.9976 91.8224 20.8118 92.1231 20.6768C92.4261 20.5419 92.7694 20.4744 93.1529 20.4744C93.6927 20.4744 94.1164 20.5928 94.4242 20.8295C94.7343 21.0663 94.9545 21.3788 95.0847 21.767ZM97.0565 26.0568C96.8813 26.0568 96.731 25.9941 96.6055 25.8686C96.48 25.7431 96.4173 25.5928 96.4173 25.4176C96.4173 25.2424 96.48 25.0921 96.6055 24.9666C96.731 24.8411 96.8813 24.7784 97.0565 24.7784C97.2317 24.7784 97.382 24.8411 97.5075 24.9666C97.633 25.0921 97.6957 25.2424 97.6957 25.4176C97.6957 25.5336 97.6661 25.6402 97.6069 25.7372C97.5501 25.8343 97.4732 25.9124 97.3761 25.9716C97.2814 26.0284 97.1749 26.0568 97.0565 26.0568ZM99.8104 26.0568C99.6352 26.0568 99.4849 25.9941 99.3594 25.8686C99.2339 25.7431 99.1712 25.5928 99.1712 25.4176C99.1712 25.2424 99.2339 25.0921 99.3594 24.9666C99.4849 24.8411 99.6352 24.7784 99.8104 24.7784C99.9856 24.7784 100.136 24.8411 100.261 24.9666C100.387 25.0921 100.45 25.2424 100.45 25.4176C100.45 25.5336 100.42 25.6402 100.361 25.7372C100.304 25.8343 100.227 25.9124 100.13 25.9716C100.035 26.0284 99.9288 26.0568 99.8104 26.0568ZM102.564 26.0568C102.389 26.0568 102.239 25.9941 102.113 25.8686C101.988 25.7431 101.925 25.5928 101.925 25.4176C101.925 25.2424 101.988 25.0921 102.113 24.9666C102.239 24.8411 102.389 24.7784 102.564 24.7784C102.739 24.7784 102.89 24.8411 103.015 24.9666C103.141 25.0921 103.204 25.2424 103.204 25.4176C103.204 25.5336 103.174 25.6402 103.115 25.7372C103.058 25.8343 102.981 25.9124 102.884 25.9716C102.789 26.0284 102.683 26.0568 102.564 26.0568Z" fill="white"/>
<path d="M11.375 15.0216C11.3697 15.889 10.1327 16.0406 9.91952 15.2V15.2L9.48824 13.6L9.05695 12.4L8.19439 10.4L7.33182 8.39999L6.46925 6.39999L5.60668 4.79999L4.74411 3.59999L3.99839 2.56254C3.92068 2.45444 3.83237 2.35438 3.73476 2.26386L2.65321 1.26076C2.60977 1.22046 2.56062 1.18679 2.50735 1.16082V1.16082C1.9301 0.879381 2.13369 0.0105082 2.7761 0.013876L9.46622 0.0489485C10.5708 0.054739 11.4607 0.954847 11.454 2.0594L11.375 15.0216Z" fill="#3D3D3D"/>
</svg>
