<svg width="139" height="52" viewBox="0 0 139 52" fill="none" xmlns="http://www.w3.org/2000/svg">
<path d="M9.61469 0H134C136.761 0 139 2.23858 139 5V47C139 49.7614 136.761 52 134 52H14.6147C11.8533 52 9.61469 49.7614 9.61469 47V0Z" fill="#3D3D3D"/>
<path d="M25.9047 31.6V24.3272H26.7854V27.5659H30.6632V24.3272H31.5439V31.6H30.6632V28.3471H26.7854V31.6H25.9047ZM33.1934 31.6V26.1454H34.0314V31.6H33.1934ZM33.6195 25.2363C33.4562 25.2363 33.3153 25.1807 33.1969 25.0694C33.0809 24.9582 33.0229 24.8244 33.0229 24.6682C33.0229 24.5119 33.0809 24.3781 33.1969 24.2669C33.3153 24.1556 33.4562 24.1 33.6195 24.1C33.7829 24.1 33.9225 24.1556 34.0386 24.2669C34.1569 24.3781 34.2161 24.5119 34.2161 24.6682C34.2161 24.8244 34.1569 24.9582 34.0386 25.0694C33.9225 25.1807 33.7829 25.2363 33.6195 25.2363ZM37.7681 33.7591C37.3633 33.7591 37.0153 33.707 36.7241 33.6028C36.4329 33.501 36.1902 33.3661 35.9961 33.198C35.8044 33.0323 35.6517 32.8547 35.538 32.6653L36.2056 32.1966C36.2814 32.296 36.3773 32.4096 36.4933 32.5375C36.6093 32.6677 36.7679 32.7801 36.9691 32.8748C37.1727 32.9719 37.4391 33.0204 37.7681 33.0204C38.2085 33.0204 38.5719 32.9139 38.8583 32.7008C39.1448 32.4878 39.288 32.154 39.288 31.6994V30.5915H39.217C39.1554 30.6909 39.0678 30.814 38.9542 30.9608C38.8429 31.1052 38.682 31.2342 38.4713 31.3478C38.2629 31.4591 37.9812 31.5147 37.6261 31.5147C37.1857 31.5147 36.7904 31.4106 36.44 31.2022C36.092 30.9939 35.8162 30.6909 35.6126 30.2932C35.4114 29.8954 35.3107 29.4125 35.3107 28.8443C35.3107 28.2856 35.409 27.7991 35.6055 27.3848C35.802 26.9681 36.0754 26.6461 36.4258 26.4189C36.7762 26.1892 37.181 26.0744 37.6403 26.0744C37.9954 26.0744 38.2771 26.1336 38.4855 26.252C38.6962 26.368 38.8571 26.5005 38.9684 26.6497C39.0821 26.7965 39.1696 26.9172 39.2312 27.0119H39.3164V26.1454H40.1261V31.7562C40.1261 32.225 40.0196 32.6061 39.8065 32.8997C39.5958 33.1956 39.3117 33.4122 38.9542 33.5495C38.5991 33.6892 38.2037 33.7591 37.7681 33.7591ZM37.7397 30.7619C38.0759 30.7619 38.36 30.685 38.592 30.5311C38.824 30.3772 39.0004 30.1558 39.1211 29.867C39.2419 29.5782 39.3022 29.2326 39.3022 28.8301C39.3022 28.4371 39.243 28.0903 39.1247 27.7896C39.0063 27.4889 38.8311 27.2534 38.5991 27.0829C38.3671 26.9125 38.0806 26.8272 37.7397 26.8272C37.3846 26.8272 37.0887 26.9172 36.8519 27.0971C36.6176 27.2771 36.4412 27.5185 36.3228 27.8216C36.2068 28.1246 36.1488 28.4608 36.1488 28.8301C36.1488 29.2089 36.208 29.5439 36.3264 29.8351C36.4471 30.1239 36.6247 30.3512 36.859 30.5169C37.0958 30.6802 37.3893 30.7619 37.7397 30.7619ZM42.4982 28.3187V31.6H41.6602V24.3272H42.4982V26.9977H42.5693C42.6971 26.716 42.8889 26.4923 43.1446 26.3265C43.4026 26.1585 43.7459 26.0744 44.1744 26.0744C44.5461 26.0744 44.8716 26.149 45.1509 26.2981C45.4303 26.4449 45.6469 26.671 45.8008 26.9764C45.9571 27.2794 46.0352 27.6653 46.0352 28.1341V31.6H45.1971V28.1909C45.1971 27.7576 45.0847 27.4227 44.8598 27.1859C44.6372 26.9468 44.3283 26.8272 43.9329 26.8272C43.6583 26.8272 43.4121 26.8852 43.1943 27.0013C42.9788 27.1173 42.8084 27.2865 42.6829 27.5091C42.5598 27.7316 42.4982 28.0015 42.4982 28.3187ZM48.4064 24.3272V31.6H47.5684V24.3272H48.4064ZM49.9414 31.6V26.1454H50.7795V31.6H49.9414ZM50.3676 25.2363C50.2042 25.2363 50.0633 25.1807 49.945 25.0694C49.829 24.9582 49.771 24.8244 49.771 24.6682C49.771 24.5119 49.829 24.3781 49.945 24.2669C50.0633 24.1556 50.2042 24.1 50.3676 24.1C50.5309 24.1 50.6706 24.1556 50.7866 24.2669C50.905 24.3781 50.9642 24.5119 50.9642 24.6682C50.9642 24.8244 50.905 24.9582 50.7866 25.0694C50.6706 25.1807 50.5309 25.2363 50.3676 25.2363ZM54.5162 33.7591C54.1113 33.7591 53.7633 33.707 53.4721 33.6028C53.181 33.501 52.9383 33.3661 52.7442 33.198C52.5524 33.0323 52.3997 32.8547 52.2861 32.6653L52.9537 32.1966C53.0294 32.296 53.1253 32.4096 53.2413 32.5375C53.3573 32.6677 53.5159 32.7801 53.7172 32.8748C53.9208 32.9719 54.1871 33.0204 54.5162 33.0204C54.9565 33.0204 55.3199 32.9139 55.6064 32.7008C55.8928 32.4878 56.0361 32.154 56.0361 31.6994V30.5915H55.965C55.9035 30.6909 55.8159 30.814 55.7023 30.9608C55.591 31.1052 55.43 31.2342 55.2193 31.3478C55.011 31.4591 54.7292 31.5147 54.3741 31.5147C53.9338 31.5147 53.5384 31.4106 53.1881 31.2022C52.84 30.9939 52.5642 30.6909 52.3606 30.2932C52.1594 29.8954 52.0588 29.4125 52.0588 28.8443C52.0588 28.2856 52.157 27.7991 52.3535 27.3848C52.55 26.9681 52.8235 26.6461 53.1738 26.4189C53.5242 26.1892 53.9291 26.0744 54.3883 26.0744C54.7435 26.0744 55.0252 26.1336 55.2335 26.252C55.4442 26.368 55.6052 26.5005 55.7165 26.6497C55.8301 26.7965 55.9177 26.9172 55.9792 27.0119H56.0645V26.1454H56.8741V31.7562C56.8741 32.225 56.7676 32.6061 56.5545 32.8997C56.3438 33.1956 56.0597 33.4122 55.7023 33.5495C55.3471 33.6892 54.9518 33.7591 54.5162 33.7591ZM54.4878 30.7619C54.8239 30.7619 55.108 30.685 55.34 30.5311C55.572 30.3772 55.7484 30.1558 55.8692 29.867C55.9899 29.5782 56.0503 29.2326 56.0503 28.8301C56.0503 28.4371 55.9911 28.0903 55.8727 27.7896C55.7543 27.4889 55.5792 27.2534 55.3471 27.0829C55.1151 26.9125 54.8287 26.8272 54.4878 26.8272C54.1327 26.8272 53.8367 26.9172 53.6 27.0971C53.3656 27.2771 53.1892 27.5185 53.0709 27.8216C52.9549 28.1246 52.8969 28.4608 52.8969 28.8301C52.8969 29.2089 52.956 29.5439 53.0744 29.8351C53.1952 30.1239 53.3727 30.3512 53.6071 30.5169C53.8438 30.6802 54.1374 30.7619 54.4878 30.7619ZM59.2463 28.3187V31.6H58.4082V24.3272H59.2463V26.9977H59.3173C59.4452 26.716 59.6369 26.4923 59.8926 26.3265C60.1506 26.1585 60.4939 26.0744 60.9224 26.0744C61.2941 26.0744 61.6196 26.149 61.899 26.2981C62.1783 26.4449 62.395 26.671 62.5488 26.9764C62.7051 27.2794 62.7832 27.6653 62.7832 28.1341V31.6H61.9452V28.1909C61.9452 27.7576 61.8327 27.4227 61.6078 27.1859C61.3853 26.9468 61.0763 26.8272 60.681 26.8272C60.4063 26.8272 60.1601 26.8852 59.9423 27.0013C59.7269 27.1173 59.5564 27.2865 59.431 27.5091C59.3078 27.7316 59.2463 28.0015 59.2463 28.3187ZM66.6886 26.1454V26.8557H63.8619V26.1454H66.6886ZM64.6857 24.8386H65.5238V30.0375C65.5238 30.2742 65.5581 30.4518 65.6268 30.5701C65.6978 30.6861 65.7878 30.7643 65.8967 30.8045C66.008 30.8424 66.1251 30.8613 66.2482 30.8613C66.3406 30.8613 66.4163 30.8566 66.4755 30.8471C66.5347 30.8353 66.5821 30.8258 66.6176 30.8187L66.788 31.5716C66.7312 31.5929 66.6519 31.6142 66.5501 31.6355C66.4483 31.6592 66.3193 31.671 66.163 31.671C65.9263 31.671 65.6943 31.6201 65.467 31.5183C65.2421 31.4165 65.0551 31.2614 64.9059 31.0531C64.7591 30.8448 64.6857 30.582 64.6857 30.2647V24.8386ZM70.1776 31.7136C69.652 31.7136 69.1986 31.5976 68.8175 31.3656C68.4387 31.1312 68.1463 30.8045 67.9404 30.3855C67.7368 29.9641 67.635 29.474 67.635 28.9153C67.635 28.3566 67.7368 27.8642 67.9404 27.438C68.1463 27.0095 68.4328 26.6757 68.7997 26.4366C69.1691 26.1951 69.5999 26.0744 70.0924 26.0744C70.3764 26.0744 70.657 26.1218 70.934 26.2165C71.211 26.3111 71.4631 26.465 71.6904 26.6781C71.9176 26.8888 72.0987 27.1682 72.2337 27.5162C72.3686 27.8642 72.4361 28.2927 72.4361 28.8017V29.1568H68.2316V28.4324H71.5838C71.5838 28.1246 71.5223 27.85 71.3992 27.6085C71.2784 27.367 71.1056 27.1764 70.8807 27.0368C70.6582 26.8971 70.3954 26.8272 70.0924 26.8272C69.7585 26.8272 69.4697 26.9101 69.2259 27.0758C68.9844 27.2392 68.7986 27.4522 68.6683 27.715C68.5381 27.9778 68.473 28.2595 68.473 28.5602V29.0432C68.473 29.4551 68.5441 29.8043 68.6861 30.0907C68.8305 30.3748 69.0306 30.5915 69.2862 30.7406C69.5419 30.8874 69.839 30.9608 70.1776 30.9608C70.3977 30.9608 70.5966 30.93 70.7742 30.8684C70.9541 30.8045 71.1092 30.7098 71.2394 30.5844C71.3696 30.4565 71.4702 30.2979 71.5412 30.1085L72.3509 30.3358C72.2656 30.6104 72.1224 30.8519 71.9212 31.0602C71.72 31.2662 71.4714 31.4272 71.1754 31.5432C70.8795 31.6568 70.5469 31.7136 70.1776 31.7136ZM75.7706 31.7136C75.3161 31.7136 74.9148 31.5988 74.5668 31.3692C74.2188 31.1371 73.9465 30.8104 73.75 30.389C73.5535 29.9653 73.4553 29.4646 73.4553 28.8869C73.4553 28.314 73.5535 27.8168 73.75 27.3954C73.9465 26.974 74.22 26.6485 74.5703 26.4189C74.9207 26.1892 75.3255 26.0744 75.7848 26.0744C76.1399 26.0744 76.4205 26.1336 76.6264 26.252C76.8348 26.368 76.9934 26.5005 77.1023 26.6497C77.2136 26.7965 77.3 26.9172 77.3615 27.0119H77.4325V24.3272H78.2706V31.6H77.461V30.7619H77.3615C77.3 30.8613 77.2124 30.9868 77.0987 31.1383C76.9851 31.2875 76.8229 31.4212 76.6122 31.5396C76.4015 31.6556 76.121 31.7136 75.7706 31.7136ZM75.8843 30.9608C76.2204 30.9608 76.5045 30.8732 76.7365 30.698C76.9685 30.5204 77.1449 30.2754 77.2656 29.9629C77.3864 29.648 77.4468 29.2846 77.4468 28.8727C77.4468 28.4655 77.3876 28.1092 77.2692 27.8038C77.1508 27.496 76.9756 27.2569 76.7436 27.0865C76.5116 26.9137 76.2252 26.8272 75.8843 26.8272C75.5291 26.8272 75.2332 26.9184 74.9965 27.1007C74.7621 27.2806 74.5857 27.5256 74.4674 27.8358C74.3513 28.1435 74.2933 28.4892 74.2933 28.8727C74.2933 29.261 74.3525 29.6137 74.4709 29.9309C74.5916 30.2458 74.7692 30.4968 75.0036 30.6838C75.2403 30.8684 75.5339 30.9608 75.8843 30.9608ZM83.5156 29.6113L83.5014 28.5744H83.6719L86.0583 26.1454H87.0952L84.5526 28.7165H84.4816L83.5156 29.6113ZM82.7344 31.6V24.3272H83.5725V31.6H82.7344ZM86.2003 31.6L84.0696 28.9011L84.6662 28.3187L87.2656 31.6H86.2003ZM90.2362 31.7136C89.7106 31.7136 89.2572 31.5976 88.8761 31.3656C88.4973 31.1312 88.2049 30.8045 87.999 30.3855C87.7954 29.9641 87.6936 29.474 87.6936 28.9153C87.6936 28.3566 87.7954 27.8642 87.999 27.438C88.2049 27.0095 88.4914 26.6757 88.8583 26.4366C89.2276 26.1951 89.6585 26.0744 90.1509 26.0744C90.435 26.0744 90.7156 26.1218 90.9926 26.2165C91.2695 26.3111 91.5217 26.465 91.749 26.6781C91.9762 26.8888 92.1573 27.1682 92.2923 27.5162C92.4272 27.8642 92.4947 28.2927 92.4947 28.8017V29.1568H88.2901V28.4324H91.6424C91.6424 28.1246 91.5809 27.85 91.4578 27.6085C91.337 27.367 91.1642 27.1764 90.9393 27.0368C90.7168 26.8971 90.454 26.8272 90.1509 26.8272C89.8171 26.8272 89.5283 26.9101 89.2845 27.0758C89.043 27.2392 88.8571 27.4522 88.7269 27.715C88.5967 27.9778 88.5316 28.2595 88.5316 28.5602V29.0432C88.5316 29.4551 88.6026 29.8043 88.7447 30.0907C88.8891 30.3748 89.0892 30.5915 89.3448 30.7406C89.6005 30.8874 89.8976 30.9608 90.2362 30.9608C90.4563 30.9608 90.6552 30.93 90.8328 30.8684C91.0127 30.8045 91.1677 30.7098 91.298 30.5844C91.4282 30.4565 91.5288 30.2979 91.5998 30.1085L92.4095 30.3358C92.3242 30.6104 92.181 30.8519 91.9798 31.0602C91.7785 31.2662 91.53 31.4272 91.234 31.5432C90.9381 31.6568 90.6055 31.7136 90.2362 31.7136ZM94.1433 33.6454C94.0013 33.6454 93.8746 33.6336 93.7633 33.6099C93.6521 33.5886 93.5751 33.5673 93.5325 33.546L93.7456 32.8074C93.9492 32.8594 94.1291 32.8784 94.2854 32.8642C94.4416 32.85 94.5801 32.7801 94.7008 32.6547C94.8239 32.5316 94.9364 32.3315 95.0382 32.0545L95.1944 31.6284L93.1774 26.1454H94.0865L95.5922 30.492H95.649L97.1547 26.1454H98.0638L95.7484 32.3954C95.6443 32.6772 95.5152 32.9103 95.3613 33.095C95.2075 33.282 95.0287 33.4205 94.8251 33.5105C94.6239 33.6004 94.3966 33.6454 94.1433 33.6454ZM102.821 28.3187V31.6H101.982V26.1454H102.792V26.9977H102.863C102.991 26.7207 103.185 26.4982 103.446 26.3301C103.706 26.1596 104.042 26.0744 104.454 26.0744C104.823 26.0744 105.147 26.1502 105.423 26.3017C105.7 26.4508 105.916 26.6781 106.07 26.9835C106.224 27.2865 106.301 27.6701 106.301 28.1341V31.6H105.463V28.1909C105.463 27.7624 105.351 27.4286 105.129 27.1895C104.906 26.948 104.601 26.8272 104.213 26.8272C103.945 26.8272 103.706 26.8852 103.495 27.0013C103.287 27.1173 103.122 27.2865 103.002 27.5091C102.881 27.7316 102.821 28.0015 102.821 28.3187ZM110.048 31.7136C109.556 31.7136 109.123 31.5964 108.752 31.362C108.382 31.1277 108.094 30.7998 107.885 30.3784C107.679 29.957 107.576 29.4646 107.576 28.9011C107.576 28.3329 107.679 27.837 107.885 27.4132C108.094 26.9894 108.382 26.6603 108.752 26.426C109.123 26.1916 109.556 26.0744 110.048 26.0744C110.54 26.0744 110.971 26.1916 111.341 26.426C111.712 26.6603 112.001 26.9894 112.207 27.4132C112.415 27.837 112.52 28.3329 112.52 28.9011C112.52 29.4646 112.415 29.957 112.207 30.3784C112.001 30.7998 111.712 31.1277 111.341 31.362C110.971 31.5964 110.54 31.7136 110.048 31.7136ZM110.048 30.9608C110.422 30.9608 110.73 30.8649 110.971 30.6731C111.213 30.4814 111.391 30.2292 111.507 29.9167C111.623 29.6042 111.681 29.2657 111.681 28.9011C111.681 28.5365 111.623 28.1968 111.507 27.8819C111.391 27.5671 111.213 27.3126 110.971 27.1184C110.73 26.9243 110.422 26.8272 110.048 26.8272C109.674 26.8272 109.366 26.9243 109.125 27.1184C108.883 27.3126 108.704 27.5671 108.588 27.8819C108.472 28.1968 108.414 28.5365 108.414 28.9011C108.414 29.2657 108.472 29.6042 108.588 29.9167C108.704 30.2292 108.883 30.4814 109.125 30.6731C109.366 30.8649 109.674 30.9608 110.048 30.9608ZM115.859 31.7136C115.404 31.7136 115.003 31.5988 114.655 31.3692C114.307 31.1371 114.034 30.8104 113.838 30.389C113.641 29.9653 113.543 29.4646 113.543 28.8869C113.543 28.314 113.641 27.8168 113.838 27.3954C114.034 26.974 114.308 26.6485 114.658 26.4189C115.009 26.1892 115.413 26.0744 115.873 26.0744C116.228 26.0744 116.508 26.1336 116.714 26.252C116.923 26.368 117.081 26.5005 117.19 26.6497C117.301 26.7965 117.388 26.9172 117.449 27.0119H117.52V24.3272H118.359V31.6H117.549V30.7619H117.449C117.388 30.8613 117.3 30.9868 117.187 31.1383C117.073 31.2875 116.911 31.4212 116.7 31.5396C116.489 31.6556 116.209 31.7136 115.859 31.7136ZM115.972 30.9608C116.308 30.9608 116.592 30.8732 116.824 30.698C117.056 30.5204 117.233 30.2754 117.354 29.9629C117.474 29.648 117.535 29.2846 117.535 28.8727C117.535 28.4655 117.475 28.1092 117.357 27.8038C117.239 27.496 117.064 27.2569 116.832 27.0865C116.6 26.9137 116.313 26.8272 115.972 26.8272C115.617 26.8272 115.321 26.9184 115.084 27.1007C114.85 27.2806 114.674 27.5256 114.555 27.8358C114.439 28.1435 114.381 28.4892 114.381 28.8727C114.381 29.261 114.44 29.6137 114.559 29.9309C114.68 30.2458 114.857 30.4968 115.091 30.6838C115.328 30.8684 115.622 30.9608 115.972 30.9608ZM122.297 31.7136C121.771 31.7136 121.318 31.5976 120.937 31.3656C120.558 31.1312 120.265 30.8045 120.059 30.3855C119.856 29.9641 119.754 29.474 119.754 28.9153C119.754 28.3566 119.856 27.8642 120.059 27.438C120.265 27.0095 120.552 26.6757 120.919 26.4366C121.288 26.1951 121.719 26.0744 122.211 26.0744C122.496 26.0744 122.776 26.1218 123.053 26.2165C123.33 26.3111 123.582 26.465 123.809 26.6781C124.037 26.8888 124.218 27.1682 124.353 27.5162C124.488 27.8642 124.555 28.2927 124.555 28.8017V29.1568H120.351V28.4324H123.703C123.703 28.1246 123.641 27.85 123.518 27.6085C123.398 27.367 123.225 27.1764 123 27.0368C122.777 26.8971 122.515 26.8272 122.211 26.8272C121.878 26.8272 121.589 26.9101 121.345 27.0758C121.104 27.2392 120.918 27.4522 120.787 27.715C120.657 27.9778 120.592 28.2595 120.592 28.5602V29.0432C120.592 29.4551 120.663 29.8043 120.805 30.0907C120.95 30.3748 121.15 30.5915 121.405 30.7406C121.661 30.8874 121.958 30.9608 122.297 30.9608C122.517 30.9608 122.716 30.93 122.893 30.8684C123.073 30.8045 123.228 30.7098 123.359 30.5844C123.489 30.4565 123.589 30.2979 123.66 30.1085L124.47 30.3358C124.385 30.6104 124.242 30.8519 124.04 31.0602C123.839 31.2662 123.591 31.4272 123.295 31.5432C122.999 31.6568 122.666 31.7136 122.297 31.7136Z" fill="white"/>
<path d="M11.375 15.0216C11.3697 15.889 10.1327 16.0406 9.91952 15.2L9.48824 13.6L9.05695 12.4L8.19439 10.4L7.33182 8.39999L6.46925 6.39999L5.60668 4.79999L4.74411 3.59999L3.99839 2.56254C3.92068 2.45444 3.83237 2.35438 3.73476 2.26386L2.65321 1.26076C2.60977 1.22047 2.56062 1.18679 2.50735 1.16082C1.9301 0.879381 2.13369 0.0105085 2.7761 0.0138763L9.46622 0.0489487C10.5708 0.0547393 11.4607 0.954846 11.454 2.0594L11.375 15.0216Z" fill="#3D3D3D"/>
<path d="M47.1533 13V5H50.0049C50.6273 5 51.1429 5.11328 51.5518 5.33984C51.9606 5.56641 52.2666 5.8763 52.4697 6.26953C52.6729 6.66016 52.7744 7.10026 52.7744 7.58984C52.7744 8.08203 52.6715 8.52474 52.4658 8.91797C52.2627 9.30859 51.9554 9.61849 51.5439 9.84766C51.1351 10.0742 50.6208 10.1875 50.001 10.1875H48.04V9.16406H49.8916C50.2848 9.16406 50.6038 9.09635 50.8486 8.96094C51.0934 8.82292 51.2731 8.63542 51.3877 8.39844C51.5023 8.16146 51.5596 7.89193 51.5596 7.58984C51.5596 7.28776 51.5023 7.01953 51.3877 6.78516C51.2731 6.55078 51.0921 6.36719 50.8447 6.23438C50.5999 6.10156 50.277 6.03516 49.876 6.03516H48.3604V13H47.1533ZM55.7881 13.1328C55.4079 13.1328 55.0641 13.0625 54.7568 12.9219C54.4495 12.7786 54.2061 12.5716 54.0264 12.3008C53.8493 12.0299 53.7607 11.6979 53.7607 11.3047C53.7607 10.9661 53.8258 10.6875 53.9561 10.4687C54.0863 10.25 54.262 10.0768 54.4834 9.94922C54.7048 9.82161 54.9521 9.72526 55.2256 9.66016C55.499 9.59505 55.7777 9.54557 56.0615 9.51172C56.4209 9.47005 56.7126 9.4362 56.9365 9.41016C57.1605 9.38151 57.3232 9.33594 57.4248 9.27344C57.5264 9.21094 57.5771 9.10937 57.5771 8.96875V8.94141C57.5771 8.60026 57.4808 8.33594 57.2881 8.14844C57.098 7.96094 56.8141 7.86719 56.4365 7.86719C56.0433 7.86719 55.7334 7.95443 55.5068 8.12891C55.2829 8.30078 55.1279 8.49219 55.042 8.70312L53.9443 8.45312C54.0745 8.08854 54.2646 7.79427 54.5146 7.57031C54.7673 7.34375 55.0576 7.17969 55.3857 7.07812C55.7139 6.97396 56.0589 6.92188 56.4209 6.92188C56.6605 6.92188 56.9144 6.95052 57.1826 7.00781C57.4535 7.0625 57.7061 7.16406 57.9404 7.3125C58.1774 7.46094 58.3714 7.67318 58.5225 7.94922C58.6735 8.22266 58.749 8.57813 58.749 9.01563V13H57.6084V12.1797H57.5615C57.486 12.3307 57.3727 12.4792 57.2217 12.625C57.0706 12.7708 56.8766 12.8919 56.6396 12.9883C56.4027 13.0846 56.1188 13.1328 55.7881 13.1328ZM56.042 12.1953C56.3649 12.1953 56.641 12.1315 56.8701 12.0039C57.1019 11.8763 57.2777 11.7096 57.3975 11.5039C57.5199 11.2956 57.5811 11.0729 57.5811 10.8359V10.0625C57.5394 10.1042 57.4587 10.1432 57.3389 10.1797C57.2217 10.2135 57.0876 10.2435 56.9365 10.2695C56.7855 10.293 56.6383 10.3151 56.4951 10.3359C56.3519 10.3542 56.2321 10.3698 56.1357 10.3828C55.9092 10.4115 55.7021 10.4596 55.5146 10.5273C55.3298 10.5951 55.1813 10.6927 55.0693 10.8203C54.96 10.9453 54.9053 11.112 54.9053 11.3203C54.9053 11.6094 55.012 11.8281 55.2256 11.9766C55.4391 12.1224 55.7113 12.1953 56.042 12.1953ZM62.8203 15.375C62.3438 15.375 61.9336 15.3125 61.5898 15.1875C61.2487 15.0625 60.9701 14.8971 60.7539 14.6914C60.5378 14.4857 60.3763 14.2604 60.2695 14.0156L61.2734 13.6016C61.3438 13.7161 61.4375 13.8372 61.5547 13.9648C61.6745 14.0951 61.8359 14.2057 62.0391 14.2969C62.2448 14.388 62.5091 14.4336 62.832 14.4336C63.2747 14.4336 63.6406 14.3255 63.9297 14.1094C64.2188 13.8958 64.3633 13.5547 64.3633 13.0859V11.9062H64.2891C64.2188 12.0339 64.1172 12.1758 63.9844 12.332C63.8542 12.4883 63.6745 12.6237 63.4453 12.7383C63.2161 12.8529 62.918 12.9102 62.5508 12.9102C62.0768 12.9102 61.6497 12.7995 61.2695 12.5781C60.8919 12.3542 60.5924 12.0247 60.3711 11.5898C60.1523 11.1523 60.043 10.6146 60.043 9.97656C60.043 9.33854 60.151 8.79167 60.3672 8.33594C60.5859 7.88021 60.8854 7.53125 61.2656 7.28906C61.6458 7.04427 62.0768 6.92188 62.5586 6.92188C62.931 6.92188 63.2318 6.98438 63.4609 7.10937C63.6901 7.23177 63.8685 7.375 63.9961 7.53906C64.1263 7.70312 64.2266 7.84766 64.2969 7.97266H64.3828V7H65.5273V13.1328C65.5273 13.6484 65.4076 14.0716 65.168 14.4023C64.9284 14.7331 64.6042 14.9779 64.1953 15.1367C63.7891 15.2956 63.3307 15.375 62.8203 15.375ZM62.8086 11.9414C63.1445 11.9414 63.4284 11.8633 63.6602 11.707C63.8945 11.5482 64.0716 11.3216 64.1914 11.0273C64.3138 10.7305 64.375 10.375 64.375 9.96094C64.375 9.55729 64.3151 9.20182 64.1953 8.89453C64.0755 8.58724 63.8997 8.34766 63.668 8.17578C63.4362 8.0013 63.1497 7.91406 62.8086 7.91406C62.457 7.91406 62.1641 8.00521 61.9297 8.1875C61.6953 8.36719 61.5182 8.61198 61.3984 8.92187C61.2813 9.23177 61.2227 9.57812 61.2227 9.96094C61.2227 10.3542 61.2826 10.6992 61.4023 10.9961C61.5221 11.293 61.6992 11.5247 61.9336 11.6914C62.1706 11.8581 62.4622 11.9414 62.8086 11.9414ZM69.6797 13.1211C69.0885 13.1211 68.5794 12.9948 68.1523 12.7422C67.7279 12.487 67.3997 12.1289 67.168 11.668C66.9388 11.2044 66.8242 10.6615 66.8242 10.0391C66.8242 9.42448 66.9388 8.88281 67.168 8.41406C67.3997 7.94531 67.7227 7.57943 68.1367 7.31641C68.5534 7.05339 69.0404 6.92188 69.5977 6.92188C69.9362 6.92188 70.2643 6.97786 70.582 7.08984C70.8997 7.20182 71.1849 7.3776 71.4375 7.61719C71.6901 7.85677 71.8893 8.16797 72.0352 8.55078C72.181 8.93099 72.2539 9.39323 72.2539 9.9375V10.3516H67.4844V9.47656H71.1094C71.1094 9.16927 71.0469 8.89714 70.9219 8.66016C70.7969 8.42057 70.6211 8.23177 70.3945 8.09375C70.1706 7.95573 69.9076 7.88672 69.6055 7.88672C69.2773 7.88672 68.9909 7.96745 68.7461 8.12891C68.5039 8.28776 68.3164 8.49609 68.1836 8.75391C68.0534 9.00911 67.9883 9.28646 67.9883 9.58594V10.2695C67.9883 10.6706 68.0586 11.0117 68.1992 11.293C68.3424 11.5742 68.5417 11.7891 68.7969 11.9375C69.0521 12.0833 69.3503 12.1562 69.6914 12.1562C69.9128 12.1562 70.1146 12.125 70.2969 12.0625C70.4792 11.9974 70.6367 11.901 70.7695 11.7734C70.9023 11.6458 71.0039 11.4883 71.0742 11.3008L72.1797 11.5C72.0911 11.8255 71.9323 12.1107 71.7031 12.3555C71.4766 12.5977 71.1914 12.7865 70.8477 12.9219C70.5065 13.0547 70.1172 13.1211 69.6797 13.1211ZM76.5547 13V5H79.4063C80.026 5 80.5404 5.10677 80.9492 5.32031C81.3607 5.53385 81.668 5.82943 81.8711 6.20703C82.0742 6.58203 82.1758 7.01562 82.1758 7.50781C82.1758 7.9974 82.0729 8.42839 81.8672 8.80078C81.6641 9.17057 81.3568 9.45833 80.9453 9.66406C80.5365 9.86979 80.0221 9.97266 79.4023 9.97266H77.2422V8.93359H79.293C79.6836 8.93359 80.0013 8.8776 80.2461 8.76562C80.4935 8.65365 80.6745 8.49089 80.7891 8.27734C80.9036 8.0638 80.9609 7.80729 80.9609 7.50781C80.9609 7.20573 80.9023 6.94401 80.7852 6.72266C80.6706 6.5013 80.4896 6.33203 80.2422 6.21484C79.9974 6.09505 79.6758 6.03516 79.2773 6.03516H77.7617V13H76.5547ZM80.5039 9.39062L82.4805 13H81.1055L79.168 9.39062H80.5039ZM85.2969 13.1328C84.9167 13.1328 84.5729 13.0625 84.2656 12.9219C83.9583 12.7786 83.7148 12.5716 83.5352 12.3008C83.3581 12.0299 83.2695 11.6979 83.2695 11.3047C83.2695 10.9661 83.3346 10.6875 83.4648 10.4687C83.5951 10.25 83.7708 10.0768 83.9922 9.94922C84.2135 9.82161 84.4609 9.72526 84.7344 9.66016C85.0078 9.59505 85.2865 9.54557 85.5703 9.51172C85.9297 9.47005 86.2214 9.4362 86.4453 9.41016C86.6693 9.38151 86.832 9.33594 86.9336 9.27344C87.0352 9.21094 87.0859 9.10937 87.0859 8.96875V8.94141C87.0859 8.60026 86.9896 8.33594 86.7969 8.14844C86.6068 7.96094 86.3229 7.86719 85.9453 7.86719C85.5521 7.86719 85.2422 7.95443 85.0156 8.12891C84.7917 8.30078 84.6367 8.49219 84.5508 8.70312L83.4531 8.45312C83.5833 8.08854 83.7734 7.79427 84.0234 7.57031C84.276 7.34375 84.5664 7.17969 84.8945 7.07812C85.2227 6.97396 85.5677 6.92188 85.9297 6.92188C86.1693 6.92188 86.4232 6.95052 86.6914 7.00781C86.9622 7.0625 87.2148 7.16406 87.4492 7.3125C87.6862 7.46094 87.8802 7.67318 88.0313 7.94922C88.1823 8.22266 88.2578 8.57813 88.2578 9.01563V13H87.1172V12.1797H87.0703C86.9948 12.3307 86.8815 12.4792 86.7305 12.625C86.5794 12.7708 86.3854 12.8919 86.1484 12.9883C85.9115 13.0846 85.6276 13.1328 85.2969 13.1328ZM85.5508 12.1953C85.8737 12.1953 86.1497 12.1315 86.3789 12.0039C86.6107 11.8763 86.7865 11.7096 86.9063 11.5039C87.0286 11.2956 87.0898 11.0729 87.0898 10.8359V10.0625C87.0482 10.1042 86.9674 10.1432 86.8477 10.1797C86.7305 10.2135 86.5964 10.2435 86.4453 10.2695C86.2943 10.293 86.1471 10.3151 86.0039 10.3359C85.8607 10.3542 85.7409 10.3698 85.6445 10.3828C85.418 10.4115 85.2109 10.4596 85.0234 10.5273C84.8385 10.5951 84.6901 10.6927 84.5781 10.8203C84.4688 10.9453 84.4141 11.112 84.4141 11.3203C84.4141 11.6094 84.5208 11.8281 84.7344 11.9766C84.9479 12.1224 85.2201 12.1953 85.5508 12.1953ZM90.9814 9.4375V13H89.8135V7H90.9346V7.97656H91.0088C91.1468 7.65885 91.363 7.40365 91.6572 7.21094C91.9541 7.01823 92.3278 6.92188 92.7783 6.92188C93.1872 6.92188 93.5452 7.00781 93.8525 7.17969C94.1598 7.34896 94.3981 7.60156 94.5674 7.9375C94.7367 8.27344 94.8213 8.6888 94.8213 9.18359V13H93.6533V9.32422C93.6533 8.88932 93.54 8.54948 93.3135 8.30469C93.0869 8.05729 92.7757 7.93359 92.3799 7.93359C92.109 7.93359 91.8682 7.99219 91.6572 8.10937C91.4489 8.22656 91.2835 8.39844 91.1611 8.625C91.0413 8.84896 90.9814 9.11979 90.9814 9.4375ZM97.4619 10.9648L97.4541 9.53906H97.6572L100.048 7H101.446L98.7197 9.89062H98.5361L97.4619 10.9648ZM96.3877 13V5H97.5557V13H96.3877ZM100.177 13L98.0283 10.1484L98.833 9.33203L101.61 13H100.177Z" fill="white"/>
</svg>
