<svg width="139" height="52" viewBox="0 0 139 52" fill="none" xmlns="http://www.w3.org/2000/svg">
<path d="M9.61469 0H134C136.761 0 139 2.23858 139 5V47C139 49.7614 136.761 52 134 52H14.6147C11.8533 52 9.61469 49.7614 9.61469 47V0Z" fill="#3D3D3D"/>
<path d="M44.3888 26.6H43.5081C43.456 26.3467 43.3649 26.1242 43.2347 25.9324C43.1068 25.7406 42.9506 25.5796 42.7659 25.4494C42.5836 25.3169 42.3812 25.2174 42.1587 25.1511C41.9361 25.0849 41.7041 25.0517 41.4626 25.0517C41.0223 25.0517 40.6234 25.163 40.2659 25.3855C39.9108 25.6081 39.6279 25.9359 39.4172 26.3692C39.2089 26.8024 39.1047 27.3339 39.1047 27.9636C39.1047 28.5934 39.2089 29.1249 39.4172 29.5581C39.6279 29.9913 39.9108 30.3192 40.2659 30.5418C40.6234 30.7643 41.0223 30.8756 41.4626 30.8756C41.7041 30.8756 41.9361 30.8424 42.1587 30.7761C42.3812 30.7099 42.5836 30.6116 42.7659 30.4814C42.9506 30.3488 43.1068 30.1867 43.2347 29.9949C43.3649 29.8008 43.456 29.5782 43.5081 29.3273H44.3888C44.3225 29.699 44.2018 30.0316 44.0266 30.3251C43.8514 30.6187 43.6336 30.8685 43.3732 31.0744C43.1127 31.278 42.8204 31.4331 42.496 31.5396C42.1741 31.6462 41.8296 31.6994 41.4626 31.6994C40.8424 31.6994 40.2908 31.5479 39.8078 31.2449C39.3249 30.9419 38.9449 30.511 38.6679 29.9523C38.3909 29.3936 38.2524 28.7307 38.2524 27.9636C38.2524 27.1966 38.3909 26.5337 38.6679 25.975C38.9449 25.4163 39.3249 24.9854 39.8078 24.6824C40.2908 24.3794 40.8424 24.2278 41.4626 24.2278C41.8296 24.2278 42.1741 24.2811 42.496 24.3876C42.8204 24.4942 43.1127 24.6504 43.3732 24.8564C43.6336 25.06 43.8514 25.3086 44.0266 25.6021C44.2018 25.8933 44.3225 26.226 44.3888 26.6ZM46.5363 24.3273V31.6H45.6983V24.3273H46.5363ZM51.5088 29.3699V26.1455H52.3469V31.6H51.5088V30.6767H51.452C51.3242 30.9537 51.1253 31.1893 50.8554 31.3834C50.5855 31.5751 50.2446 31.671 49.8327 31.671C49.4918 31.671 49.1887 31.5965 48.9236 31.4473C48.6584 31.2958 48.4501 31.0685 48.2986 30.7655C48.1471 30.4601 48.0713 30.0754 48.0713 29.6114V26.1455H48.9094V29.5546C48.9094 29.9523 49.0206 30.2695 49.2432 30.5063C49.4681 30.743 49.7545 30.8614 50.1026 30.8614C50.3109 30.8614 50.5228 30.8081 50.7382 30.7016C50.956 30.595 51.1383 30.4317 51.2851 30.2115C51.4342 29.9913 51.5088 29.7108 51.5088 29.3699ZM57.7455 27.3671L56.9927 27.5801C56.9453 27.4546 56.8755 27.3327 56.7831 27.2144C56.6932 27.0936 56.5701 26.9942 56.4138 26.9161C56.2576 26.8379 56.0575 26.7989 55.8137 26.7989C55.4799 26.7989 55.2017 26.8758 54.9792 27.0297C54.759 27.1812 54.6489 27.3742 54.6489 27.6085C54.6489 27.8169 54.7247 27.9814 54.8762 28.1021C55.0277 28.2229 55.2644 28.3235 55.5864 28.404L56.3961 28.6028C56.8838 28.7212 57.2472 28.9023 57.4863 29.1462C57.7254 29.3876 57.8449 29.699 57.8449 30.0801C57.8449 30.3926 57.755 30.672 57.575 30.9182C57.3975 31.1644 57.1489 31.3585 56.8293 31.5006C56.5097 31.6426 56.138 31.7136 55.7142 31.7136C55.1579 31.7136 54.6974 31.5929 54.3329 31.3514C53.9683 31.1099 53.7374 30.7572 53.6404 30.2932L54.4358 30.0943C54.5116 30.3879 54.6548 30.6081 54.8655 30.7548C55.0786 30.9016 55.3568 30.975 55.7 30.975C56.0907 30.975 56.4008 30.8921 56.6304 30.7264C56.8624 30.5583 56.9784 30.3571 56.9784 30.1227C56.9784 29.9333 56.9122 29.7747 56.7796 29.6469C56.647 29.5167 56.4434 29.4196 56.1688 29.3557L55.2597 29.1426C54.7602 29.0242 54.3932 28.8408 54.1588 28.5922C53.9268 28.3412 53.8108 28.0276 53.8108 27.6511C53.8108 27.3434 53.8972 27.0711 54.0701 26.8344C54.2453 26.5976 54.4832 26.4118 54.7838 26.2769C55.0869 26.1419 55.4302 26.0744 55.8137 26.0744C56.3534 26.0744 56.7772 26.1928 57.085 26.4296C57.3951 26.6663 57.6153 26.9788 57.7455 27.3671ZM61.4786 26.1455V26.8557H58.6519V26.1455H61.4786ZM59.4758 24.8386H60.3139V30.0375C60.3139 30.2742 60.3482 30.4518 60.4168 30.5702C60.4879 30.6862 60.5778 30.7643 60.6867 30.8046C60.798 30.8424 60.9152 30.8614 61.0383 30.8614C61.1306 30.8614 61.2064 30.8566 61.2656 30.8472C61.3247 30.8353 61.3721 30.8259 61.4076 30.8188L61.5781 31.5716C61.5212 31.5929 61.4419 31.6142 61.3401 31.6355C61.2383 31.6592 61.1093 31.671 60.9531 31.671C60.7163 31.671 60.4843 31.6201 60.257 31.5183C60.0321 31.4165 59.8451 31.2615 59.696 31.0531C59.5492 30.8448 59.4758 30.582 59.4758 30.2648V24.8386ZM64.9676 31.7136C64.442 31.7136 63.9887 31.5976 63.6075 31.3656C63.2287 31.1313 62.9364 30.8046 62.7304 30.3855C62.5268 29.9641 62.425 29.4741 62.425 28.9153C62.425 28.3566 62.5268 27.8642 62.7304 27.4381C62.9364 27.0096 63.2228 26.6758 63.5898 26.4367C63.9591 26.1952 64.39 26.0744 64.8824 26.0744C65.1665 26.0744 65.447 26.1218 65.724 26.2165C66.001 26.3112 66.2531 26.4651 66.4804 26.6781C66.7077 26.8888 66.8888 27.1682 67.0237 27.5162C67.1587 27.8642 67.2261 28.2927 67.2261 28.8017V29.1568H63.0216V28.4324H66.3739C66.3739 28.1246 66.3123 27.85 66.1892 27.6085C66.0685 27.3671 65.8956 27.1765 65.6707 27.0368C65.4482 26.8971 65.1854 26.8273 64.8824 26.8273C64.5486 26.8273 64.2598 26.9101 64.0159 27.0759C63.7744 27.2392 63.5886 27.4523 63.4584 27.7151C63.3282 27.9778 63.2631 28.2596 63.2631 28.5602V29.0432C63.2631 29.4551 63.3341 29.8043 63.4761 30.0908C63.6206 30.3749 63.8206 30.5915 64.0763 30.7406C64.332 30.8874 64.6291 30.9608 64.9676 30.9608C65.1878 30.9608 65.3867 30.93 65.5642 30.8685C65.7441 30.8046 65.8992 30.7099 66.0294 30.5844C66.1596 30.4565 66.2602 30.2979 66.3313 30.1085L67.1409 30.3358C67.0557 30.6104 66.9125 30.8519 66.7112 31.0602C66.51 31.2662 66.2614 31.4272 65.9655 31.5432C65.6696 31.6568 65.3369 31.7136 64.9676 31.7136ZM68.501 31.6V26.1455H69.3107V26.9693H69.3675C69.4669 26.6994 69.6468 26.4805 69.9072 26.3124C70.1677 26.1443 70.4612 26.0602 70.7879 26.0602C70.8495 26.0602 70.9264 26.0614 71.0188 26.0638C71.1111 26.0662 71.1809 26.0697 71.2283 26.0744V26.9267C71.1999 26.9196 71.1348 26.909 71.033 26.8948C70.9335 26.8782 70.8282 26.8699 70.7169 26.8699C70.4518 26.8699 70.215 26.9255 70.0067 27.0368C69.8007 27.1457 69.6374 27.2972 69.5166 27.4913C69.3983 27.6831 69.3391 27.9021 69.3391 28.1483V31.6H68.501ZM72.2217 31.6V26.1455H73.0598V31.6H72.2217ZM72.6478 25.2364C72.4845 25.2364 72.3436 25.1807 72.2253 25.0695C72.1092 24.9582 72.0512 24.8244 72.0512 24.6682C72.0512 24.5119 72.1092 24.3782 72.2253 24.2669C72.3436 24.1556 72.4845 24.1 72.6478 24.1C72.8112 24.1 72.9509 24.1556 73.0669 24.2669C73.1852 24.3782 73.2444 24.5119 73.2444 24.6682C73.2444 24.8244 73.1852 24.9582 73.0669 25.0695C72.9509 25.1807 72.8112 25.2364 72.6478 25.2364ZM75.4328 28.3188V31.6H74.5947V26.1455H75.4044V26.9977H75.4754C75.6033 26.7207 75.7974 26.4982 76.0578 26.3301C76.3182 26.1597 76.6544 26.0744 77.0663 26.0744C77.4357 26.0744 77.7588 26.1502 78.0358 26.3017C78.3128 26.4509 78.5282 26.6781 78.6821 26.9835C78.836 27.2866 78.9129 27.6701 78.9129 28.1341V31.6H78.0749V28.1909C78.0749 27.7624 77.9636 27.4286 77.7411 27.1895C77.5185 26.948 77.2131 26.8273 76.8249 26.8273C76.5573 26.8273 76.3182 26.8853 76.1075 27.0013C75.8992 27.1173 75.7347 27.2866 75.6139 27.5091C75.4932 27.7316 75.4328 28.0015 75.4328 28.3188ZM82.6461 33.7591C82.2412 33.7591 81.8932 33.707 81.602 33.6028C81.3108 33.501 81.0682 33.3661 80.874 33.198C80.6823 33.0323 80.5296 32.8547 80.4159 32.6653L81.0836 32.1966C81.1593 32.296 81.2552 32.4097 81.3712 32.5375C81.4872 32.6677 81.6458 32.7802 81.8471 32.8749C82.0507 32.9719 82.317 33.0205 82.6461 33.0205C83.0864 33.0205 83.4498 32.9139 83.7363 32.7009C84.0227 32.4878 84.1659 32.154 84.1659 31.6994V30.5915H84.0949C84.0334 30.6909 83.9458 30.814 83.8321 30.9608C83.7209 31.1052 83.5599 31.2342 83.3492 31.3479C83.1408 31.4591 82.8591 31.5148 82.504 31.5148C82.0637 31.5148 81.6683 31.4106 81.3179 31.2023C80.9699 30.9939 80.6941 30.6909 80.4905 30.2932C80.2893 29.8955 80.1887 29.4125 80.1887 28.8443C80.1887 28.2856 80.2869 27.7991 80.4834 27.3848C80.6799 26.9681 80.9533 26.6462 81.3037 26.4189C81.6541 26.1893 82.0589 26.0744 82.5182 26.0744C82.8733 26.0744 83.1551 26.1336 83.3634 26.252C83.5741 26.368 83.7351 26.5006 83.8463 26.6497C83.96 26.7965 84.0476 26.9172 84.1091 27.0119H84.1944V26.1455H85.004V31.7563C85.004 32.225 84.8975 32.6062 84.6844 32.8997C84.4737 33.1957 84.1896 33.4123 83.8321 33.5496C83.477 33.6893 83.0817 33.7591 82.6461 33.7591ZM82.6176 30.7619C82.9538 30.7619 83.2379 30.685 83.4699 30.5311C83.7019 30.3772 83.8783 30.1559 83.999 29.8671C84.1198 29.5782 84.1801 29.2326 84.1801 28.8301C84.1801 28.4371 84.121 28.0903 84.0026 27.7896C83.8842 27.489 83.709 27.2534 83.477 27.083C83.245 26.9125 82.9586 26.8273 82.6176 26.8273C82.2625 26.8273 81.9666 26.9172 81.7299 27.0972C81.4955 27.2771 81.3191 27.5186 81.2007 27.8216C81.0847 28.1246 81.0267 28.4608 81.0267 28.8301C81.0267 29.2089 81.0859 29.5439 81.2043 29.8351C81.325 30.1239 81.5026 30.3512 81.737 30.5169C81.9737 30.6803 82.2673 30.7619 82.6176 30.7619ZM90.1887 28.3188V31.6H89.3506V26.1455H90.1603V26.9977H90.2313C90.3591 26.7207 90.5533 26.4982 90.8137 26.3301C91.0741 26.1597 91.4103 26.0744 91.8222 26.0744C92.1915 26.0744 92.5147 26.1502 92.7917 26.3017C93.0686 26.4509 93.2841 26.6781 93.438 26.9835C93.5918 27.2866 93.6688 27.6701 93.6688 28.1341V31.6H92.8307V28.1909C92.8307 27.7624 92.7194 27.4286 92.4969 27.1895C92.2744 26.948 91.969 26.8273 91.5807 26.8273C91.3132 26.8273 91.0741 26.8853 90.8634 27.0013C90.6551 27.1173 90.4905 27.2866 90.3698 27.5091C90.249 27.7316 90.1887 28.0015 90.1887 28.3188ZM97.4161 31.7136C96.9237 31.7136 96.4916 31.5965 96.12 31.3621C95.7506 31.1277 95.4618 30.7998 95.2535 30.3784C95.0475 29.957 94.9445 29.4646 94.9445 28.9011C94.9445 28.333 95.0475 27.837 95.2535 27.4132C95.4618 26.9894 95.7506 26.6604 96.12 26.426C96.4916 26.1916 96.9237 26.0744 97.4161 26.0744C97.9085 26.0744 98.3394 26.1916 98.7087 26.426C99.0804 26.6604 99.3692 26.9894 99.5752 27.4132C99.7835 27.837 99.8877 28.333 99.8877 28.9011C99.8877 29.4646 99.7835 29.957 99.5752 30.3784C99.3692 30.7998 99.0804 31.1277 98.7087 31.3621C98.3394 31.5965 97.9085 31.7136 97.4161 31.7136ZM97.4161 30.9608C97.7902 30.9608 98.0979 30.8649 98.3394 30.6732C98.5809 30.4814 98.7596 30.2293 98.8756 29.9168C98.9916 29.6043 99.0496 29.2657 99.0496 28.9011C99.0496 28.5366 98.9916 28.1968 98.8756 27.882C98.7596 27.5671 98.5809 27.3126 98.3394 27.1185C98.0979 26.9243 97.7902 26.8273 97.4161 26.8273C97.0421 26.8273 96.7343 26.9243 96.4928 27.1185C96.2513 27.3126 96.0726 27.5671 95.9566 27.882C95.8406 28.1968 95.7826 28.5366 95.7826 28.9011C95.7826 29.2657 95.8406 29.6043 95.9566 29.9168C96.0726 30.2293 96.2513 30.4814 96.4928 30.6732C96.7343 30.8649 97.0421 30.9608 97.4161 30.9608ZM103.227 31.7136C102.772 31.7136 102.371 31.5988 102.023 31.3692C101.675 31.1372 101.403 30.8105 101.206 30.3891C101.01 29.9653 100.911 29.4646 100.911 28.8869C100.911 28.314 101.01 27.8169 101.206 27.3955C101.403 26.9741 101.676 26.6485 102.026 26.4189C102.377 26.1893 102.782 26.0744 103.241 26.0744C103.596 26.0744 103.877 26.1336 104.082 26.252C104.291 26.368 104.449 26.5006 104.558 26.6497C104.67 26.7965 104.756 26.9172 104.818 27.0119H104.889V24.3273H105.727V31.6H104.917V30.7619H104.818C104.756 30.8614 104.668 30.9868 104.555 31.1384C104.441 31.2875 104.279 31.4213 104.068 31.5396C103.858 31.6556 103.577 31.7136 103.227 31.7136ZM103.34 30.9608C103.676 30.9608 103.961 30.8732 104.193 30.698C104.425 30.5205 104.601 30.2754 104.722 29.9629C104.842 29.6481 104.903 29.2847 104.903 28.8727C104.903 28.4655 104.844 28.1092 104.725 27.8038C104.607 27.4961 104.432 27.257 104.2 27.0865C103.968 26.9137 103.681 26.8273 103.34 26.8273C102.985 26.8273 102.689 26.9184 102.453 27.1007C102.218 27.2806 102.042 27.5257 101.923 27.8358C101.807 28.1436 101.749 28.4892 101.749 28.8727C101.749 29.261 101.809 29.6137 101.927 29.931C102.048 30.2458 102.225 30.4968 102.46 30.6838C102.696 30.8685 102.99 30.9608 103.34 30.9608ZM109.665 31.7136C109.139 31.7136 108.686 31.5976 108.305 31.3656C107.926 31.1313 107.634 30.8046 107.428 30.3855C107.224 29.9641 107.122 29.4741 107.122 28.9153C107.122 28.3566 107.224 27.8642 107.428 27.4381C107.634 27.0096 107.92 26.6758 108.287 26.4367C108.656 26.1952 109.087 26.0744 109.58 26.0744C109.864 26.0744 110.144 26.1218 110.421 26.2165C110.698 26.3112 110.95 26.4651 111.178 26.6781C111.405 26.8888 111.586 27.1682 111.721 27.5162C111.856 27.8642 111.923 28.2927 111.923 28.8017V29.1568H107.719V28.4324H111.071C111.071 28.1246 111.01 27.85 110.886 27.6085C110.766 27.3671 110.593 27.1765 110.368 27.0368C110.145 26.8971 109.883 26.8273 109.58 26.8273C109.246 26.8273 108.957 26.9101 108.713 27.0759C108.472 27.2392 108.286 27.4523 108.156 27.7151C108.025 27.9778 107.96 28.2596 107.96 28.5602V29.0432C107.96 29.4551 108.031 29.8043 108.173 30.0908C108.318 30.3749 108.518 30.5915 108.774 30.7406C109.029 30.8874 109.326 30.9608 109.665 30.9608C109.885 30.9608 110.084 30.93 110.261 30.8685C110.441 30.8046 110.596 30.7099 110.727 30.5844C110.857 30.4565 110.957 30.2979 111.029 30.1085L111.838 30.3358C111.753 30.6104 111.61 30.8519 111.408 31.0602C111.207 31.2662 110.959 31.4272 110.663 31.5432C110.367 31.6568 110.034 31.7136 109.665 31.7136Z" fill="white"/>
<path d="M11.375 15.0216C11.3697 15.889 10.1327 16.0406 9.91952 15.2V15.2L9.48824 13.6L9.05695 12.4L8.19439 10.4L7.33182 8.39999L6.46925 6.39999L5.60668 4.79999L4.74411 3.59999L3.99839 2.56254C3.92068 2.45444 3.83237 2.35438 3.73476 2.26386L2.65321 1.26076C2.60977 1.22046 2.56062 1.18679 2.50735 1.16082V1.16082C1.9301 0.879381 2.13369 0.0105082 2.7761 0.013876L9.46622 0.0489485C10.5708 0.054739 11.4607 0.954847 11.454 2.0594L11.375 15.0216Z" fill="#3D3D3D"/>
<path d="M63.0366 7.60156H61.8179C61.771 7.34115 61.6838 7.11198 61.5562 6.91406C61.4285 6.71615 61.2723 6.54818 61.0874 6.41016C60.9025 6.27214 60.6955 6.16797 60.4663 6.09766C60.2397 6.02734 59.9989 5.99219 59.7437 5.99219C59.2827 5.99219 58.87 6.10807 58.5054 6.33984C58.1434 6.57161 57.8569 6.91146 57.646 7.35937C57.4377 7.80729 57.3335 8.35417 57.3335 9C57.3335 9.65104 57.4377 10.2005 57.646 10.6484C57.8569 11.0964 58.1447 11.4349 58.5093 11.6641C58.8739 11.8932 59.284 12.0078 59.7397 12.0078C59.9924 12.0078 60.2319 11.974 60.4585 11.9062C60.6877 11.8359 60.8947 11.7331 61.0796 11.5977C61.2645 11.4622 61.4207 11.2969 61.5483 11.1016C61.6785 10.9036 61.7684 10.6771 61.8179 10.4219L63.0366 10.4258C62.9715 10.819 62.8452 11.181 62.6577 11.5117C62.4728 11.8398 62.2345 12.1237 61.9429 12.3633C61.6538 12.6003 61.3231 12.7839 60.9507 12.9141C60.5783 13.0443 60.172 13.1094 59.7319 13.1094C59.0392 13.1094 58.422 12.9453 57.8804 12.6172C57.3387 12.2865 56.9116 11.8138 56.5991 11.1992C56.2892 10.5846 56.1343 9.85156 56.1343 9C56.1343 8.14583 56.2905 7.41276 56.603 6.80078C56.9155 6.1862 57.3426 5.71484 57.8843 5.38672C58.4259 5.05599 59.0418 4.89062 59.7319 4.89062C60.1564 4.89062 60.5522 4.95182 60.9194 5.07422C61.2892 5.19401 61.6213 5.37109 61.9155 5.60547C62.2098 5.83724 62.4533 6.12109 62.646 6.45703C62.8387 6.79036 62.9689 7.17187 63.0366 7.60156ZM65.5552 5V13H64.3872V5H65.5552ZM70.9272 10.5117V7H72.0991V13H70.9507V11.9609H70.8882C70.7502 12.2813 70.5288 12.5482 70.2241 12.7617C69.922 12.9727 69.5457 13.0781 69.0952 13.0781C68.7098 13.0781 68.3687 12.9935 68.0718 12.8242C67.7775 12.6523 67.5457 12.3984 67.3765 12.0625C67.2098 11.7266 67.1265 11.3112 67.1265 10.8164V7H68.2944V10.6758C68.2944 11.0846 68.4077 11.4102 68.6343 11.6523C68.8608 11.8945 69.1551 12.0156 69.5171 12.0156C69.7358 12.0156 69.9533 11.9609 70.1694 11.8516C70.3882 11.7422 70.5692 11.5768 70.7124 11.3555C70.8582 11.1341 70.9299 10.8529 70.9272 10.5117ZM78.1646 8.46484L77.106 8.65234C77.0617 8.51693 76.9914 8.38802 76.895 8.26562C76.8013 8.14323 76.6737 8.04297 76.5122 7.96484C76.3507 7.88672 76.1489 7.84766 75.9067 7.84766C75.576 7.84766 75.3 7.92187 75.0786 8.07031C74.8573 8.21615 74.7466 8.40495 74.7466 8.63672C74.7466 8.83724 74.8208 8.9987 74.9692 9.12109C75.1177 9.24349 75.3573 9.34375 75.688 9.42187L76.6411 9.64062C77.1932 9.76823 77.6047 9.96484 77.8755 10.2305C78.1463 10.4961 78.2817 10.8411 78.2817 11.2656C78.2817 11.625 78.1776 11.9453 77.9692 12.2266C77.7635 12.5052 77.4757 12.724 77.106 12.8828C76.7388 13.0417 76.313 13.1211 75.8286 13.1211C75.1567 13.1211 74.6086 12.9779 74.1841 12.6914C73.7596 12.4023 73.4992 11.9922 73.4028 11.4609L74.5317 11.2891C74.6021 11.5833 74.7466 11.806 74.9653 11.957C75.1841 12.1055 75.4692 12.1797 75.8208 12.1797C76.2036 12.1797 76.5096 12.1003 76.7388 11.9414C76.9679 11.7799 77.0825 11.5833 77.0825 11.3516C77.0825 11.1641 77.0122 11.0065 76.8716 10.8789C76.7336 10.7513 76.5213 10.6549 76.2349 10.5898L75.2192 10.3672C74.6593 10.2396 74.2453 10.0365 73.9771 9.75781C73.7114 9.47917 73.5786 9.1263 73.5786 8.69922C73.5786 8.34505 73.6776 8.03516 73.8755 7.76953C74.0734 7.50391 74.3468 7.29687 74.6958 7.14844C75.0448 6.9974 75.4445 6.92188 75.895 6.92188C76.5435 6.92188 77.0539 7.0625 77.4263 7.34375C77.7987 7.6224 78.0448 7.99609 78.1646 8.46484ZM82.3667 7V7.9375H79.0894V7H82.3667ZM79.9683 5.5625H81.1362V11.2383C81.1362 11.4648 81.1701 11.6354 81.2378 11.75C81.3055 11.862 81.3927 11.9388 81.4995 11.9805C81.6089 12.0195 81.7274 12.0391 81.855 12.0391C81.9487 12.0391 82.0308 12.0326 82.1011 12.0195C82.1714 12.0065 82.2261 11.9961 82.2651 11.9883L82.4761 12.9531C82.4084 12.9792 82.312 13.0052 82.187 13.0313C82.062 13.0599 81.9058 13.0755 81.7183 13.0781C81.411 13.0833 81.1245 13.0286 80.8589 12.9141C80.5933 12.7995 80.3784 12.6224 80.2144 12.3828C80.0503 12.1432 79.9683 11.8424 79.9683 11.4805V5.5625ZM86.1802 13.1211C85.589 13.1211 85.0799 12.9948 84.6528 12.7422C84.2284 12.487 83.9002 12.1289 83.6685 11.668C83.4393 11.2044 83.3247 10.6615 83.3247 10.0391C83.3247 9.42448 83.4393 8.88281 83.6685 8.41406C83.9002 7.94531 84.2231 7.57943 84.6372 7.31641C85.0539 7.05339 85.5409 6.92188 86.0981 6.92188C86.4367 6.92188 86.7648 6.97786 87.0825 7.08984C87.4002 7.20182 87.6854 7.3776 87.938 7.61719C88.1906 7.85677 88.3898 8.16797 88.5356 8.55078C88.6815 8.93099 88.7544 9.39323 88.7544 9.9375V10.3516H83.9849V9.47656H87.6099C87.6099 9.16927 87.5474 8.89714 87.4224 8.66016C87.2974 8.42057 87.1216 8.23177 86.895 8.09375C86.6711 7.95573 86.408 7.88672 86.106 7.88672C85.7778 7.88672 85.4914 7.96745 85.2466 8.12891C85.0044 8.28776 84.8169 8.49609 84.6841 8.75391C84.5539 9.00911 84.4888 9.28646 84.4888 9.58594V10.2695C84.4888 10.6706 84.5591 11.0117 84.6997 11.293C84.8429 11.5742 85.0422 11.7891 85.2974 11.9375C85.5526 12.0833 85.8507 12.1562 86.1919 12.1562C86.4132 12.1562 86.6151 12.125 86.7974 12.0625C86.9797 11.9974 87.1372 11.901 87.27 11.7734C87.4028 11.6458 87.5044 11.4883 87.5747 11.3008L88.6802 11.5C88.5916 11.8255 88.4328 12.1107 88.2036 12.3555C87.9771 12.5977 87.6919 12.7865 87.3481 12.9219C87.007 13.0547 86.6177 13.1211 86.1802 13.1211ZM90.0503 13V7H91.1792V7.95312H91.2417C91.3511 7.63021 91.5438 7.3763 91.8198 7.19141C92.0985 7.00391 92.4136 6.91016 92.7651 6.91016C92.8381 6.91016 92.924 6.91276 93.0229 6.91797C93.1245 6.92318 93.2039 6.92969 93.2612 6.9375V8.05469C93.2144 8.04167 93.131 8.02734 93.0112 8.01172C92.8914 7.99349 92.7716 7.98437 92.6519 7.98437C92.3758 7.98437 92.1297 8.04297 91.9136 8.16016C91.7 8.27474 91.5308 8.4349 91.4058 8.64062C91.2808 8.84375 91.2183 9.07552 91.2183 9.33594V13H90.0503Z" fill="white"/>
</svg>
