<svg width="66" height="66" viewBox="0 0 66 66" fill="none" xmlns="http://www.w3.org/2000/svg">
<path d="M63 33C63 49.5685 49.5685 63 33 63C16.4315 63 3 49.5685 3 33C3 16.4314 16.4315 2.99998 33 2.99998C49.5685 2.99998 63 16.4314 63 33Z" fill="#64A6E3"/>
<circle cx="32.5" cy="23.5" r="3.5" fill="white"/>
<circle cx="15.5" cy="15.5" r="3.5" fill="white"/>
<circle cx="16.5" cy="23.5" r="3.5" fill="white"/>
<circle cx="25.5" cy="15.5" r="3.5" fill="white"/>
<circle cx="29.5" cy="7.5" r="3.5" fill="white"/>
<circle cx="21.5" cy="9.5" r="3.5" fill="white"/>
<circle cx="37.5" cy="8.5" r="3.5" fill="white"/>
<circle cx="33.5" cy="15.5" r="3.5" fill="white"/>
<path d="M59.5 21C59.5 22.933 57.933 24.5 56 24.5C54.067 24.5 52.5 22.933 52.5 21C52.5 19.067 54.067 17.5 56 17.5C57.933 17.5 59.5 19.067 59.5 21Z" fill="white"/>
<circle cx="41.5" cy="16.5" r="3.5" fill="white"/>
<circle cx="50.5" cy="15.5" r="3.5" fill="white"/>
<path d="M48.5 10C48.5 11.933 46.933 13.5 45 13.5C43.067 13.5 41.5 11.933 41.5 10C41.5 8.067 43.067 6.5 45 6.5C46.933 6.5 48.5 8.067 48.5 10Z" fill="white"/>
<path d="M62 28C62 29.933 60.433 31.5 58.5 31.5C56.567 31.5 55 29.933 55 28C55 26.067 56.567 24.5 58.5 24.5C60.433 24.5 62 26.067 62 28Z" fill="white"/>
<circle cx="48.5" cy="22.5" r="3.5" fill="white"/>
<circle cx="8.5" cy="23.5" r="3.5" fill="white"/>
<circle cx="11.5" cy="30.5" r="3.5" fill="white"/>
<circle cx="24.5" cy="23.5" r="3.5" fill="white"/>
<circle cx="19.5" cy="30.5" r="3.5" fill="#002018"/>
<circle cx="35.5" cy="30.5" r="3.5" fill="#002018"/>
<circle cx="31.5" cy="37.5" r="3.5" fill="#002018"/>
<circle cx="40.5" cy="23.5" r="3.5" fill="white"/>
<path d="M43 37.5C43 39.433 41.433 41 39.5 41C37.567 41 36 39.433 36 37.5C36 35.567 37.567 34 39.5 34C41.433 34 43 35.567 43 37.5Z" fill="#002018"/>
<circle cx="48.5" cy="38.5" r="3.5" fill="white"/>
<path d="M23 44.5C23 46.433 21.433 48 19.5 48C17.567 48 16 46.433 16 44.5C16 42.567 17.567 41 19.5 41C21.433 41 23 42.567 23 44.5Z" fill="white"/>
<path d="M23 44.5C23 46.433 21.433 48 19.5 48C17.567 48 16 46.433 16 44.5C16 42.567 17.567 41 19.5 41C21.433 41 23 42.567 23 44.5Z" fill="white"/>
<path d="M23 44.5C23 46.433 21.433 48 19.5 48C17.567 48 16 46.433 16 44.5C16 42.567 17.567 41 19.5 41C21.433 41 23 42.567 23 44.5Z" fill="white"/>
<path d="M11 37.5C11 39.433 9.433 41 7.5 41C5.567 41 4 39.433 4 37.5C4 35.567 5.567 34 7.5 34C9.433 34 11 35.567 11 37.5Z" fill="white"/>
<path d="M11 37.5C11 39.433 9.433 41 7.5 41C5.567 41 4 39.433 4 37.5C4 35.567 5.567 34 7.5 34C9.433 34 11 35.567 11 37.5Z" fill="white"/>
<path d="M11 37.5C11 39.433 9.433 41 7.5 41C5.567 41 4 39.433 4 37.5C4 35.567 5.567 34 7.5 34C9.433 34 11 35.567 11 37.5Z" fill="white"/>
<path d="M15 44.5C15 46.433 13.433 48 11.5 48C9.567 48 8 46.433 8 44.5C8 42.567 9.567 41 11.5 41C13.433 41 15 42.567 15 44.5Z" fill="white"/>
<path d="M15 44.5C15 46.433 13.433 48 11.5 48C9.567 48 8 46.433 8 44.5C8 42.567 9.567 41 11.5 41C13.433 41 15 42.567 15 44.5Z" fill="white"/>
<path d="M15 44.5C15 46.433 13.433 48 11.5 48C9.567 48 8 46.433 8 44.5C8 42.567 9.567 41 11.5 41C13.433 41 15 42.567 15 44.5Z" fill="white"/>
<path d="M19 37.5C19 39.433 17.433 41 15.5 41C13.567 41 12 39.433 12 37.5C12 35.567 13.567 34 15.5 34C17.433 34 19 35.567 19 37.5Z" fill="white"/>
<path d="M19 37.5C19 39.433 17.433 41 15.5 41C13.567 41 12 39.433 12 37.5C12 35.567 13.567 34 15.5 34C17.433 34 19 35.567 19 37.5Z" fill="white"/>
<path d="M19 37.5C19 39.433 17.433 41 15.5 41C13.567 41 12 39.433 12 37.5C12 35.567 13.567 34 15.5 34C17.433 34 19 35.567 19 37.5Z" fill="white"/>
<path d="M27.2474 52.0256C27.0994 53.9529 25.4171 55.3954 23.4898 55.2474C21.5624 55.0994 20.12 53.4171 20.268 51.4897C20.4159 49.5624 22.0983 48.12 24.0256 48.2679C25.9529 48.4159 27.3954 50.0983 27.2474 52.0256Z" fill="white"/>
<path d="M27.2474 52.0256C27.0994 53.9529 25.4171 55.3954 23.4898 55.2474C21.5624 55.0994 20.12 53.4171 20.268 51.4897C20.4159 49.5624 22.0983 48.12 24.0256 48.2679C25.9529 48.4159 27.3954 50.0983 27.2474 52.0256Z" fill="white"/>
<path d="M27.2474 52.0256C27.0994 53.9529 25.4171 55.3954 23.4898 55.2474C21.5624 55.0994 20.12 53.4171 20.268 51.4897C20.4159 49.5624 22.0983 48.12 24.0256 48.2679C25.9529 48.4159 27.3954 50.0983 27.2474 52.0256Z" fill="white"/>
<path d="M44 51.5C44 53.433 42.433 55 40.5 55C38.567 55 37 53.433 37 51.5C37 49.567 38.567 48 40.5 48C42.433 48 44 49.567 44 51.5Z" fill="white"/>
<path d="M44 51.5C44 53.433 42.433 55 40.5 55C38.567 55 37 53.433 37 51.5C37 49.567 38.567 48 40.5 48C42.433 48 44 49.567 44 51.5Z" fill="white"/>
<path d="M44 51.5C44 53.433 42.433 55 40.5 55C38.567 55 37 53.433 37 51.5C37 49.567 38.567 48 40.5 48C42.433 48 44 49.567 44 51.5Z" fill="white"/>
<path d="M44 51.5C44 53.433 42.433 55 40.5 55C38.567 55 37 53.433 37 51.5C37 49.567 38.567 48 40.5 48C42.433 48 44 49.567 44 51.5Z" fill="white"/>
<path d="M44 51.5C44 53.433 42.433 55 40.5 55C38.567 55 37 53.433 37 51.5C37 49.567 38.567 48 40.5 48C42.433 48 44 49.567 44 51.5Z" fill="white"/>
<path d="M44 51.5C44 53.433 42.433 55 40.5 55C38.567 55 37 53.433 37 51.5C37 49.567 38.567 48 40.5 48C42.433 48 44 49.567 44 51.5Z" fill="white"/>
<path d="M55 30.5C55 32.433 53.433 34 51.5 34C49.567 34 48 32.433 48 30.5C48 28.567 49.567 27 51.5 27C53.433 27 55 28.567 55 30.5Z" fill="white"/>
<path d="M55 30.5C55 32.433 53.433 34 51.5 34C49.567 34 48 32.433 48 30.5C48 28.567 49.567 27 51.5 27C53.433 27 55 28.567 55 30.5Z" fill="white"/>
<path d="M55 30.5C55 32.433 53.433 34 51.5 34C49.567 34 48 32.433 48 30.5C48 28.567 49.567 27 51.5 27C53.433 27 55 28.567 55 30.5Z" fill="white"/>
<path d="M61 37.5C61 39.433 59.433 41 57.5 41C55.567 41 54 39.433 54 37.5C54 35.567 55.567 34 57.5 34C59.433 34 61 35.567 61 37.5Z" fill="white"/>
<path d="M61 37.5C61 39.433 59.433 41 57.5 41C55.567 41 54 39.433 54 37.5C54 35.567 55.567 34 57.5 34C59.433 34 61 35.567 61 37.5Z" fill="white"/>
<path d="M61 37.5C61 39.433 59.433 41 57.5 41C55.567 41 54 39.433 54 37.5C54 35.567 55.567 34 57.5 34C59.433 34 61 35.567 61 37.5Z" fill="white"/>
<path d="M41 58.5C41 60.433 39.433 62 37.5 62C35.567 62 34 60.433 34 58.5C34 56.567 35.567 55 37.5 55C39.433 55 41 56.567 41 58.5Z" fill="white"/>
<path d="M41 58.5C41 60.433 39.433 62 37.5 62C35.567 62 34 60.433 34 58.5C34 56.567 35.567 55 37.5 55C39.433 55 41 56.567 41 58.5Z" fill="white"/>
<path d="M41 58.5C41 60.433 39.433 62 37.5 62C35.567 62 34 60.433 34 58.5C34 56.567 35.567 55 37.5 55C39.433 55 41 56.567 41 58.5Z" fill="white"/>
<path d="M57 44.5C57 46.433 55.433 48 53.5 48C51.567 48 50 46.433 50 44.5C50 42.567 51.567 41 53.5 41C55.433 41 57 42.567 57 44.5Z" fill="white"/>
<path d="M57 44.5C57 46.433 55.433 48 53.5 48C51.567 48 50 46.433 50 44.5C50 42.567 51.567 41 53.5 41C55.433 41 57 42.567 57 44.5Z" fill="white"/>
<path d="M57 44.5C57 46.433 55.433 48 53.5 48C51.567 48 50 46.433 50 44.5C50 42.567 51.567 41 53.5 41C55.433 41 57 42.567 57 44.5Z" fill="white"/>
<path d="M52 51.5C52 53.433 50.433 55 48.5 55C46.567 55 45 53.433 45 51.5C45 49.567 46.567 48 48.5 48C50.433 48 52 49.567 52 51.5Z" fill="white"/>
<path d="M52 51.5C52 53.433 50.433 55 48.5 55C46.567 55 45 53.433 45 51.5C45 49.567 46.567 48 48.5 48C50.433 48 52 49.567 52 51.5Z" fill="white"/>
<path d="M52 51.5C52 53.433 50.433 55 48.5 55C46.567 55 45 53.433 45 51.5C45 49.567 46.567 48 48.5 48C50.433 48 52 49.567 52 51.5Z" fill="white"/>
<path d="M47 44.5C47 46.433 45.433 48 43.5 48C41.567 48 40 46.433 40 44.5C40 42.567 41.567 41 43.5 41C45.433 41 47 42.567 47 44.5Z" fill="white"/>
<path d="M47 44.5C47 46.433 45.433 48 43.5 48C41.567 48 40 46.433 40 44.5C40 42.567 41.567 41 43.5 41C45.433 41 47 42.567 47 44.5Z" fill="white"/>
<path d="M47 44.5C47 46.433 45.433 48 43.5 48C41.567 48 40 46.433 40 44.5C40 42.567 41.567 41 43.5 41C45.433 41 47 42.567 47 44.5Z" fill="white"/>
<path d="M32 58.5C32 60.433 30.433 62 28.5 62C26.567 62 25 60.433 25 58.5C25 56.567 26.567 55 28.5 55C30.433 55 32 56.567 32 58.5Z" fill="white"/>
<path d="M32 58.5C32 60.433 30.433 62 28.5 62C26.567 62 25 60.433 25 58.5C25 56.567 26.567 55 28.5 55C30.433 55 32 56.567 32 58.5Z" fill="white"/>
<path d="M32 58.5C32 60.433 30.433 62 28.5 62C26.567 62 25 60.433 25 58.5C25 56.567 26.567 55 28.5 55C30.433 55 32 56.567 32 58.5Z" fill="white"/>
<path d="M36 51.5C36 53.433 34.433 55 32.5 55C30.567 55 29 53.433 29 51.5C29 49.567 30.567 48 32.5 48C34.433 48 36 49.567 36 51.5Z" fill="white"/>
<path d="M36 51.5C36 53.433 34.433 55 32.5 55C30.567 55 29 53.433 29 51.5C29 49.567 30.567 48 32.5 48C34.433 48 36 49.567 36 51.5Z" fill="white"/>
<path d="M36 51.5C36 53.433 34.433 55 32.5 55C30.567 55 29 53.433 29 51.5C29 49.567 30.567 48 32.5 48C34.433 48 36 49.567 36 51.5Z" fill="white"/>
<path d="M19 51.5C19 53.433 17.433 55 15.5 55C13.567 55 12 53.433 12 51.5C12 49.567 13.567 48 15.5 48C17.433 48 19 49.567 19 51.5Z" fill="white"/>
<path d="M19 51.5C19 53.433 17.433 55 15.5 55C13.567 55 12 53.433 12 51.5C12 49.567 13.567 48 15.5 48C17.433 48 19 49.567 19 51.5Z" fill="white"/>
<path d="M19 51.5C19 53.433 17.433 55 15.5 55C13.567 55 12 53.433 12 51.5C12 49.567 13.567 48 15.5 48C17.433 48 19 49.567 19 51.5Z" fill="white"/>
<circle cx="27.5" cy="44.5" r="3.5" fill="#002018"/>
<circle cx="35.5" cy="44.5" r="3.5" fill="#002018"/>
<circle cx="27.5" cy="30.5" r="3.5" fill="#002018"/>
<circle cx="43.5" cy="30.5" r="3.5" fill="#002018"/>
<path d="M27.5 37.5C27.5 39.433 25.933 41 24 41C22.067 41 20.5 39.433 20.5 37.5C20.5 35.567 22.067 34 24 34C25.933 34 27.5 35.567 27.5 37.5Z" fill="#002018"/>
<path d="M62 33C62 49.0163 49.0163 62 33 62C16.9837 62 4 49.0163 4 33C4 16.9837 16.9837 4 33 4C49.0163 4 62 16.9837 62 33Z" stroke="#64A6E3" stroke-opacity="0.9" stroke-width="2"/>
<g opacity="0.6" filter="url(#filter0_f_37_11)">
<path d="M57 33C57 46.2548 46.2548 57 33 57C19.7452 57 9 46.2548 9 33C9 19.7452 19.7452 9 33 9C46.2548 9 57 19.7452 57 33Z" stroke="#64A6E3" stroke-width="10"/>
</g>
<defs>
<filter id="filter0_f_37_11" x="0" y="0" width="66" height="66" filterUnits="userSpaceOnUse" color-interpolation-filters="sRGB">
<feFlood flood-opacity="0" result="BackgroundImageFix"/>
<feBlend mode="normal" in="SourceGraphic" in2="BackgroundImageFix" result="shape"/>
<feGaussianBlur stdDeviation="2" result="effect1_foregroundBlur_37_11"/>
</filter>
</defs>
</svg>
