<svg width="120" height="20" viewBox="0 0 120 20" fill="none" xmlns="http://www.w3.org/2000/svg">
<path d="M0.25 0.25H119.75V19.75H0.25V0.25Z" fill="#3D3D3D" stroke="#807B7B" stroke-width="0.5"/>
<path d="M3.05682 14V5.27273H4.11364V13.0625H8.17045V14H3.05682ZM12.3295 14.1364C11.7386 14.1364 11.2202 13.9957 10.7741 13.7145C10.331 13.4332 9.98438 13.0398 9.73438 12.5341C9.48722 12.0284 9.36364 11.4375 9.36364 10.7614C9.36364 10.0795 9.48722 9.48437 9.73438 8.97585C9.98438 8.46733 10.331 8.07244 10.7741 7.79119C11.2202 7.50994 11.7386 7.36932 12.3295 7.36932C12.9205 7.36932 13.4375 7.50994 13.8807 7.79119C14.3267 8.07244 14.6733 8.46733 14.9205 8.97585C15.1705 9.48437 15.2955 10.0795 15.2955 10.7614C15.2955 11.4375 15.1705 12.0284 14.9205 12.5341C14.6733 13.0398 14.3267 13.4332 13.8807 13.7145C13.4375 13.9957 12.9205 14.1364 12.3295 14.1364ZM12.3295 13.233C12.7784 13.233 13.1477 13.1179 13.4375 12.8878C13.7273 12.6577 13.9418 12.3551 14.081 11.9801C14.2202 11.6051 14.2898 11.1989 14.2898 10.7614C14.2898 10.3239 14.2202 9.91619 14.081 9.53835C13.9418 9.16051 13.7273 8.85511 13.4375 8.62216C13.1477 8.3892 12.7784 8.27273 12.3295 8.27273C11.8807 8.27273 11.5114 8.3892 11.2216 8.62216C10.9318 8.85511 10.7173 9.16051 10.5781 9.53835C10.4389 9.91619 10.3693 10.3239 10.3693 10.7614C10.3693 11.1989 10.4389 11.6051 10.5781 11.9801C10.7173 12.3551 10.9318 12.6577 11.2216 12.8878C11.5114 13.1179 11.8807 13.233 12.3295 13.233ZM18.7567 14.1534C18.342 14.1534 17.9656 14.0753 17.6275 13.919C17.2894 13.7599 17.021 13.5312 16.8221 13.233C16.6232 12.9318 16.5238 12.5682 16.5238 12.142C16.5238 11.767 16.5977 11.4631 16.7454 11.2301C16.8931 10.9943 17.0906 10.8097 17.3377 10.6761C17.5849 10.5426 17.8576 10.4432 18.1559 10.3778C18.457 10.3097 18.7596 10.2557 19.0636 10.2159C19.4613 10.1648 19.7837 10.1264 20.0309 10.1009C20.2809 10.0724 20.4627 10.0256 20.5763 9.96023C20.6928 9.89489 20.7511 9.78125 20.7511 9.61932V9.58523C20.7511 9.16477 20.636 8.83807 20.4059 8.60511C20.1786 8.37216 19.8335 8.25568 19.3704 8.25568C18.8903 8.25568 18.5138 8.3608 18.2411 8.57102C17.9684 8.78125 17.7766 9.00568 17.6658 9.24432L16.7113 8.90341C16.8817 8.50568 17.109 8.19602 17.3931 7.97443C17.68 7.75 17.9925 7.59375 18.3306 7.50568C18.6715 7.41477 19.0067 7.36932 19.3363 7.36932C19.5465 7.36932 19.788 7.39489 20.0607 7.44602C20.3363 7.49432 20.6019 7.59517 20.8576 7.74858C21.1161 7.90199 21.3306 8.13352 21.5011 8.44318C21.6715 8.75284 21.7567 9.16761 21.7567 9.6875V14H20.7511V13.1136H20.6999C20.6317 13.2557 20.5181 13.4077 20.359 13.5696C20.1999 13.7315 19.9883 13.8693 19.7241 13.983C19.4599 14.0966 19.1374 14.1534 18.7567 14.1534ZM18.9102 13.25C19.3079 13.25 19.6431 13.1719 19.9158 13.0156C20.1914 12.8594 20.3988 12.6577 20.538 12.4105C20.68 12.1634 20.7511 11.9034 20.7511 11.6307V10.7102C20.7085 10.7614 20.6147 10.8082 20.4698 10.8509C20.3278 10.8906 20.163 10.9261 19.9755 10.9574C19.7908 10.9858 19.6104 11.0114 19.4343 11.0341C19.261 11.054 19.1204 11.071 19.0124 11.0852C18.7511 11.1193 18.5067 11.1747 18.2795 11.2514C18.055 11.3253 17.8732 11.4375 17.734 11.5881C17.5977 11.7358 17.5295 11.9375 17.5295 12.1932C17.5295 12.5426 17.6587 12.8068 17.9173 12.9858C18.1786 13.1619 18.5096 13.25 18.9102 13.25ZM26.0639 14.1364C25.5185 14.1364 25.0369 13.9986 24.6193 13.723C24.2017 13.4446 23.875 13.0526 23.6392 12.5469C23.4034 12.0384 23.2855 11.4375 23.2855 10.7443C23.2855 10.0568 23.4034 9.46023 23.6392 8.95455C23.875 8.44886 24.2031 8.05824 24.6236 7.78267C25.044 7.5071 25.5298 7.36932 26.081 7.36932C26.5071 7.36932 26.8438 7.44034 27.0909 7.58239C27.3409 7.72159 27.5313 7.88068 27.6619 8.05966C27.7955 8.2358 27.8991 8.38068 27.973 8.49432H28.0582V5.27273H29.0639V14H28.0923V12.9943H27.973C27.8991 13.1136 27.794 13.2642 27.6577 13.446C27.5213 13.625 27.3267 13.7855 27.0739 13.9276C26.821 14.0668 26.4844 14.1364 26.0639 14.1364ZM26.2003 13.233C26.6037 13.233 26.9446 13.1278 27.223 12.9176C27.5014 12.7045 27.7131 12.4105 27.858 12.0355C28.0028 11.6577 28.0753 11.2216 28.0753 10.7273C28.0753 10.2386 28.0043 9.81108 27.8622 9.4446C27.7202 9.07528 27.5099 8.78835 27.2315 8.58381C26.9531 8.37642 26.6094 8.27273 26.2003 8.27273C25.7741 8.27273 25.419 8.3821 25.1349 8.60085C24.8537 8.81676 24.642 9.1108 24.5 9.48295C24.3608 9.85227 24.2912 10.267 24.2912 10.7273C24.2912 11.1932 24.3622 11.6165 24.5043 11.9972C24.6491 12.375 24.8622 12.6761 25.1435 12.9006C25.4276 13.1222 25.7798 13.233 26.2003 13.233ZM36.892 14.1364C36.3466 14.1364 35.8651 13.9986 35.4474 13.723C35.0298 13.4446 34.7031 13.0526 34.4673 12.5469C34.2315 12.0384 34.1136 11.4375 34.1136 10.7443C34.1136 10.0568 34.2315 9.46023 34.4673 8.95455C34.7031 8.44886 35.0313 8.05824 35.4517 7.78267C35.8722 7.5071 36.358 7.36932 36.9091 7.36932C37.3352 7.36932 37.6719 7.44034 37.919 7.58239C38.169 7.72159 38.3594 7.88068 38.4901 8.05966C38.6236 8.2358 38.7273 8.38068 38.8011 8.49432H38.8864V5.27273H39.892V14H38.9205V12.9943H38.8011C38.7273 13.1136 38.6222 13.2642 38.4858 13.446C38.3494 13.625 38.1548 13.7855 37.902 13.9276C37.6491 14.0668 37.3125 14.1364 36.892 14.1364ZM37.0284 13.233C37.4318 13.233 37.7727 13.1278 38.0511 12.9176C38.3295 12.7045 38.5412 12.4105 38.6861 12.0355C38.831 11.6577 38.9034 11.2216 38.9034 10.7273C38.9034 10.2386 38.8324 9.81108 38.6903 9.4446C38.5483 9.07528 38.3381 8.78835 38.0597 8.58381C37.7813 8.37642 37.4375 8.27273 37.0284 8.27273C36.6023 8.27273 36.2472 8.3821 35.9631 8.60085C35.6818 8.81676 35.4702 9.1108 35.3281 9.48295C35.1889 9.85227 35.1193 10.267 35.1193 10.7273C35.1193 11.1932 35.1903 11.6165 35.3324 11.9972C35.4773 12.375 35.6903 12.6761 35.9716 12.9006C36.2557 13.1222 36.608 13.233 37.0284 13.233ZM43.7997 14.1534C43.3849 14.1534 43.0085 14.0753 42.6705 13.919C42.3324 13.7599 42.0639 13.5312 41.8651 13.233C41.6662 12.9318 41.5668 12.5682 41.5668 12.142C41.5668 11.767 41.6406 11.4631 41.7884 11.2301C41.9361 10.9943 42.1335 10.8097 42.3807 10.6761C42.6278 10.5426 42.9006 10.4432 43.1989 10.3778C43.5 10.3097 43.8026 10.2557 44.1065 10.2159C44.5043 10.1648 44.8267 10.1264 45.0739 10.1009C45.3239 10.0724 45.5057 10.0256 45.6193 9.96023C45.7358 9.89489 45.794 9.78125 45.794 9.61932V9.58523C45.794 9.16477 45.679 8.83807 45.4489 8.60511C45.2216 8.37216 44.8764 8.25568 44.4134 8.25568C43.9332 8.25568 43.5568 8.3608 43.2841 8.57102C43.0114 8.78125 42.8196 9.00568 42.7088 9.24432L41.7543 8.90341C41.9247 8.50568 42.152 8.19602 42.4361 7.97443C42.723 7.75 43.0355 7.59375 43.3736 7.50568C43.7145 7.41477 44.0497 7.36932 44.3793 7.36932C44.5895 7.36932 44.831 7.39489 45.1037 7.44602C45.3793 7.49432 45.6449 7.59517 45.9006 7.74858C46.1591 7.90199 46.3736 8.13352 46.544 8.44318C46.7145 8.75284 46.7997 9.16761 46.7997 9.6875V14H45.794V13.1136H45.7429C45.6747 13.2557 45.5611 13.4077 45.402 13.5696C45.2429 13.7315 45.0313 13.8693 44.767 13.983C44.5028 14.0966 44.1804 14.1534 43.7997 14.1534ZM43.9531 13.25C44.3509 13.25 44.6861 13.1719 44.9588 13.0156C45.2344 12.8594 45.4418 12.6577 45.581 12.4105C45.723 12.1634 45.794 11.9034 45.794 11.6307V10.7102C45.7514 10.7614 45.6577 10.8082 45.5128 10.8509C45.3707 10.8906 45.206 10.9261 45.0185 10.9574C44.8338 10.9858 44.6534 11.0114 44.4773 11.0341C44.304 11.054 44.1634 11.071 44.0554 11.0852C43.794 11.1193 43.5497 11.1747 43.3224 11.2514C43.098 11.3253 42.9162 11.4375 42.777 11.5881C42.6406 11.7358 42.5724 11.9375 42.5724 12.1932C42.5724 12.5426 42.7017 12.8068 42.9602 12.9858C43.2216 13.1619 43.5526 13.25 43.9531 13.25ZM51.4819 7.45455V8.30682H48.0898V7.45455H51.4819ZM49.0785 5.88636H50.0842V12.125C50.0842 12.4091 50.1254 12.6222 50.2077 12.7642C50.293 12.9034 50.4009 12.9972 50.5316 13.0455C50.6651 13.0909 50.8058 13.1136 50.9535 13.1136C51.0643 13.1136 51.1552 13.108 51.2262 13.0966C51.2972 13.0824 51.354 13.071 51.3967 13.0625L51.6012 13.9659C51.533 13.9915 51.4379 14.017 51.3157 14.0426C51.1935 14.071 51.0387 14.0852 50.8512 14.0852C50.5671 14.0852 50.2887 14.0241 50.016 13.902C49.7461 13.7798 49.5217 13.5938 49.3427 13.3438C49.1665 13.0938 49.0785 12.7784 49.0785 12.3977V5.88636ZM54.9208 14.1534C54.506 14.1534 54.1296 14.0753 53.7915 13.919C53.4535 13.7599 53.185 13.5312 52.9862 13.233C52.7873 12.9318 52.6879 12.5682 52.6879 12.142C52.6879 11.767 52.7617 11.4631 52.9094 11.2301C53.0572 10.9943 53.2546 10.8097 53.5018 10.6761C53.7489 10.5426 54.0217 10.4432 54.32 10.3778C54.6211 10.3097 54.9237 10.2557 55.2276 10.2159C55.6254 10.1648 55.9478 10.1264 56.195 10.1009C56.445 10.0724 56.6268 10.0256 56.7404 9.96023C56.8569 9.89489 56.9151 9.78125 56.9151 9.61932V9.58523C56.9151 9.16477 56.8001 8.83807 56.57 8.60511C56.3427 8.37216 55.9975 8.25568 55.5344 8.25568C55.0543 8.25568 54.6779 8.3608 54.4052 8.57102C54.1325 8.78125 53.9407 9.00568 53.8299 9.24432L52.8754 8.90341C53.0458 8.50568 53.2731 8.19602 53.5572 7.97443C53.8441 7.75 54.1566 7.59375 54.4947 7.50568C54.8356 7.41477 55.1708 7.36932 55.5004 7.36932C55.7106 7.36932 55.9521 7.39489 56.2248 7.44602C56.5004 7.49432 56.766 7.59517 57.0217 7.74858C57.2802 7.90199 57.4947 8.13352 57.6651 8.44318C57.8356 8.75284 57.9208 9.16761 57.9208 9.6875V14H56.9151V13.1136H56.864C56.7958 13.2557 56.6822 13.4077 56.5231 13.5696C56.364 13.7315 56.1523 13.8693 55.8881 13.983C55.6239 14.0966 55.3015 14.1534 54.9208 14.1534ZM55.0742 13.25C55.4719 13.25 55.8072 13.1719 56.0799 13.0156C56.3555 12.8594 56.5629 12.6577 56.7021 12.4105C56.8441 12.1634 56.9151 11.9034 56.9151 11.6307V10.7102C56.8725 10.7614 56.7788 10.8082 56.6339 10.8509C56.4918 10.8906 56.3271 10.9261 56.1396 10.9574C55.9549 10.9858 55.7745 11.0114 55.5984 11.0341C55.4251 11.054 55.2844 11.071 55.1765 11.0852C54.9151 11.1193 54.6708 11.1747 54.4435 11.2514C54.2191 11.3253 54.0373 11.4375 53.8981 11.5881C53.7617 11.7358 53.6935 11.9375 53.6935 12.1932C53.6935 12.5426 53.8228 12.8068 54.0813 12.9858C54.3427 13.1619 54.6737 13.25 55.0742 13.25ZM59.8928 14V5.27273H60.8984V8.49432H60.9837C61.0575 8.38068 61.1598 8.2358 61.2905 8.05966C61.424 7.88068 61.6143 7.72159 61.8615 7.58239C62.1115 7.44034 62.4496 7.36932 62.8757 7.36932C63.4268 7.36932 63.9126 7.5071 64.3331 7.78267C64.7536 8.05824 65.0817 8.44886 65.3175 8.95455C65.5533 9.46023 65.6712 10.0568 65.6712 10.7443C65.6712 11.4375 65.5533 12.0384 65.3175 12.5469C65.0817 13.0526 64.755 13.4446 64.3374 13.723C63.9197 13.9986 63.4382 14.1364 62.8928 14.1364C62.4723 14.1364 62.1357 14.0668 61.8828 13.9276C61.63 13.7855 61.4354 13.625 61.299 13.446C61.1626 13.2642 61.0575 13.1136 60.9837 12.9943H60.8643V14H59.8928ZM60.8814 10.7273C60.8814 11.2216 60.9538 11.6577 61.0987 12.0355C61.2436 12.4105 61.4553 12.7045 61.7337 12.9176C62.0121 13.1278 62.353 13.233 62.7564 13.233C63.1768 13.233 63.5277 13.1222 63.8089 12.9006C64.093 12.6761 64.3061 12.375 64.4482 11.9972C64.593 11.6165 64.6655 11.1932 64.6655 10.7273C64.6655 10.267 64.5945 9.85227 64.4524 9.48295C64.3132 9.1108 64.1016 8.81676 63.8175 8.60085C63.5362 8.3821 63.1825 8.27273 62.7564 8.27273C62.3473 8.27273 62.0036 8.37642 61.7251 8.58381C61.4467 8.78835 61.2365 9.07528 61.0945 9.4446C60.9524 9.81108 60.8814 10.2386 60.8814 10.7273ZM69.1357 14.1534C68.7209 14.1534 68.3445 14.0753 68.0064 13.919C67.6683 13.7599 67.3999 13.5312 67.201 13.233C67.0021 12.9318 66.9027 12.5682 66.9027 12.142C66.9027 11.767 66.9766 11.4631 67.1243 11.2301C67.272 10.9943 67.4695 10.8097 67.7166 10.6761C67.9638 10.5426 68.2365 10.4432 68.5348 10.3778C68.8359 10.3097 69.1385 10.2557 69.4425 10.2159C69.8402 10.1648 70.1626 10.1264 70.4098 10.1009C70.6598 10.0724 70.8416 10.0256 70.9553 9.96023C71.0717 9.89489 71.13 9.78125 71.13 9.61932V9.58523C71.13 9.16477 71.0149 8.83807 70.7848 8.60511C70.5575 8.37216 70.2124 8.25568 69.7493 8.25568C69.2692 8.25568 68.8928 8.3608 68.62 8.57102C68.3473 8.78125 68.1555 9.00568 68.0447 9.24432L67.0902 8.90341C67.2607 8.50568 67.4879 8.19602 67.772 7.97443C68.0589 7.75 68.3714 7.59375 68.7095 7.50568C69.0504 7.41477 69.3857 7.36932 69.7152 7.36932C69.9254 7.36932 70.1669 7.39489 70.4396 7.44602C70.7152 7.49432 70.9808 7.59517 71.2365 7.74858C71.495 7.90199 71.7095 8.13352 71.88 8.44318C72.0504 8.75284 72.1357 9.16761 72.1357 9.6875V14H71.13V13.1136H71.0788C71.0107 13.2557 70.897 13.4077 70.7379 13.5696C70.5788 13.7315 70.3672 13.8693 70.103 13.983C69.8388 14.0966 69.5163 14.1534 69.1357 14.1534ZM69.2891 13.25C69.6868 13.25 70.022 13.1719 70.2947 13.0156C70.5703 12.8594 70.7777 12.6577 70.9169 12.4105C71.0589 12.1634 71.13 11.9034 71.13 11.6307V10.7102C71.0874 10.7614 70.9936 10.8082 70.8487 10.8509C70.7067 10.8906 70.5419 10.9261 70.3544 10.9574C70.1697 10.9858 69.9893 11.0114 69.8132 11.0341C69.6399 11.054 69.4993 11.071 69.3913 11.0852C69.13 11.1193 68.8857 11.1747 68.6584 11.2514C68.4339 11.3253 68.2521 11.4375 68.1129 11.5881C67.9766 11.7358 67.9084 11.9375 67.9084 12.1932C67.9084 12.5426 68.0376 12.8068 68.2962 12.9858C68.5575 13.1619 68.8885 13.25 69.2891 13.25ZM78.6076 8.92045L77.7042 9.17614C77.6474 9.02557 77.5636 8.87926 77.4528 8.73722C77.3448 8.59233 77.1971 8.47301 77.0096 8.37926C76.8221 8.28551 76.582 8.23864 76.2894 8.23864C75.8888 8.23864 75.555 8.33097 75.288 8.51562C75.0238 8.69744 74.8917 8.92898 74.8917 9.21023C74.8917 9.46023 74.9826 9.65767 75.1644 9.80256C75.3462 9.94744 75.6303 10.0682 76.0167 10.1648L76.9883 10.4034C77.5735 10.5455 78.0096 10.7628 78.2965 11.0554C78.5835 11.3452 78.7269 11.7187 78.7269 12.1761C78.7269 12.5511 78.619 12.8864 78.4031 13.1818C78.19 13.4773 77.8917 13.7102 77.5082 13.8807C77.1246 14.0511 76.6786 14.1364 76.1701 14.1364C75.5025 14.1364 74.9499 13.9915 74.5124 13.7017C74.0749 13.4119 73.7979 12.9886 73.6815 12.4318L74.636 12.1932C74.7269 12.5455 74.8988 12.8097 75.1516 12.9858C75.4073 13.1619 75.7411 13.25 76.1531 13.25C76.6218 13.25 76.994 13.1506 77.2695 12.9517C77.5479 12.75 77.6871 12.5085 77.6871 12.2273C77.6871 12 77.6076 11.8097 77.4485 11.6562C77.2894 11.5 77.0451 11.3835 76.7156 11.3068L75.6246 11.0511C75.0252 10.9091 74.5849 10.6889 74.3036 10.3906C74.0252 10.0895 73.886 9.71307 73.886 9.26136C73.886 8.89205 73.9897 8.56534 74.1971 8.28125C74.4073 7.99716 74.6928 7.77415 75.0536 7.61222C75.4173 7.45028 75.8292 7.36932 76.2894 7.36932C76.9371 7.36932 77.4457 7.51136 77.815 7.79545C78.1871 8.07955 78.4513 8.45455 78.6076 8.92045ZM82.9851 14.1364C82.3544 14.1364 81.8104 13.9972 81.353 13.7188C80.8984 13.4375 80.5476 13.0455 80.3004 12.5426C80.0561 12.0369 79.9339 11.4489 79.9339 10.7784C79.9339 10.108 80.0561 9.51705 80.3004 9.00568C80.5476 8.49148 80.8913 8.09091 81.3317 7.80398C81.7749 7.5142 82.2919 7.36932 82.8828 7.36932C83.2237 7.36932 83.5604 7.42614 83.8928 7.53977C84.2251 7.65341 84.5277 7.83807 84.8004 8.09375C85.0732 8.34659 85.2905 8.68182 85.4524 9.09943C85.6143 9.51705 85.6953 10.0312 85.6953 10.642V11.0682H80.6499V10.1989H84.6726C84.6726 9.82955 84.5987 9.5 84.451 9.21023C84.3061 8.92045 84.0987 8.69176 83.8288 8.52415C83.5618 8.35653 83.2464 8.27273 82.8828 8.27273C82.4822 8.27273 82.1357 8.37216 81.843 8.57102C81.5533 8.76705 81.3303 9.02273 81.174 9.33807C81.0178 9.65341 80.9396 9.99148 80.9396 10.3523V10.9318C80.9396 11.4261 81.0249 11.8452 81.1953 12.1889C81.3686 12.5298 81.6087 12.7898 81.9155 12.9688C82.2223 13.1449 82.5788 13.233 82.9851 13.233C83.2493 13.233 83.4879 13.196 83.701 13.1222C83.9169 13.0455 84.103 12.9318 84.2592 12.7812C84.4155 12.6278 84.5362 12.4375 84.6214 12.2102L85.593 12.483C85.4908 12.8125 85.3189 13.1023 85.0774 13.3523C84.8359 13.5994 84.5376 13.7926 84.1825 13.9318C83.8274 14.0682 83.4283 14.1364 82.9851 14.1364Z" fill="white"/>
</svg>
