<svg width="120" height="20" viewBox="0 0 120 20" fill="none" xmlns="http://www.w3.org/2000/svg">
<path d="M0.25 0.25H119.75V19.75H0.25V0.25Z" fill="#3D3D3D" stroke="#807B7B" stroke-width="0.5"/>
<path d="M7.82955 7.45455C7.77841 7.02273 7.57102 6.6875 7.20739 6.44886C6.84375 6.21023 6.39773 6.09091 5.86932 6.09091C5.48295 6.09091 5.14489 6.15341 4.85511 6.27841C4.56818 6.40341 4.34375 6.57528 4.18182 6.79403C4.02273 7.01278 3.94318 7.26136 3.94318 7.53977C3.94318 7.77273 3.99858 7.97301 4.10938 8.14062C4.22301 8.3054 4.3679 8.44318 4.54403 8.55398C4.72017 8.66193 4.90483 8.75142 5.09801 8.82244C5.29119 8.89062 5.46875 8.94602 5.63068 8.98864L6.51705 9.22727C6.74432 9.28693 6.99716 9.36932 7.27557 9.47443C7.55682 9.57955 7.82528 9.72301 8.08097 9.90483C8.33949 10.0838 8.55256 10.3139 8.72017 10.5952C8.88778 10.8764 8.97159 11.2216 8.97159 11.6307C8.97159 12.1023 8.84801 12.5284 8.60085 12.9091C8.35653 13.2898 7.99858 13.5923 7.52699 13.8168C7.05824 14.0412 6.48864 14.1534 5.81818 14.1534C5.19318 14.1534 4.65199 14.0526 4.1946 13.8509C3.74006 13.6491 3.3821 13.3679 3.12074 13.0071C2.86222 12.6463 2.71591 12.2273 2.68182 11.75H3.77273C3.80114 12.0795 3.91193 12.3523 4.10511 12.5682C4.30114 12.7812 4.5483 12.9403 4.84659 13.0455C5.14773 13.1477 5.47159 13.1989 5.81818 13.1989C6.22159 13.1989 6.58381 13.1335 6.90483 13.0028C7.22585 12.8693 7.48011 12.6847 7.66761 12.4489C7.85511 12.2102 7.94886 11.9318 7.94886 11.6136C7.94886 11.3239 7.8679 11.0881 7.70597 10.9062C7.54403 10.7244 7.33097 10.5767 7.06676 10.4631C6.80256 10.3494 6.51705 10.25 6.21023 10.1648L5.13636 9.85795C4.45455 9.66193 3.91477 9.3821 3.51705 9.01847C3.11932 8.65483 2.92045 8.17898 2.92045 7.59091C2.92045 7.10227 3.05256 6.67614 3.31676 6.3125C3.58381 5.94602 3.94176 5.66193 4.39062 5.46023C4.84233 5.25568 5.34659 5.15341 5.90341 5.15341C6.46591 5.15341 6.96591 5.25426 7.40341 5.45597C7.84091 5.65483 8.1875 5.92756 8.44318 6.27415C8.7017 6.62074 8.83807 7.0142 8.85227 7.45455H7.82955ZM12.4989 14.1534C12.0842 14.1534 11.7077 14.0753 11.3697 13.919C11.0316 13.7599 10.7631 13.5312 10.5643 13.233C10.3654 12.9318 10.266 12.5682 10.266 12.142C10.266 11.767 10.3398 11.4631 10.4876 11.2301C10.6353 10.9943 10.8327 10.8097 11.0799 10.6761C11.3271 10.5426 11.5998 10.4432 11.8981 10.3778C12.1992 10.3097 12.5018 10.2557 12.8058 10.2159C13.2035 10.1648 13.5259 10.1264 13.7731 10.1009C14.0231 10.0724 14.2049 10.0256 14.3185 9.96023C14.435 9.89489 14.4933 9.78125 14.4933 9.61932V9.58523C14.4933 9.16477 14.3782 8.83807 14.1481 8.60511C13.9208 8.37216 13.5756 8.25568 13.1126 8.25568C12.6325 8.25568 12.256 8.3608 11.9833 8.57102C11.7106 8.78125 11.5188 9.00568 11.408 9.24432L10.4535 8.90341C10.6239 8.50568 10.8512 8.19602 11.1353 7.97443C11.4222 7.75 11.7347 7.59375 12.0728 7.50568C12.4137 7.41477 12.7489 7.36932 13.0785 7.36932C13.2887 7.36932 13.5302 7.39489 13.8029 7.44602C14.0785 7.49432 14.3441 7.59517 14.5998 7.74858C14.8583 7.90199 15.0728 8.13352 15.2433 8.44318C15.4137 8.75284 15.4989 9.16761 15.4989 9.6875V14H14.4933V13.1136H14.4421C14.3739 13.2557 14.2603 13.4077 14.1012 13.5696C13.9421 13.7315 13.7305 13.8693 13.4663 13.983C13.2021 14.0966 12.8796 14.1534 12.4989 14.1534ZM12.6523 13.25C13.0501 13.25 13.3853 13.1719 13.658 13.0156C13.9336 12.8594 14.141 12.6577 14.2802 12.4105C14.4222 12.1634 14.4933 11.9034 14.4933 11.6307V10.7102C14.4506 10.7614 14.3569 10.8082 14.212 10.8509C14.07 10.8906 13.9052 10.9261 13.7177 10.9574C13.533 10.9858 13.3526 11.0114 13.1765 11.0341C13.0032 11.054 12.8626 11.071 12.7546 11.0852C12.4933 11.1193 12.2489 11.1747 12.0217 11.2514C11.7972 11.3253 11.6154 11.4375 11.4762 11.5881C11.3398 11.7358 11.2717 11.9375 11.2717 12.1932C11.2717 12.5426 11.4009 12.8068 11.6594 12.9858C11.9208 13.1619 12.2518 13.25 12.6523 13.25ZM22.4524 7.45455L20.032 14H19.0092L16.5888 7.45455H17.6797L19.4865 12.6705H19.5547L21.3615 7.45455H22.4524ZM26.2898 14.1364C25.6591 14.1364 25.1151 13.9972 24.6577 13.7188C24.2031 13.4375 23.8523 13.0455 23.6051 12.5426C23.3608 12.0369 23.2386 11.4489 23.2386 10.7784C23.2386 10.108 23.3608 9.51705 23.6051 9.00568C23.8523 8.49148 24.196 8.09091 24.6364 7.80398C25.0795 7.5142 25.5966 7.36932 26.1875 7.36932C26.5284 7.36932 26.8651 7.42614 27.1974 7.53977C27.5298 7.65341 27.8324 7.83807 28.1051 8.09375C28.3778 8.34659 28.5952 8.68182 28.7571 9.09943C28.919 9.51705 29 10.0312 29 10.642V11.0682H23.9545V10.1989H27.9773C27.9773 9.82955 27.9034 9.5 27.7557 9.21023C27.6108 8.92045 27.4034 8.69176 27.1335 8.52415C26.8665 8.35653 26.5511 8.27273 26.1875 8.27273C25.7869 8.27273 25.4403 8.37216 25.1477 8.57102C24.858 8.76705 24.6349 9.02273 24.4787 9.33807C24.3224 9.65341 24.2443 9.99148 24.2443 10.3523V10.9318C24.2443 11.4261 24.3295 11.8452 24.5 12.1889C24.6733 12.5298 24.9134 12.7898 25.2202 12.9688C25.527 13.1449 25.8835 13.233 26.2898 13.233C26.554 13.233 26.7926 13.196 27.0057 13.1222C27.2216 13.0455 27.4077 12.9318 27.5639 12.7812C27.7202 12.6278 27.8409 12.4375 27.9261 12.2102L28.8977 12.483C28.7955 12.8125 28.6236 13.1023 28.3821 13.3523C28.1406 13.5994 27.8423 13.7926 27.4872 13.9318C27.1321 14.0682 26.733 14.1364 26.2898 14.1364ZM33.9048 14V7.45455H34.9105V14H33.9048ZM34.4162 6.36364C34.2202 6.36364 34.0511 6.29688 33.9091 6.16335C33.7699 6.02983 33.7003 5.86932 33.7003 5.68182C33.7003 5.49432 33.7699 5.33381 33.9091 5.20028C34.0511 5.06676 34.2202 5 34.4162 5C34.6122 5 34.7798 5.06676 34.919 5.20028C35.0611 5.33381 35.1321 5.49432 35.1321 5.68182C35.1321 5.86932 35.0611 6.02983 34.919 6.16335C34.7798 6.29688 34.6122 6.36364 34.4162 6.36364ZM37.7582 10.0625V14H36.7525V7.45455H37.7241V8.47727H37.8093C37.9627 8.14489 38.1957 7.87784 38.5082 7.67614C38.8207 7.47159 39.2241 7.36932 39.7184 7.36932C40.1616 7.36932 40.5494 7.46023 40.8817 7.64205C41.2141 7.82102 41.4727 8.09375 41.6573 8.46023C41.842 8.82386 41.9343 9.28409 41.9343 9.84091V14H40.9286V9.90909C40.9286 9.39489 40.7951 8.99432 40.5281 8.70739C40.261 8.41761 39.8945 8.27273 39.4286 8.27273C39.1076 8.27273 38.8207 8.34233 38.5678 8.48153C38.3178 8.62074 38.1204 8.82386 37.9755 9.09091C37.8306 9.35795 37.7582 9.68182 37.7582 10.0625ZM49.6186 14.1364C49.0732 14.1364 48.5916 13.9986 48.174 13.723C47.7564 13.4446 47.4297 13.0526 47.1939 12.5469C46.9581 12.0384 46.8402 11.4375 46.8402 10.7443C46.8402 10.0568 46.9581 9.46023 47.1939 8.95455C47.4297 8.44886 47.7578 8.05824 48.1783 7.78267C48.5987 7.5071 49.0845 7.36932 49.6357 7.36932C50.0618 7.36932 50.3984 7.44034 50.6456 7.58239C50.8956 7.72159 51.0859 7.88068 51.2166 8.05966C51.3501 8.2358 51.4538 8.38068 51.5277 8.49432H51.6129V5.27273H52.6186V14H51.647V12.9943H51.5277C51.4538 13.1136 51.3487 13.2642 51.2124 13.446C51.076 13.625 50.8814 13.7855 50.6286 13.9276C50.3757 14.0668 50.0391 14.1364 49.6186 14.1364ZM49.755 13.233C50.1584 13.233 50.4993 13.1278 50.7777 12.9176C51.0561 12.7045 51.2678 12.4105 51.4126 12.0355C51.5575 11.6577 51.63 11.2216 51.63 10.7273C51.63 10.2386 51.5589 9.81108 51.4169 9.4446C51.2749 9.07528 51.0646 8.78835 50.7862 8.58381C50.5078 8.37642 50.1641 8.27273 49.755 8.27273C49.3288 8.27273 48.9737 8.3821 48.6896 8.60085C48.4084 8.81676 48.1967 9.1108 48.0547 9.48295C47.9155 9.85227 47.8459 10.267 47.8459 10.7273C47.8459 11.1932 47.9169 11.6165 48.0589 11.9972C48.2038 12.375 48.4169 12.6761 48.6982 12.9006C48.9822 13.1222 49.3345 13.233 49.755 13.233ZM56.5263 14.1534C56.1115 14.1534 55.7351 14.0753 55.397 13.919C55.0589 13.7599 54.7905 13.5312 54.5916 13.233C54.3928 12.9318 54.2933 12.5682 54.2933 12.142C54.2933 11.767 54.3672 11.4631 54.5149 11.2301C54.6626 10.9943 54.8601 10.8097 55.1072 10.6761C55.3544 10.5426 55.6271 10.4432 55.9254 10.3778C56.2266 10.3097 56.5291 10.2557 56.8331 10.2159C57.2308 10.1648 57.5533 10.1264 57.8004 10.1009C58.0504 10.0724 58.2322 10.0256 58.3459 9.96023C58.4624 9.89489 58.5206 9.78125 58.5206 9.61932V9.58523C58.5206 9.16477 58.4055 8.83807 58.1754 8.60511C57.9482 8.37216 57.603 8.25568 57.1399 8.25568C56.6598 8.25568 56.2834 8.3608 56.0107 8.57102C55.7379 8.78125 55.5462 9.00568 55.4354 9.24432L54.4808 8.90341C54.6513 8.50568 54.8786 8.19602 55.1626 7.97443C55.4496 7.75 55.7621 7.59375 56.1001 7.50568C56.4411 7.41477 56.7763 7.36932 57.1058 7.36932C57.3161 7.36932 57.5575 7.39489 57.8303 7.44602C58.1058 7.49432 58.3714 7.59517 58.6271 7.74858C58.8857 7.90199 59.1001 8.13352 59.2706 8.44318C59.4411 8.75284 59.5263 9.16761 59.5263 9.6875V14H58.5206V13.1136H58.4695C58.4013 13.2557 58.2876 13.4077 58.1286 13.5696C57.9695 13.7315 57.7578 13.8693 57.4936 13.983C57.2294 14.0966 56.907 14.1534 56.5263 14.1534ZM56.6797 13.25C57.0774 13.25 57.4126 13.1719 57.6854 13.0156C57.9609 12.8594 58.1683 12.6577 58.3075 12.4105C58.4496 12.1634 58.5206 11.9034 58.5206 11.6307V10.7102C58.478 10.7614 58.3842 10.8082 58.2393 10.8509C58.0973 10.8906 57.9325 10.9261 57.745 10.9574C57.5604 10.9858 57.38 11.0114 57.2038 11.0341C57.0305 11.054 56.8899 11.071 56.782 11.0852C56.5206 11.1193 56.2763 11.1747 56.049 11.2514C55.8246 11.3253 55.6428 11.4375 55.5036 11.5881C55.3672 11.7358 55.299 11.9375 55.299 12.1932C55.299 12.5426 55.4283 12.8068 55.6868 12.9858C55.9482 13.1619 56.2791 13.25 56.6797 13.25ZM64.2085 7.45455V8.30682H60.8164V7.45455H64.2085ZM61.805 5.88636H62.8107V12.125C62.8107 12.4091 62.8519 12.6222 62.9343 12.7642C63.0195 12.9034 63.1275 12.9972 63.2582 13.0455C63.3917 13.0909 63.5323 13.1136 63.68 13.1136C63.7908 13.1136 63.8817 13.108 63.9528 13.0966C64.0238 13.0824 64.0806 13.071 64.1232 13.0625L64.3278 13.9659C64.2596 13.9915 64.1644 14.017 64.0423 14.0426C63.9201 14.071 63.7653 14.0852 63.5778 14.0852C63.2937 14.0852 63.0153 14.0241 62.7425 13.902C62.4727 13.7798 62.2482 13.5938 62.0692 13.3438C61.8931 13.0938 61.805 12.7784 61.805 12.3977V5.88636ZM67.6474 14.1534C67.2326 14.1534 66.8562 14.0753 66.5181 13.919C66.18 13.7599 65.9116 13.5312 65.7127 13.233C65.5138 12.9318 65.4144 12.5682 65.4144 12.142C65.4144 11.767 65.4883 11.4631 65.636 11.2301C65.7837 10.9943 65.9812 10.8097 66.2283 10.6761C66.4755 10.5426 66.7482 10.4432 67.0465 10.3778C67.3477 10.3097 67.6502 10.2557 67.9542 10.2159C68.3519 10.1648 68.6744 10.1264 68.9215 10.1009C69.1715 10.0724 69.3533 10.0256 69.467 9.96023C69.5835 9.89489 69.6417 9.78125 69.6417 9.61932V9.58523C69.6417 9.16477 69.5266 8.83807 69.2965 8.60511C69.0692 8.37216 68.7241 8.25568 68.261 8.25568C67.7809 8.25568 67.4045 8.3608 67.1317 8.57102C66.859 8.78125 66.6673 9.00568 66.5565 9.24432L65.6019 8.90341C65.7724 8.50568 65.9996 8.19602 66.2837 7.97443C66.5707 7.75 66.8832 7.59375 67.2212 7.50568C67.5621 7.41477 67.8974 7.36932 68.2269 7.36932C68.4371 7.36932 68.6786 7.39489 68.9513 7.44602C69.2269 7.49432 69.4925 7.59517 69.7482 7.74858C70.0067 7.90199 70.2212 8.13352 70.3917 8.44318C70.5621 8.75284 70.6474 9.16761 70.6474 9.6875V14H69.6417V13.1136H69.5906C69.5224 13.2557 69.4087 13.4077 69.2496 13.5696C69.0906 13.7315 68.8789 13.8693 68.6147 13.983C68.3505 14.0966 68.0281 14.1534 67.6474 14.1534ZM67.8008 13.25C68.1985 13.25 68.5337 13.1719 68.8065 13.0156C69.082 12.8594 69.2894 12.6577 69.4286 12.4105C69.5707 12.1634 69.6417 11.9034 69.6417 11.6307V10.7102C69.5991 10.7614 69.5053 10.8082 69.3604 10.8509C69.2184 10.8906 69.0536 10.9261 68.8661 10.9574C68.6815 10.9858 68.5011 11.0114 68.3249 11.0341C68.1516 11.054 68.011 11.071 67.9031 11.0852C67.6417 11.1193 67.3974 11.1747 67.1701 11.2514C66.9457 11.3253 66.7638 11.4375 66.6246 11.5881C66.4883 11.7358 66.4201 11.9375 66.4201 12.1932C66.4201 12.5426 66.5494 12.8068 66.8079 12.9858C67.0692 13.1619 67.4002 13.25 67.8008 13.25ZM72.6193 14V5.27273H73.625V8.49432H73.7102C73.7841 8.38068 73.8864 8.2358 74.017 8.05966C74.1506 7.88068 74.3409 7.72159 74.5881 7.58239C74.8381 7.44034 75.1761 7.36932 75.6023 7.36932C76.1534 7.36932 76.6392 7.5071 77.0597 7.78267C77.4801 8.05824 77.8082 8.44886 78.044 8.95455C78.2798 9.46023 78.3977 10.0568 78.3977 10.7443C78.3977 11.4375 78.2798 12.0384 78.044 12.5469C77.8082 13.0526 77.4815 13.4446 77.0639 13.723C76.6463 13.9986 76.1648 14.1364 75.6193 14.1364C75.1989 14.1364 74.8622 14.0668 74.6094 13.9276C74.3565 13.7855 74.1619 13.625 74.0256 13.446C73.8892 13.2642 73.7841 13.1136 73.7102 12.9943H73.5909V14H72.6193ZM73.608 10.7273C73.608 11.2216 73.6804 11.6577 73.8253 12.0355C73.9702 12.4105 74.1818 12.7045 74.4602 12.9176C74.7386 13.1278 75.0795 13.233 75.483 13.233C75.9034 13.233 76.2543 13.1222 76.5355 12.9006C76.8196 12.6761 77.0327 12.375 77.1747 11.9972C77.3196 11.6165 77.392 11.1932 77.392 10.7273C77.392 10.267 77.321 9.85227 77.179 9.48295C77.0398 9.1108 76.8281 8.81676 76.544 8.60085C76.2628 8.3821 75.9091 8.27273 75.483 8.27273C75.0739 8.27273 74.7301 8.37642 74.4517 8.58381C74.1733 8.78835 73.9631 9.07528 73.821 9.4446C73.679 9.81108 73.608 10.2386 73.608 10.7273ZM81.8622 14.1534C81.4474 14.1534 81.071 14.0753 80.733 13.919C80.3949 13.7599 80.1264 13.5312 79.9276 13.233C79.7287 12.9318 79.6293 12.5682 79.6293 12.142C79.6293 11.767 79.7031 11.4631 79.8509 11.2301C79.9986 10.9943 80.196 10.8097 80.4432 10.6761C80.6903 10.5426 80.9631 10.4432 81.2614 10.3778C81.5625 10.3097 81.8651 10.2557 82.169 10.2159C82.5668 10.1648 82.8892 10.1264 83.1364 10.1009C83.3864 10.0724 83.5682 10.0256 83.6818 9.96023C83.7983 9.89489 83.8565 9.78125 83.8565 9.61932V9.58523C83.8565 9.16477 83.7415 8.83807 83.5114 8.60511C83.2841 8.37216 82.9389 8.25568 82.4759 8.25568C81.9957 8.25568 81.6193 8.3608 81.3466 8.57102C81.0739 8.78125 80.8821 9.00568 80.7713 9.24432L79.8168 8.90341C79.9872 8.50568 80.2145 8.19602 80.4986 7.97443C80.7855 7.75 81.098 7.59375 81.4361 7.50568C81.777 7.41477 82.1122 7.36932 82.4418 7.36932C82.652 7.36932 82.8935 7.39489 83.1662 7.44602C83.4418 7.49432 83.7074 7.59517 83.9631 7.74858C84.2216 7.90199 84.4361 8.13352 84.6065 8.44318C84.777 8.75284 84.8622 9.16761 84.8622 9.6875V14H83.8565V13.1136H83.8054C83.7372 13.2557 83.6236 13.4077 83.4645 13.5696C83.3054 13.7315 83.0938 13.8693 82.8295 13.983C82.5653 14.0966 82.2429 14.1534 81.8622 14.1534ZM82.0156 13.25C82.4134 13.25 82.7486 13.1719 83.0213 13.0156C83.2969 12.8594 83.5043 12.6577 83.6435 12.4105C83.7855 12.1634 83.8565 11.9034 83.8565 11.6307V10.7102C83.8139 10.7614 83.7202 10.8082 83.5753 10.8509C83.4332 10.8906 83.2685 10.9261 83.081 10.9574C82.8963 10.9858 82.7159 11.0114 82.5398 11.0341C82.3665 11.054 82.2259 11.071 82.1179 11.0852C81.8565 11.1193 81.6122 11.1747 81.3849 11.2514C81.1605 11.3253 80.9787 11.4375 80.8395 11.5881C80.7031 11.7358 80.6349 11.9375 80.6349 12.1932C80.6349 12.5426 80.7642 12.8068 81.0227 12.9858C81.2841 13.1619 81.6151 13.25 82.0156 13.25ZM91.3342 8.92045L90.4308 9.17614C90.3739 9.02557 90.2901 8.87926 90.1793 8.73722C90.0714 8.59233 89.9237 8.47301 89.7362 8.37926C89.5487 8.28551 89.3086 8.23864 89.016 8.23864C88.6154 8.23864 88.2816 8.33097 88.0146 8.51562C87.7504 8.69744 87.6183 8.92898 87.6183 9.21023C87.6183 9.46023 87.7092 9.65767 87.891 9.80256C88.0728 9.94744 88.3569 10.0682 88.7433 10.1648L89.7148 10.4034C90.3001 10.5455 90.7362 10.7628 91.0231 11.0554C91.31 11.3452 91.4535 11.7187 91.4535 12.1761C91.4535 12.5511 91.3455 12.8864 91.1296 13.1818C90.9165 13.4773 90.6183 13.7102 90.2347 13.8807C89.8512 14.0511 89.4052 14.1364 88.8967 14.1364C88.229 14.1364 87.6765 13.9915 87.239 13.7017C86.8015 13.4119 86.5245 12.9886 86.408 12.4318L87.3626 12.1932C87.4535 12.5455 87.6254 12.8097 87.8782 12.9858C88.1339 13.1619 88.4677 13.25 88.8796 13.25C89.3484 13.25 89.7205 13.1506 89.9961 12.9517C90.2745 12.75 90.4137 12.5085 90.4137 12.2273C90.4137 12 90.3342 11.8097 90.1751 11.6562C90.016 11.5 89.7717 11.3835 89.4421 11.3068L88.3512 11.0511C87.7518 10.9091 87.3114 10.6889 87.0302 10.3906C86.7518 10.0895 86.6126 9.71307 86.6126 9.26136C86.6126 8.89205 86.7163 8.56534 86.9237 8.28125C87.1339 7.99716 87.4194 7.77415 87.7802 7.61222C88.1438 7.45028 88.5558 7.36932 89.016 7.36932C89.6637 7.36932 90.1722 7.51136 90.5415 7.79545C90.9137 8.07955 91.1779 8.45455 91.3342 8.92045ZM95.7116 14.1364C95.081 14.1364 94.5369 13.9972 94.0795 13.7188C93.625 13.4375 93.2741 13.0455 93.027 12.5426C92.7827 12.0369 92.6605 11.4489 92.6605 10.7784C92.6605 10.108 92.7827 9.51705 93.027 9.00568C93.2741 8.49148 93.6179 8.09091 94.0582 7.80398C94.5014 7.5142 95.0185 7.36932 95.6094 7.36932C95.9503 7.36932 96.2869 7.42614 96.6193 7.53977C96.9517 7.65341 97.2543 7.83807 97.527 8.09375C97.7997 8.34659 98.017 8.68182 98.179 9.09943C98.3409 9.51705 98.4219 10.0312 98.4219 10.642V11.0682H93.3764V10.1989H97.3991C97.3991 9.82955 97.3253 9.5 97.1776 9.21023C97.0327 8.92045 96.8253 8.69176 96.5554 8.52415C96.2884 8.35653 95.973 8.27273 95.6094 8.27273C95.2088 8.27273 94.8622 8.37216 94.5696 8.57102C94.2798 8.76705 94.0568 9.02273 93.9006 9.33807C93.7443 9.65341 93.6662 9.99148 93.6662 10.3523V10.9318C93.6662 11.4261 93.7514 11.8452 93.9219 12.1889C94.0952 12.5298 94.3352 12.7898 94.642 12.9688C94.9489 13.1449 95.3054 13.233 95.7116 13.233C95.9759 13.233 96.2145 13.196 96.4276 13.1222C96.6435 13.0455 96.8295 12.9318 96.9858 12.7812C97.142 12.6278 97.2628 12.4375 97.348 12.2102L98.3196 12.483C98.2173 12.8125 98.0455 13.1023 97.804 13.3523C97.5625 13.5994 97.2642 13.7926 96.9091 13.9318C96.554 14.0682 96.1548 14.1364 95.7116 14.1364Z" fill="white"/>
</svg>
