<svg width="150" height="29" viewBox="0 0 150 29" fill="none" xmlns="http://www.w3.org/2000/svg">
<path d="M0.25 5C0.25 2.37665 2.37665 0.25 5 0.25H145C147.623 0.25 149.75 2.37665 149.75 5V23.83C149.75 26.4534 147.623 28.58 145 28.58H5C2.37665 28.58 0.25 26.4534 0.25 23.83V5Z" fill="#3D3D3D" stroke="#807B7B" stroke-width="0.5"/>
<path d="M6.125 12H3.88068V4.72727H6.22443C6.92992 4.72727 7.53362 4.87287 8.03551 5.16406C8.53741 5.45289 8.92211 5.86837 9.18963 6.41051C9.45715 6.95028 9.59091 7.59659 9.59091 8.34943C9.59091 9.10701 9.45597 9.75923 9.18608 10.3061C8.91619 10.8506 8.5232 11.2696 8.0071 11.5632C7.491 11.8544 6.86364 12 6.125 12ZM4.76136 11.2188H6.06818C6.66951 11.2188 7.16785 11.1027 7.56321 10.8707C7.95857 10.6387 8.25331 10.3085 8.44744 9.87997C8.64157 9.45147 8.73864 8.94129 8.73864 8.34943C8.73864 7.76231 8.64276 7.25687 8.45099 6.8331C8.25923 6.40696 7.97277 6.08026 7.59162 5.85298C7.21046 5.62334 6.7358 5.50852 6.16761 5.50852H4.76136V11.2188ZM10.9545 12V6.54545H11.7926V12H10.9545ZM11.3807 5.63636C11.2173 5.63636 11.0765 5.58073 10.9581 5.46946C10.8421 5.35819 10.7841 5.22443 10.7841 5.06818C10.7841 4.91193 10.8421 4.77817 10.9581 4.6669C11.0765 4.55563 11.2173 4.5 11.3807 4.5C11.544 4.5 11.6837 4.55563 11.7997 4.6669C11.9181 4.77817 11.9773 4.91193 11.9773 5.06818C11.9773 5.22443 11.9181 5.35819 11.7997 5.46946C11.6837 5.58073 11.544 5.63636 11.3807 5.63636ZM13.3276 6.54545H14.1657V12.3977C14.1657 12.7339 14.1077 13.0251 13.9917 13.2713C13.878 13.5175 13.7052 13.7081 13.4732 13.843C13.2435 13.978 12.9535 14.0455 12.6032 14.0455C12.5748 14.0455 12.5463 14.0455 12.5179 14.0455C12.4895 14.0455 12.4611 14.0455 12.4327 14.0455V13.2642C12.4611 13.2642 12.4872 13.2642 12.5108 13.2642C12.5345 13.2642 12.5605 13.2642 12.589 13.2642C12.8446 13.2642 13.0317 13.1884 13.15 13.0369C13.2684 12.8878 13.3276 12.6747 13.3276 12.3977V6.54545ZM13.7395 5.63636C13.5762 5.63636 13.4353 5.58073 13.3169 5.46946C13.2009 5.35819 13.1429 5.22443 13.1429 5.06818C13.1429 4.91193 13.2009 4.77817 13.3169 4.6669C13.4353 4.55563 13.5762 4.5 13.7395 4.5C13.9029 4.5 14.0426 4.55563 14.1586 4.6669C14.2769 4.77817 14.3361 4.91193 14.3361 5.06818C14.3361 5.22443 14.2769 5.35819 14.1586 5.46946C14.0426 5.58073 13.9029 5.63636 13.7395 5.63636ZM16.4819 10.0114L16.4677 8.97443H16.6381L19.0245 6.54545H20.0614L17.5188 9.11648H17.4478L16.4819 10.0114ZM15.7006 12V4.72727H16.5387V12H15.7006ZM19.1665 12L17.0359 9.30114L17.6325 8.71875L20.2319 12H19.1665ZM25.0037 7.76705L24.2509 7.98011C24.2035 7.85464 24.1337 7.73272 24.0414 7.61435C23.9514 7.49361 23.8283 7.39418 23.6721 7.31605C23.5158 7.23793 23.3158 7.19886 23.0719 7.19886C22.7381 7.19886 22.4599 7.2758 22.2374 7.42969C22.0172 7.5812 21.9071 7.77415 21.9071 8.00852C21.9071 8.21686 21.9829 8.38139 22.1344 8.50213C22.2859 8.62287 22.5227 8.72348 22.8446 8.80398L23.6543 9.00284C24.142 9.12121 24.5054 9.30232 24.7445 9.54616C24.9836 9.78764 25.1032 10.099 25.1032 10.4801C25.1032 10.7926 25.0132 11.072 24.8333 11.3182C24.6557 11.5644 24.4071 11.7585 24.0875 11.9006C23.7679 12.0426 23.3962 12.1136 22.9725 12.1136C22.4161 12.1136 21.9557 11.9929 21.5911 11.7514C21.2265 11.5099 20.9957 11.1572 20.8986 10.6932L21.6941 10.4943C21.7698 10.7879 21.9131 11.008 22.1238 11.1548C22.3368 11.3016 22.615 11.375 22.9583 11.375C23.3489 11.375 23.659 11.2921 23.8887 11.1264C24.1207 10.9583 24.2367 10.7571 24.2367 10.5227C24.2367 10.3333 24.1704 10.1747 24.0378 10.0469C23.9052 9.91667 23.7016 9.8196 23.427 9.75568L22.5179 9.54261C22.0184 9.42424 21.6515 9.24077 21.4171 8.99219C21.1851 8.74124 21.0691 8.42756 21.0691 8.05114C21.0691 7.74337 21.1555 7.47112 21.3283 7.23438C21.5035 6.99763 21.7414 6.81179 22.0421 6.67685C22.3451 6.5419 22.6884 6.47443 23.0719 6.47443C23.6117 6.47443 24.0355 6.5928 24.3432 6.82955C24.6533 7.06629 24.8735 7.37879 25.0037 7.76705ZM28.7369 6.54545V7.25568H25.9102V6.54545H28.7369ZM26.734 5.23864H27.5721V10.4375C27.5721 10.6742 27.6064 10.8518 27.6751 10.9702C27.7461 11.0862 27.8361 11.1643 27.945 11.2045C28.0562 11.2424 28.1734 11.2614 28.2965 11.2614C28.3888 11.2614 28.4646 11.2566 28.5238 11.2472C28.583 11.2353 28.6303 11.2259 28.6658 11.2188L28.8363 11.9716C28.7795 11.9929 28.7002 12.0142 28.5984 12.0355C28.4966 12.0592 28.3675 12.071 28.2113 12.071C27.9746 12.071 27.7425 12.0201 27.5153 11.9183C27.2904 11.8165 27.1033 11.6615 26.9542 11.4531C26.8074 11.2448 26.734 10.982 26.734 10.6648V5.23864ZM29.9975 12V6.54545H30.8072V7.36932H30.864C30.9634 7.09943 31.1433 6.88045 31.4038 6.71236C31.6642 6.54427 31.9577 6.46023 32.2844 6.46023C32.346 6.46023 32.4229 6.46141 32.5153 6.46378C32.6076 6.46615 32.6774 6.4697 32.7248 6.47443V7.3267C32.6964 7.3196 32.6313 7.30895 32.5295 7.29474C32.43 7.27817 32.3247 7.26989 32.2134 7.26989C31.9483 7.26989 31.7115 7.32552 31.5032 7.43679C31.2972 7.54569 31.1339 7.69721 31.0131 7.89134C30.8948 8.0831 30.8356 8.30208 30.8356 8.5483V12H29.9975ZM35.3233 12.1278C34.9777 12.1278 34.664 12.0627 34.3823 11.9325C34.1006 11.8 33.8768 11.6094 33.7111 11.3608C33.5454 11.1098 33.4625 10.8068 33.4625 10.4517C33.4625 10.1392 33.5241 9.88589 33.6472 9.69176C33.7703 9.49527 33.9348 9.34138 34.1408 9.23011C34.3468 9.11884 34.574 9.03598 34.8226 8.98153C35.0736 8.92472 35.3257 8.87973 35.579 8.84659C35.9105 8.80398 36.1792 8.77202 36.3851 8.75071C36.5935 8.72704 36.745 8.68797 36.8397 8.63352C36.9367 8.57907 36.9853 8.48437 36.9853 8.34943V8.32102C36.9853 7.97064 36.8894 7.69839 36.6976 7.50426C36.5082 7.31013 36.2206 7.21307 35.8347 7.21307C35.4346 7.21307 35.1209 7.30066 34.8936 7.47585C34.6664 7.65104 34.5066 7.83807 34.4142 8.03693L33.6188 7.75284C33.7608 7.4214 33.9502 7.16335 34.187 6.97869C34.4261 6.79167 34.6865 6.66146 34.9682 6.58807C35.2523 6.51231 35.5317 6.47443 35.8063 6.47443C35.9815 6.47443 36.1827 6.49574 36.41 6.53835C36.6396 6.5786 36.861 6.66264 37.074 6.79048C37.2895 6.91832 37.4682 7.11127 37.6103 7.36932C37.7523 7.62737 37.8233 7.97301 37.8233 8.40625V12H36.9853V11.2614H36.9426C36.8858 11.3797 36.7911 11.5064 36.6586 11.6413C36.526 11.7763 36.3496 11.8911 36.1294 11.9858C35.9093 12.0805 35.6406 12.1278 35.3233 12.1278ZM35.4512 11.375C35.7826 11.375 36.062 11.3099 36.2892 11.1797C36.5189 11.0495 36.6917 10.8814 36.8077 10.6754C36.9261 10.4695 36.9853 10.2528 36.9853 10.0256V9.25852C36.9498 9.30114 36.8716 9.3402 36.7509 9.37571C36.6325 9.40885 36.4952 9.43845 36.339 9.46449C36.1851 9.48816 36.0347 9.50947 35.888 9.52841C35.7435 9.54498 35.6264 9.55919 35.5364 9.57102C35.3186 9.59943 35.115 9.6456 34.9256 9.70952C34.7386 9.77107 34.5871 9.86458 34.4711 9.99006C34.3574 10.1132 34.3006 10.2812 34.3006 10.4943C34.3006 10.7855 34.4083 11.0057 34.6238 11.1548C34.8416 11.3016 35.1174 11.375 35.4512 11.375Z" fill="white"/>
<path d="M3.70455 22V16.1818H7.19318V16.8068H4.40909V18.7727H6.93182V19.3977H4.40909V22H3.70455ZM8.30895 22V17.6364H8.9794V22H8.30895ZM8.64986 16.9091C8.51918 16.9091 8.40649 16.8646 8.31179 16.7756C8.21899 16.6866 8.17259 16.5795 8.17259 16.4545C8.17259 16.3295 8.21899 16.2225 8.31179 16.1335C8.40649 16.0445 8.51918 16 8.64986 16C8.78054 16 8.89228 16.0445 8.98509 16.1335C9.07978 16.2225 9.12713 16.3295 9.12713 16.4545C9.12713 16.5795 9.07978 16.6866 8.98509 16.7756C8.89228 16.8646 8.78054 16.9091 8.64986 16.9091ZM10.8778 19.375V22H10.2074V17.6364H10.8551V18.3182H10.9119C11.0142 18.0966 11.1695 17.9186 11.3778 17.7841C11.5862 17.6477 11.8551 17.5795 12.1847 17.5795C12.4801 17.5795 12.7386 17.6402 12.9602 17.7614C13.1818 17.8807 13.3542 18.0625 13.4773 18.3068C13.6004 18.5492 13.6619 18.8561 13.6619 19.2273V22H12.9915V19.2727C12.9915 18.9299 12.9025 18.6629 12.7244 18.4716C12.5464 18.2784 12.3021 18.1818 11.9915 18.1818C11.7775 18.1818 11.5862 18.2282 11.4176 18.321C11.2509 18.4138 11.1193 18.5492 11.0227 18.7273C10.9261 18.9053 10.8778 19.1212 10.8778 19.375ZM16.5348 22.0909C16.1712 22.0909 15.8501 21.9991 15.5717 21.8153C15.2933 21.6297 15.0755 21.3684 14.9183 21.0312C14.7611 20.6922 14.6825 20.2917 14.6825 19.8295C14.6825 19.3712 14.7611 18.9735 14.9183 18.6364C15.0755 18.2992 15.2943 18.0388 15.5746 17.8551C15.8549 17.6714 16.1787 17.5795 16.5462 17.5795C16.8303 17.5795 17.0547 17.6269 17.2195 17.7216C17.3861 17.8144 17.513 17.9205 17.6001 18.0398C17.6892 18.1572 17.7583 18.2538 17.8075 18.3295H17.8643V16.1818H18.5348V22H17.8871V21.3295H17.8075C17.7583 21.4091 17.6882 21.5095 17.5973 21.6307C17.5064 21.75 17.3767 21.857 17.2081 21.9517C17.0395 22.0445 16.8151 22.0909 16.5348 22.0909ZM16.6257 21.4886C16.8946 21.4886 17.1219 21.4186 17.3075 21.2784C17.4931 21.1364 17.6342 20.9403 17.7308 20.6903C17.8274 20.4384 17.8757 20.1477 17.8757 19.8182C17.8757 19.4924 17.8284 19.2074 17.7337 18.9631C17.639 18.7169 17.4988 18.5256 17.3132 18.3892C17.1276 18.2509 16.8984 18.1818 16.6257 18.1818C16.3416 18.1818 16.1049 18.2547 15.9155 18.4006C15.728 18.5445 15.5869 18.7405 15.4922 18.9886C15.3994 19.2348 15.353 19.5114 15.353 19.8182C15.353 20.1288 15.4003 20.411 15.495 20.6648C15.5916 20.9167 15.7337 21.1174 15.9212 21.267C16.1106 21.4148 16.3454 21.4886 16.6257 21.4886ZM19.8558 22V17.6364H20.5263V22H19.8558ZM20.1967 16.9091C20.0661 16.9091 19.9534 16.8646 19.8587 16.7756C19.7659 16.6866 19.7195 16.5795 19.7195 16.4545C19.7195 16.3295 19.7659 16.2225 19.8587 16.1335C19.9534 16.0445 20.0661 16 20.1967 16C20.3274 16 20.4392 16.0445 20.532 16.1335C20.6267 16.2225 20.674 16.3295 20.674 16.4545C20.674 16.5795 20.6267 16.6866 20.532 16.7756C20.4392 16.8646 20.3274 16.9091 20.1967 16.9091ZM22.4247 19.375V22H21.7543V17.6364H22.402V18.3182H22.4588C22.5611 18.0966 22.7164 17.9186 22.9247 17.7841C23.133 17.6477 23.402 17.5795 23.7315 17.5795C24.027 17.5795 24.2855 17.6402 24.5071 17.7614C24.7287 17.8807 24.901 18.0625 25.0241 18.3068C25.1473 18.5492 25.2088 18.8561 25.2088 19.2273V22H24.5384V19.2727C24.5384 18.9299 24.4493 18.6629 24.2713 18.4716C24.0933 18.2784 23.849 18.1818 23.5384 18.1818C23.3243 18.1818 23.133 18.2282 22.9645 18.321C22.7978 18.4138 22.6662 18.5492 22.5696 18.7273C22.473 18.9053 22.4247 19.1212 22.4247 19.375ZM28.1953 23.7273C27.8714 23.7273 27.593 23.6856 27.3601 23.6023C27.1271 23.5208 26.933 23.4129 26.7777 23.2784C26.6243 23.1458 26.5021 23.0038 26.4112 22.8523L26.9453 22.4773C27.0059 22.5568 27.0826 22.6477 27.1754 22.75C27.2682 22.8542 27.3951 22.9441 27.5561 23.0199C27.719 23.0975 27.9321 23.1364 28.1953 23.1364C28.5476 23.1364 28.8383 23.0511 29.0675 22.8807C29.2966 22.7102 29.4112 22.4432 29.4112 22.0795V21.1932H29.3544C29.3052 21.2727 29.2351 21.3712 29.1442 21.4886C29.0552 21.6042 28.9264 21.7074 28.7578 21.7983C28.5911 21.8873 28.3658 21.9318 28.0817 21.9318C27.7294 21.9318 27.4131 21.8485 27.1328 21.6818C26.8544 21.5152 26.6338 21.2727 26.4709 20.9545C26.3099 20.6364 26.2294 20.25 26.2294 19.7955C26.2294 19.3485 26.308 18.9593 26.4652 18.6278C26.6224 18.2945 26.8411 18.0369 27.1214 17.8551C27.4018 17.6714 27.7256 17.5795 28.093 17.5795C28.3771 17.5795 28.6025 17.6269 28.7692 17.7216C28.9377 17.8144 29.0665 17.9205 29.1555 18.0398C29.2464 18.1572 29.3165 18.2538 29.3658 18.3295H29.4339V17.6364H30.0817V22.125C30.0817 22.5 29.9964 22.8049 29.826 23.0398C29.6574 23.2765 29.4302 23.4498 29.1442 23.5597C28.8601 23.6714 28.5438 23.7273 28.1953 23.7273ZM28.1726 21.3295C28.4415 21.3295 28.6688 21.268 28.8544 21.1449C29.04 21.0218 29.1811 20.8447 29.2777 20.6136C29.3743 20.3826 29.4226 20.1061 29.4226 19.7841C29.4226 19.4697 29.3752 19.1922 29.2805 18.9517C29.1858 18.7112 29.0457 18.5227 28.8601 18.3864C28.6745 18.25 28.4453 18.1818 28.1726 18.1818C27.8885 18.1818 27.6518 18.2538 27.4624 18.3977C27.2749 18.5417 27.1338 18.7348 27.0391 18.9773C26.9463 19.2197 26.8999 19.4886 26.8999 19.7841C26.8999 20.0871 26.9472 20.3551 27.0419 20.5881C27.1385 20.8191 27.2805 21.0009 27.468 21.1335C27.6574 21.2642 27.8923 21.3295 28.1726 21.3295ZM35.4567 17.6364V18.2045H33.1953V17.6364H35.4567ZM33.8544 16.5909H34.5249V20.75C34.5249 20.9394 34.5523 21.0814 34.6072 21.1761C34.6641 21.2689 34.736 21.3314 34.8232 21.3636C34.9122 21.3939 35.0059 21.4091 35.1044 21.4091C35.1783 21.4091 35.2389 21.4053 35.2862 21.3977C35.3336 21.3883 35.3714 21.3807 35.3999 21.375L35.5362 21.9773C35.4908 21.9943 35.4273 22.0114 35.3459 22.0284C35.2644 22.0473 35.1612 22.0568 35.0362 22.0568C34.8468 22.0568 34.6612 22.0161 34.4794 21.9347C34.2995 21.8532 34.1499 21.7292 34.0305 21.5625C33.9131 21.3958 33.8544 21.1856 33.8544 20.9318V16.5909ZM37.2294 19.375V22H36.5589V16.1818H37.2294V18.3182H37.2862C37.3885 18.0928 37.5419 17.9138 37.7464 17.7812C37.9529 17.6468 38.2275 17.5795 38.5703 17.5795C38.8677 17.5795 39.1281 17.6392 39.3516 17.7585C39.575 17.8759 39.7483 18.0568 39.8714 18.3011C39.9964 18.5436 40.0589 18.8523 40.0589 19.2273V22H39.3885V19.2727C39.3885 18.9261 39.2985 18.6581 39.1186 18.4688C38.9406 18.2775 38.6934 18.1818 38.3771 18.1818C38.1574 18.1818 37.9605 18.2282 37.7862 18.321C37.6139 18.4138 37.4775 18.5492 37.3771 18.7273C37.2786 18.9053 37.2294 19.1212 37.2294 19.375ZM43.1151 22.0909C42.6946 22.0909 42.3319 21.9981 42.027 21.8125C41.724 21.625 41.4901 21.3636 41.3253 21.0284C41.1624 20.6913 41.081 20.2992 41.081 19.8523C41.081 19.4053 41.1624 19.0114 41.3253 18.6705C41.4901 18.3277 41.7192 18.0606 42.0128 17.8693C42.3082 17.6761 42.6529 17.5795 43.0469 17.5795C43.2741 17.5795 43.4986 17.6174 43.7202 17.6932C43.9418 17.7689 44.1435 17.892 44.3253 18.0625C44.5071 18.2311 44.652 18.4545 44.7599 18.733C44.8679 19.0114 44.9219 19.3542 44.9219 19.7614V20.0455H41.5582V19.4659H44.2401C44.2401 19.2197 44.1908 19 44.0923 18.8068C43.9957 18.6136 43.8575 18.4612 43.6776 18.3494C43.4995 18.2377 43.2893 18.1818 43.0469 18.1818C42.7798 18.1818 42.5488 18.2481 42.3537 18.3807C42.1605 18.5114 42.0118 18.6818 41.9077 18.892C41.8035 19.1023 41.7514 19.3277 41.7514 19.5682V19.9545C41.7514 20.2841 41.8082 20.5634 41.9219 20.7926C42.0374 21.0199 42.1974 21.1932 42.402 21.3125C42.6065 21.4299 42.8442 21.4886 43.1151 21.4886C43.2912 21.4886 43.4503 21.464 43.5923 21.4148C43.7363 21.3636 43.8603 21.2879 43.9645 21.1875C44.0687 21.0852 44.1491 20.9583 44.206 20.8068L44.8537 20.9886C44.7855 21.2083 44.6709 21.4015 44.5099 21.5682C44.349 21.733 44.1501 21.8617 43.9134 21.9545C43.6766 22.0455 43.4105 22.0909 43.1151 22.0909ZM49.9645 22.0909C49.5705 22.0909 49.2249 21.9972 48.9276 21.8097C48.6321 21.6222 48.401 21.3598 48.2344 21.0227C48.0696 20.6856 47.9872 20.2917 47.9872 19.8409C47.9872 19.3864 48.0696 18.9896 48.2344 18.6506C48.401 18.3116 48.6321 18.0483 48.9276 17.8608C49.2249 17.6733 49.5705 17.5795 49.9645 17.5795C50.3584 17.5795 50.7031 17.6733 50.9986 17.8608C51.2959 18.0483 51.527 18.3116 51.6918 18.6506C51.8584 18.9896 51.9418 19.3864 51.9418 19.8409C51.9418 20.2917 51.8584 20.6856 51.6918 21.0227C51.527 21.3598 51.2959 21.6222 50.9986 21.8097C50.7031 21.9972 50.3584 22.0909 49.9645 22.0909ZM49.9645 21.4886C50.2637 21.4886 50.5099 21.4119 50.7031 21.2585C50.8963 21.1051 51.0393 20.9034 51.1321 20.6534C51.2249 20.4034 51.2713 20.1326 51.2713 19.8409C51.2713 19.5492 51.2249 19.2775 51.1321 19.0256C51.0393 18.7737 50.8963 18.5701 50.7031 18.4148C50.5099 18.2595 50.2637 18.1818 49.9645 18.1818C49.6652 18.1818 49.419 18.2595 49.2259 18.4148C49.0327 18.5701 48.8897 18.7737 48.7969 19.0256C48.7041 19.2775 48.6577 19.5492 48.6577 19.8409C48.6577 20.1326 48.7041 20.4034 48.7969 20.6534C48.8897 20.9034 49.0327 21.1051 49.2259 21.2585C49.419 21.4119 49.6652 21.4886 49.9645 21.4886ZM52.9652 23.6364V17.6364H53.6129V18.3295H53.6925C53.7417 18.2538 53.8099 18.1572 53.897 18.0398C53.986 17.9205 54.1129 17.8144 54.2777 17.7216C54.4444 17.6269 54.6697 17.5795 54.9538 17.5795C55.3213 17.5795 55.6451 17.6714 55.9254 17.8551C56.2057 18.0388 56.4245 18.2992 56.5817 18.6364C56.7389 18.9735 56.8175 19.3712 56.8175 19.8295C56.8175 20.2917 56.7389 20.6922 56.5817 21.0312C56.4245 21.3684 56.2067 21.6297 55.9283 21.8153C55.6499 21.9991 55.3288 22.0909 54.9652 22.0909C54.6849 22.0909 54.4605 22.0445 54.2919 21.9517C54.1233 21.857 53.9936 21.75 53.9027 21.6307C53.8118 21.5095 53.7417 21.4091 53.6925 21.3295H53.6357V23.6364H52.9652ZM53.6243 19.8182C53.6243 20.1477 53.6726 20.4384 53.7692 20.6903C53.8658 20.9403 54.0069 21.1364 54.1925 21.2784C54.3781 21.4186 54.6054 21.4886 54.8743 21.4886C55.1546 21.4886 55.3885 21.4148 55.576 21.267C55.7654 21.1174 55.9074 20.9167 56.0021 20.6648C56.0987 20.411 56.147 20.1288 56.147 19.8182C56.147 19.5114 56.0997 19.2348 56.005 18.9886C55.9122 18.7405 55.7711 18.5445 55.5817 18.4006C55.3942 18.2547 55.1584 18.1818 54.8743 18.1818C54.6016 18.1818 54.3724 18.2509 54.1868 18.3892C54.0012 18.5256 53.861 18.7169 53.7663 18.9631C53.6716 19.2074 53.6243 19.4924 53.6243 19.8182ZM59.7379 17.6364V18.2045H57.4766V17.6364H59.7379ZM58.1357 16.5909H58.8061V20.75C58.8061 20.9394 58.8336 21.0814 58.8885 21.1761C58.9453 21.2689 59.0173 21.3314 59.1044 21.3636C59.1934 21.3939 59.2872 21.4091 59.3857 21.4091C59.4595 21.4091 59.5201 21.4053 59.5675 21.3977C59.6148 21.3883 59.6527 21.3807 59.6811 21.375L59.8175 21.9773C59.772 21.9943 59.7086 22.0114 59.6271 22.0284C59.5457 22.0473 59.4425 22.0568 59.3175 22.0568C59.1281 22.0568 58.9425 22.0161 58.7607 21.9347C58.5807 21.8532 58.4311 21.7292 58.3118 21.5625C58.1944 21.3958 58.1357 21.1856 58.1357 20.9318V16.5909ZM60.7464 22V17.6364H61.4169V22H60.7464ZM61.0874 16.9091C60.9567 16.9091 60.844 16.8646 60.7493 16.7756C60.6565 16.6866 60.6101 16.5795 60.6101 16.4545C60.6101 16.3295 60.6565 16.2225 60.7493 16.1335C60.844 16.0445 60.9567 16 61.0874 16C61.218 16 61.3298 16.0445 61.4226 16.1335C61.5173 16.2225 61.5646 16.3295 61.5646 16.4545C61.5646 16.5795 61.5173 16.6866 61.4226 16.7756C61.3298 16.8646 61.218 16.9091 61.0874 16.9091ZM62.6449 22V17.6364H63.2926V18.3182H63.3494C63.4403 18.0852 63.5871 17.9044 63.7898 17.7756C63.9924 17.6449 64.2358 17.5795 64.5199 17.5795C64.8078 17.5795 65.0473 17.6449 65.2386 17.7756C65.4318 17.9044 65.5824 18.0852 65.6903 18.3182H65.7358C65.8475 18.0928 66.0152 17.9138 66.2386 17.7812C66.4621 17.6468 66.7301 17.5795 67.0426 17.5795C67.4328 17.5795 67.7519 17.7017 68 17.946C68.2481 18.1884 68.3722 18.5663 68.3722 19.0795V22H67.7017V19.0795C67.7017 18.7576 67.6136 18.5275 67.4375 18.3892C67.2614 18.2509 67.054 18.1818 66.8153 18.1818C66.5085 18.1818 66.2708 18.2746 66.1023 18.4602C65.9337 18.6439 65.8494 18.8769 65.8494 19.1591V22H65.1676V19.0114C65.1676 18.7633 65.0871 18.5634 64.9261 18.4119C64.7652 18.2585 64.5578 18.1818 64.304 18.1818C64.1297 18.1818 63.9669 18.2282 63.8153 18.321C63.6657 18.4138 63.5445 18.5426 63.4517 18.7074C63.3608 18.8703 63.3153 19.0587 63.3153 19.2727V22H62.6449ZM70.8821 22.1023C70.6056 22.1023 70.3546 22.0502 70.1293 21.946C69.9039 21.84 69.7249 21.6875 69.5923 21.4886C69.4598 21.2879 69.3935 21.0455 69.3935 20.7614C69.3935 20.5114 69.4427 20.3087 69.5412 20.1534C69.6397 19.9962 69.7713 19.8731 69.9361 19.7841C70.1009 19.6951 70.2827 19.6288 70.4815 19.5852C70.6823 19.5398 70.884 19.5038 71.0866 19.4773C71.3518 19.4432 71.5668 19.4176 71.7315 19.4006C71.8982 19.3816 72.0194 19.3504 72.0952 19.3068C72.1728 19.2633 72.2116 19.1875 72.2116 19.0795V19.0568C72.2116 18.7765 72.1349 18.5587 71.9815 18.4034C71.83 18.2481 71.5999 18.1705 71.2912 18.1705C70.9711 18.1705 70.7202 18.2405 70.5384 18.3807C70.3565 18.5208 70.2287 18.6705 70.1548 18.8295L69.5185 18.6023C69.6321 18.3371 69.7836 18.1307 69.973 17.983C70.1643 17.8333 70.3726 17.7292 70.598 17.6705C70.8253 17.6098 71.0488 17.5795 71.2685 17.5795C71.4086 17.5795 71.5696 17.5966 71.7514 17.6307C71.9351 17.6629 72.1122 17.7301 72.2827 17.8324C72.455 17.9347 72.598 18.089 72.7116 18.2955C72.8253 18.5019 72.8821 18.7784 72.8821 19.125V22H72.2116V21.4091H72.1776C72.1321 21.5038 72.0563 21.6051 71.9503 21.7131C71.8442 21.821 71.7031 21.9129 71.527 21.9886C71.3509 22.0644 71.1359 22.1023 70.8821 22.1023ZM70.9844 21.5C71.2495 21.5 71.473 21.4479 71.6548 21.3438C71.8385 21.2396 71.9768 21.1051 72.0696 20.9403C72.1643 20.7756 72.2116 20.6023 72.2116 20.4205V19.8068C72.1832 19.8409 72.1207 19.8722 72.0241 19.9006C71.9295 19.9271 71.8196 19.9508 71.6946 19.9716C71.5715 19.9905 71.4512 20.0076 71.3338 20.0227C71.2183 20.036 71.1245 20.0473 71.0526 20.0568C70.8783 20.0795 70.7154 20.1165 70.5639 20.1676C70.4143 20.2169 70.2931 20.2917 70.2003 20.392C70.1094 20.4905 70.0639 20.625 70.0639 20.7955C70.0639 21.0284 70.1501 21.2045 70.3224 21.3239C70.4967 21.4413 70.7173 21.5 70.9844 21.5ZM74.7763 16.1818V22H74.1058V16.1818H74.7763ZM78.2543 23.6364V17.6364H78.902V18.3295H78.9815C79.0308 18.2538 79.099 18.1572 79.1861 18.0398C79.2751 17.9205 79.402 17.8144 79.5668 17.7216C79.7334 17.6269 79.9588 17.5795 80.2429 17.5795C80.6103 17.5795 80.9342 17.6714 81.2145 17.8551C81.4948 18.0388 81.7135 18.2992 81.8707 18.6364C82.0279 18.9735 82.1065 19.3712 82.1065 19.8295C82.1065 20.2917 82.0279 20.6922 81.8707 21.0312C81.7135 21.3684 81.4957 21.6297 81.2173 21.8153C80.9389 21.9991 80.6179 22.0909 80.2543 22.0909C79.974 22.0909 79.7495 22.0445 79.581 21.9517C79.4124 21.857 79.2827 21.75 79.1918 21.6307C79.1009 21.5095 79.0308 21.4091 78.9815 21.3295H78.9247V23.6364H78.2543ZM78.9134 19.8182C78.9134 20.1477 78.9616 20.4384 79.0582 20.6903C79.1548 20.9403 79.2959 21.1364 79.4815 21.2784C79.6671 21.4186 79.8944 21.4886 80.1634 21.4886C80.4437 21.4886 80.6776 21.4148 80.8651 21.267C81.0545 21.1174 81.1965 20.9167 81.2912 20.6648C81.3878 20.411 81.4361 20.1288 81.4361 19.8182C81.4361 19.5114 81.3887 19.2348 81.294 18.9886C81.2012 18.7405 81.0601 18.5445 80.8707 18.4006C80.6832 18.2547 80.4474 18.1818 80.1634 18.1818C79.8906 18.1818 79.6615 18.2509 79.4759 18.3892C79.2902 18.5256 79.1501 18.7169 79.0554 18.9631C78.9607 19.2074 78.9134 19.4924 78.9134 19.8182ZM84.4134 22.1023C84.1368 22.1023 83.8859 22.0502 83.6605 21.946C83.4351 21.84 83.2562 21.6875 83.1236 21.4886C82.991 21.2879 82.9247 21.0455 82.9247 20.7614C82.9247 20.5114 82.974 20.3087 83.0724 20.1534C83.1709 19.9962 83.3026 19.8731 83.4673 19.7841C83.6321 19.6951 83.8139 19.6288 84.0128 19.5852C84.2135 19.5398 84.4152 19.5038 84.6179 19.4773C84.883 19.4432 85.098 19.4176 85.2628 19.4006C85.4295 19.3816 85.5507 19.3504 85.6264 19.3068C85.7041 19.2633 85.7429 19.1875 85.7429 19.0795V19.0568C85.7429 18.7765 85.6662 18.5587 85.5128 18.4034C85.3613 18.2481 85.1312 18.1705 84.8224 18.1705C84.5024 18.1705 84.2514 18.2405 84.0696 18.3807C83.8878 18.5208 83.7599 18.6705 83.6861 18.8295L83.0497 18.6023C83.1634 18.3371 83.3149 18.1307 83.5043 17.983C83.6955 17.8333 83.9039 17.7292 84.1293 17.6705C84.3565 17.6098 84.58 17.5795 84.7997 17.5795C84.9399 17.5795 85.1009 17.5966 85.2827 17.6307C85.4664 17.6629 85.6435 17.7301 85.8139 17.8324C85.9863 17.9347 86.1293 18.089 86.2429 18.2955C86.3565 18.5019 86.4134 18.7784 86.4134 19.125V22H85.7429V21.4091H85.7088C85.6634 21.5038 85.5876 21.6051 85.4815 21.7131C85.3755 21.821 85.2344 21.9129 85.0582 21.9886C84.8821 22.0644 84.6671 22.1023 84.4134 22.1023ZM84.5156 21.5C84.7808 21.5 85.0043 21.4479 85.1861 21.3438C85.3698 21.2396 85.508 21.1051 85.6009 20.9403C85.6955 20.7756 85.7429 20.6023 85.7429 20.4205V19.8068C85.7145 19.8409 85.652 19.8722 85.5554 19.9006C85.4607 19.9271 85.3509 19.9508 85.2259 19.9716C85.1027 19.9905 84.9825 20.0076 84.8651 20.0227C84.7495 20.036 84.6558 20.0473 84.5838 20.0568C84.4096 20.0795 84.2467 20.1165 84.0952 20.1676C83.9455 20.2169 83.8243 20.2917 83.7315 20.392C83.6406 20.4905 83.5952 20.625 83.5952 20.7955C83.5952 21.0284 83.6813 21.2045 83.8537 21.3239C84.0279 21.4413 84.2486 21.5 84.5156 21.5ZM89.5348 17.6364V18.2045H87.2734V17.6364H89.5348ZM87.9325 16.5909H88.603V20.75C88.603 20.9394 88.6304 21.0814 88.6854 21.1761C88.7422 21.2689 88.8142 21.3314 88.9013 21.3636C88.9903 21.3939 89.084 21.4091 89.1825 21.4091C89.2564 21.4091 89.317 21.4053 89.3643 21.3977C89.4117 21.3883 89.4496 21.3807 89.478 21.375L89.6143 21.9773C89.5689 21.9943 89.5054 22.0114 89.424 22.0284C89.3426 22.0473 89.2393 22.0568 89.1143 22.0568C88.925 22.0568 88.7393 22.0161 88.5575 21.9347C88.3776 21.8532 88.228 21.7292 88.1087 21.5625C87.9912 21.3958 87.9325 21.1856 87.9325 20.9318V16.5909ZM91.3075 19.375V22H90.6371V16.1818H91.3075V18.3182H91.3643C91.4666 18.0928 91.62 17.9138 91.8246 17.7812C92.031 17.6468 92.3056 17.5795 92.6484 17.5795C92.9458 17.5795 93.2062 17.6392 93.4297 17.7585C93.6532 17.8759 93.8265 18.0568 93.9496 18.3011C94.0746 18.5436 94.1371 18.8523 94.1371 19.2273V22H93.4666V19.2727C93.4666 18.9261 93.3767 18.6581 93.1967 18.4688C93.0187 18.2775 92.7715 18.1818 92.4553 18.1818C92.2356 18.1818 92.0386 18.2282 91.8643 18.321C91.692 18.4138 91.5556 18.5492 91.4553 18.7273C91.3568 18.9053 91.3075 19.1212 91.3075 19.375Z" fill="#878787"/>
</svg>
