<svg width="160" height="58" viewBox="0 0 160 58" fill="none" xmlns="http://www.w3.org/2000/svg">
<path d="M13.1918 7.96682C13.1798 8.89683 11.9354 9.21026 11.5002 8.39289V8.39289L11.0003 7.50941L10.5003 6.84681L9.50039 5.74247L8.50047 4.63814L7.50054 3.5338L6.5006 2.65033L5.50065 1.98774L4.64022 1.41759C4.54736 1.35606 4.44943 1.30249 4.34744 1.25744L3.02876 0.674924C3.01012 0.666691 2.99073 0.660225 2.97086 0.655609V0.655609C2.59062 0.567317 2.6613 0.00621801 3.05254 0.0071897L11.9585 0.0293089C12.696 0.0311407 13.2862 0.63046 13.2767 1.36793L13.1918 7.96682Z" fill="#3D3D3D"/>
<path d="M10 0H155C157.761 0 160 2.23858 160 5V53C160 55.7614 157.761 58 155 58H15C12.2386 58 10 55.7614 10 53V0Z" fill="#3D3D3D"/>
</svg>
