<svg width="150" height="29" viewBox="0 0 150 29" fill="none" xmlns="http://www.w3.org/2000/svg">
<path d="M0.25 5C0.25 2.37665 2.37665 0.25 5 0.25H145C147.623 0.25 149.75 2.37665 149.75 5V23.83C149.75 26.4534 147.623 28.58 145 28.58H5C2.37665 28.58 0.25 26.4534 0.25 23.83V5Z" fill="#3D3D3D" stroke="#807B7B" stroke-width="0.5"/>
<path d="M3.88068 12V4.72727H8.24148V5.50852H4.76136V7.96591H7.91477V8.74716H4.76136V12H3.88068ZM9.63619 12V6.54545H10.4743V12H9.63619ZM10.0623 5.63636C9.89897 5.63636 9.75811 5.58073 9.63974 5.46946C9.52373 5.35819 9.46573 5.22443 9.46573 5.06818C9.46573 4.91193 9.52373 4.77817 9.63974 4.6669C9.75811 4.55563 9.89897 4.5 10.0623 4.5C10.2257 4.5 10.3654 4.55563 10.4814 4.6669C10.5997 4.77817 10.6589 4.91193 10.6589 5.06818C10.6589 5.22443 10.5997 5.35819 10.4814 5.46946C10.3654 5.58073 10.2257 5.63636 10.0623 5.63636ZM12.8473 8.71875V12H12.0092V6.54545H12.8189V7.39773H12.8899C13.0178 7.12074 13.2119 6.8982 13.4723 6.73011C13.7327 6.55966 14.0689 6.47443 14.4808 6.47443C14.8501 6.47443 15.1733 6.55019 15.4503 6.7017C15.7273 6.85085 15.9427 7.07812 16.0966 7.38352C16.2505 7.68655 16.3274 8.07008 16.3274 8.53409V12H15.4893V8.59091C15.4893 8.16241 15.3781 7.8286 15.1555 7.58949C14.933 7.34801 14.6276 7.22727 14.2393 7.22727C13.9718 7.22727 13.7327 7.28527 13.522 7.40128C13.3137 7.51728 13.1491 7.68655 13.0284 7.90909C12.9077 8.13163 12.8473 8.40152 12.8473 8.71875ZM19.9185 12.1136C19.464 12.1136 19.0627 11.9988 18.7147 11.7692C18.3667 11.5372 18.0944 11.2105 17.8979 10.7891C17.7014 10.3653 17.6032 9.86458 17.6032 9.28693C17.6032 8.71402 17.7014 8.21686 17.8979 7.79545C18.0944 7.37405 18.3678 7.04853 18.7182 6.81889C19.0686 6.58925 19.4734 6.47443 19.9327 6.47443C20.2878 6.47443 20.5684 6.53362 20.7743 6.65199C20.9827 6.76799 21.1413 6.90057 21.2502 7.04972C21.3614 7.1965 21.4479 7.31723 21.5094 7.41193H21.5804V4.72727H22.4185V12H21.6088V11.1619H21.5094C21.4479 11.2614 21.3603 11.3868 21.2466 11.5384C21.133 11.6875 20.9708 11.8213 20.7601 11.9396C20.5494 12.0556 20.2689 12.1136 19.9185 12.1136ZM20.0321 11.3608C20.3683 11.3608 20.6524 11.2732 20.8844 11.098C21.1164 10.9205 21.2928 10.6754 21.4135 10.3629C21.5343 10.0481 21.5946 9.68466 21.5946 9.27273C21.5946 8.86553 21.5355 8.50923 21.4171 8.20384C21.2987 7.89607 21.1235 7.65696 20.8915 7.48651C20.6595 7.31368 20.373 7.22727 20.0321 7.22727C19.677 7.22727 19.3811 7.31842 19.1444 7.50071C18.91 7.68063 18.7336 7.92566 18.6152 8.2358C18.4992 8.54356 18.4412 8.8892 18.4412 9.27273C18.4412 9.66098 18.5004 10.0137 18.6188 10.331C18.7395 10.6458 18.9171 10.8968 19.1515 11.0838C19.3882 11.2685 19.6818 11.3608 20.0321 11.3608ZM32.8482 7H31.9675C31.9154 6.74669 31.8243 6.52415 31.6941 6.33239C31.5662 6.14062 31.41 5.97964 31.2253 5.84943C31.043 5.71686 30.8406 5.61742 30.6181 5.55114C30.3955 5.48485 30.1635 5.4517 29.9221 5.4517C29.4817 5.4517 29.0828 5.56297 28.7253 5.78551C28.3702 6.00805 28.0873 6.33594 27.8766 6.76918C27.6683 7.20241 27.5641 7.7339 27.5641 8.36364C27.5641 8.99337 27.6683 9.52486 27.8766 9.9581C28.0873 10.3913 28.3702 10.7192 28.7253 10.9418C29.0828 11.1643 29.4817 11.2756 29.9221 11.2756C30.1635 11.2756 30.3955 11.2424 30.6181 11.1761C30.8406 11.1098 31.043 11.0116 31.2253 10.8814C31.41 10.7488 31.5662 10.5866 31.6941 10.3949C31.8243 10.2008 31.9154 9.97822 31.9675 9.72727H32.8482C32.7819 10.099 32.6612 10.4316 32.486 10.7251C32.3108 11.0187 32.093 11.2685 31.8326 11.4744C31.5721 11.678 31.2798 11.8331 30.9554 11.9396C30.6335 12.0462 30.289 12.0994 29.9221 12.0994C29.3018 12.0994 28.7502 11.9479 28.2672 11.6449C27.7843 11.3419 27.4043 10.911 27.1273 10.3523C26.8503 9.79356 26.7118 9.13068 26.7118 8.36364C26.7118 7.59659 26.8503 6.93371 27.1273 6.375C27.4043 5.81629 27.7843 5.38542 28.2672 5.08239C28.7502 4.77936 29.3018 4.62784 29.9221 4.62784C30.289 4.62784 30.6335 4.68111 30.9554 4.78764C31.2798 4.89418 31.5721 5.05043 31.8326 5.25639C32.093 5.45999 32.3108 5.70857 32.486 6.00213C32.6612 6.29332 32.7819 6.62595 32.8482 7ZM34.6974 14.0455C34.5554 14.0455 34.4287 14.0336 34.3175 14.0099C34.2062 13.9886 34.1293 13.9673 34.0866 13.946L34.2997 13.2074C34.5033 13.2595 34.6832 13.2784 34.8395 13.2642C34.9957 13.25 35.1342 13.1802 35.255 13.0547C35.3781 12.9316 35.4905 12.7315 35.5923 12.4545L35.7486 12.0284L33.7315 6.54545H34.6406L36.1463 10.892H36.2031L37.7088 6.54545H38.6179L36.3026 12.7955C36.1984 13.0772 36.0694 13.3104 35.9155 13.495C35.7616 13.6821 35.5829 13.8205 35.3793 13.9105C35.178 14.0005 34.9508 14.0455 34.6974 14.0455ZM41.7447 12.1136C41.2333 12.1136 40.793 11.9929 40.4237 11.7514C40.0543 11.5099 39.7702 11.1773 39.5714 10.7536C39.3725 10.3298 39.2731 9.84564 39.2731 9.30114C39.2731 8.74716 39.3749 8.25829 39.5785 7.83452C39.7844 7.40838 40.0709 7.07576 40.4379 6.83665C40.8072 6.59517 41.238 6.47443 41.7305 6.47443C42.114 6.47443 42.4596 6.54545 42.7674 6.6875C43.0752 6.82955 43.3273 7.02841 43.5238 7.28409C43.7203 7.53977 43.8422 7.83807 43.8896 8.17898H43.0515C42.9876 7.9304 42.8455 7.71023 42.6254 7.51847C42.4076 7.32434 42.114 7.22727 41.7447 7.22727C41.418 7.22727 41.1315 7.3125 40.8853 7.48295C40.6415 7.65104 40.4509 7.88897 40.3136 8.19673C40.1786 8.50213 40.1112 8.8608 40.1112 9.27273C40.1112 9.69413 40.1774 10.0611 40.31 10.3736C40.445 10.6861 40.6344 10.9287 40.8782 11.1016C41.1244 11.2744 41.4132 11.3608 41.7447 11.3608C41.9625 11.3608 42.1602 11.3229 42.3377 11.2472C42.5153 11.1714 42.6656 11.0625 42.7887 10.9205C42.9118 10.7784 42.9994 10.608 43.0515 10.4091H43.8896C43.8422 10.7311 43.725 11.0211 43.538 11.2791C43.3533 11.5348 43.1083 11.7384 42.8029 11.8899C42.4999 12.0391 42.1471 12.1136 41.7447 12.1136ZM45.9528 4.72727V12H45.1147V4.72727H45.9528ZM49.7747 12.1136C49.2491 12.1136 48.7958 11.9976 48.4146 11.7656C48.0358 11.5312 47.7434 11.2045 47.5375 10.7855C47.3339 10.3641 47.2321 9.87405 47.2321 9.31534C47.2321 8.75663 47.3339 8.2642 47.5375 7.83807C47.7434 7.40956 48.0299 7.07576 48.3968 6.83665C48.7662 6.59517 49.197 6.47443 49.6895 6.47443C49.9735 6.47443 50.2541 6.52178 50.5311 6.61648C50.8081 6.71117 51.0602 6.86506 51.2875 7.07812C51.5147 7.28883 51.6958 7.56818 51.8308 7.91619C51.9657 8.2642 52.0332 8.69271 52.0332 9.2017V9.55682H47.8287V8.83239H51.1809C51.1809 8.52462 51.1194 8.25 50.9963 8.00852C50.8755 7.76705 50.7027 7.57647 50.4778 7.43679C50.2553 7.29711 49.9925 7.22727 49.6895 7.22727C49.3556 7.22727 49.0668 7.31013 48.823 7.47585C48.5815 7.6392 48.3957 7.85227 48.2654 8.11506C48.1352 8.37784 48.0701 8.65956 48.0701 8.96023V9.44318C48.0701 9.85511 48.1412 10.2043 48.2832 10.4908C48.4276 10.7749 48.6277 10.9915 48.8833 11.1406C49.139 11.2874 49.4361 11.3608 49.7747 11.3608C49.9949 11.3608 50.1937 11.33 50.3713 11.2685C50.5512 11.2045 50.7063 11.1098 50.8365 10.9844C50.9667 10.8565 51.0673 10.6979 51.1383 10.5085L51.948 10.7358C51.8627 11.0104 51.7195 11.2519 51.5183 11.4602C51.3171 11.6662 51.0685 11.8272 50.7725 11.9432C50.4766 12.0568 50.144 12.1136 49.7747 12.1136Z" fill="white"/>
<path d="M3.70455 22V16.1818H7.19318V16.8068H4.40909V18.7727H6.93182V19.3977H4.40909V22H3.70455ZM8.30895 22V17.6364H8.9794V22H8.30895ZM8.64986 16.9091C8.51918 16.9091 8.40649 16.8646 8.31179 16.7756C8.21899 16.6866 8.17259 16.5795 8.17259 16.4545C8.17259 16.3295 8.21899 16.2225 8.31179 16.1335C8.40649 16.0445 8.51918 16 8.64986 16C8.78054 16 8.89228 16.0445 8.98509 16.1335C9.07978 16.2225 9.12713 16.3295 9.12713 16.4545C9.12713 16.5795 9.07978 16.6866 8.98509 16.7756C8.89228 16.8646 8.78054 16.9091 8.64986 16.9091ZM10.8778 19.375V22H10.2074V17.6364H10.8551V18.3182H10.9119C11.0142 18.0966 11.1695 17.9186 11.3778 17.7841C11.5862 17.6477 11.8551 17.5795 12.1847 17.5795C12.4801 17.5795 12.7386 17.6402 12.9602 17.7614C13.1818 17.8807 13.3542 18.0625 13.4773 18.3068C13.6004 18.5492 13.6619 18.8561 13.6619 19.2273V22H12.9915V19.2727C12.9915 18.9299 12.9025 18.6629 12.7244 18.4716C12.5464 18.2784 12.3021 18.1818 11.9915 18.1818C11.7775 18.1818 11.5862 18.2282 11.4176 18.321C11.2509 18.4138 11.1193 18.5492 11.0227 18.7273C10.9261 18.9053 10.8778 19.1212 10.8778 19.375ZM16.5348 22.0909C16.1712 22.0909 15.8501 21.9991 15.5717 21.8153C15.2933 21.6297 15.0755 21.3684 14.9183 21.0312C14.7611 20.6922 14.6825 20.2917 14.6825 19.8295C14.6825 19.3712 14.7611 18.9735 14.9183 18.6364C15.0755 18.2992 15.2943 18.0388 15.5746 17.8551C15.8549 17.6714 16.1787 17.5795 16.5462 17.5795C16.8303 17.5795 17.0547 17.6269 17.2195 17.7216C17.3861 17.8144 17.513 17.9205 17.6001 18.0398C17.6892 18.1572 17.7583 18.2538 17.8075 18.3295H17.8643V16.1818H18.5348V22H17.8871V21.3295H17.8075C17.7583 21.4091 17.6882 21.5095 17.5973 21.6307C17.5064 21.75 17.3767 21.857 17.2081 21.9517C17.0395 22.0445 16.8151 22.0909 16.5348 22.0909ZM16.6257 21.4886C16.8946 21.4886 17.1219 21.4186 17.3075 21.2784C17.4931 21.1364 17.6342 20.9403 17.7308 20.6903C17.8274 20.4384 17.8757 20.1477 17.8757 19.8182C17.8757 19.4924 17.8284 19.2074 17.7337 18.9631C17.639 18.7169 17.4988 18.5256 17.3132 18.3892C17.1276 18.2509 16.8984 18.1818 16.6257 18.1818C16.3416 18.1818 16.1049 18.2547 15.9155 18.4006C15.728 18.5445 15.5869 18.7405 15.4922 18.9886C15.3994 19.2348 15.353 19.5114 15.353 19.8182C15.353 20.1288 15.4003 20.411 15.495 20.6648C15.5916 20.9167 15.7337 21.1174 15.9212 21.267C16.1106 21.4148 16.3454 21.4886 16.6257 21.4886ZM19.8558 22V17.6364H20.5263V22H19.8558ZM20.1967 16.9091C20.0661 16.9091 19.9534 16.8646 19.8587 16.7756C19.7659 16.6866 19.7195 16.5795 19.7195 16.4545C19.7195 16.3295 19.7659 16.2225 19.8587 16.1335C19.9534 16.0445 20.0661 16 20.1967 16C20.3274 16 20.4392 16.0445 20.532 16.1335C20.6267 16.2225 20.674 16.3295 20.674 16.4545C20.674 16.5795 20.6267 16.6866 20.532 16.7756C20.4392 16.8646 20.3274 16.9091 20.1967 16.9091ZM22.4247 19.375V22H21.7543V17.6364H22.402V18.3182H22.4588C22.5611 18.0966 22.7164 17.9186 22.9247 17.7841C23.133 17.6477 23.402 17.5795 23.7315 17.5795C24.027 17.5795 24.2855 17.6402 24.5071 17.7614C24.7287 17.8807 24.901 18.0625 25.0241 18.3068C25.1473 18.5492 25.2088 18.8561 25.2088 19.2273V22H24.5384V19.2727C24.5384 18.9299 24.4493 18.6629 24.2713 18.4716C24.0933 18.2784 23.849 18.1818 23.5384 18.1818C23.3243 18.1818 23.133 18.2282 22.9645 18.321C22.7978 18.4138 22.6662 18.5492 22.5696 18.7273C22.473 18.9053 22.4247 19.1212 22.4247 19.375ZM28.1953 23.7273C27.8714 23.7273 27.593 23.6856 27.3601 23.6023C27.1271 23.5208 26.933 23.4129 26.7777 23.2784C26.6243 23.1458 26.5021 23.0038 26.4112 22.8523L26.9453 22.4773C27.0059 22.5568 27.0826 22.6477 27.1754 22.75C27.2682 22.8542 27.3951 22.9441 27.5561 23.0199C27.719 23.0975 27.9321 23.1364 28.1953 23.1364C28.5476 23.1364 28.8383 23.0511 29.0675 22.8807C29.2966 22.7102 29.4112 22.4432 29.4112 22.0795V21.1932H29.3544C29.3052 21.2727 29.2351 21.3712 29.1442 21.4886C29.0552 21.6042 28.9264 21.7074 28.7578 21.7983C28.5911 21.8873 28.3658 21.9318 28.0817 21.9318C27.7294 21.9318 27.4131 21.8485 27.1328 21.6818C26.8544 21.5152 26.6338 21.2727 26.4709 20.9545C26.3099 20.6364 26.2294 20.25 26.2294 19.7955C26.2294 19.3485 26.308 18.9593 26.4652 18.6278C26.6224 18.2945 26.8411 18.0369 27.1214 17.8551C27.4018 17.6714 27.7256 17.5795 28.093 17.5795C28.3771 17.5795 28.6025 17.6269 28.7692 17.7216C28.9377 17.8144 29.0665 17.9205 29.1555 18.0398C29.2464 18.1572 29.3165 18.2538 29.3658 18.3295H29.4339V17.6364H30.0817V22.125C30.0817 22.5 29.9964 22.8049 29.826 23.0398C29.6574 23.2765 29.4302 23.4498 29.1442 23.5597C28.8601 23.6714 28.5438 23.7273 28.1953 23.7273ZM28.1726 21.3295C28.4415 21.3295 28.6688 21.268 28.8544 21.1449C29.04 21.0218 29.1811 20.8447 29.2777 20.6136C29.3743 20.3826 29.4226 20.1061 29.4226 19.7841C29.4226 19.4697 29.3752 19.1922 29.2805 18.9517C29.1858 18.7112 29.0457 18.5227 28.8601 18.3864C28.6745 18.25 28.4453 18.1818 28.1726 18.1818C27.8885 18.1818 27.6518 18.2538 27.4624 18.3977C27.2749 18.5417 27.1338 18.7348 27.0391 18.9773C26.9463 19.2197 26.8999 19.4886 26.8999 19.7841C26.8999 20.0871 26.9472 20.3551 27.0419 20.5881C27.1385 20.8191 27.2805 21.0009 27.468 21.1335C27.6574 21.2642 27.8923 21.3295 28.1726 21.3295ZM34.843 22.1023C34.5665 22.1023 34.3156 22.0502 34.0902 21.946C33.8648 21.84 33.6858 21.6875 33.5533 21.4886C33.4207 21.2879 33.3544 21.0455 33.3544 20.7614C33.3544 20.5114 33.4036 20.3087 33.5021 20.1534C33.6006 19.9962 33.7322 19.8731 33.897 19.7841C34.0618 19.6951 34.2436 19.6288 34.4425 19.5852C34.6432 19.5398 34.8449 19.5038 35.0476 19.4773C35.3127 19.4432 35.5277 19.4176 35.6925 19.4006C35.8591 19.3816 35.9804 19.3504 36.0561 19.3068C36.1338 19.2633 36.1726 19.1875 36.1726 19.0795V19.0568C36.1726 18.7765 36.0959 18.5587 35.9425 18.4034C35.791 18.2481 35.5608 18.1705 35.2521 18.1705C34.9321 18.1705 34.6811 18.2405 34.4993 18.3807C34.3175 18.5208 34.1896 18.6705 34.1158 18.8295L33.4794 18.6023C33.593 18.3371 33.7446 18.1307 33.9339 17.983C34.1252 17.8333 34.3336 17.7292 34.5589 17.6705C34.7862 17.6098 35.0097 17.5795 35.2294 17.5795C35.3696 17.5795 35.5305 17.5966 35.7124 17.6307C35.8961 17.6629 36.0732 17.7301 36.2436 17.8324C36.416 17.9347 36.5589 18.089 36.6726 18.2955C36.7862 18.5019 36.843 18.7784 36.843 19.125V22H36.1726V21.4091H36.1385C36.093 21.5038 36.0173 21.6051 35.9112 21.7131C35.8052 21.821 35.6641 21.9129 35.4879 21.9886C35.3118 22.0644 35.0968 22.1023 34.843 22.1023ZM34.9453 21.5C35.2105 21.5 35.4339 21.4479 35.6158 21.3438C35.7995 21.2396 35.9377 21.1051 36.0305 20.9403C36.1252 20.7756 36.1726 20.6023 36.1726 20.4205V19.8068C36.1442 19.8409 36.0817 19.8722 35.9851 19.9006C35.8904 19.9271 35.7805 19.9508 35.6555 19.9716C35.5324 19.9905 35.4122 20.0076 35.2947 20.0227C35.1792 20.036 35.0855 20.0473 35.0135 20.0568C34.8393 20.0795 34.6764 20.1165 34.5249 20.1676C34.3752 20.2169 34.254 20.2917 34.1612 20.392C34.0703 20.4905 34.0249 20.625 34.0249 20.7955C34.0249 21.0284 34.111 21.2045 34.2834 21.3239C34.4576 21.4413 34.6783 21.5 34.9453 21.5ZM42.0895 22.0909C41.6804 22.0909 41.3281 21.9943 41.0327 21.8011C40.7372 21.608 40.5099 21.3419 40.3509 21.0028C40.1918 20.6638 40.1122 20.2765 40.1122 19.8409C40.1122 19.3977 40.1937 19.0066 40.3565 18.6676C40.5213 18.3267 40.7505 18.0606 41.044 17.8693C41.3395 17.6761 41.6842 17.5795 42.0781 17.5795C42.3849 17.5795 42.6615 17.6364 42.9077 17.75C43.1539 17.8636 43.3556 18.0227 43.5128 18.2273C43.67 18.4318 43.7675 18.6705 43.8054 18.9432H43.1349C43.0838 18.7443 42.9702 18.5682 42.794 18.4148C42.6198 18.2595 42.3849 18.1818 42.0895 18.1818C41.8281 18.1818 41.599 18.25 41.402 18.3864C41.2069 18.5208 41.0545 18.7112 40.9446 18.9574C40.8366 19.2017 40.7827 19.4886 40.7827 19.8182C40.7827 20.1553 40.8357 20.4489 40.9418 20.6989C41.0497 20.9489 41.2012 21.143 41.3963 21.2812C41.5933 21.4195 41.8243 21.4886 42.0895 21.4886C42.2637 21.4886 42.4219 21.4583 42.5639 21.3977C42.706 21.3371 42.8262 21.25 42.9247 21.1364C43.0232 21.0227 43.0933 20.8864 43.1349 20.7273H43.8054C43.7675 20.9848 43.6738 21.2169 43.5241 21.4233C43.3764 21.6278 43.1804 21.7907 42.9361 21.9119C42.6937 22.0312 42.4115 22.0909 42.0895 22.0909ZM45.2173 23.6364C45.1037 23.6364 45.0024 23.6269 44.9134 23.608C44.8243 23.5909 44.7628 23.5739 44.7287 23.5568L44.8991 22.9659C45.062 23.0076 45.206 23.0227 45.331 23.0114C45.456 23 45.5668 22.9441 45.6634 22.8438C45.7618 22.7453 45.8518 22.5852 45.9332 22.3636L46.0582 22.0227L44.4446 17.6364H45.1719L46.3764 21.1136H46.4219L47.6264 17.6364H48.3537L46.5014 22.6364C46.4181 22.8617 46.3149 23.0483 46.1918 23.196C46.0687 23.3456 45.9257 23.4564 45.7628 23.5284C45.6018 23.6004 45.42 23.6364 45.2173 23.6364ZM50.8551 22.0909C50.446 22.0909 50.0938 21.9943 49.7983 21.8011C49.5028 21.608 49.2756 21.3419 49.1165 21.0028C48.9574 20.6638 48.8778 20.2765 48.8778 19.8409C48.8778 19.3977 48.9593 19.0066 49.1222 18.6676C49.2869 18.3267 49.5161 18.0606 49.8097 17.8693C50.1051 17.6761 50.4498 17.5795 50.8438 17.5795C51.1506 17.5795 51.4271 17.6364 51.6733 17.75C51.9195 17.8636 52.1212 18.0227 52.2784 18.2273C52.4356 18.4318 52.5331 18.6705 52.571 18.9432H51.9006C51.8494 18.7443 51.7358 18.5682 51.5597 18.4148C51.3854 18.2595 51.1506 18.1818 50.8551 18.1818C50.5938 18.1818 50.3646 18.25 50.1676 18.3864C49.9725 18.5208 49.8201 18.7112 49.7102 18.9574C49.6023 19.2017 49.5483 19.4886 49.5483 19.8182C49.5483 20.1553 49.6013 20.4489 49.7074 20.6989C49.8153 20.9489 49.9669 21.143 50.1619 21.2812C50.3589 21.4195 50.59 21.4886 50.8551 21.4886C51.0294 21.4886 51.1875 21.4583 51.3295 21.3977C51.4716 21.3371 51.5919 21.25 51.6903 21.1364C51.7888 21.0227 51.8589 20.8864 51.9006 20.7273H52.571C52.5331 20.9848 52.4394 21.2169 52.2898 21.4233C52.142 21.6278 51.946 21.7907 51.7017 21.9119C51.4593 22.0312 51.1771 22.0909 50.8551 22.0909ZM54.2216 16.1818V22H53.5511V16.1818H54.2216ZM57.2791 22.0909C56.8587 22.0909 56.496 21.9981 56.1911 21.8125C55.888 21.625 55.6541 21.3636 55.4893 21.0284C55.3265 20.6913 55.245 20.2992 55.245 19.8523C55.245 19.4053 55.3265 19.0114 55.4893 18.6705C55.6541 18.3277 55.8833 18.0606 56.1768 17.8693C56.4723 17.6761 56.817 17.5795 57.2109 17.5795C57.4382 17.5795 57.6626 17.6174 57.8842 17.6932C58.1058 17.7689 58.3075 17.892 58.4893 18.0625C58.6712 18.2311 58.8161 18.4545 58.924 18.733C59.032 19.0114 59.0859 19.3542 59.0859 19.7614V20.0455H55.7223V19.4659H58.4041C58.4041 19.2197 58.3549 19 58.2564 18.8068C58.1598 18.6136 58.0215 18.4612 57.8416 18.3494C57.6636 18.2377 57.4534 18.1818 57.2109 18.1818C56.9439 18.1818 56.7128 18.2481 56.5178 18.3807C56.3246 18.5114 56.1759 18.6818 56.0717 18.892C55.9676 19.1023 55.9155 19.3277 55.9155 19.5682V19.9545C55.9155 20.2841 55.9723 20.5634 56.0859 20.7926C56.2015 21.0199 56.3615 21.1932 56.5661 21.3125C56.7706 21.4299 57.0083 21.4886 57.2791 21.4886C57.4553 21.4886 57.6143 21.464 57.7564 21.4148C57.9003 21.3636 58.0244 21.2879 58.1286 21.1875C58.2327 21.0852 58.3132 20.9583 58.37 20.8068L59.0178 20.9886C58.9496 21.2083 58.835 21.4015 58.674 21.5682C58.513 21.733 58.3142 21.8617 58.0774 21.9545C57.8407 22.0455 57.5746 22.0909 57.2791 22.0909ZM62.3558 22V17.6364H63.0263V22H62.3558ZM62.6967 16.9091C62.5661 16.9091 62.4534 16.8646 62.3587 16.7756C62.2659 16.6866 62.2195 16.5795 62.2195 16.4545C62.2195 16.3295 62.2659 16.2225 62.3587 16.1335C62.4534 16.0445 62.5661 16 62.6967 16C62.8274 16 62.9392 16.0445 63.032 16.1335C63.1267 16.2225 63.174 16.3295 63.174 16.4545C63.174 16.5795 63.1267 16.6866 63.032 16.7756C62.9392 16.8646 62.8274 16.9091 62.6967 16.9091ZM64.9247 19.375V22H64.2543V17.6364H64.902V18.3182H64.9588C65.0611 18.0966 65.2164 17.9186 65.4247 17.7841C65.633 17.6477 65.902 17.5795 66.2315 17.5795C66.527 17.5795 66.7855 17.6402 67.0071 17.7614C67.2287 17.8807 67.401 18.0625 67.5241 18.3068C67.6473 18.5492 67.7088 18.8561 67.7088 19.2273V22H67.0384V19.2727C67.0384 18.9299 66.9493 18.6629 66.7713 18.4716C66.5933 18.2784 66.349 18.1818 66.0384 18.1818C65.8243 18.1818 65.633 18.2282 65.4645 18.321C65.2978 18.4138 65.1662 18.5492 65.0696 18.7273C64.973 18.9053 64.9247 19.1212 64.9247 19.375ZM73.0817 17.6364V18.2045H70.8203V17.6364H73.0817ZM71.4794 16.5909H72.1499V20.75C72.1499 20.9394 72.1773 21.0814 72.2322 21.1761C72.2891 21.2689 72.361 21.3314 72.4482 21.3636C72.5372 21.3939 72.6309 21.4091 72.7294 21.4091C72.8033 21.4091 72.8639 21.4053 72.9112 21.3977C72.9586 21.3883 72.9964 21.3807 73.0249 21.375L73.1612 21.9773C73.1158 21.9943 73.0523 22.0114 72.9709 22.0284C72.8894 22.0473 72.7862 22.0568 72.6612 22.0568C72.4718 22.0568 72.2862 22.0161 72.1044 21.9347C71.9245 21.8532 71.7749 21.7292 71.6555 21.5625C71.5381 21.3958 71.4794 21.1856 71.4794 20.9318V16.5909ZM74.8544 19.375V22H74.1839V16.1818H74.8544V18.3182H74.9112C75.0135 18.0928 75.1669 17.9138 75.3714 17.7812C75.5779 17.6468 75.8525 17.5795 76.1953 17.5795C76.4927 17.5795 76.7531 17.6392 76.9766 17.7585C77.2 17.8759 77.3733 18.0568 77.4964 18.3011C77.6214 18.5436 77.6839 18.8523 77.6839 19.2273V22H77.0135V19.2727C77.0135 18.9261 76.9235 18.6581 76.7436 18.4688C76.5656 18.2775 76.3184 18.1818 76.0021 18.1818C75.7824 18.1818 75.5855 18.2282 75.4112 18.321C75.2389 18.4138 75.1025 18.5492 75.0021 18.7273C74.9036 18.9053 74.8544 19.1212 74.8544 19.375ZM80.7401 22.0909C80.3196 22.0909 79.9569 21.9981 79.652 21.8125C79.349 21.625 79.1151 21.3636 78.9503 21.0284C78.7874 20.6913 78.706 20.2992 78.706 19.8523C78.706 19.4053 78.7874 19.0114 78.9503 18.6705C79.1151 18.3277 79.3442 18.0606 79.6378 17.8693C79.9332 17.6761 80.2779 17.5795 80.6719 17.5795C80.8991 17.5795 81.1236 17.6174 81.3452 17.6932C81.5668 17.7689 81.7685 17.892 81.9503 18.0625C82.1321 18.2311 82.277 18.4545 82.3849 18.733C82.4929 19.0114 82.5469 19.3542 82.5469 19.7614V20.0455H79.1832V19.4659H81.8651C81.8651 19.2197 81.8158 19 81.7173 18.8068C81.6207 18.6136 81.4825 18.4612 81.3026 18.3494C81.1245 18.2377 80.9143 18.1818 80.6719 18.1818C80.4048 18.1818 80.1738 18.2481 79.9787 18.3807C79.7855 18.5114 79.6368 18.6818 79.5327 18.892C79.4285 19.1023 79.3764 19.3277 79.3764 19.5682V19.9545C79.3764 20.2841 79.4332 20.5634 79.5469 20.7926C79.6624 21.0199 79.8224 21.1932 80.027 21.3125C80.2315 21.4299 80.4692 21.4886 80.7401 21.4886C80.9162 21.4886 81.0753 21.464 81.2173 21.4148C81.3613 21.3636 81.4853 21.2879 81.5895 21.1875C81.6937 21.0852 81.7741 20.9583 81.831 20.8068L82.4787 20.9886C82.4105 21.2083 82.2959 21.4015 82.1349 21.5682C81.974 21.733 81.7751 21.8617 81.5384 21.9545C81.3016 22.0455 81.0355 22.0909 80.7401 22.0909ZM87.5781 23.7273C87.2543 23.7273 86.9759 23.6856 86.7429 23.6023C86.5099 23.5208 86.3158 23.4129 86.1605 23.2784C86.0071 23.1458 85.8849 23.0038 85.794 22.8523L86.3281 22.4773C86.3887 22.5568 86.4654 22.6477 86.5582 22.75C86.651 22.8542 86.7779 22.9441 86.9389 23.0199C87.1018 23.0975 87.3149 23.1364 87.5781 23.1364C87.9304 23.1364 88.2211 23.0511 88.4503 22.8807C88.6795 22.7102 88.794 22.4432 88.794 22.0795V21.1932H88.7372C88.688 21.2727 88.6179 21.3712 88.527 21.4886C88.438 21.6042 88.3092 21.7074 88.1406 21.7983C87.974 21.8873 87.7486 21.9318 87.4645 21.9318C87.1122 21.9318 86.7959 21.8485 86.5156 21.6818C86.2372 21.5152 86.0166 21.2727 85.8537 20.9545C85.6927 20.6364 85.6122 20.25 85.6122 19.7955C85.6122 19.3485 85.6908 18.9593 85.848 18.6278C86.0052 18.2945 86.224 18.0369 86.5043 17.8551C86.7846 17.6714 87.1084 17.5795 87.4759 17.5795C87.7599 17.5795 87.9853 17.6269 88.152 17.7216C88.3205 17.8144 88.4493 17.9205 88.5384 18.0398C88.6293 18.1572 88.6993 18.2538 88.7486 18.3295H88.8168V17.6364H89.4645V22.125C89.4645 22.5 89.3793 22.8049 89.2088 23.0398C89.0402 23.2765 88.813 23.4498 88.527 23.5597C88.2429 23.6714 87.9266 23.7273 87.5781 23.7273ZM87.5554 21.3295C87.8243 21.3295 88.0516 21.268 88.2372 21.1449C88.4228 21.0218 88.5639 20.8447 88.6605 20.6136C88.7571 20.3826 88.8054 20.1061 88.8054 19.7841C88.8054 19.4697 88.758 19.1922 88.6634 18.9517C88.5687 18.7112 88.4285 18.5227 88.2429 18.3864C88.0573 18.25 87.8281 18.1818 87.5554 18.1818C87.2713 18.1818 87.0346 18.2538 86.8452 18.3977C86.6577 18.5417 86.5166 18.7348 86.4219 18.9773C86.3291 19.2197 86.2827 19.4886 86.2827 19.7841C86.2827 20.0871 86.33 20.3551 86.4247 20.5881C86.5213 20.8191 86.6634 21.0009 86.8509 21.1335C87.0402 21.2642 87.2751 21.3295 87.5554 21.3295ZM90.6918 22V17.6364H91.3395V18.2955H91.3849C91.4645 18.0795 91.6084 17.9044 91.8168 17.7699C92.0251 17.6354 92.2599 17.5682 92.5213 17.5682C92.5705 17.5682 92.6321 17.5691 92.706 17.571C92.7798 17.5729 92.8357 17.5758 92.8736 17.5795V18.2614C92.8509 18.2557 92.7988 18.2472 92.7173 18.2358C92.6378 18.2225 92.5535 18.2159 92.4645 18.2159C92.2524 18.2159 92.063 18.2604 91.8963 18.3494C91.7315 18.4366 91.6009 18.5578 91.5043 18.7131C91.4096 18.8665 91.3622 19.0417 91.3622 19.2386V22H90.6918ZM94.9524 22.1023C94.6759 22.1023 94.425 22.0502 94.1996 21.946C93.9742 21.84 93.7952 21.6875 93.6626 21.4886C93.5301 21.2879 93.4638 21.0455 93.4638 20.7614C93.4638 20.5114 93.513 20.3087 93.6115 20.1534C93.71 19.9962 93.8416 19.8731 94.0064 19.7841C94.1712 19.6951 94.353 19.6288 94.5518 19.5852C94.7526 19.5398 94.9543 19.5038 95.157 19.4773C95.4221 19.4432 95.6371 19.4176 95.8018 19.4006C95.9685 19.3816 96.0897 19.3504 96.1655 19.3068C96.2431 19.2633 96.282 19.1875 96.282 19.0795V19.0568C96.282 18.7765 96.2053 18.5587 96.0518 18.4034C95.9003 18.2481 95.6702 18.1705 95.3615 18.1705C95.0414 18.1705 94.7905 18.2405 94.6087 18.3807C94.4268 18.5208 94.299 18.6705 94.2251 18.8295L93.5888 18.6023C93.7024 18.3371 93.8539 18.1307 94.0433 17.983C94.2346 17.8333 94.4429 17.7292 94.6683 17.6705C94.8956 17.6098 95.1191 17.5795 95.3388 17.5795C95.4789 17.5795 95.6399 17.5966 95.8217 17.6307C96.0054 17.6629 96.1825 17.7301 96.353 17.8324C96.5253 17.9347 96.6683 18.089 96.782 18.2955C96.8956 18.5019 96.9524 18.7784 96.9524 19.125V22H96.282V21.4091H96.2479C96.2024 21.5038 96.1267 21.6051 96.0206 21.7131C95.9145 21.821 95.7734 21.9129 95.5973 21.9886C95.4212 22.0644 95.2062 22.1023 94.9524 22.1023ZM95.0547 21.5C95.3198 21.5 95.5433 21.4479 95.7251 21.3438C95.9089 21.2396 96.0471 21.1051 96.1399 20.9403C96.2346 20.7756 96.282 20.6023 96.282 20.4205V19.8068C96.2536 19.8409 96.1911 19.8722 96.0945 19.9006C95.9998 19.9271 95.8899 19.9508 95.7649 19.9716C95.6418 19.9905 95.5215 20.0076 95.4041 20.0227C95.2886 20.036 95.1948 20.0473 95.1229 20.0568C94.9486 20.0795 94.7857 20.1165 94.6342 20.1676C94.4846 20.2169 94.3634 20.2917 94.2706 20.392C94.1797 20.4905 94.1342 20.625 94.1342 20.7955C94.1342 21.0284 94.2204 21.2045 94.3928 21.3239C94.567 21.4413 94.7876 21.5 95.0547 21.5ZM98.1761 23.6364V17.6364H98.8239V18.3295H98.9034C98.9527 18.2538 99.0208 18.1572 99.108 18.0398C99.197 17.9205 99.3239 17.8144 99.4886 17.7216C99.6553 17.6269 99.8807 17.5795 100.165 17.5795C100.532 17.5795 100.856 17.6714 101.136 17.8551C101.417 18.0388 101.635 18.2992 101.793 18.6364C101.95 18.9735 102.028 19.3712 102.028 19.8295C102.028 20.2917 101.95 20.6922 101.793 21.0312C101.635 21.3684 101.418 21.6297 101.139 21.8153C100.861 21.9991 100.54 22.0909 100.176 22.0909C99.8958 22.0909 99.6714 22.0445 99.5028 21.9517C99.3343 21.857 99.2045 21.75 99.1136 21.6307C99.0227 21.5095 98.9527 21.4091 98.9034 21.3295H98.8466V23.6364H98.1761ZM98.8352 19.8182C98.8352 20.1477 98.8835 20.4384 98.9801 20.6903C99.0767 20.9403 99.2178 21.1364 99.4034 21.2784C99.589 21.4186 99.8163 21.4886 100.085 21.4886C100.366 21.4886 100.599 21.4148 100.787 21.267C100.976 21.1174 101.118 20.9167 101.213 20.6648C101.31 20.411 101.358 20.1288 101.358 19.8182C101.358 19.5114 101.311 19.2348 101.216 18.9886C101.123 18.7405 100.982 18.5445 100.793 18.4006C100.605 18.2547 100.369 18.1818 100.085 18.1818C99.8125 18.1818 99.5833 18.2509 99.3977 18.3892C99.2121 18.5256 99.072 18.7169 98.9773 18.9631C98.8826 19.2074 98.8352 19.4924 98.8352 19.8182ZM103.722 19.375V22H103.051V16.1818H103.722V18.3182H103.778C103.881 18.0928 104.034 17.9138 104.239 17.7812C104.445 17.6468 104.72 17.5795 105.062 17.5795C105.36 17.5795 105.62 17.6392 105.844 17.7585C106.067 17.8759 106.241 18.0568 106.364 18.3011C106.489 18.5436 106.551 18.8523 106.551 19.2273V22H105.881V19.2727C105.881 18.9261 105.791 18.6581 105.611 18.4688C105.433 18.2775 105.186 18.1818 104.869 18.1818C104.65 18.1818 104.453 18.2282 104.278 18.321C104.106 18.4138 103.97 18.5492 103.869 18.7273C103.771 18.9053 103.722 19.1212 103.722 19.375Z" fill="#878787"/>
</svg>
