<svg width="150" height="29" viewBox="0 0 150 29" fill="none" xmlns="http://www.w3.org/2000/svg">
<path d="M0.25 5C0.25 2.37665 2.37665 0.25 5 0.25H145C147.623 0.25 149.75 2.37665 149.75 5V23.83C149.75 26.4534 147.623 28.58 145 28.58H5C2.37665 28.58 0.25 26.4534 0.25 23.83V5Z" fill="#3D3D3D" stroke="#807B7B" stroke-width="0.5"/>
<path d="M3.88068 12V4.72727H8.24148V5.50852H4.76136V7.96591H7.91477V8.74716H4.76136V12H3.88068ZM9.63619 12V6.54545H10.4743V12H9.63619ZM10.0623 5.63636C9.89897 5.63636 9.75811 5.58073 9.63974 5.46946C9.52373 5.35819 9.46573 5.22443 9.46573 5.06818C9.46573 4.91193 9.52373 4.77817 9.63974 4.6669C9.75811 4.55563 9.89897 4.5 10.0623 4.5C10.2257 4.5 10.3654 4.55563 10.4814 4.6669C10.5997 4.77817 10.6589 4.91193 10.6589 5.06818C10.6589 5.22443 10.5997 5.35819 10.4814 5.46946C10.3654 5.58073 10.2257 5.63636 10.0623 5.63636ZM12.8473 8.71875V12H12.0092V6.54545H12.8189V7.39773H12.8899C13.0178 7.12074 13.2119 6.8982 13.4723 6.73011C13.7327 6.55966 14.0689 6.47443 14.4808 6.47443C14.8501 6.47443 15.1733 6.55019 15.4503 6.7017C15.7273 6.85085 15.9427 7.07812 16.0966 7.38352C16.2505 7.68655 16.3274 8.07008 16.3274 8.53409V12H15.4893V8.59091C15.4893 8.16241 15.3781 7.8286 15.1555 7.58949C14.933 7.34801 14.6276 7.22727 14.2393 7.22727C13.9718 7.22727 13.7327 7.28527 13.522 7.40128C13.3137 7.51728 13.1491 7.68655 13.0284 7.90909C12.9077 8.13163 12.8473 8.40152 12.8473 8.71875ZM19.9185 12.1136C19.464 12.1136 19.0627 11.9988 18.7147 11.7692C18.3667 11.5372 18.0944 11.2105 17.8979 10.7891C17.7014 10.3653 17.6032 9.86458 17.6032 9.28693C17.6032 8.71402 17.7014 8.21686 17.8979 7.79545C18.0944 7.37405 18.3678 7.04853 18.7182 6.81889C19.0686 6.58925 19.4734 6.47443 19.9327 6.47443C20.2878 6.47443 20.5684 6.53362 20.7743 6.65199C20.9827 6.76799 21.1413 6.90057 21.2502 7.04972C21.3614 7.1965 21.4479 7.31723 21.5094 7.41193H21.5804V4.72727H22.4185V12H21.6088V11.1619H21.5094C21.4479 11.2614 21.3603 11.3868 21.2466 11.5384C21.133 11.6875 20.9708 11.8213 20.7601 11.9396C20.5494 12.0556 20.2689 12.1136 19.9185 12.1136ZM20.0321 11.3608C20.3683 11.3608 20.6524 11.2732 20.8844 11.098C21.1164 10.9205 21.2928 10.6754 21.4135 10.3629C21.5343 10.0481 21.5946 9.68466 21.5946 9.27273C21.5946 8.86553 21.5355 8.50923 21.4171 8.20384C21.2987 7.89607 21.1235 7.65696 20.8915 7.48651C20.6595 7.31368 20.373 7.22727 20.0321 7.22727C19.677 7.22727 19.3811 7.31842 19.1444 7.50071C18.91 7.68063 18.7336 7.92566 18.6152 8.2358C18.4992 8.54356 18.4412 8.8892 18.4412 9.27273C18.4412 9.66098 18.5004 10.0137 18.6188 10.331C18.7395 10.6458 18.9171 10.8968 19.1515 11.0838C19.3882 11.2685 19.6818 11.3608 20.0321 11.3608ZM26.9959 12V4.72727H29.5385C30.0452 4.72727 30.463 4.81487 30.7921 4.99006C31.1212 5.16288 31.3662 5.39607 31.5272 5.68963C31.6882 5.98082 31.7686 6.30398 31.7686 6.65909C31.7686 6.97159 31.713 7.22964 31.6017 7.43324C31.4928 7.63684 31.3484 7.79782 31.1685 7.91619C30.9909 8.03456 30.798 8.12216 30.5897 8.17898V8.25C30.8122 8.2642 31.0359 8.34233 31.2608 8.48438C31.4857 8.62642 31.6739 8.83002 31.8255 9.09517C31.977 9.36032 32.0527 9.68466 32.0527 10.0682C32.0527 10.4328 31.9699 10.7607 31.8042 11.0518C31.6384 11.343 31.3768 11.5739 31.0194 11.7443C30.6619 11.9148 30.1967 12 29.6238 12H26.9959ZM27.8766 11.2188H29.6238C30.199 11.2188 30.6074 11.1075 30.8489 10.8849C31.0927 10.66 31.2147 10.3878 31.2147 10.0682C31.2147 9.82197 31.1519 9.5947 31.0265 9.38636C30.901 9.17566 30.7222 9.00758 30.4902 8.8821C30.2582 8.75426 29.9836 8.69034 29.6664 8.69034H27.8766V11.2188ZM27.8766 7.9233H29.5101C29.7753 7.9233 30.0144 7.87121 30.2275 7.76705C30.4429 7.66288 30.6133 7.5161 30.7388 7.3267C30.8667 7.13731 30.9306 6.91477 30.9306 6.65909C30.9306 6.33949 30.8193 6.06842 30.5968 5.84588C30.3742 5.62098 30.0215 5.50852 29.5385 5.50852H27.8766V7.9233ZM33.3862 12V6.54545H34.1958V7.36932H34.2527C34.3521 7.09943 34.532 6.88045 34.7924 6.71236C35.0529 6.54427 35.3464 6.46023 35.6731 6.46023C35.7347 6.46023 35.8116 6.46141 35.9039 6.46378C35.9963 6.46615 36.0661 6.4697 36.1135 6.47443V7.3267C36.085 7.3196 36.0199 7.30895 35.9181 7.29474C35.8187 7.27817 35.7134 7.26989 35.6021 7.26989C35.3369 7.26989 35.1002 7.32552 34.8919 7.43679C34.6859 7.54569 34.5225 7.69721 34.4018 7.89134C34.2834 8.0831 34.2243 8.30208 34.2243 8.5483V12H33.3862ZM37.1069 12V6.54545H37.945V12H37.1069ZM37.533 5.63636C37.3697 5.63636 37.2288 5.58073 37.1104 5.46946C36.9944 5.35819 36.9364 5.22443 36.9364 5.06818C36.9364 4.91193 36.9944 4.77817 37.1104 4.6669C37.2288 4.55563 37.3697 4.5 37.533 4.5C37.6964 4.5 37.8361 4.55563 37.9521 4.6669C38.0704 4.77817 38.1296 4.91193 38.1296 5.06818C38.1296 5.22443 38.0704 5.35819 37.9521 5.46946C37.8361 5.58073 37.6964 5.63636 37.533 5.63636ZM41.5396 12.1136C41.085 12.1136 40.6838 11.9988 40.3358 11.7692C39.9877 11.5372 39.7155 11.2105 39.519 10.7891C39.3225 10.3653 39.2243 9.86458 39.2243 9.28693C39.2243 8.71402 39.3225 8.21686 39.519 7.79545C39.7155 7.37405 39.9889 7.04853 40.3393 6.81889C40.6897 6.58925 41.0945 6.47443 41.5538 6.47443C41.9089 6.47443 42.1895 6.53362 42.3954 6.65199C42.6038 6.76799 42.7624 6.90057 42.8713 7.04972C42.9825 7.1965 43.069 7.31723 43.1305 7.41193H43.2015V4.72727H44.0396V12H43.2299V11.1619H43.1305C43.069 11.2614 42.9814 11.3868 42.8677 11.5384C42.7541 11.6875 42.5919 11.8213 42.3812 11.9396C42.1705 12.0556 41.89 12.1136 41.5396 12.1136ZM41.6532 11.3608C41.9894 11.3608 42.2735 11.2732 42.5055 11.098C42.7375 10.9205 42.9139 10.6754 43.0346 10.3629C43.1554 10.0481 43.2157 9.68466 43.2157 9.27273C43.2157 8.86553 43.1565 8.50923 43.0382 8.20384C42.9198 7.89607 42.7446 7.65696 42.5126 7.48651C42.2806 7.31368 41.9941 7.22727 41.6532 7.22727C41.2981 7.22727 41.0022 7.31842 40.7654 7.50071C40.5311 7.68063 40.3547 7.92566 40.2363 8.2358C40.1203 8.54356 40.0623 8.8892 40.0623 9.27273C40.0623 9.66098 40.1215 10.0137 40.2399 10.331C40.3606 10.6458 40.5382 10.8968 40.7725 11.0838C41.0093 11.2685 41.3029 11.3608 41.6532 11.3608ZM47.8926 14.1591C47.4877 14.1591 47.1397 14.107 46.8485 14.0028C46.5574 13.901 46.3147 13.7661 46.1206 13.598C45.9288 13.4323 45.7761 13.2547 45.6625 13.0653L46.3301 12.5966C46.4058 12.696 46.5017 12.8097 46.6177 12.9375C46.7337 13.0677 46.8923 13.1802 47.0936 13.2749C47.2972 13.3719 47.5635 13.4205 47.8926 13.4205C48.3329 13.4205 48.6963 13.3139 48.9828 13.1009C49.2692 12.8878 49.4125 12.554 49.4125 12.0994V10.9915H49.3414C49.2799 11.0909 49.1923 11.214 49.0787 11.3608C48.9674 11.5052 48.8064 11.6342 48.5957 11.7479C48.3874 11.8591 48.1056 11.9148 47.7505 11.9148C47.3102 11.9148 46.9148 11.8106 46.5645 11.6023C46.2164 11.3939 45.9406 11.0909 45.737 10.6932C45.5358 10.2955 45.4352 9.8125 45.4352 9.24432C45.4352 8.68561 45.5334 8.1991 45.7299 7.7848C45.9264 7.36813 46.1999 7.04616 46.5502 6.81889C46.9006 6.58925 47.3055 6.47443 47.7647 6.47443C48.1199 6.47443 48.4016 6.53362 48.6099 6.65199C48.8206 6.76799 48.9816 6.90057 49.0929 7.04972C49.2065 7.1965 49.2941 7.31723 49.3556 7.41193H49.4409V6.54545H50.2505V12.1562C50.2505 12.625 50.144 13.0062 49.9309 13.2997C49.7202 13.5956 49.4361 13.8123 49.0787 13.9496C48.7235 14.0893 48.3282 14.1591 47.8926 14.1591ZM47.8642 11.1619C48.2003 11.1619 48.4844 11.085 48.7164 10.9311C48.9484 10.7772 49.1248 10.5559 49.2456 10.267C49.3663 9.97822 49.4267 9.63258 49.4267 9.23011C49.4267 8.83712 49.3675 8.49029 49.2491 8.18963C49.1307 7.88897 48.9556 7.65341 48.7235 7.48295C48.4915 7.3125 48.2051 7.22727 47.8642 7.22727C47.5091 7.22727 47.2131 7.31723 46.9764 7.49716C46.742 7.67708 46.5656 7.91856 46.4473 8.22159C46.3313 8.52462 46.2733 8.8608 46.2733 9.23011C46.2733 9.6089 46.3324 9.94389 46.4508 10.2351C46.5716 10.5239 46.7491 10.7512 46.9835 10.9169C47.2202 11.0803 47.5138 11.1619 47.8642 11.1619ZM54.0716 12.1136C53.546 12.1136 53.0926 11.9976 52.7115 11.7656C52.3327 11.5312 52.0403 11.2045 51.8343 10.7855C51.6307 10.3641 51.5289 9.87405 51.5289 9.31534C51.5289 8.75663 51.6307 8.2642 51.8343 7.83807C52.0403 7.40956 52.3268 7.07576 52.6937 6.83665C53.063 6.59517 53.4939 6.47443 53.9863 6.47443C54.2704 6.47443 54.551 6.52178 54.8279 6.61648C55.1049 6.71117 55.3571 6.86506 55.5843 7.07812C55.8116 7.28883 55.9927 7.56818 56.1277 7.91619C56.2626 8.2642 56.3301 8.69271 56.3301 9.2017V9.55682H52.1255V8.83239H55.4778C55.4778 8.52462 55.4163 8.25 55.2931 8.00852C55.1724 7.76705 54.9996 7.57647 54.7747 7.43679C54.5521 7.29711 54.2894 7.22727 53.9863 7.22727C53.6525 7.22727 53.3637 7.31013 53.1199 7.47585C52.8784 7.6392 52.6925 7.85227 52.5623 8.11506C52.4321 8.37784 52.367 8.65956 52.367 8.96023V9.44318C52.367 9.85511 52.438 10.2043 52.5801 10.4908C52.7245 10.7749 52.9245 10.9915 53.1802 11.1406C53.4359 11.2874 53.733 11.3608 54.0716 11.3608C54.2917 11.3608 54.4906 11.33 54.6681 11.2685C54.8481 11.2045 55.0031 11.1098 55.1333 10.9844C55.2636 10.8565 55.3642 10.6979 55.4352 10.5085L56.2449 10.7358C56.1596 11.0104 56.0164 11.2519 55.8152 11.4602C55.6139 11.6662 55.3654 11.8272 55.0694 11.9432C54.7735 12.0568 54.4409 12.1136 54.0716 12.1136Z" fill="white"/>
<path d="M3.70455 22V16.1818H7.19318V16.8068H4.40909V18.7727H6.93182V19.3977H4.40909V22H3.70455ZM8.30895 22V17.6364H8.9794V22H8.30895ZM8.64986 16.9091C8.51918 16.9091 8.40649 16.8646 8.31179 16.7756C8.21899 16.6866 8.17259 16.5795 8.17259 16.4545C8.17259 16.3295 8.21899 16.2225 8.31179 16.1335C8.40649 16.0445 8.51918 16 8.64986 16C8.78054 16 8.89228 16.0445 8.98509 16.1335C9.07978 16.2225 9.12713 16.3295 9.12713 16.4545C9.12713 16.5795 9.07978 16.6866 8.98509 16.7756C8.89228 16.8646 8.78054 16.9091 8.64986 16.9091ZM10.8778 19.375V22H10.2074V17.6364H10.8551V18.3182H10.9119C11.0142 18.0966 11.1695 17.9186 11.3778 17.7841C11.5862 17.6477 11.8551 17.5795 12.1847 17.5795C12.4801 17.5795 12.7386 17.6402 12.9602 17.7614C13.1818 17.8807 13.3542 18.0625 13.4773 18.3068C13.6004 18.5492 13.6619 18.8561 13.6619 19.2273V22H12.9915V19.2727C12.9915 18.9299 12.9025 18.6629 12.7244 18.4716C12.5464 18.2784 12.3021 18.1818 11.9915 18.1818C11.7775 18.1818 11.5862 18.2282 11.4176 18.321C11.2509 18.4138 11.1193 18.5492 11.0227 18.7273C10.9261 18.9053 10.8778 19.1212 10.8778 19.375ZM16.5348 22.0909C16.1712 22.0909 15.8501 21.9991 15.5717 21.8153C15.2933 21.6297 15.0755 21.3684 14.9183 21.0312C14.7611 20.6922 14.6825 20.2917 14.6825 19.8295C14.6825 19.3712 14.7611 18.9735 14.9183 18.6364C15.0755 18.2992 15.2943 18.0388 15.5746 17.8551C15.8549 17.6714 16.1787 17.5795 16.5462 17.5795C16.8303 17.5795 17.0547 17.6269 17.2195 17.7216C17.3861 17.8144 17.513 17.9205 17.6001 18.0398C17.6892 18.1572 17.7583 18.2538 17.8075 18.3295H17.8643V16.1818H18.5348V22H17.8871V21.3295H17.8075C17.7583 21.4091 17.6882 21.5095 17.5973 21.6307C17.5064 21.75 17.3767 21.857 17.2081 21.9517C17.0395 22.0445 16.8151 22.0909 16.5348 22.0909ZM16.6257 21.4886C16.8946 21.4886 17.1219 21.4186 17.3075 21.2784C17.4931 21.1364 17.6342 20.9403 17.7308 20.6903C17.8274 20.4384 17.8757 20.1477 17.8757 19.8182C17.8757 19.4924 17.8284 19.2074 17.7337 18.9631C17.639 18.7169 17.4988 18.5256 17.3132 18.3892C17.1276 18.2509 16.8984 18.1818 16.6257 18.1818C16.3416 18.1818 16.1049 18.2547 15.9155 18.4006C15.728 18.5445 15.5869 18.7405 15.4922 18.9886C15.3994 19.2348 15.353 19.5114 15.353 19.8182C15.353 20.1288 15.4003 20.411 15.495 20.6648C15.5916 20.9167 15.7337 21.1174 15.9212 21.267C16.1106 21.4148 16.3454 21.4886 16.6257 21.4886ZM19.8558 22V17.6364H20.5263V22H19.8558ZM20.1967 16.9091C20.0661 16.9091 19.9534 16.8646 19.8587 16.7756C19.7659 16.6866 19.7195 16.5795 19.7195 16.4545C19.7195 16.3295 19.7659 16.2225 19.8587 16.1335C19.9534 16.0445 20.0661 16 20.1967 16C20.3274 16 20.4392 16.0445 20.532 16.1335C20.6267 16.2225 20.674 16.3295 20.674 16.4545C20.674 16.5795 20.6267 16.6866 20.532 16.7756C20.4392 16.8646 20.3274 16.9091 20.1967 16.9091ZM22.4247 19.375V22H21.7543V17.6364H22.402V18.3182H22.4588C22.5611 18.0966 22.7164 17.9186 22.9247 17.7841C23.133 17.6477 23.402 17.5795 23.7315 17.5795C24.027 17.5795 24.2855 17.6402 24.5071 17.7614C24.7287 17.8807 24.901 18.0625 25.0241 18.3068C25.1473 18.5492 25.2088 18.8561 25.2088 19.2273V22H24.5384V19.2727C24.5384 18.9299 24.4493 18.6629 24.2713 18.4716C24.0933 18.2784 23.849 18.1818 23.5384 18.1818C23.3243 18.1818 23.133 18.2282 22.9645 18.321C22.7978 18.4138 22.6662 18.5492 22.5696 18.7273C22.473 18.9053 22.4247 19.1212 22.4247 19.375ZM28.1953 23.7273C27.8714 23.7273 27.593 23.6856 27.3601 23.6023C27.1271 23.5208 26.933 23.4129 26.7777 23.2784C26.6243 23.1458 26.5021 23.0038 26.4112 22.8523L26.9453 22.4773C27.0059 22.5568 27.0826 22.6477 27.1754 22.75C27.2682 22.8542 27.3951 22.9441 27.5561 23.0199C27.719 23.0975 27.9321 23.1364 28.1953 23.1364C28.5476 23.1364 28.8383 23.0511 29.0675 22.8807C29.2966 22.7102 29.4112 22.4432 29.4112 22.0795V21.1932H29.3544C29.3052 21.2727 29.2351 21.3712 29.1442 21.4886C29.0552 21.6042 28.9264 21.7074 28.7578 21.7983C28.5911 21.8873 28.3658 21.9318 28.0817 21.9318C27.7294 21.9318 27.4131 21.8485 27.1328 21.6818C26.8544 21.5152 26.6338 21.2727 26.4709 20.9545C26.3099 20.6364 26.2294 20.25 26.2294 19.7955C26.2294 19.3485 26.308 18.9593 26.4652 18.6278C26.6224 18.2945 26.8411 18.0369 27.1214 17.8551C27.4018 17.6714 27.7256 17.5795 28.093 17.5795C28.3771 17.5795 28.6025 17.6269 28.7692 17.7216C28.9377 17.8144 29.0665 17.9205 29.1555 18.0398C29.2464 18.1572 29.3165 18.2538 29.3658 18.3295H29.4339V17.6364H30.0817V22.125C30.0817 22.5 29.9964 22.8049 29.826 23.0398C29.6574 23.2765 29.4302 23.4498 29.1442 23.5597C28.8601 23.6714 28.5438 23.7273 28.1953 23.7273ZM28.1726 21.3295C28.4415 21.3295 28.6688 21.268 28.8544 21.1449C29.04 21.0218 29.1811 20.8447 29.2777 20.6136C29.3743 20.3826 29.4226 20.1061 29.4226 19.7841C29.4226 19.4697 29.3752 19.1922 29.2805 18.9517C29.1858 18.7112 29.0457 18.5227 28.8601 18.3864C28.6745 18.25 28.4453 18.1818 28.1726 18.1818C27.8885 18.1818 27.6518 18.2538 27.4624 18.3977C27.2749 18.5417 27.1338 18.7348 27.0391 18.9773C26.9463 19.2197 26.8999 19.4886 26.8999 19.7841C26.8999 20.0871 26.9472 20.3551 27.0419 20.5881C27.1385 20.8191 27.2805 21.0009 27.468 21.1335C27.6574 21.2642 27.8923 21.3295 28.1726 21.3295ZM34.843 22.1023C34.5665 22.1023 34.3156 22.0502 34.0902 21.946C33.8648 21.84 33.6858 21.6875 33.5533 21.4886C33.4207 21.2879 33.3544 21.0455 33.3544 20.7614C33.3544 20.5114 33.4036 20.3087 33.5021 20.1534C33.6006 19.9962 33.7322 19.8731 33.897 19.7841C34.0618 19.6951 34.2436 19.6288 34.4425 19.5852C34.6432 19.5398 34.8449 19.5038 35.0476 19.4773C35.3127 19.4432 35.5277 19.4176 35.6925 19.4006C35.8591 19.3816 35.9804 19.3504 36.0561 19.3068C36.1338 19.2633 36.1726 19.1875 36.1726 19.0795V19.0568C36.1726 18.7765 36.0959 18.5587 35.9425 18.4034C35.791 18.2481 35.5608 18.1705 35.2521 18.1705C34.9321 18.1705 34.6811 18.2405 34.4993 18.3807C34.3175 18.5208 34.1896 18.6705 34.1158 18.8295L33.4794 18.6023C33.593 18.3371 33.7446 18.1307 33.9339 17.983C34.1252 17.8333 34.3336 17.7292 34.5589 17.6705C34.7862 17.6098 35.0097 17.5795 35.2294 17.5795C35.3696 17.5795 35.5305 17.5966 35.7124 17.6307C35.8961 17.6629 36.0732 17.7301 36.2436 17.8324C36.416 17.9347 36.5589 18.089 36.6726 18.2955C36.7862 18.5019 36.843 18.7784 36.843 19.125V22H36.1726V21.4091H36.1385C36.093 21.5038 36.0173 21.6051 35.9112 21.7131C35.8052 21.821 35.6641 21.9129 35.4879 21.9886C35.3118 22.0644 35.0968 22.1023 34.843 22.1023ZM34.9453 21.5C35.2105 21.5 35.4339 21.4479 35.6158 21.3438C35.7995 21.2396 35.9377 21.1051 36.0305 20.9403C36.1252 20.7756 36.1726 20.6023 36.1726 20.4205V19.8068C36.1442 19.8409 36.0817 19.8722 35.9851 19.9006C35.8904 19.9271 35.7805 19.9508 35.6555 19.9716C35.5324 19.9905 35.4122 20.0076 35.2947 20.0227C35.1792 20.036 35.0855 20.0473 35.0135 20.0568C34.8393 20.0795 34.6764 20.1165 34.5249 20.1676C34.3752 20.2169 34.254 20.2917 34.1612 20.392C34.0703 20.4905 34.0249 20.625 34.0249 20.7955C34.0249 21.0284 34.111 21.2045 34.2834 21.3239C34.4576 21.4413 34.6783 21.5 34.9453 21.5ZM40.4077 22V16.1818H41.0781V18.3295H41.1349C41.1842 18.2538 41.2524 18.1572 41.3395 18.0398C41.4285 17.9205 41.5554 17.8144 41.7202 17.7216C41.8868 17.6269 42.1122 17.5795 42.3963 17.5795C42.7637 17.5795 43.0876 17.6714 43.3679 17.8551C43.6482 18.0388 43.867 18.2992 44.0241 18.6364C44.1813 18.9735 44.2599 19.3712 44.2599 19.8295C44.2599 20.2917 44.1813 20.6922 44.0241 21.0312C43.867 21.3684 43.6491 21.6297 43.3707 21.8153C43.0923 21.9991 42.7713 22.0909 42.4077 22.0909C42.1274 22.0909 41.9029 22.0445 41.7344 21.9517C41.5658 21.857 41.4361 21.75 41.3452 21.6307C41.2543 21.5095 41.1842 21.4091 41.1349 21.3295H41.0554V22H40.4077ZM41.0668 19.8182C41.0668 20.1477 41.1151 20.4384 41.2116 20.6903C41.3082 20.9403 41.4493 21.1364 41.6349 21.2784C41.8205 21.4186 42.0478 21.4886 42.3168 21.4886C42.5971 21.4886 42.831 21.4148 43.0185 21.267C43.2079 21.1174 43.3499 20.9167 43.4446 20.6648C43.5412 20.411 43.5895 20.1288 43.5895 19.8182C43.5895 19.5114 43.5421 19.2348 43.4474 18.9886C43.3546 18.7405 43.2135 18.5445 43.0241 18.4006C42.8366 18.2547 42.6009 18.1818 42.3168 18.1818C42.044 18.1818 41.8149 18.2509 41.6293 18.3892C41.4437 18.5256 41.3035 18.7169 41.2088 18.9631C41.1141 19.2074 41.0668 19.4924 41.0668 19.8182ZM45.2855 22V17.6364H45.9332V18.2955H45.9787C46.0582 18.0795 46.2022 17.9044 46.4105 17.7699C46.6188 17.6354 46.8537 17.5682 47.1151 17.5682C47.1643 17.5682 47.2259 17.5691 47.2997 17.571C47.3736 17.5729 47.4295 17.5758 47.4673 17.5795V18.2614C47.4446 18.2557 47.3925 18.2472 47.3111 18.2358C47.2315 18.2225 47.1473 18.2159 47.0582 18.2159C46.8461 18.2159 46.6567 18.2604 46.4901 18.3494C46.3253 18.4366 46.1946 18.5578 46.098 18.7131C46.0033 18.8665 45.956 19.0417 45.956 19.2386V22H45.2855ZM48.2621 22V17.6364H48.9325V22H48.2621ZM48.603 16.9091C48.4723 16.9091 48.3596 16.8646 48.2649 16.7756C48.1721 16.6866 48.1257 16.5795 48.1257 16.4545C48.1257 16.3295 48.1721 16.2225 48.2649 16.1335C48.3596 16.0445 48.4723 16 48.603 16C48.7337 16 48.8454 16.0445 48.9382 16.1335C49.0329 16.2225 49.0803 16.3295 49.0803 16.4545C49.0803 16.5795 49.0329 16.6866 48.9382 16.7756C48.8454 16.8646 48.7337 16.9091 48.603 16.9091ZM51.8082 22.0909C51.4446 22.0909 51.1236 21.9991 50.8452 21.8153C50.5668 21.6297 50.349 21.3684 50.1918 21.0312C50.0346 20.6922 49.956 20.2917 49.956 19.8295C49.956 19.3712 50.0346 18.9735 50.1918 18.6364C50.349 18.2992 50.5677 18.0388 50.848 17.8551C51.1283 17.6714 51.4522 17.5795 51.8196 17.5795C52.1037 17.5795 52.3281 17.6269 52.4929 17.7216C52.6596 17.8144 52.7865 17.9205 52.8736 18.0398C52.9626 18.1572 53.0317 18.2538 53.081 18.3295H53.1378V16.1818H53.8082V22H53.1605V21.3295H53.081C53.0317 21.4091 52.9616 21.5095 52.8707 21.6307C52.7798 21.75 52.6501 21.857 52.4815 21.9517C52.313 22.0445 52.0885 22.0909 51.8082 22.0909ZM51.8991 21.4886C52.1681 21.4886 52.3954 21.4186 52.581 21.2784C52.7666 21.1364 52.9077 20.9403 53.0043 20.6903C53.1009 20.4384 53.1491 20.1477 53.1491 19.8182C53.1491 19.4924 53.1018 19.2074 53.0071 18.9631C52.9124 18.7169 52.7723 18.5256 52.5866 18.3892C52.401 18.2509 52.1719 18.1818 51.8991 18.1818C51.6151 18.1818 51.3783 18.2547 51.1889 18.4006C51.0014 18.5445 50.8603 18.7405 50.7656 18.9886C50.6728 19.2348 50.6264 19.5114 50.6264 19.8182C50.6264 20.1288 50.6738 20.411 50.7685 20.6648C50.8651 20.9167 51.0071 21.1174 51.1946 21.267C51.384 21.4148 51.6188 21.4886 51.8991 21.4886ZM56.8906 23.7273C56.5668 23.7273 56.2884 23.6856 56.0554 23.6023C55.8224 23.5208 55.6283 23.4129 55.473 23.2784C55.3196 23.1458 55.1974 23.0038 55.1065 22.8523L55.6406 22.4773C55.7012 22.5568 55.7779 22.6477 55.8707 22.75C55.9635 22.8542 56.0904 22.9441 56.2514 23.0199C56.4143 23.0975 56.6274 23.1364 56.8906 23.1364C57.2429 23.1364 57.5336 23.0511 57.7628 22.8807C57.992 22.7102 58.1065 22.4432 58.1065 22.0795V21.1932H58.0497C58.0005 21.2727 57.9304 21.3712 57.8395 21.4886C57.7505 21.6042 57.6217 21.7074 57.4531 21.7983C57.2865 21.8873 57.0611 21.9318 56.777 21.9318C56.4247 21.9318 56.1084 21.8485 55.8281 21.6818C55.5497 21.5152 55.3291 21.2727 55.1662 20.9545C55.0052 20.6364 54.9247 20.25 54.9247 19.7955C54.9247 19.3485 55.0033 18.9593 55.1605 18.6278C55.3177 18.2945 55.5365 18.0369 55.8168 17.8551C56.0971 17.6714 56.4209 17.5795 56.7884 17.5795C57.0724 17.5795 57.2978 17.6269 57.4645 17.7216C57.633 17.8144 57.7618 17.9205 57.8509 18.0398C57.9418 18.1572 58.0118 18.2538 58.0611 18.3295H58.1293V17.6364H58.777V22.125C58.777 22.5 58.6918 22.8049 58.5213 23.0398C58.3527 23.2765 58.1255 23.4498 57.8395 23.5597C57.5554 23.6714 57.2391 23.7273 56.8906 23.7273ZM56.8679 21.3295C57.1368 21.3295 57.3641 21.268 57.5497 21.1449C57.7353 21.0218 57.8764 20.8447 57.973 20.6136C58.0696 20.3826 58.1179 20.1061 58.1179 19.7841C58.1179 19.4697 58.0705 19.1922 57.9759 18.9517C57.8812 18.7112 57.741 18.5227 57.5554 18.3864C57.3698 18.25 57.1406 18.1818 56.8679 18.1818C56.5838 18.1818 56.3471 18.2538 56.1577 18.3977C55.9702 18.5417 55.8291 18.7348 55.7344 18.9773C55.6416 19.2197 55.5952 19.4886 55.5952 19.7841C55.5952 20.0871 55.6425 20.3551 55.7372 20.5881C55.8338 20.8191 55.9759 21.0009 56.1634 21.1335C56.3527 21.2642 56.5876 21.3295 56.8679 21.3295ZM61.8338 22.0909C61.4134 22.0909 61.0507 21.9981 60.7457 21.8125C60.4427 21.625 60.2088 21.3636 60.044 21.0284C59.8812 20.6913 59.7997 20.2992 59.7997 19.8523C59.7997 19.4053 59.8812 19.0114 60.044 18.6705C60.2088 18.3277 60.438 18.0606 60.7315 17.8693C61.027 17.6761 61.3717 17.5795 61.7656 17.5795C61.9929 17.5795 62.2173 17.6174 62.4389 17.6932C62.6605 17.7689 62.8622 17.892 63.044 18.0625C63.2259 18.2311 63.3707 18.4545 63.4787 18.733C63.5866 19.0114 63.6406 19.3542 63.6406 19.7614V20.0455H60.277V19.4659H62.9588C62.9588 19.2197 62.9096 19 62.8111 18.8068C62.7145 18.6136 62.5762 18.4612 62.3963 18.3494C62.2183 18.2377 62.008 18.1818 61.7656 18.1818C61.4986 18.1818 61.2675 18.2481 61.0724 18.3807C60.8793 18.5114 60.7306 18.6818 60.6264 18.892C60.5223 19.1023 60.4702 19.3277 60.4702 19.5682V19.9545C60.4702 20.2841 60.527 20.5634 60.6406 20.7926C60.7562 21.0199 60.9162 21.1932 61.1207 21.3125C61.3253 21.4299 61.563 21.4886 61.8338 21.4886C62.0099 21.4886 62.169 21.464 62.3111 21.4148C62.455 21.3636 62.5791 21.2879 62.6832 21.1875C62.7874 21.0852 62.8679 20.9583 62.9247 20.8068L63.5724 20.9886C63.5043 21.2083 63.3897 21.4015 63.2287 21.5682C63.0677 21.733 62.8688 21.8617 62.6321 21.9545C62.3954 22.0455 62.1293 22.0909 61.8338 22.0909ZM66.9105 22V17.6364H67.581V22H66.9105ZM67.2514 16.9091C67.1207 16.9091 67.008 16.8646 66.9134 16.7756C66.8205 16.6866 66.7741 16.5795 66.7741 16.4545C66.7741 16.3295 66.8205 16.2225 66.9134 16.1335C67.008 16.0445 67.1207 16 67.2514 16C67.3821 16 67.4938 16.0445 67.5866 16.1335C67.6813 16.2225 67.7287 16.3295 67.7287 16.4545C67.7287 16.5795 67.6813 16.6866 67.5866 16.7756C67.4938 16.8646 67.3821 16.9091 67.2514 16.9091ZM69.4794 19.375V22H68.8089V17.6364H69.4567V18.3182H69.5135C69.6158 18.0966 69.7711 17.9186 69.9794 17.7841C70.1877 17.6477 70.4567 17.5795 70.7862 17.5795C71.0817 17.5795 71.3402 17.6402 71.5618 17.7614C71.7834 17.8807 71.9557 18.0625 72.0788 18.3068C72.2019 18.5492 72.2635 18.8561 72.2635 19.2273V22H71.593V19.2727C71.593 18.9299 71.504 18.6629 71.326 18.4716C71.148 18.2784 70.9036 18.1818 70.593 18.1818C70.379 18.1818 70.1877 18.2282 70.0192 18.321C69.8525 18.4138 69.7209 18.5492 69.6243 18.7273C69.5277 18.9053 69.4794 19.1212 69.4794 19.375ZM77.6364 17.6364V18.2045H75.375V17.6364H77.6364ZM76.0341 16.5909H76.7045V20.75C76.7045 20.9394 76.732 21.0814 76.7869 21.1761C76.8438 21.2689 76.9157 21.3314 77.0028 21.3636C77.0919 21.3939 77.1856 21.4091 77.2841 21.4091C77.358 21.4091 77.4186 21.4053 77.4659 21.3977C77.5133 21.3883 77.5511 21.3807 77.5795 21.375L77.7159 21.9773C77.6705 21.9943 77.607 22.0114 77.5256 22.0284C77.4441 22.0473 77.3409 22.0568 77.2159 22.0568C77.0265 22.0568 76.8409 22.0161 76.6591 21.9347C76.4792 21.8532 76.3295 21.7292 76.2102 21.5625C76.0928 21.3958 76.0341 21.1856 76.0341 20.9318V16.5909ZM79.4091 19.375V22H78.7386V16.1818H79.4091V18.3182H79.4659C79.5682 18.0928 79.7216 17.9138 79.9261 17.7812C80.1326 17.6468 80.4072 17.5795 80.75 17.5795C81.0473 17.5795 81.3078 17.6392 81.5312 17.7585C81.7547 17.8759 81.928 18.0568 82.0511 18.3011C82.1761 18.5436 82.2386 18.8523 82.2386 19.2273V22H81.5682V19.2727C81.5682 18.9261 81.4782 18.6581 81.2983 18.4688C81.1203 18.2775 80.8731 18.1818 80.5568 18.1818C80.3371 18.1818 80.1402 18.2282 79.9659 18.321C79.7936 18.4138 79.6572 18.5492 79.5568 18.7273C79.4583 18.9053 79.4091 19.1212 79.4091 19.375ZM85.2947 22.0909C84.8743 22.0909 84.5116 21.9981 84.2067 21.8125C83.9036 21.625 83.6697 21.3636 83.505 21.0284C83.3421 20.6913 83.2607 20.2992 83.2607 19.8523C83.2607 19.4053 83.3421 19.0114 83.505 18.6705C83.6697 18.3277 83.8989 18.0606 84.1925 17.8693C84.4879 17.6761 84.8326 17.5795 85.2266 17.5795C85.4538 17.5795 85.6783 17.6174 85.8999 17.6932C86.1214 17.7689 86.3232 17.892 86.505 18.0625C86.6868 18.2311 86.8317 18.4545 86.9396 18.733C87.0476 19.0114 87.1016 19.3542 87.1016 19.7614V20.0455H83.7379V19.4659H86.4197C86.4197 19.2197 86.3705 19 86.272 18.8068C86.1754 18.6136 86.0372 18.4612 85.8572 18.3494C85.6792 18.2377 85.469 18.1818 85.2266 18.1818C84.9595 18.1818 84.7285 18.2481 84.5334 18.3807C84.3402 18.5114 84.1915 18.6818 84.0874 18.892C83.9832 19.1023 83.9311 19.3277 83.9311 19.5682V19.9545C83.9311 20.2841 83.9879 20.5634 84.1016 20.7926C84.2171 21.0199 84.3771 21.1932 84.5817 21.3125C84.7862 21.4299 85.0239 21.4886 85.2947 21.4886C85.4709 21.4886 85.63 21.464 85.772 21.4148C85.916 21.3636 86.04 21.2879 86.1442 21.1875C86.2483 21.0852 86.3288 20.9583 86.3857 20.8068L87.0334 20.9886C86.9652 21.2083 86.8506 21.4015 86.6896 21.5682C86.5286 21.733 86.3298 21.8617 86.093 21.9545C85.8563 22.0455 85.5902 22.0909 85.2947 22.0909ZM92.1328 23.7273C91.8089 23.7273 91.5305 23.6856 91.2976 23.6023C91.0646 23.5208 90.8705 23.4129 90.7152 23.2784C90.5618 23.1458 90.4396 23.0038 90.3487 22.8523L90.8828 22.4773C90.9434 22.5568 91.0201 22.6477 91.1129 22.75C91.2057 22.8542 91.3326 22.9441 91.4936 23.0199C91.6565 23.0975 91.8696 23.1364 92.1328 23.1364C92.4851 23.1364 92.7758 23.0511 93.005 22.8807C93.2341 22.7102 93.3487 22.4432 93.3487 22.0795V21.1932H93.2919C93.2427 21.2727 93.1726 21.3712 93.0817 21.4886C92.9927 21.6042 92.8639 21.7074 92.6953 21.7983C92.5286 21.8873 92.3033 21.9318 92.0192 21.9318C91.6669 21.9318 91.3506 21.8485 91.0703 21.6818C90.7919 21.5152 90.5713 21.2727 90.4084 20.9545C90.2474 20.6364 90.1669 20.25 90.1669 19.7955C90.1669 19.3485 90.2455 18.9593 90.4027 18.6278C90.5599 18.2945 90.7786 18.0369 91.0589 17.8551C91.3393 17.6714 91.6631 17.5795 92.0305 17.5795C92.3146 17.5795 92.54 17.6269 92.7067 17.7216C92.8752 17.8144 93.004 17.9205 93.093 18.0398C93.1839 18.1572 93.254 18.2538 93.3033 18.3295H93.3714V17.6364H94.0192V22.125C94.0192 22.5 93.9339 22.8049 93.7635 23.0398C93.5949 23.2765 93.3677 23.4498 93.0817 23.5597C92.7976 23.6714 92.4813 23.7273 92.1328 23.7273ZM92.1101 21.3295C92.379 21.3295 92.6063 21.268 92.7919 21.1449C92.9775 21.0218 93.1186 20.8447 93.2152 20.6136C93.3118 20.3826 93.3601 20.1061 93.3601 19.7841C93.3601 19.4697 93.3127 19.1922 93.218 18.9517C93.1233 18.7112 92.9832 18.5227 92.7976 18.3864C92.612 18.25 92.3828 18.1818 92.1101 18.1818C91.826 18.1818 91.5893 18.2538 91.3999 18.3977C91.2124 18.5417 91.0713 18.7348 90.9766 18.9773C90.8838 19.2197 90.8374 19.4886 90.8374 19.7841C90.8374 20.0871 90.8847 20.3551 90.9794 20.5881C91.076 20.8191 91.218 21.0009 91.4055 21.1335C91.5949 21.2642 91.8298 21.3295 92.1101 21.3295ZM95.2464 22V17.6364H95.8942V18.2955H95.9396C96.0192 18.0795 96.1631 17.9044 96.3714 17.7699C96.5798 17.6354 96.8146 17.5682 97.076 17.5682C97.1252 17.5682 97.1868 17.5691 97.2607 17.571C97.3345 17.5729 97.3904 17.5758 97.4283 17.5795V18.2614C97.4055 18.2557 97.3535 18.2472 97.272 18.2358C97.1925 18.2225 97.1082 18.2159 97.0192 18.2159C96.8071 18.2159 96.6177 18.2604 96.451 18.3494C96.2862 18.4366 96.1555 18.5578 96.0589 18.7131C95.9643 18.8665 95.9169 19.0417 95.9169 19.2386V22H95.2464ZM99.5071 22.1023C99.2306 22.1023 98.9796 22.0502 98.7543 21.946C98.5289 21.84 98.3499 21.6875 98.2173 21.4886C98.0848 21.2879 98.0185 21.0455 98.0185 20.7614C98.0185 20.5114 98.0677 20.3087 98.1662 20.1534C98.2647 19.9962 98.3963 19.8731 98.5611 19.7841C98.7259 19.6951 98.9077 19.6288 99.1065 19.5852C99.3073 19.5398 99.509 19.5038 99.7116 19.4773C99.9768 19.4432 100.192 19.4176 100.357 19.4006C100.523 19.3816 100.644 19.3504 100.72 19.3068C100.798 19.2633 100.837 19.1875 100.837 19.0795V19.0568C100.837 18.7765 100.76 18.5587 100.607 18.4034C100.455 18.2481 100.225 18.1705 99.9162 18.1705C99.5961 18.1705 99.3452 18.2405 99.1634 18.3807C98.9815 18.5208 98.8537 18.6705 98.7798 18.8295L98.1435 18.6023C98.2571 18.3371 98.4086 18.1307 98.598 17.983C98.7893 17.8333 98.9976 17.7292 99.223 17.6705C99.4503 17.6098 99.6738 17.5795 99.8935 17.5795C100.034 17.5795 100.195 17.5966 100.376 17.6307C100.56 17.6629 100.737 17.7301 100.908 17.8324C101.08 17.9347 101.223 18.089 101.337 18.2955C101.45 18.5019 101.507 18.7784 101.507 19.125V22H100.837V21.4091H100.803C100.757 21.5038 100.681 21.6051 100.575 21.7131C100.469 21.821 100.328 21.9129 100.152 21.9886C99.9759 22.0644 99.7609 22.1023 99.5071 22.1023ZM99.6094 21.5C99.8745 21.5 100.098 21.4479 100.28 21.3438C100.464 21.2396 100.602 21.1051 100.695 20.9403C100.789 20.7756 100.837 20.6023 100.837 20.4205V19.8068C100.808 19.8409 100.746 19.8722 100.649 19.9006C100.554 19.9271 100.445 19.9508 100.32 19.9716C100.196 19.9905 100.076 20.0076 99.9588 20.0227C99.8433 20.036 99.7495 20.0473 99.6776 20.0568C99.5033 20.0795 99.3404 20.1165 99.1889 20.1676C99.0393 20.2169 98.9181 20.2917 98.8253 20.392C98.7344 20.4905 98.6889 20.625 98.6889 20.7955C98.6889 21.0284 98.7751 21.2045 98.9474 21.3239C99.1217 21.4413 99.3423 21.5 99.6094 21.5ZM102.731 23.6364V17.6364H103.379V18.3295H103.458C103.507 18.2538 103.576 18.1572 103.663 18.0398C103.752 17.9205 103.879 17.8144 104.043 17.7216C104.21 17.6269 104.435 17.5795 104.719 17.5795C105.087 17.5795 105.411 17.6714 105.691 17.8551C105.971 18.0388 106.19 18.2992 106.347 18.6364C106.504 18.9735 106.583 19.3712 106.583 19.8295C106.583 20.2917 106.504 20.6922 106.347 21.0312C106.19 21.3684 105.972 21.6297 105.694 21.8153C105.415 21.9991 105.094 22.0909 104.731 22.0909C104.451 22.0909 104.226 22.0445 104.058 21.9517C103.889 21.857 103.759 21.75 103.668 21.6307C103.577 21.5095 103.507 21.4091 103.458 21.3295H103.401V23.6364H102.731ZM103.39 19.8182C103.39 20.1477 103.438 20.4384 103.535 20.6903C103.631 20.9403 103.772 21.1364 103.958 21.2784C104.144 21.4186 104.371 21.4886 104.64 21.4886C104.92 21.4886 105.154 21.4148 105.342 21.267C105.531 21.1174 105.673 20.9167 105.768 20.6648C105.864 20.411 105.913 20.1288 105.913 19.8182C105.913 19.5114 105.865 19.2348 105.771 18.9886C105.678 18.7405 105.537 18.5445 105.347 18.4006C105.16 18.2547 104.924 18.1818 104.64 18.1818C104.367 18.1818 104.138 18.2509 103.952 18.3892C103.767 18.5256 103.627 18.7169 103.532 18.9631C103.437 19.2074 103.39 19.4924 103.39 19.8182ZM108.276 19.375V22H107.606V16.1818H108.276V18.3182H108.333C108.435 18.0928 108.589 17.9138 108.793 17.7812C109 17.6468 109.274 17.5795 109.617 17.5795C109.915 17.5795 110.175 17.6392 110.398 17.7585C110.622 17.8759 110.795 18.0568 110.918 18.3011C111.043 18.5436 111.106 18.8523 111.106 19.2273V22H110.435V19.2727C110.435 18.9261 110.345 18.6581 110.165 18.4688C109.987 18.2775 109.74 18.1818 109.424 18.1818C109.204 18.1818 109.007 18.2282 108.833 18.321C108.661 18.4138 108.524 18.5492 108.424 18.7273C108.326 18.9053 108.276 19.1212 108.276 19.375Z" fill="#878787"/>
</svg>
