<svg width="150" height="29" viewBox="0 0 150 29" fill="none" xmlns="http://www.w3.org/2000/svg">
<path d="M0.25 5C0.25 2.37665 2.37665 0.25 5 0.25H145C147.623 0.25 149.75 2.37665 149.75 5V23.83C149.75 26.4534 147.623 28.58 145 28.58H5C2.37665 28.58 0.25 26.4534 0.25 23.83V5Z" fill="#3D3D3D" stroke="#807B7B" stroke-width="0.5"/>
<path d="M9.73295 7H8.85227C8.80019 6.74669 8.70904 6.52415 8.57884 6.33239C8.45099 6.14062 8.29474 5.97964 8.11009 5.84943C7.92779 5.71686 7.72538 5.61742 7.50284 5.55114C7.2803 5.48485 7.0483 5.4517 6.80682 5.4517C6.36648 5.4517 5.96757 5.56297 5.61009 5.78551C5.25497 6.00805 4.97206 6.33594 4.76136 6.76918C4.55303 7.20241 4.44886 7.7339 4.44886 8.36364C4.44886 8.99337 4.55303 9.52486 4.76136 9.9581C4.97206 10.3913 5.25497 10.7192 5.61009 10.9418C5.96757 11.1643 6.36648 11.2756 6.80682 11.2756C7.0483 11.2756 7.2803 11.2424 7.50284 11.1761C7.72538 11.1098 7.92779 11.0116 8.11009 10.8814C8.29474 10.7488 8.45099 10.5866 8.57884 10.3949C8.70904 10.2008 8.80019 9.97822 8.85227 9.72727H9.73295C9.66667 10.099 9.54593 10.4316 9.37074 10.7251C9.19555 11.0187 8.97775 11.2685 8.71733 11.4744C8.45691 11.678 8.16454 11.8331 7.8402 11.9396C7.51823 12.0462 7.17377 12.0994 6.80682 12.0994C6.18655 12.0994 5.63494 11.9479 5.15199 11.6449C4.66903 11.3419 4.28906 10.911 4.01207 10.3523C3.73509 9.79356 3.59659 9.13068 3.59659 8.36364C3.59659 7.59659 3.73509 6.93371 4.01207 6.375C4.28906 5.81629 4.66903 5.38542 5.15199 5.08239C5.63494 4.77936 6.18655 4.62784 6.80682 4.62784C7.17377 4.62784 7.51823 4.68111 7.8402 4.78764C8.16454 4.89418 8.45691 5.05043 8.71733 5.25639C8.97775 5.45999 9.19555 5.70857 9.37074 6.00213C9.54593 6.29332 9.66667 6.62595 9.73295 7ZM13.2583 12.1136C12.7659 12.1136 12.3339 11.9964 11.9622 11.7621C11.5929 11.5277 11.304 11.1998 11.0957 10.7784C10.8897 10.357 10.7868 9.86458 10.7868 9.30114C10.7868 8.73295 10.8897 8.23698 11.0957 7.81321C11.304 7.38944 11.5929 7.06037 11.9622 6.82599C12.3339 6.59162 12.7659 6.47443 13.2583 6.47443C13.7508 6.47443 14.1816 6.59162 14.551 6.82599C14.9226 7.06037 15.2115 7.38944 15.4174 7.81321C15.6258 8.23698 15.7299 8.73295 15.7299 9.30114C15.7299 9.86458 15.6258 10.357 15.4174 10.7784C15.2115 11.1998 14.9226 11.5277 14.551 11.7621C14.1816 11.9964 13.7508 12.1136 13.2583 12.1136ZM13.2583 11.3608C13.6324 11.3608 13.9402 11.2649 14.1816 11.0732C14.4231 10.8814 14.6019 10.6293 14.7179 10.3168C14.8339 10.0043 14.8919 9.66572 14.8919 9.30114C14.8919 8.93655 14.8339 8.59683 14.7179 8.28196C14.6019 7.96709 14.4231 7.71259 14.1816 7.51847C13.9402 7.32434 13.6324 7.22727 13.2583 7.22727C12.8843 7.22727 12.5765 7.32434 12.335 7.51847C12.0936 7.71259 11.9148 7.96709 11.7988 8.28196C11.6828 8.59683 11.6248 8.93655 11.6248 9.30114C11.6248 9.66572 11.6828 10.0043 11.7988 10.3168C11.9148 10.6293 12.0936 10.8814 12.335 11.0732C12.5765 11.2649 12.8843 11.3608 13.2583 11.3608ZM17.8473 8.71875V12H17.0092V6.54545H17.8189V7.39773H17.8899C18.0178 7.12074 18.2119 6.8982 18.4723 6.73011C18.7327 6.55966 19.0689 6.47443 19.4808 6.47443C19.8501 6.47443 20.1733 6.55019 20.4503 6.7017C20.7273 6.85085 20.9427 7.07812 21.0966 7.38352C21.2505 7.68655 21.3274 8.07008 21.3274 8.53409V12H20.4893V8.59091C20.4893 8.16241 20.3781 7.8286 20.1555 7.58949C19.933 7.34801 19.6276 7.22727 19.2393 7.22727C18.9718 7.22727 18.7327 7.28527 18.522 7.40128C18.3137 7.51728 18.1491 7.68655 18.0284 7.90909C17.9077 8.13163 17.8473 8.40152 17.8473 8.71875ZM26.7225 7.76705L25.9696 7.98011C25.9223 7.85464 25.8525 7.73272 25.7601 7.61435C25.6702 7.49361 25.5471 7.39418 25.3908 7.31605C25.2346 7.23793 25.0345 7.19886 24.7907 7.19886C24.4569 7.19886 24.1787 7.2758 23.9561 7.42969C23.736 7.5812 23.6259 7.77415 23.6259 8.00852C23.6259 8.21686 23.7016 8.38139 23.8532 8.50213C24.0047 8.62287 24.2414 8.72348 24.5634 8.80398L25.373 9.00284C25.8607 9.12121 26.2241 9.30232 26.4632 9.54616C26.7024 9.78764 26.8219 10.099 26.8219 10.4801C26.8219 10.7926 26.7319 11.072 26.552 11.3182C26.3745 11.5644 26.1259 11.7585 25.8063 11.9006C25.4867 12.0426 25.115 12.1136 24.6912 12.1136C24.1349 12.1136 23.6744 11.9929 23.3098 11.7514C22.9453 11.5099 22.7144 11.1572 22.6174 10.6932L23.4128 10.4943C23.4886 10.7879 23.6318 11.008 23.8425 11.1548C24.0556 11.3016 24.3337 11.375 24.677 11.375C25.0676 11.375 25.3778 11.2921 25.6074 11.1264C25.8394 10.9583 25.9554 10.7571 25.9554 10.5227C25.9554 10.3333 25.8891 10.1747 25.7566 10.0469C25.624 9.91667 25.4204 9.8196 25.1458 9.75568L24.2367 9.54261C23.7372 9.42424 23.3702 9.24077 23.1358 8.99219C22.9038 8.74124 22.7878 8.42756 22.7878 8.05114C22.7878 7.74337 22.8742 7.47112 23.0471 7.23438C23.2222 6.99763 23.4602 6.81179 23.7608 6.67685C24.0639 6.5419 24.4071 6.47443 24.7907 6.47443C25.3304 6.47443 25.7542 6.5928 26.062 6.82955C26.3721 7.06629 26.5923 7.37879 26.7225 7.76705ZM30.4556 6.54545V7.25568H27.6289V6.54545H30.4556ZM28.4528 5.23864H29.2908V10.4375C29.2908 10.6742 29.3252 10.8518 29.3938 10.9702C29.4648 11.0862 29.5548 11.1643 29.6637 11.2045C29.775 11.2424 29.8922 11.2614 30.0153 11.2614C30.1076 11.2614 30.1834 11.2566 30.2425 11.2472C30.3017 11.2353 30.3491 11.2259 30.3846 11.2188L30.555 11.9716C30.4982 11.9929 30.4189 12.0142 30.3171 12.0355C30.2153 12.0592 30.0863 12.071 29.93 12.071C29.6933 12.071 29.4613 12.0201 29.234 11.9183C29.0091 11.8165 28.8221 11.6615 28.6729 11.4531C28.5262 11.2448 28.4528 10.982 28.4528 10.6648V5.23864ZM31.7163 12V6.54545H32.5259V7.36932H32.5827C32.6822 7.09943 32.8621 6.88045 33.1225 6.71236C33.3829 6.54427 33.6765 6.46023 34.0032 6.46023C34.0647 6.46023 34.1417 6.46141 34.234 6.46378C34.3263 6.46615 34.3962 6.4697 34.4435 6.47443V7.3267C34.4151 7.3196 34.35 7.30895 34.2482 7.29474C34.1488 7.27817 34.0434 7.26989 33.9322 7.26989C33.667 7.26989 33.4303 7.32552 33.2219 7.43679C33.016 7.54569 32.8526 7.69721 32.7319 7.89134C32.6135 8.0831 32.5543 8.30208 32.5543 8.5483V12H31.7163ZM38.8745 9.76989V6.54545H39.7125V12H38.8745V11.0767H38.8176C38.6898 11.3537 38.4909 11.5893 38.2211 11.7834C37.9512 11.9751 37.6103 12.071 37.1983 12.071C36.8574 12.071 36.5544 11.9964 36.2892 11.8473C36.0241 11.6958 35.8158 11.4685 35.6642 11.1655C35.5127 10.8601 35.437 10.4754 35.437 10.0114V6.54545H36.275V9.95455C36.275 10.3523 36.3863 10.6695 36.6088 10.9062C36.8337 11.143 37.1202 11.2614 37.4682 11.2614C37.6766 11.2614 37.8884 11.2081 38.1039 11.1016C38.3217 10.995 38.504 10.8317 38.6507 10.6115C38.7999 10.3913 38.8745 10.1108 38.8745 9.76989ZM43.4634 12.1136C42.9521 12.1136 42.5117 11.9929 42.1424 11.7514C41.7731 11.5099 41.489 11.1773 41.2901 10.7536C41.0913 10.3298 40.9918 9.84564 40.9918 9.30114C40.9918 8.74716 41.0936 8.25829 41.2972 7.83452C41.5032 7.40838 41.7897 7.07576 42.1566 6.83665C42.5259 6.59517 42.9568 6.47443 43.4492 6.47443C43.8327 6.47443 44.1784 6.54545 44.4862 6.6875C44.7939 6.82955 45.046 7.02841 45.2425 7.28409C45.439 7.53977 45.561 7.83807 45.6083 8.17898H44.7702C44.7063 7.9304 44.5643 7.71023 44.3441 7.51847C44.1263 7.32434 43.8327 7.22727 43.4634 7.22727C43.1367 7.22727 42.8503 7.3125 42.604 7.48295C42.3602 7.65104 42.1696 7.88897 42.0323 8.19673C41.8974 8.50213 41.8299 8.8608 41.8299 9.27273C41.8299 9.69413 41.8962 10.0611 42.0288 10.3736C42.1637 10.6861 42.3531 10.9287 42.5969 11.1016C42.8432 11.2744 43.132 11.3608 43.4634 11.3608C43.6812 11.3608 43.8789 11.3229 44.0565 11.2472C44.234 11.1714 44.3844 11.0625 44.5075 10.9205C44.6306 10.7784 44.7182 10.608 44.7702 10.4091H45.6083C45.561 10.7311 45.4438 11.0211 45.2567 11.2791C45.0721 11.5348 44.8271 11.7384 44.5217 11.8899C44.2186 12.0391 43.8659 12.1136 43.4634 12.1136ZM49.2056 6.54545V7.25568H46.3789V6.54545H49.2056ZM47.2028 5.23864H48.0408V10.4375C48.0408 10.6742 48.0752 10.8518 48.1438 10.9702C48.2148 11.0862 48.3048 11.1643 48.4137 11.2045C48.525 11.2424 48.6422 11.2614 48.7653 11.2614C48.8576 11.2614 48.9334 11.2566 48.9925 11.2472C49.0517 11.2353 49.0991 11.2259 49.1346 11.2188L49.305 11.9716C49.2482 11.9929 49.1689 12.0142 49.0671 12.0355C48.9653 12.0592 48.8363 12.071 48.68 12.071C48.4433 12.071 48.2113 12.0201 47.984 11.9183C47.7591 11.8165 47.5721 11.6615 47.4229 11.4531C47.2762 11.2448 47.2028 10.982 47.2028 10.6648V5.23864ZM50.4663 12V6.54545H51.3043V12H50.4663ZM50.8924 5.63636C50.729 5.63636 50.5882 5.58073 50.4698 5.46946C50.3538 5.35819 50.2958 5.22443 50.2958 5.06818C50.2958 4.91193 50.3538 4.77817 50.4698 4.6669C50.5882 4.55563 50.729 4.5 50.8924 4.5C51.0558 4.5 51.1954 4.55563 51.3114 4.6669C51.4298 4.77817 51.489 4.91193 51.489 5.06818C51.489 5.22443 51.4298 5.35819 51.3114 5.46946C51.1954 5.58073 51.0558 5.63636 50.8924 5.63636ZM53.6774 8.71875V12H52.8393V6.54545H53.649V7.39773H53.72C53.8478 7.12074 54.042 6.8982 54.3024 6.73011C54.5628 6.55966 54.899 6.47443 55.3109 6.47443C55.6802 6.47443 56.0034 6.55019 56.2804 6.7017C56.5574 6.85085 56.7728 7.07812 56.9267 7.38352C57.0806 7.68655 57.1575 8.07008 57.1575 8.53409V12H56.3194V8.59091C56.3194 8.16241 56.2082 7.8286 55.9856 7.58949C55.7631 7.34801 55.4577 7.22727 55.0694 7.22727C54.8019 7.22727 54.5628 7.28527 54.3521 7.40128C54.1438 7.51728 53.9792 7.68655 53.8585 7.90909C53.7377 8.13163 53.6774 8.40152 53.6774 8.71875ZM60.8906 14.1591C60.4858 14.1591 60.1378 14.107 59.8466 14.0028C59.5554 13.901 59.3127 13.7661 59.1186 13.598C58.9268 13.4323 58.7741 13.2547 58.6605 13.0653L59.3281 12.5966C59.4039 12.696 59.4998 12.8097 59.6158 12.9375C59.7318 13.0677 59.8904 13.1802 60.0916 13.2749C60.2952 13.3719 60.5616 13.4205 60.8906 13.4205C61.331 13.4205 61.6944 13.3139 61.9808 13.1009C62.2673 12.8878 62.4105 12.554 62.4105 12.0994V10.9915H62.3395C62.2779 11.0909 62.1903 11.214 62.0767 11.3608C61.9654 11.5052 61.8045 11.6342 61.5938 11.7479C61.3854 11.8591 61.1037 11.9148 60.7486 11.9148C60.3082 11.9148 59.9129 11.8106 59.5625 11.6023C59.2145 11.3939 58.9387 11.0909 58.7351 10.6932C58.5339 10.2955 58.4332 9.8125 58.4332 9.24432C58.4332 8.68561 58.5315 8.1991 58.728 7.7848C58.9245 7.36813 59.1979 7.04616 59.5483 6.81889C59.8987 6.58925 60.3035 6.47443 60.7628 6.47443C61.1179 6.47443 61.3996 6.53362 61.608 6.65199C61.8187 6.76799 61.9796 6.90057 62.0909 7.04972C62.2045 7.1965 62.2921 7.31723 62.3537 7.41193H62.4389V6.54545H63.2486V12.1562C63.2486 12.625 63.142 13.0062 62.929 13.2997C62.7183 13.5956 62.4342 13.8123 62.0767 13.9496C61.7216 14.0893 61.3262 14.1591 60.8906 14.1591ZM60.8622 11.1619C61.1984 11.1619 61.4825 11.085 61.7145 10.9311C61.9465 10.7772 62.1229 10.5559 62.2436 10.267C62.3643 9.97822 62.4247 9.63258 62.4247 9.23011C62.4247 8.83712 62.3655 8.49029 62.2472 8.18963C62.1288 7.88897 61.9536 7.65341 61.7216 7.48295C61.4896 7.3125 61.2031 7.22727 60.8622 7.22727C60.5071 7.22727 60.2112 7.31723 59.9744 7.49716C59.7401 7.67708 59.5637 7.91856 59.4453 8.22159C59.3293 8.52462 59.2713 8.8608 59.2713 9.23011C59.2713 9.6089 59.3305 9.94389 59.4489 10.2351C59.5696 10.5239 59.7472 10.7512 59.9815 10.9169C60.2183 11.0803 60.5118 11.1619 60.8622 11.1619ZM69.2003 12.1278C68.8546 12.1278 68.541 12.0627 68.2592 11.9325C67.9775 11.8 67.7538 11.6094 67.5881 11.3608C67.4223 11.1098 67.3395 10.8068 67.3395 10.4517C67.3395 10.1392 67.401 9.88589 67.5241 9.69176C67.6473 9.49527 67.8118 9.34138 68.0178 9.23011C68.2237 9.11884 68.451 9.03598 68.6996 8.98153C68.9505 8.92472 69.2027 8.87973 69.456 8.84659C69.7874 8.80398 70.0561 8.77202 70.2621 8.75071C70.4704 8.72704 70.6219 8.68797 70.7166 8.63352C70.8137 8.57907 70.8622 8.48437 70.8622 8.34943V8.32102C70.8622 7.97064 70.7663 7.69839 70.5746 7.50426C70.3852 7.31013 70.0975 7.21307 69.7116 7.21307C69.3116 7.21307 68.9979 7.30066 68.7706 7.47585C68.5433 7.65104 68.3835 7.83807 68.2912 8.03693L67.4957 7.75284C67.6378 7.4214 67.8272 7.16335 68.0639 6.97869C68.303 6.79167 68.5634 6.66146 68.8452 6.58807C69.1293 6.51231 69.4086 6.47443 69.6832 6.47443C69.8584 6.47443 70.0597 6.49574 70.2869 6.53835C70.5166 6.5786 70.7379 6.66264 70.951 6.79048C71.1664 6.91832 71.3452 7.11127 71.4872 7.36932C71.6293 7.62737 71.7003 7.97301 71.7003 8.40625V12H70.8622V11.2614H70.8196C70.7628 11.3797 70.6681 11.5064 70.5355 11.6413C70.4029 11.7763 70.2266 11.8911 70.0064 11.9858C69.7862 12.0805 69.5175 12.1278 69.2003 12.1278ZM69.3281 11.375C69.6596 11.375 69.9389 11.3099 70.1662 11.1797C70.3958 11.0495 70.5687 10.8814 70.6847 10.6754C70.803 10.4695 70.8622 10.2528 70.8622 10.0256V9.25852C70.8267 9.30114 70.7486 9.3402 70.6278 9.37571C70.5095 9.40885 70.3722 9.43845 70.2159 9.46449C70.062 9.48816 69.9117 9.50947 69.7649 9.52841C69.6205 9.54498 69.5033 9.55919 69.4134 9.57102C69.1955 9.59943 68.992 9.6456 68.8026 9.70952C68.6155 9.77107 68.464 9.86458 68.348 9.99006C68.2344 10.1132 68.1776 10.2812 68.1776 10.4943C68.1776 10.7855 68.2853 11.0057 68.5007 11.1548C68.7185 11.3016 68.9943 11.375 69.3281 11.375ZM74.068 8.71875V12H73.2299V6.54545H74.0396V7.39773H74.1106C74.2385 7.12074 74.4326 6.8982 74.693 6.73011C74.9534 6.55966 75.2896 6.47443 75.7015 6.47443C76.0708 6.47443 76.394 6.55019 76.671 6.7017C76.948 6.85085 77.1634 7.07812 77.3173 7.38352C77.4712 7.68655 77.5481 8.07008 77.5481 8.53409V12H76.71V8.59091C76.71 8.16241 76.5988 7.8286 76.3762 7.58949C76.1537 7.34801 75.8483 7.22727 75.46 7.22727C75.1925 7.22727 74.9534 7.28527 74.7427 7.40128C74.5344 7.51728 74.3699 7.68655 74.2491 7.90909C74.1284 8.13163 74.068 8.40152 74.068 8.71875ZM81.892 12V6.54545H82.7301V12H81.892ZM82.3182 5.63636C82.1548 5.63636 82.014 5.58073 81.8956 5.46946C81.7796 5.35819 81.7216 5.22443 81.7216 5.06818C81.7216 4.91193 81.7796 4.77817 81.8956 4.6669C82.014 4.55563 82.1548 4.5 82.3182 4.5C82.4815 4.5 82.6212 4.55563 82.7372 4.6669C82.8556 4.77817 82.9148 4.91193 82.9148 5.06818C82.9148 5.22443 82.8556 5.35819 82.7372 5.46946C82.6212 5.58073 82.4815 5.63636 82.3182 5.63636ZM88.1287 7.76705L87.3759 7.98011C87.3285 7.85464 87.2587 7.73272 87.1664 7.61435C87.0764 7.49361 86.9533 7.39418 86.7971 7.31605C86.6408 7.23793 86.4408 7.19886 86.1969 7.19886C85.8631 7.19886 85.5849 7.2758 85.3624 7.42969C85.1422 7.5812 85.0321 7.77415 85.0321 8.00852C85.0321 8.21686 85.1079 8.38139 85.2594 8.50213C85.4109 8.62287 85.6477 8.72348 85.9696 8.80398L86.7793 9.00284C87.267 9.12121 87.6304 9.30232 87.8695 9.54616C88.1086 9.78764 88.2282 10.099 88.2282 10.4801C88.2282 10.7926 88.1382 11.072 87.9583 11.3182C87.7807 11.5644 87.5321 11.7585 87.2125 11.9006C86.8929 12.0426 86.5212 12.1136 86.0975 12.1136C85.5411 12.1136 85.0807 11.9929 84.7161 11.7514C84.3515 11.5099 84.1207 11.1572 84.0236 10.6932L84.8191 10.4943C84.8948 10.7879 85.0381 11.008 85.2488 11.1548C85.4618 11.3016 85.74 11.375 86.0833 11.375C86.4739 11.375 86.784 11.2921 87.0137 11.1264C87.2457 10.9583 87.3617 10.7571 87.3617 10.5227C87.3617 10.3333 87.2954 10.1747 87.1628 10.0469C87.0302 9.91667 86.8266 9.8196 86.552 9.75568L85.6429 9.54261C85.1434 9.42424 84.7765 9.24077 84.5421 8.99219C84.3101 8.74124 84.1941 8.42756 84.1941 8.05114C84.1941 7.74337 84.2805 7.47112 84.4533 7.23438C84.6285 6.99763 84.8664 6.81179 85.1671 6.67685C85.4701 6.5419 85.8134 6.47443 86.1969 6.47443C86.7367 6.47443 87.1605 6.5928 87.4682 6.82955C87.7783 7.06629 87.9985 7.37879 88.1287 7.76705ZM90.3278 4.72727V12H89.4897V4.72727H90.3278ZM93.4679 12.1278C93.1222 12.1278 92.8085 12.0627 92.5268 11.9325C92.2451 11.8 92.0214 11.6094 91.8556 11.3608C91.6899 11.1098 91.6071 10.8068 91.6071 10.4517C91.6071 10.1392 91.6686 9.88589 91.7917 9.69176C91.9148 9.49527 92.0794 9.34138 92.2853 9.23011C92.4913 9.11884 92.7186 9.03598 92.9672 8.98153C93.2181 8.92472 93.4702 8.87973 93.7235 8.84659C94.055 8.80398 94.3237 8.77202 94.5297 8.75071C94.738 8.72704 94.8895 8.68797 94.9842 8.63352C95.0813 8.57907 95.1298 8.48437 95.1298 8.34943V8.32102C95.1298 7.97064 95.0339 7.69839 94.8422 7.50426C94.6528 7.31013 94.3651 7.21307 93.9792 7.21307C93.5791 7.21307 93.2654 7.30066 93.0382 7.47585C92.8109 7.65104 92.6511 7.83807 92.5588 8.03693L91.7633 7.75284C91.9054 7.4214 92.0948 7.16335 92.3315 6.97869C92.5706 6.79167 92.831 6.66146 93.1127 6.58807C93.3968 6.51231 93.6762 6.47443 93.9508 6.47443C94.126 6.47443 94.3272 6.49574 94.5545 6.53835C94.7842 6.5786 95.0055 6.66264 95.2186 6.79048C95.434 6.91832 95.6127 7.11127 95.7548 7.36932C95.8968 7.62737 95.9679 7.97301 95.9679 8.40625V12H95.1298V11.2614H95.0872C95.0304 11.3797 94.9357 11.5064 94.8031 11.6413C94.6705 11.7763 94.4941 11.8911 94.274 11.9858C94.0538 12.0805 93.7851 12.1278 93.4679 12.1278ZM93.5957 11.375C93.9271 11.375 94.2065 11.3099 94.4338 11.1797C94.6634 11.0495 94.8362 10.8814 94.9522 10.6754C95.0706 10.4695 95.1298 10.2528 95.1298 10.0256V9.25852C95.0943 9.30114 95.0162 9.3402 94.8954 9.37571C94.777 9.40885 94.6397 9.43845 94.4835 9.46449C94.3296 9.48816 94.1793 9.50947 94.0325 9.52841C93.8881 9.54498 93.7709 9.55919 93.6809 9.57102C93.4631 9.59943 93.2595 9.6456 93.0701 9.70952C92.8831 9.77107 92.7316 9.86458 92.6156 9.99006C92.502 10.1132 92.4451 10.2812 92.4451 10.4943C92.4451 10.7855 92.5529 11.0057 92.7683 11.1548C92.9861 11.3016 93.2619 11.375 93.5957 11.375ZM98.3356 8.71875V12H97.4975V6.54545H98.3072V7.39773H98.3782C98.506 7.12074 98.7002 6.8982 98.9606 6.73011C99.221 6.55966 99.5572 6.47443 99.9691 6.47443C100.338 6.47443 100.662 6.55019 100.939 6.7017C101.216 6.85085 101.431 7.07812 101.585 7.38352C101.739 7.68655 101.816 8.07008 101.816 8.53409V12H100.978V8.59091C100.978 8.16241 100.866 7.8286 100.644 7.58949C100.421 7.34801 100.116 7.22727 99.7276 7.22727C99.4601 7.22727 99.221 7.28527 99.0103 7.40128C98.802 7.51728 98.6374 7.68655 98.5167 7.90909C98.396 8.13163 98.3356 8.40152 98.3356 8.71875ZM105.407 12.1136C104.952 12.1136 104.551 11.9988 104.203 11.7692C103.855 11.5372 103.583 11.2105 103.386 10.7891C103.19 10.3653 103.091 9.86458 103.091 9.28693C103.091 8.71402 103.19 8.21686 103.386 7.79545C103.583 7.37405 103.856 7.04853 104.206 6.81889C104.557 6.58925 104.962 6.47443 105.421 6.47443C105.776 6.47443 106.057 6.53362 106.263 6.65199C106.471 6.76799 106.63 6.90057 106.738 7.04972C106.85 7.1965 106.936 7.31723 106.998 7.41193H107.069V4.72727H107.907V12H107.097V11.1619H106.998C106.936 11.2614 106.849 11.3868 106.735 11.5384C106.621 11.6875 106.459 11.8213 106.248 11.9396C106.038 12.0556 105.757 12.1136 105.407 12.1136ZM105.52 11.3608C105.857 11.3608 106.141 11.2732 106.373 11.098C106.605 10.9205 106.781 10.6754 106.902 10.3629C107.023 10.0481 107.083 9.68466 107.083 9.27273C107.083 8.86553 107.024 8.50923 106.905 8.20384C106.787 7.89607 106.612 7.65696 106.38 7.48651C106.148 7.31368 105.861 7.22727 105.52 7.22727C105.165 7.22727 104.869 7.31842 104.633 7.50071C104.398 7.68063 104.222 7.92566 104.104 8.2358C103.988 8.54356 103.93 8.8892 103.93 9.27273C103.93 9.66098 103.989 10.0137 104.107 10.331C104.228 10.6458 104.405 10.8968 104.64 11.0838C104.876 11.2685 105.17 11.3608 105.52 11.3608ZM114.743 6.54545V7.25568H111.916V6.54545H114.743ZM112.74 5.23864H113.578V10.4375C113.578 10.6742 113.612 10.8518 113.681 10.9702C113.752 11.0862 113.842 11.1643 113.951 11.2045C114.062 11.2424 114.179 11.2614 114.302 11.2614C114.395 11.2614 114.47 11.2566 114.53 11.2472C114.589 11.2353 114.636 11.2259 114.672 11.2188L114.842 11.9716C114.785 11.9929 114.706 12.0142 114.604 12.0355C114.502 12.0592 114.373 12.071 114.217 12.071C113.98 12.071 113.748 12.0201 113.521 11.9183C113.296 11.8165 113.109 11.6615 112.96 11.4531C112.813 11.2448 112.74 10.982 112.74 10.6648V5.23864ZM116.003 12V6.54545H116.813V7.36932H116.87C116.969 7.09943 117.149 6.88045 117.41 6.71236C117.67 6.54427 117.964 6.46023 118.29 6.46023C118.352 6.46023 118.429 6.46141 118.521 6.46378C118.613 6.46615 118.683 6.4697 118.731 6.47443V7.3267C118.702 7.3196 118.637 7.30895 118.535 7.29474C118.436 7.27817 118.331 7.26989 118.219 7.26989C117.954 7.26989 117.717 7.32552 117.509 7.43679C117.303 7.54569 117.14 7.69721 117.019 7.89134C116.901 8.0831 116.841 8.30208 116.841 8.5483V12H116.003ZM121.845 12.1136C121.319 12.1136 120.866 11.9976 120.485 11.7656C120.106 11.5312 119.814 11.2045 119.608 10.7855C119.404 10.3641 119.302 9.87405 119.302 9.31534C119.302 8.75663 119.404 8.2642 119.608 7.83807C119.814 7.40956 120.1 7.07576 120.467 6.83665C120.836 6.59517 121.267 6.47443 121.76 6.47443C122.044 6.47443 122.324 6.52178 122.601 6.61648C122.878 6.71117 123.131 6.86506 123.358 7.07812C123.585 7.28883 123.766 7.56818 123.901 7.91619C124.036 8.2642 124.104 8.69271 124.104 9.2017V9.55682H119.899V8.83239H123.251C123.251 8.52462 123.19 8.25 123.067 8.00852C122.946 7.76705 122.773 7.57647 122.548 7.43679C122.326 7.29711 122.063 7.22727 121.76 7.22727C121.426 7.22727 121.137 7.31013 120.893 7.47585C120.652 7.6392 120.466 7.85227 120.336 8.11506C120.206 8.37784 120.14 8.65956 120.14 8.96023V9.44318C120.14 9.85511 120.211 10.2043 120.354 10.4908C120.498 10.7749 120.698 10.9915 120.954 11.1406C121.209 11.2874 121.506 11.3608 121.845 11.3608C122.065 11.3608 122.264 11.33 122.442 11.2685C122.622 11.2045 122.777 11.1098 122.907 10.9844C123.037 10.8565 123.138 10.6979 123.209 10.5085L124.018 10.7358C123.933 11.0104 123.79 11.2519 123.589 11.4602C123.387 11.6662 123.139 11.8272 122.843 11.9432C122.547 12.0568 122.214 12.1136 121.845 12.1136ZM127.665 12.1136C127.14 12.1136 126.686 11.9976 126.305 11.7656C125.926 11.5312 125.634 11.2045 125.428 10.7855C125.224 10.3641 125.123 9.87405 125.123 9.31534C125.123 8.75663 125.224 8.2642 125.428 7.83807C125.634 7.40956 125.921 7.07576 126.287 6.83665C126.657 6.59517 127.088 6.47443 127.58 6.47443C127.864 6.47443 128.145 6.52178 128.422 6.61648C128.699 6.71117 128.951 6.86506 129.178 7.07812C129.405 7.28883 129.586 7.56818 129.721 7.91619C129.856 8.2642 129.924 8.69271 129.924 9.2017V9.55682H125.719V8.83239H129.072C129.072 8.52462 129.01 8.25 128.887 8.00852C128.766 7.76705 128.593 7.57647 128.368 7.43679C128.146 7.29711 127.883 7.22727 127.58 7.22727C127.246 7.22727 126.957 7.31013 126.714 7.47585C126.472 7.6392 126.286 7.85227 126.156 8.11506C126.026 8.37784 125.961 8.65956 125.961 8.96023V9.44318C125.961 9.85511 126.032 10.2043 126.174 10.4908C126.318 10.7749 126.518 10.9915 126.774 11.1406C127.03 11.2874 127.327 11.3608 127.665 11.3608C127.885 11.3608 128.084 11.33 128.262 11.2685C128.442 11.2045 128.597 11.1098 128.727 10.9844C128.857 10.8565 128.958 10.6979 129.029 10.5085L129.839 10.7358C129.753 11.0104 129.61 11.2519 129.409 11.4602C129.208 11.6662 128.959 11.8272 128.663 11.9432C128.367 12.0568 128.035 12.1136 127.665 12.1136Z" fill="white"/>
<path d="M3.70455 22V16.1818H5.73864C6.14394 16.1818 6.47822 16.2519 6.74148 16.392C7.00474 16.5303 7.20076 16.7169 7.32955 16.9517C7.45833 17.1847 7.52273 17.4432 7.52273 17.7273C7.52273 17.9773 7.47822 18.1837 7.3892 18.3466C7.30208 18.5095 7.18655 18.6383 7.04261 18.733C6.90057 18.8277 6.74621 18.8977 6.57955 18.9432V19C6.75758 19.0114 6.93655 19.0739 7.11648 19.1875C7.2964 19.3011 7.44697 19.464 7.56818 19.6761C7.68939 19.8883 7.75 20.1477 7.75 20.4545C7.75 20.7462 7.68371 21.0085 7.55114 21.2415C7.41856 21.4744 7.20928 21.6591 6.9233 21.7955C6.63731 21.9318 6.26515 22 5.80682 22H3.70455ZM4.40909 21.375H5.80682C6.26705 21.375 6.59375 21.286 6.78693 21.108C6.98201 20.928 7.07955 20.7102 7.07955 20.4545C7.07955 20.2576 7.02936 20.0758 6.92898 19.9091C6.8286 19.7405 6.68561 19.6061 6.5 19.5057C6.31439 19.4034 6.0947 19.3523 5.84091 19.3523H4.40909V21.375ZM4.40909 18.7386H5.71591C5.92803 18.7386 6.11932 18.697 6.28977 18.6136C6.46212 18.5303 6.59848 18.4129 6.69886 18.2614C6.80114 18.1098 6.85227 17.9318 6.85227 17.7273C6.85227 17.4716 6.76326 17.2547 6.58523 17.0767C6.4072 16.8968 6.125 16.8068 5.73864 16.8068H4.40909V18.7386ZM11.5668 20.2159V17.6364H12.2372V22H11.5668V21.2614H11.5213C11.419 21.483 11.2599 21.6714 11.044 21.8267C10.8281 21.9801 10.5554 22.0568 10.2259 22.0568C9.95312 22.0568 9.7107 21.9972 9.49858 21.8778C9.28646 21.7566 9.11979 21.5748 8.99858 21.3324C8.87737 21.0881 8.81676 20.7803 8.81676 20.4091V17.6364H9.48722V20.3636C9.48722 20.6818 9.57623 20.9356 9.75426 21.125C9.93419 21.3144 10.1634 21.4091 10.4418 21.4091C10.6084 21.4091 10.7779 21.3665 10.9503 21.2812C11.1245 21.196 11.2704 21.0653 11.3878 20.8892C11.5071 20.7131 11.5668 20.4886 11.5668 20.2159ZM13.4652 22V17.6364H14.1357V22H13.4652ZM13.8061 16.9091C13.6754 16.9091 13.5627 16.8646 13.468 16.7756C13.3752 16.6866 13.3288 16.5795 13.3288 16.4545C13.3288 16.3295 13.3752 16.2225 13.468 16.1335C13.5627 16.0445 13.6754 16 13.8061 16C13.9368 16 14.0485 16.0445 14.1413 16.1335C14.236 16.2225 14.2834 16.3295 14.2834 16.4545C14.2834 16.5795 14.236 16.6866 14.1413 16.7756C14.0485 16.8646 13.9368 16.9091 13.8061 16.9091ZM16.0341 16.1818V22H15.3636V16.1818H16.0341ZM18.9098 22.0909C18.5462 22.0909 18.2251 21.9991 17.9467 21.8153C17.6683 21.6297 17.4505 21.3684 17.2933 21.0312C17.1361 20.6922 17.0575 20.2917 17.0575 19.8295C17.0575 19.3712 17.1361 18.9735 17.2933 18.6364C17.4505 18.2992 17.6693 18.0388 17.9496 17.8551C18.2299 17.6714 18.5537 17.5795 18.9212 17.5795C19.2053 17.5795 19.4297 17.6269 19.5945 17.7216C19.7611 17.8144 19.888 17.9205 19.9751 18.0398C20.0642 18.1572 20.1333 18.2538 20.1825 18.3295H20.2393V16.1818H20.9098V22H20.2621V21.3295H20.1825C20.1333 21.4091 20.0632 21.5095 19.9723 21.6307C19.8814 21.75 19.7517 21.857 19.5831 21.9517C19.4145 22.0445 19.1901 22.0909 18.9098 22.0909ZM19.0007 21.4886C19.2696 21.4886 19.4969 21.4186 19.6825 21.2784C19.8681 21.1364 20.0092 20.9403 20.1058 20.6903C20.2024 20.4384 20.2507 20.1477 20.2507 19.8182C20.2507 19.4924 20.2034 19.2074 20.1087 18.9631C20.014 18.7169 19.8738 18.5256 19.6882 18.3892C19.5026 18.2509 19.2734 18.1818 19.0007 18.1818C18.7166 18.1818 18.4799 18.2547 18.2905 18.4006C18.103 18.5445 17.9619 18.7405 17.8672 18.9886C17.7744 19.2348 17.728 19.5114 17.728 19.8182C17.728 20.1288 17.7753 20.411 17.87 20.6648C17.9666 20.9167 18.1087 21.1174 18.2962 21.267C18.4856 21.4148 18.7204 21.4886 19.0007 21.4886ZM22.2308 22V17.6364H22.9013V22H22.2308ZM22.5717 16.9091C22.4411 16.9091 22.3284 16.8646 22.2337 16.7756C22.1409 16.6866 22.0945 16.5795 22.0945 16.4545C22.0945 16.3295 22.1409 16.2225 22.2337 16.1335C22.3284 16.0445 22.4411 16 22.5717 16C22.7024 16 22.8142 16.0445 22.907 16.1335C23.0017 16.2225 23.049 16.3295 23.049 16.4545C23.049 16.5795 23.0017 16.6866 22.907 16.7756C22.8142 16.8646 22.7024 16.9091 22.5717 16.9091ZM24.7997 19.375V22H24.1293V17.6364H24.777V18.3182H24.8338C24.9361 18.0966 25.0914 17.9186 25.2997 17.7841C25.508 17.6477 25.777 17.5795 26.1065 17.5795C26.402 17.5795 26.6605 17.6402 26.8821 17.7614C27.1037 17.8807 27.276 18.0625 27.3991 18.3068C27.5223 18.5492 27.5838 18.8561 27.5838 19.2273V22H26.9134V19.2727C26.9134 18.9299 26.8243 18.6629 26.6463 18.4716C26.4683 18.2784 26.224 18.1818 25.9134 18.1818C25.6993 18.1818 25.508 18.2282 25.3395 18.321C25.1728 18.4138 25.0412 18.5492 24.9446 18.7273C24.848 18.9053 24.7997 19.1212 24.7997 19.375ZM30.5703 23.7273C30.2464 23.7273 29.968 23.6856 29.7351 23.6023C29.5021 23.5208 29.308 23.4129 29.1527 23.2784C28.9993 23.1458 28.8771 23.0038 28.7862 22.8523L29.3203 22.4773C29.3809 22.5568 29.4576 22.6477 29.5504 22.75C29.6432 22.8542 29.7701 22.9441 29.9311 23.0199C30.094 23.0975 30.3071 23.1364 30.5703 23.1364C30.9226 23.1364 31.2133 23.0511 31.4425 22.8807C31.6716 22.7102 31.7862 22.4432 31.7862 22.0795V21.1932H31.7294C31.6802 21.2727 31.6101 21.3712 31.5192 21.4886C31.4302 21.6042 31.3014 21.7074 31.1328 21.7983C30.9661 21.8873 30.7408 21.9318 30.4567 21.9318C30.1044 21.9318 29.7881 21.8485 29.5078 21.6818C29.2294 21.5152 29.0088 21.2727 28.8459 20.9545C28.6849 20.6364 28.6044 20.25 28.6044 19.7955C28.6044 19.3485 28.683 18.9593 28.8402 18.6278C28.9974 18.2945 29.2161 18.0369 29.4964 17.8551C29.7768 17.6714 30.1006 17.5795 30.468 17.5795C30.7521 17.5795 30.9775 17.6269 31.1442 17.7216C31.3127 17.8144 31.4415 17.9205 31.5305 18.0398C31.6214 18.1572 31.6915 18.2538 31.7408 18.3295H31.8089V17.6364H32.4567V22.125C32.4567 22.5 32.3714 22.8049 32.201 23.0398C32.0324 23.2765 31.8052 23.4498 31.5192 23.5597C31.2351 23.6714 30.9188 23.7273 30.5703 23.7273ZM30.5476 21.3295C30.8165 21.3295 31.0438 21.268 31.2294 21.1449C31.415 21.0218 31.5561 20.8447 31.6527 20.6136C31.7493 20.3826 31.7976 20.1061 31.7976 19.7841C31.7976 19.4697 31.7502 19.1922 31.6555 18.9517C31.5608 18.7112 31.4207 18.5227 31.2351 18.3864C31.0495 18.25 30.8203 18.1818 30.5476 18.1818C30.2635 18.1818 30.0268 18.2538 29.8374 18.3977C29.6499 18.5417 29.5088 18.7348 29.4141 18.9773C29.3213 19.2197 29.2749 19.4886 29.2749 19.7841C29.2749 20.0871 29.3222 20.3551 29.4169 20.5881C29.5135 20.8191 29.6555 21.0009 29.843 21.1335C30.0324 21.2642 30.2673 21.3295 30.5476 21.3295ZM37.218 22.1023C36.9415 22.1023 36.6906 22.0502 36.4652 21.946C36.2398 21.84 36.0608 21.6875 35.9283 21.4886C35.7957 21.2879 35.7294 21.0455 35.7294 20.7614C35.7294 20.5114 35.7786 20.3087 35.8771 20.1534C35.9756 19.9962 36.1072 19.8731 36.272 19.7841C36.4368 19.6951 36.6186 19.6288 36.8175 19.5852C37.0182 19.5398 37.2199 19.5038 37.4226 19.4773C37.6877 19.4432 37.9027 19.4176 38.0675 19.4006C38.2341 19.3816 38.3554 19.3504 38.4311 19.3068C38.5088 19.2633 38.5476 19.1875 38.5476 19.0795V19.0568C38.5476 18.7765 38.4709 18.5587 38.3175 18.4034C38.166 18.2481 37.9358 18.1705 37.6271 18.1705C37.3071 18.1705 37.0561 18.2405 36.8743 18.3807C36.6925 18.5208 36.5646 18.6705 36.4908 18.8295L35.8544 18.6023C35.968 18.3371 36.1196 18.1307 36.3089 17.983C36.5002 17.8333 36.7086 17.7292 36.9339 17.6705C37.1612 17.6098 37.3847 17.5795 37.6044 17.5795C37.7446 17.5795 37.9055 17.5966 38.0874 17.6307C38.2711 17.6629 38.4482 17.7301 38.6186 17.8324C38.791 17.9347 38.9339 18.089 39.0476 18.2955C39.1612 18.5019 39.218 18.7784 39.218 19.125V22H38.5476V21.4091H38.5135C38.468 21.5038 38.3923 21.6051 38.2862 21.7131C38.1802 21.821 38.0391 21.9129 37.8629 21.9886C37.6868 22.0644 37.4718 22.1023 37.218 22.1023ZM37.3203 21.5C37.5855 21.5 37.8089 21.4479 37.9908 21.3438C38.1745 21.2396 38.3127 21.1051 38.4055 20.9403C38.5002 20.7756 38.5476 20.6023 38.5476 20.4205V19.8068C38.5192 19.8409 38.4567 19.8722 38.3601 19.9006C38.2654 19.9271 38.1555 19.9508 38.0305 19.9716C37.9074 19.9905 37.7872 20.0076 37.6697 20.0227C37.5542 20.036 37.4605 20.0473 37.3885 20.0568C37.2143 20.0795 37.0514 20.1165 36.8999 20.1676C36.7502 20.2169 36.629 20.2917 36.5362 20.392C36.4453 20.4905 36.3999 20.625 36.3999 20.7955C36.3999 21.0284 36.486 21.2045 36.6584 21.3239C36.8326 21.4413 37.0533 21.5 37.3203 21.5ZM41.1122 19.375V22H40.4418V17.6364H41.0895V18.3182H41.1463C41.2486 18.0966 41.4039 17.9186 41.6122 17.7841C41.8205 17.6477 42.0895 17.5795 42.419 17.5795C42.7145 17.5795 42.973 17.6402 43.1946 17.7614C43.4162 17.8807 43.5885 18.0625 43.7116 18.3068C43.8348 18.5492 43.8963 18.8561 43.8963 19.2273V22H43.2259V19.2727C43.2259 18.9299 43.1368 18.6629 42.9588 18.4716C42.7808 18.2784 42.5365 18.1818 42.2259 18.1818C42.0118 18.1818 41.8205 18.2282 41.652 18.321C41.4853 18.4138 41.3537 18.5492 41.2571 18.7273C41.1605 18.9053 41.1122 19.1212 41.1122 19.375ZM47.3714 22V17.6364H48.0419V22H47.3714ZM47.7124 16.9091C47.5817 16.9091 47.469 16.8646 47.3743 16.7756C47.2815 16.6866 47.2351 16.5795 47.2351 16.4545C47.2351 16.3295 47.2815 16.2225 47.3743 16.1335C47.469 16.0445 47.5817 16 47.7124 16C47.843 16 47.9548 16.0445 48.0476 16.1335C48.1423 16.2225 48.1896 16.3295 48.1896 16.4545C48.1896 16.5795 48.1423 16.6866 48.0476 16.7756C47.9548 16.8646 47.843 16.9091 47.7124 16.9091ZM52.3608 18.6136L51.7585 18.7841C51.7206 18.6837 51.6648 18.5862 51.5909 18.4915C51.5189 18.3949 51.4205 18.3153 51.2955 18.2528C51.1705 18.1903 51.0104 18.1591 50.8153 18.1591C50.5483 18.1591 50.3258 18.2206 50.1477 18.3438C49.9716 18.465 49.8835 18.6193 49.8835 18.8068C49.8835 18.9735 49.9441 19.1051 50.0653 19.2017C50.1866 19.2983 50.3759 19.3788 50.6335 19.4432L51.2812 19.6023C51.6714 19.697 51.9621 19.8419 52.1534 20.0369C52.3447 20.2301 52.4403 20.4792 52.4403 20.7841C52.4403 21.0341 52.3684 21.2576 52.2244 21.4545C52.0824 21.6515 51.8835 21.8068 51.6278 21.9205C51.3722 22.0341 51.0748 22.0909 50.7358 22.0909C50.2907 22.0909 49.9223 21.9943 49.6307 21.8011C49.339 21.608 49.1544 21.3258 49.0767 20.9545L49.7131 20.7955C49.7737 21.0303 49.8883 21.2064 50.0568 21.3239C50.2273 21.4413 50.4498 21.5 50.7244 21.5C51.0369 21.5 51.285 21.4337 51.4688 21.3011C51.6544 21.1667 51.7472 21.0057 51.7472 20.8182C51.7472 20.6667 51.6941 20.5398 51.5881 20.4375C51.482 20.3333 51.3191 20.2557 51.0994 20.2045L50.3722 20.0341C49.9725 19.9394 49.679 19.7926 49.4915 19.5938C49.3059 19.393 49.2131 19.142 49.2131 18.8409C49.2131 18.5947 49.2822 18.3769 49.4205 18.1875C49.5606 17.9981 49.7509 17.8494 49.9915 17.7415C50.2339 17.6335 50.5085 17.5795 50.8153 17.5795C51.2472 17.5795 51.5862 17.6742 51.8324 17.8636C52.0805 18.053 52.2566 18.303 52.3608 18.6136ZM54.12 16.1818V22H53.4496V16.1818H54.12ZM56.6321 22.1023C56.3556 22.1023 56.1046 22.0502 55.8793 21.946C55.6539 21.84 55.4749 21.6875 55.3423 21.4886C55.2098 21.2879 55.1435 21.0455 55.1435 20.7614C55.1435 20.5114 55.1927 20.3087 55.2912 20.1534C55.3897 19.9962 55.5213 19.8731 55.6861 19.7841C55.8509 19.6951 56.0327 19.6288 56.2315 19.5852C56.4323 19.5398 56.634 19.5038 56.8366 19.4773C57.1018 19.4432 57.3168 19.4176 57.4815 19.4006C57.6482 19.3816 57.7694 19.3504 57.8452 19.3068C57.9228 19.2633 57.9616 19.1875 57.9616 19.0795V19.0568C57.9616 18.7765 57.8849 18.5587 57.7315 18.4034C57.58 18.2481 57.3499 18.1705 57.0412 18.1705C56.7211 18.1705 56.4702 18.2405 56.2884 18.3807C56.1065 18.5208 55.9787 18.6705 55.9048 18.8295L55.2685 18.6023C55.3821 18.3371 55.5336 18.1307 55.723 17.983C55.9143 17.8333 56.1226 17.7292 56.348 17.6705C56.5753 17.6098 56.7988 17.5795 57.0185 17.5795C57.1586 17.5795 57.3196 17.5966 57.5014 17.6307C57.6851 17.6629 57.8622 17.7301 58.0327 17.8324C58.205 17.9347 58.348 18.089 58.4616 18.2955C58.5753 18.5019 58.6321 18.7784 58.6321 19.125V22H57.9616V21.4091H57.9276C57.8821 21.5038 57.8063 21.6051 57.7003 21.7131C57.5942 21.821 57.4531 21.9129 57.277 21.9886C57.1009 22.0644 56.8859 22.1023 56.6321 22.1023ZM56.7344 21.5C56.9995 21.5 57.223 21.4479 57.4048 21.3438C57.5885 21.2396 57.7268 21.1051 57.8196 20.9403C57.9143 20.7756 57.9616 20.6023 57.9616 20.4205V19.8068C57.9332 19.8409 57.8707 19.8722 57.7741 19.9006C57.6795 19.9271 57.5696 19.9508 57.4446 19.9716C57.3215 19.9905 57.2012 20.0076 57.0838 20.0227C56.9683 20.036 56.8745 20.0473 56.8026 20.0568C56.6283 20.0795 56.4654 20.1165 56.3139 20.1676C56.1643 20.2169 56.0431 20.2917 55.9503 20.392C55.8594 20.4905 55.8139 20.625 55.8139 20.7955C55.8139 21.0284 55.9001 21.2045 56.0724 21.3239C56.2467 21.4413 56.4673 21.5 56.7344 21.5ZM60.5263 19.375V22H59.8558V17.6364H60.5036V18.3182H60.5604C60.6626 18.0966 60.8179 17.9186 61.0263 17.7841C61.2346 17.6477 61.5036 17.5795 61.8331 17.5795C62.1286 17.5795 62.3871 17.6402 62.6087 17.7614C62.8303 17.8807 63.0026 18.0625 63.1257 18.3068C63.2488 18.5492 63.3104 18.8561 63.3104 19.2273V22H62.6399V19.2727C62.6399 18.9299 62.5509 18.6629 62.3729 18.4716C62.1948 18.2784 61.9505 18.1818 61.6399 18.1818C61.4259 18.1818 61.2346 18.2282 61.0661 18.321C60.8994 18.4138 60.7678 18.5492 60.6712 18.7273C60.5746 18.9053 60.5263 19.1212 60.5263 19.375ZM66.1832 22.0909C65.8196 22.0909 65.4986 21.9991 65.2202 21.8153C64.9418 21.6297 64.724 21.3684 64.5668 21.0312C64.4096 20.6922 64.331 20.2917 64.331 19.8295C64.331 19.3712 64.4096 18.9735 64.5668 18.6364C64.724 18.2992 64.9427 18.0388 65.223 17.8551C65.5033 17.6714 65.8272 17.5795 66.1946 17.5795C66.4787 17.5795 66.7031 17.6269 66.8679 17.7216C67.0346 17.8144 67.1615 17.9205 67.2486 18.0398C67.3376 18.1572 67.4067 18.2538 67.456 18.3295H67.5128V16.1818H68.1832V22H67.5355V21.3295H67.456C67.4067 21.4091 67.3366 21.5095 67.2457 21.6307C67.1548 21.75 67.0251 21.857 66.8565 21.9517C66.688 22.0445 66.4635 22.0909 66.1832 22.0909ZM66.2741 21.4886C66.5431 21.4886 66.7704 21.4186 66.956 21.2784C67.1416 21.1364 67.2827 20.9403 67.3793 20.6903C67.4759 20.4384 67.5241 20.1477 67.5241 19.8182C67.5241 19.4924 67.4768 19.2074 67.3821 18.9631C67.2874 18.7169 67.1473 18.5256 66.9616 18.3892C66.776 18.2509 66.5469 18.1818 66.2741 18.1818C65.9901 18.1818 65.7533 18.2547 65.5639 18.4006C65.3764 18.5445 65.2353 18.7405 65.1406 18.9886C65.0478 19.2348 65.0014 19.5114 65.0014 19.8182C65.0014 20.1288 65.0488 20.411 65.1435 20.6648C65.2401 20.9167 65.3821 21.1174 65.5696 21.267C65.759 21.4148 65.9938 21.4886 66.2741 21.4886ZM73.652 17.6364V18.2045H71.3906V17.6364H73.652ZM72.0497 16.5909H72.7202V20.75C72.7202 20.9394 72.7476 21.0814 72.8026 21.1761C72.8594 21.2689 72.9313 21.3314 73.0185 21.3636C73.1075 21.3939 73.2012 21.4091 73.2997 21.4091C73.3736 21.4091 73.4342 21.4053 73.4815 21.3977C73.5289 21.3883 73.5668 21.3807 73.5952 21.375L73.7315 21.9773C73.6861 21.9943 73.6226 22.0114 73.5412 22.0284C73.4598 22.0473 73.3565 22.0568 73.2315 22.0568C73.0421 22.0568 72.8565 22.0161 72.6747 21.9347C72.4948 21.8532 72.3452 21.7292 72.2259 21.5625C72.1084 21.3958 72.0497 21.1856 72.0497 20.9318V16.5909ZM74.6605 22V17.6364H75.3082V18.2955H75.3537C75.4332 18.0795 75.5772 17.9044 75.7855 17.7699C75.9938 17.6354 76.2287 17.5682 76.4901 17.5682C76.5393 17.5682 76.6009 17.5691 76.6747 17.571C76.7486 17.5729 76.8045 17.5758 76.8423 17.5795V18.2614C76.8196 18.2557 76.7675 18.2472 76.6861 18.2358C76.6065 18.2225 76.5223 18.2159 76.4332 18.2159C76.2211 18.2159 76.0317 18.2604 75.8651 18.3494C75.7003 18.4366 75.5696 18.5578 75.473 18.7131C75.3783 18.8665 75.331 19.0417 75.331 19.2386V22H74.6605ZM79.3338 22.0909C78.9134 22.0909 78.5507 21.9981 78.2457 21.8125C77.9427 21.625 77.7088 21.3636 77.544 21.0284C77.3812 20.6913 77.2997 20.2992 77.2997 19.8523C77.2997 19.4053 77.3812 19.0114 77.544 18.6705C77.7088 18.3277 77.938 18.0606 78.2315 17.8693C78.527 17.6761 78.8717 17.5795 79.2656 17.5795C79.4929 17.5795 79.7173 17.6174 79.9389 17.6932C80.1605 17.7689 80.3622 17.892 80.544 18.0625C80.7259 18.2311 80.8707 18.4545 80.9787 18.733C81.0866 19.0114 81.1406 19.3542 81.1406 19.7614V20.0455H77.777V19.4659H80.4588C80.4588 19.2197 80.4096 19 80.3111 18.8068C80.2145 18.6136 80.0762 18.4612 79.8963 18.3494C79.7183 18.2377 79.508 18.1818 79.2656 18.1818C78.9986 18.1818 78.7675 18.2481 78.5724 18.3807C78.3793 18.5114 78.2306 18.6818 78.1264 18.892C78.0223 19.1023 77.9702 19.3277 77.9702 19.5682V19.9545C77.9702 20.2841 78.027 20.5634 78.1406 20.7926C78.2562 21.0199 78.4162 21.1932 78.6207 21.3125C78.8253 21.4299 79.063 21.4886 79.3338 21.4886C79.5099 21.4886 79.669 21.464 79.8111 21.4148C79.955 21.3636 80.0791 21.2879 80.1832 21.1875C80.2874 21.0852 80.3679 20.9583 80.4247 20.8068L81.0724 20.9886C81.0043 21.2083 80.8897 21.4015 80.7287 21.5682C80.5677 21.733 80.3688 21.8617 80.1321 21.9545C79.8954 22.0455 79.6293 22.0909 79.3338 22.0909ZM83.9901 22.0909C83.5696 22.0909 83.2069 21.9981 82.902 21.8125C82.599 21.625 82.3651 21.3636 82.2003 21.0284C82.0374 20.6913 81.956 20.2992 81.956 19.8523C81.956 19.4053 82.0374 19.0114 82.2003 18.6705C82.3651 18.3277 82.5942 18.0606 82.8878 17.8693C83.1832 17.6761 83.5279 17.5795 83.9219 17.5795C84.1491 17.5795 84.3736 17.6174 84.5952 17.6932C84.8168 17.7689 85.0185 17.892 85.2003 18.0625C85.3821 18.2311 85.527 18.4545 85.6349 18.733C85.7429 19.0114 85.7969 19.3542 85.7969 19.7614V20.0455H82.4332V19.4659H85.1151C85.1151 19.2197 85.0658 19 84.9673 18.8068C84.8707 18.6136 84.7325 18.4612 84.5526 18.3494C84.3745 18.2377 84.1643 18.1818 83.9219 18.1818C83.6548 18.1818 83.4238 18.2481 83.2287 18.3807C83.0355 18.5114 82.8868 18.6818 82.7827 18.892C82.6785 19.1023 82.6264 19.3277 82.6264 19.5682V19.9545C82.6264 20.2841 82.6832 20.5634 82.7969 20.7926C82.9124 21.0199 83.0724 21.1932 83.277 21.3125C83.4815 21.4299 83.7192 21.4886 83.9901 21.4886C84.1662 21.4886 84.3253 21.464 84.4673 21.4148C84.6113 21.3636 84.7353 21.2879 84.8395 21.1875C84.9437 21.0852 85.0241 20.9583 85.081 20.8068L85.7287 20.9886C85.6605 21.2083 85.5459 21.4015 85.3849 21.5682C85.224 21.733 85.0251 21.8617 84.7884 21.9545C84.5516 22.0455 84.2855 22.0909 83.9901 22.0909Z" fill="#878787"/>
</svg>
