<svg width="120" height="20" viewBox="0 0 120 20" fill="none" xmlns="http://www.w3.org/2000/svg">
<path d="M0.25 0.25H119.75V19.75H0.25V0.25Z" fill="#3D3D3D" stroke="#807B7B" stroke-width="0.5"/>
<path d="M8.31233 7.45455C8.2612 7.02273 8.05381 6.6875 7.69017 6.44886C7.32654 6.21023 6.88052 6.09091 6.35211 6.09091C5.96574 6.09091 5.62767 6.15341 5.3379 6.27841C5.05097 6.40341 4.82654 6.57528 4.66461 6.79403C4.50552 7.01278 4.42597 7.26136 4.42597 7.53977C4.42597 7.77273 4.48137 7.97301 4.59216 8.14062C4.7058 8.3054 4.85069 8.44318 5.02682 8.55398C5.20296 8.66193 5.38762 8.75142 5.5808 8.82244C5.77398 8.89062 5.95154 8.94602 6.11347 8.98864L6.99983 9.22727C7.22711 9.28693 7.47995 9.36932 7.75836 9.47443C8.03961 9.57955 8.30807 9.72301 8.56375 9.90483C8.82228 10.0838 9.03535 10.3139 9.20296 10.5952C9.37057 10.8764 9.45438 11.2216 9.45438 11.6307C9.45438 12.1023 9.3308 12.5284 9.08364 12.9091C8.83932 13.2898 8.48137 13.5923 8.00978 13.8168C7.54103 14.0412 6.97142 14.1534 6.30097 14.1534C5.67597 14.1534 5.13478 14.0526 4.67739 13.8509C4.22284 13.6491 3.86489 13.3679 3.60353 13.0071C3.345 12.6463 3.1987 12.2273 3.16461 11.75H4.25552C4.28392 12.0795 4.39472 12.3523 4.5879 12.5682C4.78392 12.7812 5.03108 12.9403 5.32938 13.0455C5.63052 13.1477 5.95438 13.1989 6.30097 13.1989C6.70438 13.1989 7.0666 13.1335 7.38762 13.0028C7.70864 12.8693 7.9629 12.6847 8.1504 12.4489C8.3379 12.2102 8.43165 11.9318 8.43165 11.6136C8.43165 11.3239 8.35069 11.0881 8.18875 10.9062C8.02682 10.7244 7.81375 10.5767 7.54955 10.4631C7.28535 10.3494 6.99983 10.25 6.69302 10.1648L5.61915 9.85795C4.93733 9.66193 4.39756 9.3821 3.99983 9.01847C3.60211 8.65483 3.40324 8.17898 3.40324 7.59091C3.40324 7.10227 3.53534 6.67614 3.79955 6.3125C4.06659 5.94602 4.42455 5.66193 4.87341 5.46023C5.32512 5.25568 5.82938 5.15341 6.3862 5.15341C6.9487 5.15341 7.4487 5.25426 7.8862 5.45597C8.3237 5.65483 8.67029 5.92756 8.92597 6.27415C9.18449 6.62074 9.32086 7.0142 9.33506 7.45455H8.31233ZM12.9817 14.1534C12.567 14.1534 12.1905 14.0753 11.8525 13.919C11.5144 13.7599 11.2459 13.5312 11.0471 13.233C10.8482 12.9318 10.7488 12.5682 10.7488 12.142C10.7488 11.767 10.8226 11.4631 10.9704 11.2301C11.1181 10.9943 11.3155 10.8097 11.5627 10.6761C11.8098 10.5426 12.0826 10.4432 12.3809 10.3778C12.682 10.3097 12.9846 10.2557 13.2885 10.2159C13.6863 10.1648 14.0087 10.1264 14.2559 10.1009C14.5059 10.0724 14.6877 10.0256 14.8013 9.96023C14.9178 9.89489 14.976 9.78125 14.976 9.61932V9.58523C14.976 9.16477 14.861 8.83807 14.6309 8.60511C14.4036 8.37216 14.0584 8.25568 13.5954 8.25568C13.1152 8.25568 12.7388 8.3608 12.4661 8.57102C12.1934 8.78125 12.0016 9.00568 11.8908 9.24432L10.9363 8.90341C11.1067 8.50568 11.334 8.19602 11.6181 7.97443C11.905 7.75 12.2175 7.59375 12.5556 7.50568C12.8965 7.41477 13.2317 7.36932 13.5613 7.36932C13.7715 7.36932 14.013 7.39489 14.2857 7.44602C14.5613 7.49432 14.8269 7.59517 15.0826 7.74858C15.3411 7.90199 15.5556 8.13352 15.726 8.44318C15.8965 8.75284 15.9817 9.16761 15.9817 9.6875V14H14.976V13.1136H14.9249C14.8567 13.2557 14.7431 13.4077 14.584 13.5696C14.4249 13.7315 14.2133 13.8693 13.9491 13.983C13.6848 14.0966 13.3624 14.1534 12.9817 14.1534ZM13.1351 13.25C13.5329 13.25 13.8681 13.1719 14.1408 13.0156C14.4164 12.8594 14.6238 12.6577 14.763 12.4105C14.905 12.1634 14.976 11.9034 14.976 11.6307V10.7102C14.9334 10.7614 14.8397 10.8082 14.6948 10.8509C14.5527 10.8906 14.388 10.9261 14.2005 10.9574C14.0158 10.9858 13.8354 11.0114 13.6593 11.0341C13.486 11.054 13.3454 11.071 13.2374 11.0852C12.976 11.1193 12.7317 11.1747 12.5045 11.2514C12.28 11.3253 12.0982 11.4375 11.959 11.5881C11.8226 11.7358 11.7545 11.9375 11.7545 12.1932C11.7545 12.5426 11.8837 12.8068 12.1422 12.9858C12.4036 13.1619 12.7346 13.25 13.1351 13.25ZM22.9352 7.45455L20.5147 14H19.492L17.0716 7.45455H18.1625L19.9693 12.6705H20.0375L21.8443 7.45455H22.9352ZM26.7726 14.1364C26.1419 14.1364 25.5978 13.9972 25.1405 13.7188C24.6859 13.4375 24.3351 13.0455 24.0879 12.5426C23.8436 12.0369 23.7214 11.4489 23.7214 10.7784C23.7214 10.108 23.8436 9.51705 24.0879 9.00568C24.3351 8.49148 24.6788 8.09091 25.1192 7.80398C25.5623 7.5142 26.0794 7.36932 26.6703 7.36932C27.0112 7.36932 27.3478 7.42614 27.6802 7.53977C28.0126 7.65341 28.3152 7.83807 28.5879 8.09375C28.8606 8.34659 29.078 8.68182 29.2399 9.09943C29.4018 9.51705 29.4828 10.0312 29.4828 10.642V11.0682H24.4373V10.1989H28.4601C28.4601 9.82955 28.3862 9.5 28.2385 9.21023C28.0936 8.92045 27.8862 8.69176 27.6163 8.52415C27.3493 8.35653 27.0339 8.27273 26.6703 8.27273C26.2697 8.27273 25.9231 8.37216 25.6305 8.57102C25.3407 8.76705 25.1177 9.02273 24.9615 9.33807C24.8052 9.65341 24.7271 9.99148 24.7271 10.3523V10.9318C24.7271 11.4261 24.8123 11.8452 24.9828 12.1889C25.1561 12.5298 25.3961 12.7898 25.703 12.9688C26.0098 13.1449 26.3663 13.233 26.7726 13.233C27.0368 13.233 27.2754 13.196 27.4885 13.1222C27.7044 13.0455 27.8905 12.9318 28.0467 12.7812C28.203 12.6278 28.3237 12.4375 28.4089 12.2102L29.3805 12.483C29.2782 12.8125 29.1064 13.1023 28.8649 13.3523C28.6234 13.5994 28.3251 13.7926 27.97 13.9318C27.6149 14.0682 27.2157 14.1364 26.7726 14.1364ZM37.8649 5.27273H38.9217V11.5114C38.9217 12.0682 38.8194 12.5412 38.6149 12.9304C38.4103 13.3196 38.122 13.6151 37.7498 13.8168C37.3777 14.0185 36.9388 14.1193 36.4331 14.1193C35.9558 14.1193 35.5311 14.0327 35.1589 13.8594C34.7868 13.6832 34.4942 13.4332 34.2811 13.1094C34.068 12.7855 33.9615 12.4006 33.9615 11.9545H35.0013C35.0013 12.2017 35.0623 12.4176 35.1845 12.6023C35.3095 12.7841 35.4799 12.9261 35.6959 13.0284C35.9118 13.1307 36.1575 13.1818 36.4331 13.1818C36.737 13.1818 36.9956 13.1179 37.2086 12.9901C37.4217 12.8622 37.5836 12.6747 37.6944 12.4276C37.8081 12.1776 37.8649 11.8722 37.8649 11.5114V5.27273ZM45.8123 7.45455C45.7612 7.02273 45.5538 6.6875 45.1902 6.44886C44.8265 6.21023 44.3805 6.09091 43.8521 6.09091C43.4657 6.09091 43.1277 6.15341 42.8379 6.27841C42.551 6.40341 42.3265 6.57528 42.1646 6.79403C42.0055 7.01278 41.926 7.26136 41.926 7.53977C41.926 7.77273 41.9814 7.97301 42.0922 8.14062C42.2058 8.3054 42.3507 8.44318 42.5268 8.55398C42.703 8.66193 42.8876 8.75142 43.0808 8.82244C43.274 8.89062 43.4515 8.94602 43.6135 8.98864L44.4998 9.22727C44.7271 9.28693 44.9799 9.36932 45.2584 9.47443C45.5396 9.57955 45.8081 9.72301 46.0638 9.90483C46.3223 10.0838 46.5353 10.3139 46.703 10.5952C46.8706 10.8764 46.9544 11.2216 46.9544 11.6307C46.9544 12.1023 46.8308 12.5284 46.5836 12.9091C46.3393 13.2898 45.9814 13.5923 45.5098 13.8168C45.041 14.0412 44.4714 14.1534 43.801 14.1534C43.176 14.1534 42.6348 14.0526 42.1774 13.8509C41.7228 13.6491 41.3649 13.3679 41.1035 13.0071C40.845 12.6463 40.6987 12.2273 40.6646 11.75H41.7555C41.7839 12.0795 41.8947 12.3523 42.0879 12.5682C42.2839 12.7812 42.5311 12.9403 42.8294 13.0455C43.1305 13.1477 43.4544 13.1989 43.801 13.1989C44.2044 13.1989 44.5666 13.1335 44.8876 13.0028C45.2086 12.8693 45.4629 12.6847 45.6504 12.4489C45.8379 12.2102 45.9317 11.9318 45.9317 11.6136C45.9317 11.3239 45.8507 11.0881 45.6888 10.9062C45.5268 10.7244 45.3138 10.5767 45.0495 10.4631C44.7853 10.3494 44.4998 10.25 44.193 10.1648L43.1192 9.85795C42.4373 9.66193 41.8976 9.3821 41.4998 9.01847C41.1021 8.65483 40.9032 8.17898 40.9032 7.59091C40.9032 7.10227 41.0353 6.67614 41.2995 6.3125C41.5666 5.94602 41.9245 5.66193 42.3734 5.46023C42.8251 5.25568 43.3294 5.15341 43.8862 5.15341C44.4487 5.15341 44.9487 5.25426 45.3862 5.45597C45.8237 5.65483 46.1703 5.92756 46.426 6.27415C46.6845 6.62074 46.8209 7.0142 46.8351 7.45455H45.8123ZM56.0556 9.63636C56.0556 10.5568 55.8894 11.3523 55.557 12.0227C55.2246 12.6932 54.7687 13.2102 54.1891 13.5739C53.6096 13.9375 52.9476 14.1193 52.2033 14.1193C51.459 14.1193 50.7971 13.9375 50.2175 13.5739C49.638 13.2102 49.182 12.6932 48.8496 12.0227C48.5172 11.3523 48.351 10.5568 48.351 9.63636C48.351 8.71591 48.5172 7.92045 48.8496 7.25C49.182 6.57955 49.638 6.0625 50.2175 5.69886C50.7971 5.33523 51.459 5.15341 52.2033 5.15341C52.9476 5.15341 53.6096 5.33523 54.1891 5.69886C54.7687 6.0625 55.2246 6.57955 55.557 7.25C55.8894 7.92045 56.0556 8.71591 56.0556 9.63636ZM55.0329 9.63636C55.0329 8.88068 54.9064 8.2429 54.6536 7.72301C54.4036 7.20312 54.0641 6.80966 53.6351 6.54261C53.209 6.27557 52.7317 6.14205 52.2033 6.14205C51.6749 6.14205 51.1962 6.27557 50.7672 6.54261C50.3411 6.80966 50.0016 7.20312 49.7488 7.72301C49.4988 8.2429 49.3738 8.88068 49.3738 9.63636C49.3738 10.392 49.4988 11.0298 49.7488 11.5497C50.0016 12.0696 50.3411 12.4631 50.7672 12.7301C51.1962 12.9972 51.6749 13.1307 52.2033 13.1307C52.7317 13.1307 53.209 12.9972 53.6351 12.7301C54.0641 12.4631 54.4036 12.0696 54.6536 11.5497C54.9064 11.0298 55.0329 10.392 55.0329 9.63636ZM64.753 5.27273V14H63.7303L58.9746 7.14773H58.8894V14H57.8326V5.27273H58.8553L63.628 12.142H63.7133V5.27273H64.753Z" fill="white"/>
</svg>
