<svg width="120" height="20" viewBox="0 0 120 20" fill="none" xmlns="http://www.w3.org/2000/svg">
<path d="M0.25 0.25H119.75V19.75H0.25V0.25Z" fill="#3D3D3D" stroke="#807B7B" stroke-width="0.5"/>
<path d="M3.53958 14V5.27273H4.59639V13.0625H8.65321V14H3.53958ZM12.8123 14.1364C12.2214 14.1364 11.7029 13.9957 11.2569 13.7145C10.8137 13.4332 10.4671 13.0398 10.2171 12.5341C9.96997 12.0284 9.84639 11.4375 9.84639 10.7614C9.84639 10.0795 9.96997 9.48437 10.2171 8.97585C10.4671 8.46733 10.8137 8.07244 11.2569 7.79119C11.7029 7.50994 12.2214 7.36932 12.8123 7.36932C13.4032 7.36932 13.9203 7.50994 14.3634 7.79119C14.8095 8.07244 15.1561 8.46733 15.4032 8.97585C15.6532 9.48437 15.7782 10.0795 15.7782 10.7614C15.7782 11.4375 15.6532 12.0284 15.4032 12.5341C15.1561 13.0398 14.8095 13.4332 14.3634 13.7145C13.9203 13.9957 13.4032 14.1364 12.8123 14.1364ZM12.8123 13.233C13.2612 13.233 13.6305 13.1179 13.9203 12.8878C14.21 12.6577 14.4245 12.3551 14.5637 11.9801C14.7029 11.6051 14.7725 11.1989 14.7725 10.7614C14.7725 10.3239 14.7029 9.91619 14.5637 9.53835C14.4245 9.16051 14.21 8.85511 13.9203 8.62216C13.6305 8.3892 13.2612 8.27273 12.8123 8.27273C12.3634 8.27273 11.9941 8.3892 11.7043 8.62216C11.4146 8.85511 11.2001 9.16051 11.0609 9.53835C10.9217 9.91619 10.8521 10.3239 10.8521 10.7614C10.8521 11.1989 10.9217 11.6051 11.0609 11.9801C11.2001 12.3551 11.4146 12.6577 11.7043 12.8878C11.9941 13.1179 12.3634 13.233 12.8123 13.233ZM19.2395 14.1534C18.8247 14.1534 18.4483 14.0753 18.1102 13.919C17.7722 13.7599 17.5037 13.5312 17.3048 13.233C17.106 12.9318 17.0066 12.5682 17.0066 12.142C17.0066 11.767 17.0804 11.4631 17.2281 11.2301C17.3759 10.9943 17.5733 10.8097 17.8205 10.6761C18.0676 10.5426 18.3404 10.4432 18.6387 10.3778C18.9398 10.3097 19.2423 10.2557 19.5463 10.2159C19.9441 10.1648 20.2665 10.1264 20.5137 10.1009C20.7637 10.0724 20.9455 10.0256 21.0591 9.96023C21.1756 9.89489 21.2338 9.78125 21.2338 9.61932V9.58523C21.2338 9.16477 21.1188 8.83807 20.8887 8.60511C20.6614 8.37216 20.3162 8.25568 19.8531 8.25568C19.373 8.25568 18.9966 8.3608 18.7239 8.57102C18.4512 8.78125 18.2594 9.00568 18.1486 9.24432L17.1941 8.90341C17.3645 8.50568 17.5918 8.19602 17.8759 7.97443C18.1628 7.75 18.4753 7.59375 18.8134 7.50568C19.1543 7.41477 19.4895 7.36932 19.8191 7.36932C20.0293 7.36932 20.2708 7.39489 20.5435 7.44602C20.8191 7.49432 21.0847 7.59517 21.3404 7.74858C21.5989 7.90199 21.8134 8.13352 21.9838 8.44318C22.1543 8.75284 22.2395 9.16761 22.2395 9.6875V14H21.2338V13.1136H21.1827C21.1145 13.2557 21.0009 13.4077 20.8418 13.5696C20.6827 13.7315 20.471 13.8693 20.2068 13.983C19.9426 14.0966 19.6202 14.1534 19.2395 14.1534ZM19.3929 13.25C19.7906 13.25 20.1259 13.1719 20.3986 13.0156C20.6742 12.8594 20.8816 12.6577 21.0208 12.4105C21.1628 12.1634 21.2338 11.9034 21.2338 11.6307V10.7102C21.1912 10.7614 21.0975 10.8082 20.9526 10.8509C20.8105 10.8906 20.6458 10.9261 20.4583 10.9574C20.2736 10.9858 20.0932 11.0114 19.9171 11.0341C19.7438 11.054 19.6031 11.071 19.4952 11.0852C19.2338 11.1193 18.9895 11.1747 18.7622 11.2514C18.5378 11.3253 18.356 11.4375 18.2168 11.5881C18.0804 11.7358 18.0122 11.9375 18.0122 12.1932C18.0122 12.5426 18.1415 12.8068 18.4 12.9858C18.6614 13.1619 18.9923 13.25 19.3929 13.25ZM26.5467 14.1364C26.0012 14.1364 25.5197 13.9986 25.1021 13.723C24.6845 13.4446 24.3578 13.0526 24.122 12.5469C23.8862 12.0384 23.7683 11.4375 23.7683 10.7443C23.7683 10.0568 23.8862 9.46023 24.122 8.95455C24.3578 8.44886 24.6859 8.05824 25.1063 7.78267C25.5268 7.5071 26.0126 7.36932 26.5637 7.36932C26.9899 7.36932 27.3265 7.44034 27.5737 7.58239C27.8237 7.72159 28.014 7.88068 28.1447 8.05966C28.2782 8.2358 28.3819 8.38068 28.4558 8.49432H28.541V5.27273H29.5467V14H28.5751V12.9943H28.4558C28.3819 13.1136 28.2768 13.2642 28.1404 13.446C28.0041 13.625 27.8095 13.7855 27.5566 13.9276C27.3038 14.0668 26.9671 14.1364 26.5467 14.1364ZM26.683 13.233C27.0865 13.233 27.4274 13.1278 27.7058 12.9176C27.9842 12.7045 28.1958 12.4105 28.3407 12.0355C28.4856 11.6577 28.558 11.2216 28.558 10.7273C28.558 10.2386 28.487 9.81108 28.345 9.4446C28.2029 9.07528 27.9927 8.78835 27.7143 8.58381C27.4359 8.37642 27.0921 8.27273 26.683 8.27273C26.2569 8.27273 25.9018 8.3821 25.6177 8.60085C25.3365 8.81676 25.1248 9.1108 24.9828 9.48295C24.8436 9.85227 24.774 10.267 24.774 10.7273C24.774 11.1932 24.845 11.6165 24.987 11.9972C25.1319 12.375 25.345 12.6761 25.6262 12.9006C25.9103 13.1222 26.2626 13.233 26.683 13.233ZM38.3805 5.27273H39.4373V11.5114C39.4373 12.0682 39.335 12.5412 39.1305 12.9304C38.9259 13.3196 38.6376 13.6151 38.2654 13.8168C37.8933 14.0185 37.4543 14.1193 36.9487 14.1193C36.4714 14.1193 36.0467 14.0327 35.6745 13.8594C35.3024 13.6832 35.0097 13.4332 34.7967 13.1094C34.5836 12.7855 34.4771 12.4006 34.4771 11.9545H35.5168C35.5168 12.2017 35.5779 12.4176 35.7001 12.6023C35.8251 12.7841 35.9955 12.9261 36.2115 13.0284C36.4274 13.1307 36.6731 13.1818 36.9487 13.1818C37.2526 13.1818 37.5112 13.1179 37.7242 12.9901C37.9373 12.8622 38.0992 12.6747 38.21 12.4276C38.3237 12.1776 38.3805 11.8722 38.3805 11.5114V5.27273ZM46.3279 7.45455C46.2768 7.02273 46.0694 6.6875 45.7058 6.44886C45.3421 6.21023 44.8961 6.09091 44.3677 6.09091C43.9813 6.09091 43.6433 6.15341 43.3535 6.27841C43.0666 6.40341 42.8421 6.57528 42.6802 6.79403C42.5211 7.01278 42.4416 7.26136 42.4416 7.53977C42.4416 7.77273 42.497 7.97301 42.6078 8.14062C42.7214 8.3054 42.8663 8.44318 43.0424 8.55398C43.2186 8.66193 43.4032 8.75142 43.5964 8.82244C43.7896 8.89062 43.9671 8.94602 44.1291 8.98864L45.0154 9.22727C45.2427 9.28693 45.4955 9.36932 45.774 9.47443C46.0552 9.57955 46.3237 9.72301 46.5793 9.90483C46.8379 10.0838 47.0509 10.3139 47.2186 10.5952C47.3862 10.8764 47.47 11.2216 47.47 11.6307C47.47 12.1023 47.3464 12.5284 47.0992 12.9091C46.8549 13.2898 46.497 13.5923 46.0254 13.8168C45.5566 14.0412 44.987 14.1534 44.3166 14.1534C43.6916 14.1534 43.1504 14.0526 42.693 13.8509C42.2384 13.6491 41.8805 13.3679 41.6191 13.0071C41.3606 12.6463 41.2143 12.2273 41.1802 11.75H42.2711C42.2995 12.0795 42.4103 12.3523 42.6035 12.5682C42.7995 12.7812 43.0467 12.9403 43.345 13.0455C43.6461 13.1477 43.97 13.1989 44.3166 13.1989C44.72 13.1989 45.0822 13.1335 45.4032 13.0028C45.7242 12.8693 45.9785 12.6847 46.166 12.4489C46.3535 12.2102 46.4472 11.9318 46.4472 11.6136C46.4472 11.3239 46.3663 11.0881 46.2043 10.9062C46.0424 10.7244 45.8293 10.5767 45.5651 10.4631C45.3009 10.3494 45.0154 10.25 44.7086 10.1648L43.6347 9.85795C42.9529 9.66193 42.4132 9.3821 42.0154 9.01847C41.6177 8.65483 41.4188 8.17898 41.4188 7.59091C41.4188 7.10227 41.5509 6.67614 41.8151 6.3125C42.0822 5.94602 42.4401 5.66193 42.889 5.46023C43.3407 5.25568 43.845 5.15341 44.4018 5.15341C44.9643 5.15341 45.4643 5.25426 45.9018 5.45597C46.3393 5.65483 46.6859 5.92756 46.9416 6.27415C47.2001 6.62074 47.3365 7.0142 47.3507 7.45455H46.3279ZM56.5712 9.63636C56.5712 10.5568 56.405 11.3523 56.0726 12.0227C55.7402 12.6932 55.2842 13.2102 54.7047 13.5739C54.1252 13.9375 53.4632 14.1193 52.7189 14.1193C51.9746 14.1193 51.3127 13.9375 50.7331 13.5739C50.1536 13.2102 49.6976 12.6932 49.3652 12.0227C49.0328 11.3523 48.8666 10.5568 48.8666 9.63636C48.8666 8.71591 49.0328 7.92045 49.3652 7.25C49.6976 6.57955 50.1536 6.0625 50.7331 5.69886C51.3127 5.33523 51.9746 5.15341 52.7189 5.15341C53.4632 5.15341 54.1252 5.33523 54.7047 5.69886C55.2842 6.0625 55.7402 6.57955 56.0726 7.25C56.405 7.92045 56.5712 8.71591 56.5712 9.63636ZM55.5485 9.63636C55.5485 8.88068 55.422 8.2429 55.1692 7.72301C54.9192 7.20312 54.5797 6.80966 54.1507 6.54261C53.7246 6.27557 53.2473 6.14205 52.7189 6.14205C52.1905 6.14205 51.7118 6.27557 51.2828 6.54261C50.8567 6.80966 50.5172 7.20312 50.2644 7.72301C50.0144 8.2429 49.8894 8.88068 49.8894 9.63636C49.8894 10.392 50.0144 11.0298 50.2644 11.5497C50.5172 12.0696 50.8567 12.4631 51.2828 12.7301C51.7118 12.9972 52.1905 13.1307 52.7189 13.1307C53.2473 13.1307 53.7246 12.9972 54.1507 12.7301C54.5797 12.4631 54.9192 12.0696 55.1692 11.5497C55.422 11.0298 55.5485 10.392 55.5485 9.63636ZM65.2686 5.27273V14H64.2459L59.4902 7.14773H59.405V14H58.3482V5.27273H59.3709L64.1436 12.142H64.2289V5.27273H65.2686Z" fill="white"/>
</svg>
