<svg width="120" height="20" viewBox="0 0 120 20" fill="none" xmlns="http://www.w3.org/2000/svg">
<path d="M0.25 0.25H119.75V19.75H0.25V0.25Z" fill="#3D3D3D" stroke="#807B7B" stroke-width="0.5"/>
<path d="M3.05682 14V5.27273H4.11364V13.0625H8.17045V14H3.05682ZM12.3295 14.1364C11.7386 14.1364 11.2202 13.9957 10.7741 13.7145C10.331 13.4332 9.98438 13.0398 9.73438 12.5341C9.48722 12.0284 9.36364 11.4375 9.36364 10.7614C9.36364 10.0795 9.48722 9.48437 9.73438 8.97585C9.98438 8.46733 10.331 8.07244 10.7741 7.79119C11.2202 7.50994 11.7386 7.36932 12.3295 7.36932C12.9205 7.36932 13.4375 7.50994 13.8807 7.79119C14.3267 8.07244 14.6733 8.46733 14.9205 8.97585C15.1705 9.48437 15.2955 10.0795 15.2955 10.7614C15.2955 11.4375 15.1705 12.0284 14.9205 12.5341C14.6733 13.0398 14.3267 13.4332 13.8807 13.7145C13.4375 13.9957 12.9205 14.1364 12.3295 14.1364ZM12.3295 13.233C12.7784 13.233 13.1477 13.1179 13.4375 12.8878C13.7273 12.6577 13.9418 12.3551 14.081 11.9801C14.2202 11.6051 14.2898 11.1989 14.2898 10.7614C14.2898 10.3239 14.2202 9.91619 14.081 9.53835C13.9418 9.16051 13.7273 8.85511 13.4375 8.62216C13.1477 8.3892 12.7784 8.27273 12.3295 8.27273C11.8807 8.27273 11.5114 8.3892 11.2216 8.62216C10.9318 8.85511 10.7173 9.16051 10.5781 9.53835C10.4389 9.91619 10.3693 10.3239 10.3693 10.7614C10.3693 11.1989 10.4389 11.6051 10.5781 11.9801C10.7173 12.3551 10.9318 12.6577 11.2216 12.8878C11.5114 13.1179 11.8807 13.233 12.3295 13.233ZM18.7567 14.1534C18.342 14.1534 17.9656 14.0753 17.6275 13.919C17.2894 13.7599 17.021 13.5312 16.8221 13.233C16.6232 12.9318 16.5238 12.5682 16.5238 12.142C16.5238 11.767 16.5977 11.4631 16.7454 11.2301C16.8931 10.9943 17.0906 10.8097 17.3377 10.6761C17.5849 10.5426 17.8576 10.4432 18.1559 10.3778C18.457 10.3097 18.7596 10.2557 19.0636 10.2159C19.4613 10.1648 19.7837 10.1264 20.0309 10.1009C20.2809 10.0724 20.4627 10.0256 20.5763 9.96023C20.6928 9.89489 20.7511 9.78125 20.7511 9.61932V9.58523C20.7511 9.16477 20.636 8.83807 20.4059 8.60511C20.1786 8.37216 19.8335 8.25568 19.3704 8.25568C18.8903 8.25568 18.5138 8.3608 18.2411 8.57102C17.9684 8.78125 17.7766 9.00568 17.6658 9.24432L16.7113 8.90341C16.8817 8.50568 17.109 8.19602 17.3931 7.97443C17.68 7.75 17.9925 7.59375 18.3306 7.50568C18.6715 7.41477 19.0067 7.36932 19.3363 7.36932C19.5465 7.36932 19.788 7.39489 20.0607 7.44602C20.3363 7.49432 20.6019 7.59517 20.8576 7.74858C21.1161 7.90199 21.3306 8.13352 21.5011 8.44318C21.6715 8.75284 21.7567 9.16761 21.7567 9.6875V14H20.7511V13.1136H20.6999C20.6317 13.2557 20.5181 13.4077 20.359 13.5696C20.1999 13.7315 19.9883 13.8693 19.7241 13.983C19.4599 14.0966 19.1374 14.1534 18.7567 14.1534ZM18.9102 13.25C19.3079 13.25 19.6431 13.1719 19.9158 13.0156C20.1914 12.8594 20.3988 12.6577 20.538 12.4105C20.68 12.1634 20.7511 11.9034 20.7511 11.6307V10.7102C20.7085 10.7614 20.6147 10.8082 20.4698 10.8509C20.3278 10.8906 20.163 10.9261 19.9755 10.9574C19.7908 10.9858 19.6104 11.0114 19.4343 11.0341C19.261 11.054 19.1204 11.071 19.0124 11.0852C18.7511 11.1193 18.5067 11.1747 18.2795 11.2514C18.055 11.3253 17.8732 11.4375 17.734 11.5881C17.5977 11.7358 17.5295 11.9375 17.5295 12.1932C17.5295 12.5426 17.6587 12.8068 17.9173 12.9858C18.1786 13.1619 18.5096 13.25 18.9102 13.25ZM26.0639 14.1364C25.5185 14.1364 25.0369 13.9986 24.6193 13.723C24.2017 13.4446 23.875 13.0526 23.6392 12.5469C23.4034 12.0384 23.2855 11.4375 23.2855 10.7443C23.2855 10.0568 23.4034 9.46023 23.6392 8.95455C23.875 8.44886 24.2031 8.05824 24.6236 7.78267C25.044 7.5071 25.5298 7.36932 26.081 7.36932C26.5071 7.36932 26.8438 7.44034 27.0909 7.58239C27.3409 7.72159 27.5313 7.88068 27.6619 8.05966C27.7955 8.2358 27.8991 8.38068 27.973 8.49432H28.0582V5.27273H29.0639V14H28.0923V12.9943H27.973C27.8991 13.1136 27.794 13.2642 27.6577 13.446C27.5213 13.625 27.3267 13.7855 27.0739 13.9276C26.821 14.0668 26.4844 14.1364 26.0639 14.1364ZM26.2003 13.233C26.6037 13.233 26.9446 13.1278 27.223 12.9176C27.5014 12.7045 27.7131 12.4105 27.858 12.0355C28.0028 11.6577 28.0753 11.2216 28.0753 10.7273C28.0753 10.2386 28.0043 9.81108 27.8622 9.4446C27.7202 9.07528 27.5099 8.78835 27.2315 8.58381C26.9531 8.37642 26.6094 8.27273 26.2003 8.27273C25.7741 8.27273 25.419 8.3821 25.1349 8.60085C24.8537 8.81676 24.642 9.1108 24.5 9.48295C24.3608 9.85227 24.2912 10.267 24.2912 10.7273C24.2912 11.1932 24.3622 11.6165 24.5043 11.9972C24.6491 12.375 24.8622 12.6761 25.1435 12.9006C25.4276 13.1222 25.7798 13.233 26.2003 13.233ZM41.4773 5.27273V14H40.4545L35.6989 7.14773H35.6136V14H34.5568V5.27273H35.5795L40.3523 12.142H40.4375V5.27273H41.4773ZM46.1999 14.1364C45.5692 14.1364 45.0252 13.9972 44.5678 13.7188C44.1133 13.4375 43.7624 13.0455 43.5153 12.5426C43.271 12.0369 43.1488 11.4489 43.1488 10.7784C43.1488 10.108 43.271 9.51705 43.5153 9.00568C43.7624 8.49148 44.1062 8.09091 44.5465 7.80398C44.9897 7.5142 45.5067 7.36932 46.0977 7.36932C46.4386 7.36932 46.7752 7.42614 47.1076 7.53977C47.44 7.65341 47.7425 7.83807 48.0153 8.09375C48.288 8.34659 48.5053 8.68182 48.6673 9.09943C48.8292 9.51705 48.9102 10.0312 48.9102 10.642V11.0682H43.8647V10.1989H47.8874C47.8874 9.82955 47.8136 9.5 47.6658 9.21023C47.521 8.92045 47.3136 8.69176 47.0437 8.52415C46.7766 8.35653 46.4613 8.27273 46.0977 8.27273C45.6971 8.27273 45.3505 8.37216 45.0579 8.57102C44.7681 8.76705 44.5451 9.02273 44.3888 9.33807C44.2326 9.65341 44.1545 9.99148 44.1545 10.3523V10.9318C44.1545 11.4261 44.2397 11.8452 44.4102 12.1889C44.5835 12.5298 44.8235 12.7898 45.1303 12.9688C45.4371 13.1449 45.7937 13.233 46.1999 13.233C46.4641 13.233 46.7028 13.196 46.9158 13.1222C47.1317 13.0455 47.3178 12.9318 47.4741 12.7812C47.6303 12.6278 47.7511 12.4375 47.8363 12.2102L48.8079 12.483C48.7056 12.8125 48.5337 13.1023 48.2923 13.3523C48.0508 13.5994 47.7525 13.7926 47.3974 13.9318C47.0423 14.0682 46.6431 14.1364 46.1999 14.1364ZM53.0991 14.1364C52.5082 14.1364 51.9897 13.9957 51.5437 13.7145C51.1005 13.4332 50.7539 13.0398 50.5039 12.5341C50.2567 12.0284 50.1332 11.4375 50.1332 10.7614C50.1332 10.0795 50.2567 9.48437 50.5039 8.97585C50.7539 8.46733 51.1005 8.07244 51.5437 7.79119C51.9897 7.50994 52.5082 7.36932 53.0991 7.36932C53.69 7.36932 54.207 7.50994 54.6502 7.79119C55.0962 8.07244 55.4428 8.46733 55.69 8.97585C55.94 9.48437 56.065 10.0795 56.065 10.7614C56.065 11.4375 55.94 12.0284 55.69 12.5341C55.4428 13.0398 55.0962 13.4332 54.6502 13.7145C54.207 13.9957 53.69 14.1364 53.0991 14.1364ZM53.0991 13.233C53.5479 13.233 53.9173 13.1179 54.207 12.8878C54.4968 12.6577 54.7113 12.3551 54.8505 11.9801C54.9897 11.6051 55.0593 11.1989 55.0593 10.7614C55.0593 10.3239 54.9897 9.91619 54.8505 9.53835C54.7113 9.16051 54.4968 8.85511 54.207 8.62216C53.9173 8.3892 53.5479 8.27273 53.0991 8.27273C52.6502 8.27273 52.2809 8.3892 51.9911 8.62216C51.7013 8.85511 51.4869 9.16051 51.3477 9.53835C51.2085 9.91619 51.1388 10.3239 51.1388 10.7614C51.1388 11.1989 51.2085 11.6051 51.3477 11.9801C51.4869 12.3551 51.7013 12.6577 51.9911 12.8878C52.2809 13.1179 52.6502 13.233 53.0991 13.233ZM57.3786 12.2102V11.3409L61.2138 5.27273H61.8445V6.61932H61.4183L58.5206 11.2045V11.2727H63.6854V12.2102H57.3786ZM61.4865 14V11.946V11.5412V5.27273H62.4922V14H61.4865ZM65.2994 7.45455H66.305V14.4773C66.305 14.8807 66.2354 15.2301 66.0962 15.5256C65.9599 15.821 65.7525 16.0497 65.4741 16.2116C65.1985 16.3736 64.8505 16.4545 64.43 16.4545C64.396 16.4545 64.3619 16.4545 64.3278 16.4545C64.2937 16.4545 64.2596 16.4545 64.2255 16.4545V15.517C64.2596 15.517 64.2908 15.517 64.3192 15.517C64.3477 15.517 64.3789 15.517 64.413 15.517C64.7198 15.517 64.9442 15.4261 65.0863 15.2443C65.2283 15.0653 65.2994 14.8097 65.2994 14.4773V7.45455ZM65.7937 6.36364C65.5977 6.36364 65.4286 6.29688 65.2866 6.16335C65.1474 6.02983 65.0778 5.86932 65.0778 5.68182C65.0778 5.49432 65.1474 5.33381 65.2866 5.20028C65.4286 5.06676 65.5977 5 65.7937 5C65.9897 5 66.1573 5.06676 66.2965 5.20028C66.4386 5.33381 66.5096 5.49432 66.5096 5.68182C66.5096 5.86932 66.4386 6.02983 66.2965 6.16335C66.1573 6.29688 65.9897 6.36364 65.7937 6.36364Z" fill="white"/>
</svg>
