<svg width="120" height="20" viewBox="0 0 120 20" fill="none" xmlns="http://www.w3.org/2000/svg">
<path d="M0.25 0.25H119.75V19.75H0.25V0.25Z" fill="#3D3D3D" stroke="#807B7B" stroke-width="0.5"/>
<path d="M8.31233 7.45455C8.2612 7.02273 8.05381 6.6875 7.69017 6.44886C7.32654 6.21023 6.88052 6.09091 6.35211 6.09091C5.96574 6.09091 5.62767 6.15341 5.3379 6.27841C5.05097 6.40341 4.82654 6.57528 4.66461 6.79403C4.50552 7.01278 4.42597 7.26136 4.42597 7.53977C4.42597 7.77273 4.48137 7.97301 4.59216 8.14062C4.7058 8.3054 4.85069 8.44318 5.02682 8.55398C5.20296 8.66193 5.38762 8.75142 5.5808 8.82244C5.77398 8.89062 5.95154 8.94602 6.11347 8.98864L6.99983 9.22727C7.22711 9.28693 7.47995 9.36932 7.75836 9.47443C8.03961 9.57955 8.30807 9.72301 8.56375 9.90483C8.82228 10.0838 9.03535 10.3139 9.20296 10.5952C9.37057 10.8764 9.45438 11.2216 9.45438 11.6307C9.45438 12.1023 9.3308 12.5284 9.08364 12.9091C8.83932 13.2898 8.48137 13.5923 8.00978 13.8168C7.54103 14.0412 6.97142 14.1534 6.30097 14.1534C5.67597 14.1534 5.13478 14.0526 4.67739 13.8509C4.22284 13.6491 3.86489 13.3679 3.60353 13.0071C3.345 12.6463 3.1987 12.2273 3.16461 11.75H4.25552C4.28392 12.0795 4.39472 12.3523 4.5879 12.5682C4.78392 12.7812 5.03108 12.9403 5.32938 13.0455C5.63052 13.1477 5.95438 13.1989 6.30097 13.1989C6.70438 13.1989 7.0666 13.1335 7.38762 13.0028C7.70864 12.8693 7.9629 12.6847 8.1504 12.4489C8.3379 12.2102 8.43165 11.9318 8.43165 11.6136C8.43165 11.3239 8.35069 11.0881 8.18875 10.9062C8.02682 10.7244 7.81375 10.5767 7.54955 10.4631C7.28535 10.3494 6.99983 10.25 6.69302 10.1648L5.61915 9.85795C4.93733 9.66193 4.39756 9.3821 3.99983 9.01847C3.60211 8.65483 3.40324 8.17898 3.40324 7.59091C3.40324 7.10227 3.53534 6.67614 3.79955 6.3125C4.06659 5.94602 4.42455 5.66193 4.87341 5.46023C5.32512 5.25568 5.82938 5.15341 6.3862 5.15341C6.9487 5.15341 7.4487 5.25426 7.8862 5.45597C8.3237 5.65483 8.67029 5.92756 8.92597 6.27415C9.18449 6.62074 9.32086 7.0142 9.33506 7.45455H8.31233ZM12.9817 14.1534C12.567 14.1534 12.1905 14.0753 11.8525 13.919C11.5144 13.7599 11.2459 13.5312 11.0471 13.233C10.8482 12.9318 10.7488 12.5682 10.7488 12.142C10.7488 11.767 10.8226 11.4631 10.9704 11.2301C11.1181 10.9943 11.3155 10.8097 11.5627 10.6761C11.8098 10.5426 12.0826 10.4432 12.3809 10.3778C12.682 10.3097 12.9846 10.2557 13.2885 10.2159C13.6863 10.1648 14.0087 10.1264 14.2559 10.1009C14.5059 10.0724 14.6877 10.0256 14.8013 9.96023C14.9178 9.89489 14.976 9.78125 14.976 9.61932V9.58523C14.976 9.16477 14.861 8.83807 14.6309 8.60511C14.4036 8.37216 14.0584 8.25568 13.5954 8.25568C13.1152 8.25568 12.7388 8.3608 12.4661 8.57102C12.1934 8.78125 12.0016 9.00568 11.8908 9.24432L10.9363 8.90341C11.1067 8.50568 11.334 8.19602 11.6181 7.97443C11.905 7.75 12.2175 7.59375 12.5556 7.50568C12.8965 7.41477 13.2317 7.36932 13.5613 7.36932C13.7715 7.36932 14.013 7.39489 14.2857 7.44602C14.5613 7.49432 14.8269 7.59517 15.0826 7.74858C15.3411 7.90199 15.5556 8.13352 15.726 8.44318C15.8965 8.75284 15.9817 9.16761 15.9817 9.6875V14H14.976V13.1136H14.9249C14.8567 13.2557 14.7431 13.4077 14.584 13.5696C14.4249 13.7315 14.2133 13.8693 13.9491 13.983C13.6848 14.0966 13.3624 14.1534 12.9817 14.1534ZM13.1351 13.25C13.5329 13.25 13.8681 13.1719 14.1408 13.0156C14.4164 12.8594 14.6238 12.6577 14.763 12.4105C14.905 12.1634 14.976 11.9034 14.976 11.6307V10.7102C14.9334 10.7614 14.8397 10.8082 14.6948 10.8509C14.5527 10.8906 14.388 10.9261 14.2005 10.9574C14.0158 10.9858 13.8354 11.0114 13.6593 11.0341C13.486 11.054 13.3454 11.071 13.2374 11.0852C12.976 11.1193 12.7317 11.1747 12.5045 11.2514C12.28 11.3253 12.0982 11.4375 11.959 11.5881C11.8226 11.7358 11.7545 11.9375 11.7545 12.1932C11.7545 12.5426 11.8837 12.8068 12.1422 12.9858C12.4036 13.1619 12.7346 13.25 13.1351 13.25ZM22.9352 7.45455L20.5147 14H19.492L17.0716 7.45455H18.1625L19.9693 12.6705H20.0375L21.8443 7.45455H22.9352ZM26.7726 14.1364C26.1419 14.1364 25.5978 13.9972 25.1405 13.7188C24.6859 13.4375 24.3351 13.0455 24.0879 12.5426C23.8436 12.0369 23.7214 11.4489 23.7214 10.7784C23.7214 10.108 23.8436 9.51705 24.0879 9.00568C24.3351 8.49148 24.6788 8.09091 25.1192 7.80398C25.5623 7.5142 26.0794 7.36932 26.6703 7.36932C27.0112 7.36932 27.3478 7.42614 27.6802 7.53977C28.0126 7.65341 28.3152 7.83807 28.5879 8.09375C28.8606 8.34659 29.078 8.68182 29.2399 9.09943C29.4018 9.51705 29.4828 10.0312 29.4828 10.642V11.0682H24.4373V10.1989H28.4601C28.4601 9.82955 28.3862 9.5 28.2385 9.21023C28.0936 8.92045 27.8862 8.69176 27.6163 8.52415C27.3493 8.35653 27.0339 8.27273 26.6703 8.27273C26.2697 8.27273 25.9231 8.37216 25.6305 8.57102C25.3407 8.76705 25.1177 9.02273 24.9615 9.33807C24.8052 9.65341 24.7271 9.99148 24.7271 10.3523V10.9318C24.7271 11.4261 24.8123 11.8452 24.9828 12.1889C25.1561 12.5298 25.3961 12.7898 25.703 12.9688C26.0098 13.1449 26.3663 13.233 26.7726 13.233C27.0368 13.233 27.2754 13.196 27.4885 13.1222C27.7044 13.0455 27.8905 12.9318 28.0467 12.7812C28.203 12.6278 28.3237 12.4375 28.4089 12.2102L29.3805 12.483C29.2782 12.8125 29.1064 13.1023 28.8649 13.3523C28.6234 13.5994 28.3251 13.7926 27.97 13.9318C27.6149 14.0682 27.2157 14.1364 26.7726 14.1364ZM41.4444 5.27273V14H40.4217L35.666 7.14773H35.5808V14H34.524V5.27273H35.5467L40.3194 12.142H40.4047V5.27273H41.4444ZM46.1671 14.1364C45.5364 14.1364 44.9924 13.9972 44.535 13.7188C44.0804 13.4375 43.7296 13.0455 43.4824 12.5426C43.2381 12.0369 43.116 11.4489 43.116 10.7784C43.116 10.108 43.2381 9.51705 43.4824 9.00568C43.7296 8.49148 44.0733 8.09091 44.5137 7.80398C44.9569 7.5142 45.4739 7.36932 46.0648 7.36932C46.4057 7.36932 46.7424 7.42614 47.0748 7.53977C47.4071 7.65341 47.7097 7.83807 47.9824 8.09375C48.2552 8.34659 48.4725 8.68182 48.6344 9.09943C48.7964 9.51705 48.8773 10.0312 48.8773 10.642V11.0682H43.8319V10.1989H47.8546C47.8546 9.82955 47.7807 9.5 47.633 9.21023C47.4881 8.92045 47.2807 8.69176 47.0108 8.52415C46.7438 8.35653 46.4285 8.27273 46.0648 8.27273C45.6643 8.27273 45.3177 8.37216 45.025 8.57102C44.7353 8.76705 44.5123 9.02273 44.356 9.33807C44.1998 9.65341 44.1216 9.99148 44.1216 10.3523V10.9318C44.1216 11.4261 44.2069 11.8452 44.3773 12.1889C44.5506 12.5298 44.7907 12.7898 45.0975 12.9688C45.4043 13.1449 45.7608 13.233 46.1671 13.233C46.4313 13.233 46.6699 13.196 46.883 13.1222C47.0989 13.0455 47.285 12.9318 47.4412 12.7812C47.5975 12.6278 47.7182 12.4375 47.8035 12.2102L48.775 12.483C48.6728 12.8125 48.5009 13.1023 48.2594 13.3523C48.0179 13.5994 47.7196 13.7926 47.3645 13.9318C47.0094 14.0682 46.6103 14.1364 46.1671 14.1364ZM53.0662 14.1364C52.4753 14.1364 51.9569 13.9957 51.5108 13.7145C51.0677 13.4332 50.7211 13.0398 50.4711 12.5341C50.2239 12.0284 50.1003 11.4375 50.1003 10.7614C50.1003 10.0795 50.2239 9.48437 50.4711 8.97585C50.7211 8.46733 51.0677 8.07244 51.5108 7.79119C51.9569 7.50994 52.4753 7.36932 53.0662 7.36932C53.6571 7.36932 54.1742 7.50994 54.6174 7.79119C55.0634 8.07244 55.41 8.46733 55.6571 8.97585C55.9071 9.48437 56.0321 10.0795 56.0321 10.7614C56.0321 11.4375 55.9071 12.0284 55.6571 12.5341C55.41 13.0398 55.0634 13.4332 54.6174 13.7145C54.1742 13.9957 53.6571 14.1364 53.0662 14.1364ZM53.0662 13.233C53.5151 13.233 53.8844 13.1179 54.1742 12.8878C54.464 12.6577 54.6785 12.3551 54.8177 11.9801C54.9569 11.6051 55.0265 11.1989 55.0265 10.7614C55.0265 10.3239 54.9569 9.91619 54.8177 9.53835C54.6785 9.16051 54.464 8.85511 54.1742 8.62216C53.8844 8.3892 53.5151 8.27273 53.0662 8.27273C52.6174 8.27273 52.2481 8.3892 51.9583 8.62216C51.6685 8.85511 51.454 9.16051 51.3148 9.53835C51.1756 9.91619 51.106 10.3239 51.106 10.7614C51.106 11.1989 51.1756 11.6051 51.3148 11.9801C51.454 12.3551 51.6685 12.6577 51.9583 12.8878C52.2481 13.1179 52.6174 13.233 53.0662 13.233ZM57.3457 12.2102V11.3409L61.1809 5.27273H61.8116V6.61932H61.3855L58.4878 11.2045V11.2727H63.6525V12.2102H57.3457ZM61.4537 14V11.946V11.5412V5.27273H62.4594V14H61.4537ZM65.2665 7.45455H66.2722V14.4773C66.2722 14.8807 66.2026 15.2301 66.0634 15.5256C65.927 15.821 65.7196 16.0497 65.4412 16.2116C65.1657 16.3736 64.8177 16.4545 64.3972 16.4545C64.3631 16.4545 64.329 16.4545 64.2949 16.4545C64.2608 16.4545 64.2268 16.4545 64.1927 16.4545V15.517C64.2268 15.517 64.258 15.517 64.2864 15.517C64.3148 15.517 64.3461 15.517 64.3802 15.517C64.687 15.517 64.9114 15.4261 65.0535 15.2443C65.1955 15.0653 65.2665 14.8097 65.2665 14.4773V7.45455ZM65.7608 6.36364C65.5648 6.36364 65.3958 6.29688 65.2537 6.16335C65.1145 6.02983 65.0449 5.86932 65.0449 5.68182C65.0449 5.49432 65.1145 5.33381 65.2537 5.20028C65.3958 5.06676 65.5648 5 65.7608 5C65.9569 5 66.1245 5.06676 66.2637 5.20028C66.4057 5.33381 66.4768 5.49432 66.4768 5.68182C66.4768 5.86932 66.4057 6.02983 66.2637 6.16335C66.1245 6.29688 65.9569 6.36364 65.7608 6.36364Z" fill="white"/>
</svg>
