<svg width="60" height="60" viewBox="0 0 60 60" fill="none" xmlns="http://www.w3.org/2000/svg">
<path d="M60 30C60 46.5685 46.5685 60 30 60C13.4315 60 0 46.5685 0 30C0 13.4315 13.4315 0 30 0C46.5685 0 60 13.4315 60 30Z" fill="#64A6E3"/>
<path d="M10.7848 38C12.3228 38 13.5696 36.5905 13.5696 34.8519C13.5696 33.1132 12.3228 31.7037 10.7848 31.7037C9.2468 31.7037 8 33.1132 8 34.8519C8 36.5905 9.2468 38 10.7848 38Z" fill="white"/>
<path d="M49.2152 38C50.7532 38 52 36.5905 52 34.8519C52 33.1132 50.7532 31.7037 49.2152 31.7037C47.6772 31.7037 46.4304 33.1132 46.4304 34.8519C46.4304 36.5905 47.6772 38 49.2152 38Z" fill="white"/>
<path d="M14.6836 28.5555C19.4867 22.854 32.2263 14.8717 44.7595 28.5555" stroke="white" stroke-width="5" stroke-linecap="round"/>
</svg>
