<svg width="152" height="29" viewBox="0 0 152 29" fill="none" xmlns="http://www.w3.org/2000/svg">
<path d="M0.25 5C0.25 2.37665 2.37665 0.25 5 0.25H145C147.623 0.25 149.75 2.37665 149.75 5V23.83C149.75 26.4534 147.623 28.58 145 28.58H5C2.37665 28.58 0.25 26.4534 0.25 23.83V5Z" fill="#3D3D3D" stroke="#807B7B" stroke-width="0.5"/>
<path d="M7.37216 6.09091C7.33381 5.76705 7.17827 5.51562 6.90554 5.33665C6.63281 5.15767 6.2983 5.06818 5.90199 5.06818C5.61222 5.06818 5.35866 5.11506 5.14134 5.20881C4.92614 5.30256 4.75781 5.43146 4.63636 5.59553C4.51705 5.75959 4.45739 5.94602 4.45739 6.15483C4.45739 6.32955 4.49893 6.47976 4.58203 6.60547C4.66726 6.72905 4.77592 6.83239 4.90803 6.91548C5.04013 6.99645 5.17862 7.06357 5.32351 7.11683C5.46839 7.16797 5.60156 7.20952 5.72301 7.24148L6.38778 7.42045C6.55824 7.4652 6.74787 7.52699 6.95668 7.60582C7.16761 7.68466 7.36896 7.79226 7.56072 7.92862C7.75462 8.06285 7.91442 8.23544 8.04013 8.44638C8.16584 8.65732 8.22869 8.91619 8.22869 9.22301C8.22869 9.5767 8.13601 9.89631 7.95064 10.1818C7.7674 10.4673 7.49893 10.6942 7.14524 10.8626C6.79368 11.0309 6.36648 11.1151 5.86364 11.1151C5.39489 11.1151 4.98899 11.0394 4.64595 10.8881C4.30504 10.7369 4.03658 10.5259 3.84055 10.2553C3.64666 9.98473 3.53693 9.67045 3.51136 9.3125H4.32955C4.35085 9.55966 4.43395 9.7642 4.57884 9.92614C4.72585 10.0859 4.91122 10.2053 5.13494 10.2841C5.3608 10.3608 5.60369 10.3991 5.86364 10.3991C6.16619 10.3991 6.43786 10.3501 6.67862 10.2521C6.91939 10.152 7.11009 10.0135 7.25071 9.83665C7.39134 9.65767 7.46165 9.44886 7.46165 9.21023C7.46165 8.9929 7.40092 8.81605 7.27947 8.67969C7.15803 8.54332 6.99822 8.43253 6.80007 8.3473C6.60192 8.26207 6.38778 8.1875 6.15767 8.12358L5.35227 7.89347C4.84091 7.74645 4.43608 7.53658 4.13778 7.26385C3.83949 6.99112 3.69034 6.63423 3.69034 6.19318C3.69034 5.8267 3.78942 5.5071 3.98757 5.23438C4.18786 4.95952 4.45632 4.74645 4.79297 4.59517C5.13175 4.44176 5.50994 4.36506 5.92756 4.36506C6.34943 4.36506 6.72443 4.4407 7.05256 4.59197C7.38068 4.74112 7.64063 4.94567 7.83239 5.20561C8.02628 5.46555 8.12855 5.76065 8.1392 6.09091H7.37216ZM11.5645 6.09091V6.73011H9.02051V6.09091H11.5645ZM9.76199 4.91477H10.5162V9.59375C10.5162 9.80682 10.5471 9.96662 10.6089 10.0732C10.6729 10.1776 10.7538 10.2479 10.8518 10.2841C10.952 10.3182 11.0574 10.3352 11.1682 10.3352C11.2513 10.3352 11.3195 10.331 11.3728 10.3224C11.426 10.3118 11.4687 10.3033 11.5006 10.2969L11.654 10.9744C11.6029 10.9936 11.5315 11.0128 11.4399 11.032C11.3483 11.0533 11.2322 11.0639 11.0915 11.0639C10.8785 11.0639 10.6697 11.0181 10.4651 10.9265C10.2627 10.8349 10.0944 10.6953 9.96014 10.5078C9.82804 10.3203 9.76199 10.0838 9.76199 9.7983V4.91477ZM12.6991 11V6.09091H13.4278V6.83239H13.479C13.5684 6.58949 13.7304 6.3924 13.9648 6.24112C14.1991 6.08984 14.4633 6.0142 14.7574 6.0142C14.8128 6.0142 14.882 6.01527 14.9651 6.0174C15.0482 6.01953 15.1111 6.02273 15.1537 6.02699V6.79403C15.1281 6.78764 15.0695 6.77805 14.9779 6.76527C14.8884 6.75035 14.7936 6.7429 14.6934 6.7429C14.4548 6.7429 14.2417 6.79297 14.0542 6.89311C13.8689 6.99112 13.7219 7.12749 13.6132 7.3022C13.5067 7.47479 13.4534 7.67187 13.4534 7.89347V11H12.6991ZM17.8927 11.1023C17.4495 11.1023 17.0606 10.9968 16.7261 10.7859C16.3937 10.5749 16.1338 10.2798 15.9463 9.90057C15.7609 9.52131 15.6682 9.07812 15.6682 8.57102C15.6682 8.05966 15.7609 7.61328 15.9463 7.23189C16.1338 6.8505 16.3937 6.55433 16.7261 6.34339C17.0606 6.13246 17.4495 6.02699 17.8927 6.02699C18.3358 6.02699 18.7236 6.13246 19.056 6.34339C19.3905 6.55433 19.6505 6.8505 19.8358 7.23189C20.0233 7.61328 20.1171 8.05966 20.1171 8.57102C20.1171 9.07812 20.0233 9.52131 19.8358 9.90057C19.6505 10.2798 19.3905 10.5749 19.056 10.7859C18.7236 10.9968 18.3358 11.1023 17.8927 11.1023ZM17.8927 10.4247C18.2293 10.4247 18.5063 10.3384 18.7236 10.1658C18.941 9.99325 19.1018 9.76634 19.2062 9.48509C19.3106 9.20384 19.3628 8.89915 19.3628 8.57102C19.3628 8.2429 19.3106 7.93714 19.2062 7.65376C19.1018 7.37038 18.941 7.14134 18.7236 6.96662C18.5063 6.7919 18.2293 6.70455 17.8927 6.70455C17.556 6.70455 17.279 6.7919 17.0617 6.96662C16.8444 7.14134 16.6835 7.37038 16.5791 7.65376C16.4747 7.93714 16.4225 8.2429 16.4225 8.57102C16.4225 8.89915 16.4747 9.20384 16.5791 9.48509C16.6835 9.76634 16.8444 9.99325 17.0617 10.1658C17.279 10.3384 17.556 10.4247 17.8927 10.4247ZM22.0227 8.04688V11H21.2685V6.09091H21.9972V6.85795H22.0611C22.1761 6.60866 22.3509 6.40838 22.5852 6.2571C22.8196 6.10369 23.1222 6.02699 23.4929 6.02699C23.8253 6.02699 24.1161 6.09517 24.3654 6.23153C24.6147 6.36577 24.8086 6.57031 24.9471 6.84517C25.0856 7.1179 25.1548 7.46307 25.1548 7.88068V11H24.4006V7.93182C24.4006 7.54616 24.3004 7.24574 24.1001 7.03054C23.8999 6.81321 23.625 6.70455 23.2756 6.70455C23.0348 6.70455 22.8196 6.75675 22.63 6.86115C22.4425 6.96555 22.2944 7.1179 22.1857 7.31818C22.0771 7.51847 22.0227 7.76136 22.0227 8.04688ZM28.5146 12.9432C28.1503 12.9432 27.8371 12.8963 27.575 12.8026C27.3129 12.7109 27.0945 12.5895 26.9198 12.4382C26.7472 12.2891 26.6098 12.1293 26.5075 11.9588L27.1084 11.5369C27.1766 11.6264 27.2629 11.7287 27.3673 11.8438C27.4717 11.9609 27.6144 12.0621 27.7955 12.1474C27.9788 12.2347 28.2185 12.2784 28.5146 12.2784C28.911 12.2784 29.238 12.1825 29.4958 11.9908C29.7536 11.799 29.8825 11.4986 29.8825 11.0895V10.0923H29.8186C29.7632 10.1818 29.6844 10.2926 29.5821 10.4247C29.482 10.5547 29.3371 10.6708 29.1475 10.7731C28.96 10.8732 28.7064 10.9233 28.3868 10.9233C27.9905 10.9233 27.6347 10.8295 27.3193 10.642C27.0061 10.4545 26.7579 10.1818 26.5747 9.82386C26.3936 9.46591 26.303 9.03125 26.303 8.51989C26.303 8.01705 26.3914 7.57919 26.5683 7.20632C26.7451 6.83132 26.9912 6.54155 27.3066 6.337C27.6219 6.13033 27.9862 6.02699 28.3996 6.02699C28.7192 6.02699 28.9727 6.08026 29.1602 6.18679C29.3499 6.29119 29.4948 6.41051 29.5949 6.54474C29.6972 6.67685 29.776 6.78551 29.8314 6.87074H29.9081V6.09091H30.6368V11.1406C30.6368 11.5625 30.5409 11.9055 30.3492 12.1697C30.1595 12.4361 29.9039 12.631 29.5821 12.7546C29.2625 12.8803 28.9067 12.9432 28.5146 12.9432ZM28.4891 10.2457C28.7916 10.2457 29.0473 10.1765 29.2561 10.038C29.4649 9.8995 29.6237 9.70028 29.7323 9.44034C29.841 9.1804 29.8953 8.86932 29.8953 8.5071C29.8953 8.15341 29.8421 7.84126 29.7355 7.57067C29.629 7.30007 29.4713 7.08807 29.2625 6.93466C29.0537 6.78125 28.7959 6.70455 28.4891 6.70455C28.1695 6.70455 27.9031 6.78551 27.6901 6.94744C27.4791 7.10937 27.3204 7.3267 27.2139 7.59943C27.1095 7.87216 27.0573 8.17472 27.0573 8.5071C27.0573 8.84801 27.1105 9.1495 27.2171 9.41158C27.3257 9.67152 27.4855 9.87607 27.6965 10.0252C27.9095 10.1722 28.1737 10.2457 28.4891 10.2457ZM36.5431 11.1023C36.0828 11.1023 35.6865 10.9936 35.3541 10.7763C35.0218 10.5589 34.7661 10.2596 34.5871 9.8782C34.4081 9.4968 34.3186 9.06108 34.3186 8.57102C34.3186 8.07244 34.4102 7.63246 34.5935 7.25107C34.7789 6.86754 35.0367 6.56818 35.3669 6.35298C35.6993 6.13565 36.0871 6.02699 36.5303 6.02699C36.8754 6.02699 37.1865 6.09091 37.4635 6.21875C37.7405 6.34659 37.9674 6.52557 38.1443 6.75568C38.3211 6.9858 38.4308 7.25426 38.4735 7.56108H37.7192C37.6617 7.33736 37.5338 7.1392 37.3357 6.96662C37.1396 6.7919 36.8754 6.70455 36.5431 6.70455C36.249 6.70455 35.9912 6.78125 35.7696 6.93466C35.5502 7.08594 35.3786 7.30007 35.2551 7.57706C35.1336 7.85192 35.0729 8.17472 35.0729 8.54545C35.0729 8.92472 35.1325 9.25497 35.2519 9.53622C35.3733 9.81747 35.5438 10.0359 35.7632 10.1914C35.9848 10.3469 36.2448 10.4247 36.5431 10.4247C36.7391 10.4247 36.917 10.3906 37.0768 10.3224C37.2366 10.2543 37.3719 10.1562 37.4827 10.0284C37.5935 9.90057 37.6723 9.74716 37.7192 9.56818H38.4735C38.4308 9.85795 38.3254 10.119 38.157 10.3512C37.9909 10.5813 37.7703 10.7646 37.4955 10.9009C37.2227 11.0352 36.9053 11.1023 36.5431 11.1023ZM41.5704 11.1023C41.1272 11.1023 40.7384 10.9968 40.4039 10.7859C40.0715 10.5749 39.8115 10.2798 39.624 9.90057C39.4387 9.52131 39.346 9.07812 39.346 8.57102C39.346 8.05966 39.4387 7.61328 39.624 7.23189C39.8115 6.8505 40.0715 6.55433 40.4039 6.34339C40.7384 6.13246 41.1272 6.02699 41.5704 6.02699C42.0136 6.02699 42.4014 6.13246 42.7338 6.34339C43.0683 6.55433 43.3282 6.8505 43.5136 7.23189C43.7011 7.61328 43.7948 8.05966 43.7948 8.57102C43.7948 9.07812 43.7011 9.52131 43.5136 9.90057C43.3282 10.2798 43.0683 10.5749 42.7338 10.7859C42.4014 10.9968 42.0136 11.1023 41.5704 11.1023ZM41.5704 10.4247C41.907 10.4247 42.184 10.3384 42.4014 10.1658C42.6187 9.99325 42.7796 9.76634 42.884 9.48509C42.9884 9.20384 43.0406 8.89915 43.0406 8.57102C43.0406 8.2429 42.9884 7.93714 42.884 7.65376C42.7796 7.37038 42.6187 7.14134 42.4014 6.96662C42.184 6.7919 41.907 6.70455 41.5704 6.70455C41.2338 6.70455 40.9568 6.7919 40.7394 6.96662C40.5221 7.14134 40.3612 7.37038 40.2568 7.65376C40.1524 7.93714 40.1002 8.2429 40.1002 8.57102C40.1002 8.89915 40.1524 9.20384 40.2568 9.48509C40.3612 9.76634 40.5221 9.99325 40.7394 10.1658C40.9568 10.3384 41.2338 10.4247 41.5704 10.4247ZM45.7005 8.04688V11H44.9462V6.09091H45.6749V6.85795H45.7388C45.8539 6.60866 46.0286 6.40838 46.263 6.2571C46.4973 6.10369 46.7999 6.02699 47.1706 6.02699C47.503 6.02699 47.7939 6.09517 48.0431 6.23153C48.2924 6.36577 48.4863 6.57031 48.6248 6.84517C48.7633 7.1179 48.8326 7.46307 48.8326 7.88068V11H48.0783V7.93182C48.0783 7.54616 47.9782 7.24574 47.7779 7.03054C47.5776 6.81321 47.3027 6.70455 46.9533 6.70455C46.7125 6.70455 46.4973 6.75675 46.3077 6.86115C46.1202 6.96555 45.9721 7.1179 45.8635 7.31818C45.7548 7.51847 45.7005 7.76136 45.7005 8.04688ZM50.9651 8.04688V11H50.2108V6.09091H50.9395V6.85795H51.0035C51.1185 6.60866 51.2932 6.40838 51.5276 6.2571C51.762 6.10369 52.0645 6.02699 52.4353 6.02699C52.7677 6.02699 53.0585 6.09517 53.3078 6.23153C53.5571 6.36577 53.751 6.57031 53.8895 6.84517C54.028 7.1179 54.0972 7.46307 54.0972 7.88068V11H53.343V7.93182C53.343 7.54616 53.2428 7.24574 53.0425 7.03054C52.8422 6.81321 52.5674 6.70455 52.218 6.70455C51.9772 6.70455 51.762 6.75675 51.5724 6.86115C51.3849 6.96555 51.2368 7.1179 51.1281 7.31818C51.0194 7.51847 50.9651 7.76136 50.9651 8.04688ZM57.5337 11.1023C57.0607 11.1023 56.6527 10.9979 56.3097 10.7891C55.9688 10.5781 55.7056 10.2841 55.5202 9.90696C55.337 9.5277 55.2454 9.08665 55.2454 8.58381C55.2454 8.08097 55.337 7.63778 55.5202 7.25426C55.7056 6.86861 55.9634 6.56818 56.2937 6.35298C56.6261 6.13565 57.0138 6.02699 57.457 6.02699C57.7127 6.02699 57.9652 6.0696 58.2145 6.15483C58.4638 6.24006 58.6907 6.37855 58.8952 6.57031C59.0998 6.75994 59.2628 7.01136 59.3842 7.32457C59.5057 7.63778 59.5664 8.02344 59.5664 8.48153V8.80114H55.7823V8.14915H58.7994C58.7994 7.87216 58.744 7.625 58.6332 7.40767C58.5245 7.19034 58.369 7.01882 58.1665 6.89311C57.9663 6.7674 57.7298 6.70455 57.457 6.70455C57.1566 6.70455 56.8967 6.77912 56.6772 6.92827C56.4599 7.07528 56.2926 7.26705 56.1754 7.50355C56.0582 7.74006 55.9996 7.99361 55.9996 8.2642V8.69886C55.9996 9.0696 56.0636 9.38388 56.1914 9.64169C56.3214 9.89737 56.5014 10.0923 56.7315 10.2266C56.9616 10.3587 57.229 10.4247 57.5337 10.4247C57.7319 10.4247 57.9109 10.397 58.0707 10.3416C58.2326 10.2841 58.3722 10.1989 58.4893 10.0859C58.6065 9.97088 58.6971 9.82812 58.761 9.65767L59.4897 9.86222C59.413 10.1094 59.2841 10.3267 59.103 10.5142C58.9219 10.6996 58.6982 10.8445 58.4318 10.9489C58.1655 11.0511 57.8661 11.1023 57.5337 11.1023ZM62.7081 11.1023C62.2479 11.1023 61.8516 10.9936 61.5192 10.7763C61.1868 10.5589 60.9311 10.2596 60.7521 9.8782C60.5732 9.4968 60.4837 9.06108 60.4837 8.57102C60.4837 8.07244 60.5753 7.63246 60.7585 7.25107C60.9439 6.86754 61.2017 6.56818 61.532 6.35298C61.8643 6.13565 62.2521 6.02699 62.6953 6.02699C63.0405 6.02699 63.3516 6.09091 63.6286 6.21875C63.9055 6.34659 64.1325 6.52557 64.3093 6.75568C64.4862 6.9858 64.5959 7.25426 64.6385 7.56108H63.8842C63.8267 7.33736 63.6989 7.1392 63.5007 6.96662C63.3047 6.7919 63.0405 6.70455 62.7081 6.70455C62.4141 6.70455 62.1563 6.78125 61.9347 6.93466C61.7152 7.08594 61.5437 7.30007 61.4201 7.57706C61.2987 7.85192 61.2379 8.17472 61.2379 8.54545C61.2379 8.92472 61.2976 9.25497 61.4169 9.53622C61.5384 9.81747 61.7088 10.0359 61.9283 10.1914C62.1499 10.3469 62.4098 10.4247 62.7081 10.4247C62.9041 10.4247 63.082 10.3906 63.2418 10.3224C63.4016 10.2543 63.5369 10.1562 63.6477 10.0284C63.7585 9.90057 63.8374 9.74716 63.8842 9.56818H64.6385C64.5959 9.85795 64.4904 10.119 64.3221 10.3512C64.1559 10.5813 63.9354 10.7646 63.6605 10.9009C63.3878 11.0352 63.0703 11.1023 62.7081 11.1023ZM67.8761 6.09091V6.73011H65.332V6.09091H67.8761ZM66.0735 4.91477H66.8278V9.59375C66.8278 9.80682 66.8587 9.96662 66.9205 10.0732C66.9844 10.1776 67.0653 10.2479 67.1634 10.2841C67.2635 10.3182 67.369 10.3352 67.4798 10.3352C67.5629 10.3352 67.631 10.331 67.6843 10.3224C67.7376 10.3118 67.7802 10.3033 67.8121 10.2969L67.9656 10.9744C67.9144 10.9936 67.843 11.0128 67.7514 11.032C67.6598 11.0533 67.5437 11.0639 67.4031 11.0639C67.19 11.0639 66.9812 11.0181 66.7766 10.9265C66.5742 10.8349 66.4059 10.6953 66.2717 10.5078C66.1396 10.3203 66.0735 10.0838 66.0735 9.7983V4.91477ZM69.0107 11V6.09091H69.7649V11H69.0107ZM69.3942 5.27273C69.2472 5.27273 69.1204 5.22266 69.0138 5.12251C68.9094 5.02237 68.8572 4.90199 68.8572 4.76136C68.8572 4.62074 68.9094 4.50036 69.0138 4.40021C69.1204 4.30007 69.2472 4.25 69.3942 4.25C69.5412 4.25 69.6669 4.30007 69.7713 4.40021C69.8778 4.50036 69.9311 4.62074 69.9311 4.76136C69.9311 4.90199 69.8778 5.02237 69.7713 5.12251C69.6669 5.22266 69.5412 5.27273 69.3942 5.27273ZM75.1606 6.09091L73.3453 11H72.5782L70.7629 6.09091H71.5811L72.9362 10.0028H72.9873L74.3424 6.09091H75.1606ZM76.1562 11V6.09091H76.9104V11H76.1562ZM76.5397 5.27273C76.3927 5.27273 76.2659 5.22266 76.1594 5.12251C76.055 5.02237 76.0028 4.90199 76.0028 4.76136C76.0028 4.62074 76.055 4.50036 76.1594 4.40021C76.2659 4.30007 76.3927 4.25 76.5397 4.25C76.6867 4.25 76.8124 4.30007 76.9168 4.40021C77.0233 4.50036 77.0766 4.62074 77.0766 4.76136C77.0766 4.90199 77.0233 5.02237 76.9168 5.12251C76.8124 5.22266 76.6867 5.27273 76.5397 5.27273ZM80.4268 6.09091V6.73011H77.8828V6.09091H80.4268ZM78.6243 4.91477H79.3786V9.59375C79.3786 9.80682 79.4094 9.96662 79.4712 10.0732C79.5352 10.1776 79.6161 10.2479 79.7141 10.2841C79.8143 10.3182 79.9197 10.3352 80.0305 10.3352C80.1136 10.3352 80.1818 10.331 80.2351 10.3224C80.2884 10.3118 80.331 10.3033 80.3629 10.2969L80.5163 10.9744C80.4652 10.9936 80.3938 11.0128 80.3022 11.032C80.2106 11.0533 80.0945 11.0639 79.9538 11.0639C79.7408 11.0639 79.532 11.0181 79.3274 10.9265C79.125 10.8349 78.9567 10.6953 78.8224 10.5078C78.6903 10.3203 78.6243 10.0838 78.6243 9.7983V4.91477ZM82.0472 12.8409C81.9194 12.8409 81.8054 12.8303 81.7053 12.8089C81.6051 12.7898 81.5359 12.7706 81.4975 12.7514L81.6893 12.0866C81.8725 12.1335 82.0344 12.1506 82.1751 12.1378C82.3157 12.125 82.4403 12.0621 82.549 11.9492C82.6598 11.8384 82.761 11.6584 82.8526 11.4091L82.9933 11.0256L81.1779 6.09091H81.9961L83.3512 10.0028H83.4023L84.7575 6.09091H85.5756L83.4918 11.7159C83.3981 11.9695 83.282 12.1793 83.1435 12.3455C83.005 12.5138 82.8441 12.6385 82.6609 12.7195C82.4798 12.8004 82.2752 12.8409 82.0472 12.8409ZM91.0968 11.1023C90.6365 11.1023 90.2402 10.9936 89.9078 10.7763C89.5755 10.5589 89.3198 10.2596 89.1408 9.8782C88.9618 9.4968 88.8723 9.06108 88.8723 8.57102C88.8723 8.07244 88.964 7.63246 89.1472 7.25107C89.3326 6.86754 89.5904 6.56818 89.9206 6.35298C90.253 6.13565 90.6408 6.02699 91.084 6.02699C91.4292 6.02699 91.7402 6.09091 92.0172 6.21875C92.2942 6.34659 92.5211 6.52557 92.698 6.75568C92.8748 6.9858 92.9846 7.25426 93.0272 7.56108H92.2729C92.2154 7.33736 92.0875 7.1392 91.8894 6.96662C91.6934 6.7919 91.4292 6.70455 91.0968 6.70455C90.8027 6.70455 90.5449 6.78125 90.3233 6.93466C90.1039 7.08594 89.9324 7.30007 89.8088 7.57706C89.6873 7.85192 89.6266 8.17472 89.6266 8.54545C89.6266 8.92472 89.6863 9.25497 89.8056 9.53622C89.927 9.81747 90.0975 10.0359 90.3169 10.1914C90.5385 10.3469 90.7985 10.4247 91.0968 10.4247C91.2928 10.4247 91.4707 10.3906 91.6305 10.3224C91.7903 10.2543 91.9256 10.1562 92.0364 10.0284C92.1472 9.90057 92.226 9.74716 92.2729 9.56818H93.0272C92.9846 9.85795 92.8791 10.119 92.7108 10.3512C92.5446 10.5813 92.324 10.7646 92.0492 10.9009C91.7765 11.0352 91.459 11.1023 91.0968 11.1023ZM96.1241 11.1023C95.6809 11.1023 95.2921 10.9968 94.9576 10.7859C94.6252 10.5749 94.3652 10.2798 94.1777 9.90057C93.9924 9.52131 93.8997 9.07812 93.8997 8.57102C93.8997 8.05966 93.9924 7.61328 94.1777 7.23189C94.3652 6.8505 94.6252 6.55433 94.9576 6.34339C95.2921 6.13246 95.6809 6.02699 96.1241 6.02699C96.5673 6.02699 96.9551 6.13246 97.2875 6.34339C97.622 6.55433 97.8819 6.8505 98.0673 7.23189C98.2548 7.61328 98.3485 8.05966 98.3485 8.57102C98.3485 9.07812 98.2548 9.52131 98.0673 9.90057C97.8819 10.2798 97.622 10.5749 97.2875 10.7859C96.9551 10.9968 96.5673 11.1023 96.1241 11.1023ZM96.1241 10.4247C96.4608 10.4247 96.7377 10.3384 96.9551 10.1658C97.1724 9.99325 97.3333 9.76634 97.4377 9.48509C97.5421 9.20384 97.5943 8.89915 97.5943 8.57102C97.5943 8.2429 97.5421 7.93714 97.4377 7.65376C97.3333 7.37038 97.1724 7.14134 96.9551 6.96662C96.7377 6.7919 96.4608 6.70455 96.1241 6.70455C95.7875 6.70455 95.5105 6.7919 95.2931 6.96662C95.0758 7.14134 94.915 7.37038 94.8105 7.65376C94.7061 7.93714 94.6539 8.2429 94.6539 8.57102C94.6539 8.89915 94.7061 9.20384 94.8105 9.48509C94.915 9.76634 95.0758 9.99325 95.2931 10.1658C95.5105 10.3384 95.7875 10.4247 96.1241 10.4247ZM99.4999 11V6.09091H100.229V6.85795H100.293C100.395 6.59588 100.56 6.3924 100.788 6.24751C101.016 6.1005 101.29 6.02699 101.609 6.02699C101.933 6.02699 102.203 6.1005 102.418 6.24751C102.635 6.3924 102.805 6.59588 102.926 6.85795H102.977C103.103 6.6044 103.291 6.40305 103.543 6.25391C103.794 6.10263 104.096 6.02699 104.447 6.02699C104.886 6.02699 105.245 6.16442 105.524 6.43928C105.804 6.712 105.943 7.13707 105.943 7.71449V11H105.189V7.71449C105.189 7.35227 105.09 7.09339 104.892 6.93786C104.693 6.78232 104.46 6.70455 104.192 6.70455C103.847 6.70455 103.579 6.80895 103.389 7.01776C103.2 7.22443 103.105 7.48651 103.105 7.80398V11H102.338V7.63778C102.338 7.35866 102.247 7.13388 102.066 6.96342C101.885 6.79084 101.652 6.70455 101.366 6.70455C101.17 6.70455 100.987 6.75675 100.817 6.86115C100.648 6.96555 100.512 7.11044 100.408 7.29581C100.305 7.47905 100.254 7.69105 100.254 7.93182V11H99.4999ZM107.322 12.8409V6.09091H108.051V6.87074H108.14C108.196 6.78551 108.272 6.67685 108.37 6.54474C108.471 6.41051 108.613 6.29119 108.799 6.18679C108.986 6.08026 109.24 6.02699 109.559 6.02699C109.973 6.02699 110.337 6.13033 110.652 6.337C110.968 6.54368 111.214 6.83665 111.391 7.21591C111.568 7.59517 111.656 8.04261 111.656 8.55824C111.656 9.07812 111.568 9.52876 111.391 9.91016C111.214 10.2894 110.969 10.5835 110.656 10.7923C110.342 10.9989 109.981 11.1023 109.572 11.1023C109.257 11.1023 109.004 11.0501 108.815 10.9457C108.625 10.8391 108.479 10.7187 108.377 10.5845C108.275 10.4482 108.196 10.3352 108.14 10.2457H108.076V12.8409H107.322ZM108.064 8.54545C108.064 8.91619 108.118 9.24325 108.227 9.52663C108.335 9.80788 108.494 10.0284 108.703 10.1882C108.912 10.3459 109.167 10.4247 109.47 10.4247C109.785 10.4247 110.048 10.3416 110.259 10.1754C110.472 10.0071 110.632 9.78125 110.739 9.49787C110.847 9.21236 110.902 8.89489 110.902 8.54545C110.902 8.20028 110.848 7.8892 110.742 7.61222C110.638 7.3331 110.479 7.11257 110.266 6.95064C110.055 6.78658 109.79 6.70455 109.47 6.70455C109.163 6.70455 108.905 6.78232 108.696 6.93786C108.488 7.09126 108.33 7.30646 108.223 7.58345C108.117 7.85831 108.064 8.17898 108.064 8.54545ZM114.801 11.1023C114.358 11.1023 113.969 10.9968 113.634 10.7859C113.302 10.5749 113.042 10.2798 112.854 9.90057C112.669 9.52131 112.576 9.07812 112.576 8.57102C112.576 8.05966 112.669 7.61328 112.854 7.23189C113.042 6.8505 113.302 6.55433 113.634 6.34339C113.969 6.13246 114.358 6.02699 114.801 6.02699C115.244 6.02699 115.632 6.13246 115.964 6.34339C116.299 6.55433 116.559 6.8505 116.744 7.23189C116.932 7.61328 117.025 8.05966 117.025 8.57102C117.025 9.07812 116.932 9.52131 116.744 9.90057C116.559 10.2798 116.299 10.5749 115.964 10.7859C115.632 10.9968 115.244 11.1023 114.801 11.1023ZM114.801 10.4247C115.138 10.4247 115.415 10.3384 115.632 10.1658C115.849 9.99325 116.01 9.76634 116.114 9.48509C116.219 9.20384 116.271 8.89915 116.271 8.57102C116.271 8.2429 116.219 7.93714 116.114 7.65376C116.01 7.37038 115.849 7.14134 115.632 6.96662C115.415 6.7919 115.138 6.70455 114.801 6.70455C114.464 6.70455 114.187 6.7919 113.97 6.96662C113.753 7.14134 113.592 7.37038 113.487 7.65376C113.383 7.93714 113.331 8.2429 113.331 8.57102C113.331 8.89915 113.383 9.20384 113.487 9.48509C113.592 9.76634 113.753 9.99325 113.97 10.1658C114.187 10.3384 114.464 10.4247 114.801 10.4247ZM118.931 8.04688V11H118.177V6.09091H118.905V6.85795H118.969C119.084 6.60866 119.259 6.40838 119.493 6.2571C119.728 6.10369 120.03 6.02699 120.401 6.02699C120.733 6.02699 121.024 6.09517 121.274 6.23153C121.523 6.36577 121.717 6.57031 121.855 6.84517C121.994 7.1179 122.063 7.46307 122.063 7.88068V11H121.309V7.93182C121.309 7.54616 121.209 7.24574 121.008 7.03054C120.808 6.81321 120.533 6.70455 120.184 6.70455C119.943 6.70455 119.728 6.75675 119.538 6.86115C119.351 6.96555 119.203 7.1179 119.094 7.31818C118.985 7.51847 118.931 7.76136 118.931 8.04688ZM125.5 11.1023C125.027 11.1023 124.619 10.9979 124.275 10.7891C123.935 10.5781 123.671 10.2841 123.486 9.90696C123.303 9.5277 123.211 9.08665 123.211 8.58381C123.211 8.08097 123.303 7.63778 123.486 7.25426C123.671 6.86861 123.929 6.56818 124.259 6.35298C124.592 6.13565 124.98 6.02699 125.423 6.02699C125.679 6.02699 125.931 6.0696 126.18 6.15483C126.43 6.24006 126.657 6.37855 126.861 6.57031C127.066 6.75994 127.229 7.01136 127.35 7.32457C127.472 7.63778 127.532 8.02344 127.532 8.48153V8.80114H123.748V8.14915H126.765C126.765 7.87216 126.71 7.625 126.599 7.40767C126.49 7.19034 126.335 7.01882 126.132 6.89311C125.932 6.7674 125.696 6.70455 125.423 6.70455C125.122 6.70455 124.862 6.77912 124.643 6.92827C124.426 7.07528 124.258 7.26705 124.141 7.50355C124.024 7.74006 123.965 7.99361 123.965 8.2642V8.69886C123.965 9.0696 124.029 9.38388 124.157 9.64169C124.287 9.89737 124.467 10.0923 124.697 10.2266C124.927 10.3587 125.195 10.4247 125.5 10.4247C125.698 10.4247 125.877 10.397 126.036 10.3416C126.198 10.2841 126.338 10.1989 126.455 10.0859C126.572 9.97088 126.663 9.82812 126.727 9.65767L127.456 9.86222C127.379 10.1094 127.25 10.3267 127.069 10.5142C126.888 10.6996 126.664 10.8445 126.398 10.9489C126.131 11.0511 125.832 11.1023 125.5 11.1023ZM129.434 8.04688V11H128.68V6.09091H129.408V6.85795H129.472C129.587 6.60866 129.762 6.40838 129.996 6.2571C130.231 6.10369 130.533 6.02699 130.904 6.02699C131.236 6.02699 131.527 6.09517 131.777 6.23153C132.026 6.36577 132.22 6.57031 132.358 6.84517C132.497 7.1179 132.566 7.46307 132.566 7.88068V11H131.812V7.93182C131.812 7.54616 131.712 7.24574 131.511 7.03054C131.311 6.81321 131.036 6.70455 130.687 6.70455C130.446 6.70455 130.231 6.75675 130.041 6.86115C129.854 6.96555 129.706 7.1179 129.597 7.31818C129.488 7.51847 129.434 7.76136 129.434 8.04688ZM136.079 6.09091V6.73011H133.535V6.09091H136.079ZM134.277 4.91477H135.031V9.59375C135.031 9.80682 135.062 9.96662 135.124 10.0732C135.188 10.1776 135.268 10.2479 135.366 10.2841C135.467 10.3182 135.572 10.3352 135.683 10.3352C135.766 10.3352 135.834 10.331 135.887 10.3224C135.941 10.3118 135.983 10.3033 136.015 10.2969L136.169 10.9744C136.118 10.9936 136.046 11.0128 135.955 11.032C135.863 11.0533 135.747 11.0639 135.606 11.0639C135.393 11.0639 135.184 11.0181 134.98 10.9265C134.777 10.8349 134.609 10.6953 134.475 10.5078C134.343 10.3203 134.277 10.0838 134.277 9.7983V4.91477Z" fill="white"/>
<path d="M3.61648 21V15.9091H6.66903V16.456H4.23295V18.1761H6.44034V18.723H4.23295V21H3.61648ZM7.64533 21V17.1818H8.23198V21H7.64533ZM7.94363 16.5455C7.82928 16.5455 7.73068 16.5065 7.64782 16.4286C7.56661 16.3507 7.52601 16.2571 7.52601 16.1477C7.52601 16.0384 7.56661 15.9447 7.64782 15.8668C7.73068 15.7889 7.82928 15.75 7.94363 15.75C8.05797 15.75 8.15575 15.7889 8.23695 15.8668C8.31981 15.9447 8.36124 16.0384 8.36124 16.1477C8.36124 16.2571 8.31981 16.3507 8.23695 16.4286C8.15575 16.5065 8.05797 16.5455 7.94363 16.5455ZM9.89311 18.7031V21H9.30646V17.1818H9.87322V17.7784H9.92294C10.0124 17.5845 10.1483 17.4287 10.3306 17.3111C10.5129 17.1918 10.7482 17.1321 11.0366 17.1321C11.2951 17.1321 11.5213 17.1851 11.7152 17.2912C11.9091 17.3956 12.0599 17.5547 12.1676 17.7685C12.2753 17.9806 12.3292 18.2491 12.3292 18.5739V21H11.7425V18.6136C11.7425 18.3137 11.6647 18.08 11.5089 17.9126C11.3531 17.7436 11.1393 17.6591 10.8675 17.6591C10.6803 17.6591 10.5129 17.6997 10.3654 17.7809C10.2196 17.8621 10.1044 17.9806 10.0199 18.1364C9.93537 18.2921 9.89311 18.4811 9.89311 18.7031ZM14.843 21.0795C14.5248 21.0795 14.2439 20.9992 14.0003 20.8384C13.7567 20.676 13.5661 20.4473 13.4285 20.1523C13.291 19.8557 13.2222 19.5052 13.2222 19.1009C13.2222 18.6998 13.291 18.3518 13.4285 18.0568C13.5661 17.7618 13.7575 17.534 14.0028 17.3732C14.248 17.2125 14.5314 17.1321 14.8529 17.1321C15.1015 17.1321 15.2979 17.1735 15.442 17.2564C15.5879 17.3376 15.6989 17.4304 15.7751 17.5348C15.853 17.6375 15.9135 17.7221 15.9566 17.7884H16.0063V15.9091H16.593V21H16.0262V20.4134H15.9566C15.9135 20.483 15.8522 20.5708 15.7726 20.6768C15.6931 20.7812 15.5796 20.8749 15.4321 20.9577C15.2846 21.0389 15.0882 21.0795 14.843 21.0795ZM14.9225 20.5526C15.1578 20.5526 15.3567 20.4912 15.5191 20.3686C15.6815 20.2443 15.805 20.0728 15.8895 19.854C15.974 19.6336 16.0162 19.3793 16.0162 19.0909C16.0162 18.8059 15.9748 18.5565 15.892 18.3427C15.8091 18.1272 15.6865 17.9599 15.5241 17.8406C15.3617 17.7196 15.1611 17.6591 14.9225 17.6591C14.6739 17.6591 14.4668 17.7229 14.301 17.8505C14.137 17.9764 14.0135 18.148 13.9307 18.3651C13.8495 18.5805 13.8089 18.8224 13.8089 19.0909C13.8089 19.3627 13.8503 19.6096 13.9331 19.8317C14.0177 20.0521 14.142 20.2277 14.306 20.3587C14.4717 20.4879 14.6772 20.5526 14.9225 20.5526ZM17.7488 21V17.1818H18.3355V21H17.7488ZM18.0471 16.5455C17.9328 16.5455 17.8342 16.5065 17.7513 16.4286C17.6701 16.3507 17.6295 16.2571 17.6295 16.1477C17.6295 16.0384 17.6701 15.9447 17.7513 15.8668C17.8342 15.7889 17.9328 15.75 18.0471 15.75C18.1615 15.75 18.2593 15.7889 18.3405 15.8668C18.4233 15.9447 18.4648 16.0384 18.4648 16.1477C18.4648 16.2571 18.4233 16.3507 18.3405 16.4286C18.2593 16.5065 18.1615 16.5455 18.0471 16.5455ZM19.9966 18.7031V21H19.41V17.1818H19.9767V17.7784H20.0265C20.1159 17.5845 20.2518 17.4287 20.4341 17.3111C20.6164 17.1918 20.8517 17.1321 21.1401 17.1321C21.3986 17.1321 21.6248 17.1851 21.8187 17.2912C22.0126 17.3956 22.1634 17.5547 22.2711 17.7685C22.3788 17.9806 22.4327 18.2491 22.4327 18.5739V21H21.8461V18.6136C21.8461 18.3137 21.7682 18.08 21.6124 17.9126C21.4566 17.7436 21.2428 17.6591 20.9711 17.6591C20.7838 17.6591 20.6164 17.6997 20.4689 17.7809C20.3231 17.8621 20.2079 17.9806 20.1234 18.1364C20.0389 18.2921 19.9966 18.4811 19.9966 18.7031ZM25.0459 22.5114C24.7625 22.5114 24.5189 22.4749 24.3151 22.402C24.1112 22.3307 23.9414 22.2363 23.8055 22.1186C23.6713 22.0026 23.5644 21.8783 23.4848 21.7457L23.9521 21.4176C24.0052 21.4872 24.0723 21.5668 24.1535 21.6562C24.2347 21.7474 24.3457 21.8261 24.4866 21.8924C24.6291 21.9603 24.8155 21.9943 25.0459 21.9943C25.3541 21.9943 25.6085 21.9197 25.809 21.7706C26.0096 21.6214 26.1098 21.3878 26.1098 21.0696V20.294H26.0601C26.017 20.3636 25.9557 20.4498 25.8762 20.5526C25.7983 20.6536 25.6856 20.744 25.5381 20.8235C25.3923 20.9014 25.195 20.9403 24.9465 20.9403C24.6382 20.9403 24.3615 20.8674 24.1162 20.7216C23.8726 20.5758 23.6795 20.3636 23.537 20.0852C23.3962 19.8068 23.3257 19.4687 23.3257 19.071C23.3257 18.6799 23.3945 18.3394 23.532 18.0494C23.6696 17.7577 23.861 17.5323 24.1063 17.3732C24.3515 17.2125 24.6349 17.1321 24.9564 17.1321C25.205 17.1321 25.4022 17.1735 25.548 17.2564C25.6955 17.3376 25.8082 17.4304 25.8861 17.5348C25.9656 17.6375 26.027 17.7221 26.07 17.7884H26.1297V17.1818H26.6965V21.1094C26.6965 21.4375 26.6219 21.7043 26.4727 21.9098C26.3253 22.117 26.1264 22.2686 25.8762 22.3647C25.6276 22.4625 25.3508 22.5114 25.0459 22.5114ZM25.026 20.4134C25.2613 20.4134 25.4602 20.3595 25.6226 20.2518C25.785 20.1441 25.9085 19.9891 25.993 19.7869C26.0775 19.5848 26.1198 19.3428 26.1198 19.0611C26.1198 18.786 26.0783 18.5432 25.9955 18.3327C25.9126 18.1223 25.79 17.9574 25.6276 17.8381C25.4652 17.7187 25.2646 17.6591 25.026 17.6591C24.7774 17.6591 24.5703 17.7221 24.4046 17.848C24.2405 17.974 24.117 18.143 24.0342 18.3551C23.953 18.5672 23.9124 18.8026 23.9124 19.0611C23.9124 19.3262 23.9538 19.5607 24.0367 19.7646C24.1212 19.9667 24.2455 20.1258 24.4095 20.2418C24.5753 20.3562 24.7807 20.4134 25.026 20.4134ZM32.6027 17.1818C32.5729 16.9299 32.4519 16.7344 32.2398 16.5952C32.0277 16.456 31.7675 16.3864 31.4593 16.3864C31.2339 16.3864 31.0367 16.4228 30.8676 16.4957C30.7003 16.5687 30.5693 16.6689 30.4749 16.7965C30.3821 16.9241 30.3357 17.0691 30.3357 17.2315C30.3357 17.3674 30.368 17.4843 30.4326 17.582C30.4989 17.6781 30.5834 17.7585 30.6862 17.8232C30.7889 17.8861 30.8966 17.9383 31.0093 17.9798C31.122 18.0195 31.2256 18.0518 31.32 18.0767L31.8371 18.2159C31.9697 18.2507 32.1172 18.2988 32.2796 18.3601C32.4436 18.4214 32.6002 18.5051 32.7494 18.6112C32.9002 18.7156 33.0245 18.8498 33.1222 19.0138C33.22 19.1779 33.2689 19.3793 33.2689 19.6179C33.2689 19.893 33.1968 20.1416 33.0526 20.3636C32.9101 20.5857 32.7013 20.7622 32.4262 20.8931C32.1528 21.024 31.8205 21.0895 31.4294 21.0895C31.0648 21.0895 30.7491 21.0307 30.4823 20.913C30.2172 20.7953 30.0084 20.6313 29.8559 20.4208C29.7051 20.2103 29.6198 19.9659 29.5999 19.6875H30.2362C30.2528 19.8797 30.3174 20.0388 30.4301 20.1648C30.5445 20.2891 30.6887 20.3819 30.8627 20.4432C31.0383 20.5028 31.2272 20.5327 31.4294 20.5327C31.6647 20.5327 31.876 20.4946 32.0633 20.4183C32.2506 20.3404 32.3989 20.2327 32.5083 20.0952C32.6176 19.956 32.6723 19.7936 32.6723 19.608C32.6723 19.4389 32.6251 19.3014 32.5306 19.1953C32.4362 19.0893 32.3119 19.0031 32.1578 18.9368C32.0036 18.8705 31.8371 18.8125 31.6581 18.7628L31.0317 18.5838C30.634 18.4695 30.3191 18.3062 30.0871 18.0941C29.8551 17.882 29.7391 17.6044 29.7391 17.2614C29.7391 16.9763 29.8161 16.7277 29.9703 16.5156C30.126 16.3018 30.3348 16.1361 30.5967 16.0185C30.8602 15.8991 31.1543 15.8395 31.4791 15.8395C31.8073 15.8395 32.0989 15.8983 32.3541 16.016C32.6093 16.132 32.8115 16.2911 32.9607 16.4933C33.1115 16.6954 33.191 16.925 33.1993 17.1818H32.6027ZM35.8635 17.1818V17.679H33.8848V17.1818H35.8635ZM34.4615 16.267H35.0481V19.9062C35.0481 20.072 35.0721 20.1963 35.1202 20.2791C35.1699 20.3603 35.2329 20.415 35.3091 20.4432C35.387 20.4697 35.469 20.483 35.5552 20.483C35.6199 20.483 35.6729 20.4796 35.7143 20.473C35.7557 20.4647 35.7889 20.4581 35.8137 20.4531L35.9331 20.9801C35.8933 20.995 35.8378 21.0099 35.7665 21.0249C35.6953 21.0414 35.6049 21.0497 35.4956 21.0497C35.3298 21.0497 35.1674 21.0141 35.0083 20.9428C34.8509 20.8716 34.72 20.763 34.6156 20.6172C34.5128 20.4714 34.4615 20.2874 34.4615 20.0653V16.267ZM36.7459 21V17.1818H37.3127V17.7585H37.3525C37.4221 17.5696 37.548 17.4163 37.7303 17.2987C37.9126 17.181 38.1181 17.1222 38.3468 17.1222C38.3899 17.1222 38.4437 17.123 38.5083 17.1246C38.573 17.1263 38.6219 17.1288 38.655 17.1321V17.7287C38.6351 17.7237 38.5895 17.7163 38.5183 17.7063C38.4487 17.6947 38.3749 17.6889 38.2971 17.6889C38.1114 17.6889 37.9457 17.7279 37.7999 17.8058C37.6557 17.882 37.5414 17.988 37.4569 18.1239C37.374 18.2582 37.3326 18.4115 37.3326 18.5838V21H36.7459ZM40.7853 21.0795C40.4406 21.0795 40.1382 20.9975 39.878 20.8335C39.6195 20.6694 39.4173 20.4399 39.2715 20.1449C39.1273 19.8499 39.0552 19.5052 39.0552 19.1108C39.0552 18.7131 39.1273 18.3659 39.2715 18.0692C39.4173 17.7726 39.6195 17.5423 39.878 17.3782C40.1382 17.2141 40.4406 17.1321 40.7853 17.1321C41.13 17.1321 41.4316 17.2141 41.6902 17.3782C41.9503 17.5423 42.1525 17.7726 42.2967 18.0692C42.4425 18.3659 42.5154 18.7131 42.5154 19.1108C42.5154 19.5052 42.4425 19.8499 42.2967 20.1449C42.1525 20.4399 41.9503 20.6694 41.6902 20.8335C41.4316 20.9975 41.13 21.0795 40.7853 21.0795ZM40.7853 20.5526C41.0472 20.5526 41.2626 20.4854 41.4316 20.3512C41.6007 20.217 41.7258 20.0405 41.807 19.8217C41.8882 19.603 41.9288 19.366 41.9288 19.1108C41.9288 18.8556 41.8882 18.6178 41.807 18.3974C41.7258 18.177 41.6007 17.9988 41.4316 17.8629C41.2626 17.727 41.0472 17.6591 40.7853 17.6591C40.5235 17.6591 40.3081 17.727 40.139 17.8629C39.97 17.9988 39.8449 18.177 39.7637 18.3974C39.6825 18.6178 39.6419 18.8556 39.6419 19.1108C39.6419 19.366 39.6825 19.603 39.7637 19.8217C39.8449 20.0405 39.97 20.217 40.139 20.3512C40.3081 20.4854 40.5235 20.5526 40.7853 20.5526ZM43.9976 18.7031V21H43.411V17.1818H43.9777V17.7784H44.0274C44.1169 17.5845 44.2528 17.4287 44.4351 17.3111C44.6174 17.1918 44.8527 17.1321 45.1411 17.1321C45.3996 17.1321 45.6258 17.1851 45.8197 17.2912C46.0136 17.3956 46.1644 17.5547 46.2721 17.7685C46.3798 17.9806 46.4337 18.2491 46.4337 18.5739V21H45.847V18.6136C45.847 18.3137 45.7691 18.08 45.6134 17.9126C45.4576 17.7436 45.2438 17.6591 44.972 17.6591C44.7848 17.6591 44.6174 17.6997 44.4699 17.7809C44.3241 17.8621 44.2089 17.9806 44.1244 18.1364C44.0399 18.2921 43.9976 18.4811 43.9976 18.7031ZM49.0469 22.5114C48.7635 22.5114 48.5199 22.4749 48.3161 22.402C48.1122 22.3307 47.9424 22.2363 47.8065 22.1186C47.6722 22.0026 47.5653 21.8783 47.4858 21.7457L47.9531 21.4176C48.0062 21.4872 48.0733 21.5668 48.1545 21.6562C48.2357 21.7474 48.3467 21.8261 48.4876 21.8924C48.6301 21.9603 48.8165 21.9943 49.0469 21.9943C49.3551 21.9943 49.6095 21.9197 49.81 21.7706C50.0105 21.6214 50.1108 21.3878 50.1108 21.0696V20.294H50.0611C50.018 20.3636 49.9567 20.4498 49.8771 20.5526C49.7992 20.6536 49.6866 20.744 49.5391 20.8235C49.3932 20.9014 49.196 20.9403 48.9474 20.9403C48.6392 20.9403 48.3625 20.8674 48.1172 20.7216C47.8736 20.5758 47.6805 20.3636 47.538 20.0852C47.3971 19.8068 47.3267 19.4687 47.3267 19.071C47.3267 18.6799 47.3955 18.3394 47.533 18.0494C47.6706 17.7577 47.862 17.5323 48.1072 17.3732C48.3525 17.2125 48.6359 17.1321 48.9574 17.1321C49.206 17.1321 49.4032 17.1735 49.549 17.2564C49.6965 17.3376 49.8092 17.4304 49.8871 17.5348C49.9666 17.6375 50.0279 17.7221 50.071 17.7884H50.1307V17.1818H50.6974V21.1094C50.6974 21.4375 50.6229 21.7043 50.4737 21.9098C50.3262 22.117 50.1274 22.2686 49.8771 22.3647C49.6286 22.4625 49.3518 22.5114 49.0469 22.5114ZM49.027 20.4134C49.2623 20.4134 49.4612 20.3595 49.6236 20.2518C49.786 20.1441 49.9094 19.9891 49.994 19.7869C50.0785 19.5848 50.1207 19.3428 50.1207 19.0611C50.1207 18.786 50.0793 18.5432 49.9964 18.3327C49.9136 18.1223 49.791 17.9574 49.6286 17.8381C49.4661 17.7187 49.2656 17.6591 49.027 17.6591C48.7784 17.6591 48.5713 17.7221 48.4055 17.848C48.2415 17.974 48.118 18.143 48.0352 18.3551C47.954 18.5672 47.9134 18.8026 47.9134 19.0611C47.9134 19.3262 47.9548 19.5607 48.0376 19.7646C48.1222 19.9667 48.2464 20.1258 48.4105 20.2418C48.5762 20.3562 48.7817 20.4134 49.027 20.4134ZM55.2912 21.0795C54.9332 21.0795 54.625 20.995 54.3665 20.826C54.108 20.657 53.9091 20.4241 53.7699 20.1275C53.6307 19.8308 53.5611 19.492 53.5611 19.1108C53.5611 18.723 53.6323 18.3808 53.7749 18.0842C53.919 17.7859 54.1196 17.553 54.3764 17.3857C54.6349 17.2166 54.9366 17.1321 55.2812 17.1321C55.5497 17.1321 55.7917 17.1818 56.0071 17.2812C56.2225 17.3807 56.399 17.5199 56.5366 17.6989C56.6741 17.8778 56.7595 18.0866 56.7926 18.3253H56.206C56.1612 18.1513 56.0618 17.9972 55.9077 17.8629C55.7552 17.727 55.5497 17.6591 55.2912 17.6591C55.0625 17.6591 54.862 17.7187 54.6896 17.8381C54.5189 17.9557 54.3855 18.1223 54.2894 18.3377C54.195 18.5515 54.1477 18.8026 54.1477 19.0909C54.1477 19.3859 54.1941 19.6428 54.2869 19.8615C54.3814 20.0803 54.514 20.2501 54.6847 20.3711C54.857 20.4921 55.0592 20.5526 55.2912 20.5526C55.4437 20.5526 55.582 20.526 55.7063 20.473C55.8306 20.42 55.9358 20.3438 56.022 20.2443C56.1082 20.1449 56.1695 20.0256 56.206 19.8864H56.7926C56.7595 20.1117 56.6774 20.3147 56.5465 20.4954C56.4173 20.6744 56.2457 20.8169 56.032 20.9229C55.8198 21.0273 55.5729 21.0795 55.2912 21.0795ZM59.2013 21.0795C58.8567 21.0795 58.5542 20.9975 58.294 20.8335C58.0355 20.6694 57.8333 20.4399 57.6875 20.1449C57.5433 19.8499 57.4712 19.5052 57.4712 19.1108C57.4712 18.7131 57.5433 18.3659 57.6875 18.0692C57.8333 17.7726 58.0355 17.5423 58.294 17.3782C58.5542 17.2141 58.8567 17.1321 59.2013 17.1321C59.546 17.1321 59.8477 17.2141 60.1062 17.3782C60.3664 17.5423 60.5685 17.7726 60.7127 18.0692C60.8585 18.3659 60.9315 18.7131 60.9315 19.1108C60.9315 19.5052 60.8585 19.8499 60.7127 20.1449C60.5685 20.4399 60.3664 20.6694 60.1062 20.8335C59.8477 20.9975 59.546 21.0795 59.2013 21.0795ZM59.2013 20.5526C59.4632 20.5526 59.6786 20.4854 59.8477 20.3512C60.0167 20.217 60.1418 20.0405 60.223 19.8217C60.3042 19.603 60.3448 19.366 60.3448 19.1108C60.3448 18.8556 60.3042 18.6178 60.223 18.3974C60.1418 18.177 60.0167 17.9988 59.8477 17.8629C59.6786 17.727 59.4632 17.6591 59.2013 17.6591C58.9395 17.6591 58.7241 17.727 58.555 17.8629C58.386 17.9988 58.2609 18.177 58.1797 18.3974C58.0985 18.6178 58.0579 18.8556 58.0579 19.1108C58.0579 19.366 58.0985 19.603 58.1797 19.8217C58.2609 20.0405 58.386 20.217 58.555 20.3512C58.7241 20.4854 58.9395 20.5526 59.2013 20.5526ZM62.4136 18.7031V21H61.827V17.1818H62.3937V17.7784H62.4434C62.5329 17.5845 62.6688 17.4287 62.8511 17.3111C63.0334 17.1918 63.2687 17.1321 63.5571 17.1321C63.8156 17.1321 64.0418 17.1851 64.2357 17.2912C64.4296 17.3956 64.5804 17.5547 64.6881 17.7685C64.7958 17.9806 64.8497 18.2491 64.8497 18.5739V21H64.2631V18.6136C64.2631 18.3137 64.1852 18.08 64.0294 17.9126C63.8736 17.7436 63.6598 17.6591 63.3881 17.6591C63.2008 17.6591 63.0334 17.6997 62.8859 17.7809C62.7401 17.8621 62.6249 17.9806 62.5404 18.1364C62.4559 18.2921 62.4136 18.4811 62.4136 18.7031ZM66.5083 18.7031V21H65.9217V17.1818H66.4885V17.7784H66.5382C66.6277 17.5845 66.7636 17.4287 66.9458 17.3111C67.1281 17.1918 67.3635 17.1321 67.6518 17.1321C67.9103 17.1321 68.1365 17.1851 68.3304 17.2912C68.5243 17.3956 68.6751 17.5547 68.7828 17.7685C68.8906 17.9806 68.9444 18.2491 68.9444 18.5739V21H68.3578V18.6136C68.3578 18.3137 68.2799 18.08 68.1241 17.9126C67.9683 17.7436 67.7546 17.6591 67.4828 17.6591C67.2955 17.6591 67.1281 17.6997 66.9806 17.7809C66.8348 17.8621 66.7196 17.9806 66.6351 18.1364C66.5506 18.2921 66.5083 18.4811 66.5083 18.7031ZM71.6173 21.0795C71.2494 21.0795 70.932 20.9983 70.6652 20.8359C70.4001 20.6719 70.1954 20.4432 70.0512 20.1499C69.9087 19.8549 69.8374 19.5118 69.8374 19.1207C69.8374 18.7296 69.9087 18.3849 70.0512 18.0866C70.1954 17.7867 70.3959 17.553 70.6528 17.3857C70.9113 17.2166 71.2129 17.1321 71.5576 17.1321C71.7565 17.1321 71.9529 17.1652 72.1468 17.2315C72.3406 17.2978 72.5171 17.4055 72.6762 17.5547C72.8353 17.7022 72.9621 17.8977 73.0566 18.1413C73.151 18.3849 73.1982 18.6849 73.1982 19.0412V19.2898H70.2551V18.7827H72.6017C72.6017 18.5672 72.5586 18.375 72.4724 18.206C72.3879 18.0369 72.2669 17.9035 72.1095 17.8058C71.9537 17.708 71.7697 17.6591 71.5576 17.6591C71.324 17.6591 71.1218 17.7171 70.9511 17.8331C70.782 17.9474 70.652 18.0966 70.5608 18.2805C70.4697 18.4645 70.4241 18.6617 70.4241 18.8722V19.2102C70.4241 19.4986 70.4738 19.743 70.5732 19.9435C70.6743 20.1424 70.8144 20.294 70.9933 20.3984C71.1723 20.5012 71.3803 20.5526 71.6173 20.5526C71.7714 20.5526 71.9106 20.531 72.0349 20.4879C72.1608 20.4432 72.2694 20.3769 72.3605 20.2891C72.4517 20.1996 72.5221 20.0885 72.5718 19.956L73.1386 20.1151C73.0789 20.3073 72.9787 20.4763 72.8378 20.6222C72.6969 20.7663 72.5229 20.879 72.3158 20.9602C72.1086 21.0398 71.8758 21.0795 71.6173 21.0795ZM75.6418 21.0795C75.2838 21.0795 74.9756 20.995 74.7171 20.826C74.4585 20.657 74.2597 20.4241 74.1205 20.1275C73.9813 19.8308 73.9117 19.492 73.9117 19.1108C73.9117 18.723 73.9829 18.3808 74.1254 18.0842C74.2696 17.7859 74.4701 17.553 74.727 17.3857C74.9855 17.2166 75.2871 17.1321 75.6318 17.1321C75.9003 17.1321 76.1423 17.1818 76.3577 17.2812C76.5731 17.3807 76.7496 17.5199 76.8872 17.6989C77.0247 17.8778 77.1101 18.0866 77.1432 18.3253H76.5566C76.5118 18.1513 76.4124 17.9972 76.2583 17.8629C76.1058 17.727 75.9003 17.6591 75.6418 17.6591C75.4131 17.6591 75.2126 17.7187 75.0402 17.8381C74.8695 17.9557 74.7361 18.1223 74.64 18.3377C74.5455 18.5515 74.4983 18.8026 74.4983 19.0909C74.4983 19.3859 74.5447 19.6428 74.6375 19.8615C74.732 20.0803 74.8646 20.2501 75.0352 20.3711C75.2076 20.4921 75.4098 20.5526 75.6418 20.5526C75.7942 20.5526 75.9326 20.526 76.0569 20.473C76.1812 20.42 76.2864 20.3438 76.3726 20.2443C76.4588 20.1449 76.5201 20.0256 76.5566 19.8864H77.1432C77.1101 20.1117 77.028 20.3147 76.8971 20.4954C76.7678 20.6744 76.5963 20.8169 76.3825 20.9229C76.1704 21.0273 75.9235 21.0795 75.6418 21.0795ZM79.6613 17.1818V17.679H77.6826V17.1818H79.6613ZM78.2593 16.267H78.846V19.9062C78.846 20.072 78.87 20.1963 78.9181 20.2791C78.9678 20.3603 79.0307 20.415 79.107 20.4432C79.1849 20.4697 79.2669 20.483 79.3531 20.483C79.4177 20.483 79.4707 20.4796 79.5122 20.473C79.5536 20.4647 79.5867 20.4581 79.6116 20.4531L79.7309 20.9801C79.6911 20.995 79.6356 21.0099 79.5644 21.0249C79.4931 21.0414 79.4028 21.0497 79.2934 21.0497C79.1277 21.0497 78.9653 21.0141 78.8062 20.9428C78.6488 20.8716 78.5178 20.763 78.4134 20.6172C78.3107 20.4714 78.2593 20.2874 78.2593 20.0653V16.267ZM80.5438 21V17.1818H81.1304V21H80.5438ZM80.8421 16.5455C80.7277 16.5455 80.6291 16.5065 80.5463 16.4286C80.4651 16.3507 80.4244 16.2571 80.4244 16.1477C80.4244 16.0384 80.4651 15.9447 80.5463 15.8668C80.6291 15.7889 80.7277 15.75 80.8421 15.75C80.9564 15.75 81.0542 15.7889 81.1354 15.8668C81.2182 15.9447 81.2597 16.0384 81.2597 16.1477C81.2597 16.2571 81.2182 16.3507 81.1354 16.4286C81.0542 16.5065 80.9564 16.5455 80.8421 16.5455ZM85.3271 17.1818L83.9151 21H83.3185L81.9066 17.1818H82.543L83.5969 20.2244H83.6367L84.6907 17.1818H85.3271ZM86.1014 21V17.1818H86.688V21H86.1014ZM86.3997 16.5455C86.2853 16.5455 86.1867 16.5065 86.1039 16.4286C86.0227 16.3507 85.9821 16.2571 85.9821 16.1477C85.9821 16.0384 86.0227 15.9447 86.1039 15.8668C86.1867 15.7889 86.2853 15.75 86.3997 15.75C86.514 15.75 86.6118 15.7889 86.693 15.8668C86.7759 15.9447 86.8173 16.0384 86.8173 16.1477C86.8173 16.2571 86.7759 16.3507 86.693 16.4286C86.6118 16.5065 86.514 16.5455 86.3997 16.5455ZM89.423 17.1818V17.679H87.4443V17.1818H89.423ZM88.021 16.267H88.6077V19.9062C88.6077 20.072 88.6317 20.1963 88.6798 20.2791C88.7295 20.3603 88.7925 20.415 88.8687 20.4432C88.9466 20.4697 89.0286 20.483 89.1148 20.483C89.1794 20.483 89.2325 20.4796 89.2739 20.473C89.3153 20.4647 89.3485 20.4581 89.3733 20.4531L89.4926 20.9801C89.4529 20.995 89.3973 21.0099 89.3261 21.0249C89.2548 21.0414 89.1645 21.0497 89.0551 21.0497C88.8894 21.0497 88.727 21.0141 88.5679 20.9428C88.4105 20.8716 88.2796 20.763 88.1752 20.6172C88.0724 20.4714 88.021 20.2874 88.021 20.0653V16.267ZM90.6833 22.4318C90.5839 22.4318 90.4952 22.4235 90.4173 22.407C90.3395 22.392 90.2856 22.3771 90.2558 22.3622L90.4049 21.8452C90.5474 21.8816 90.6734 21.8949 90.7828 21.8849C90.8921 21.875 90.9891 21.8261 91.0736 21.7383C91.1598 21.6521 91.2385 21.5121 91.3097 21.3182L91.4191 21.0199L90.0072 17.1818H90.6436L91.6975 20.2244H91.7373L92.7913 17.1818H93.4276L91.8069 21.5568C91.734 21.754 91.6437 21.9173 91.536 22.0465C91.4282 22.1774 91.3031 22.2744 91.1606 22.3374C91.0197 22.4003 90.8606 22.4318 90.6833 22.4318ZM97.7219 21.0795C97.3639 21.0795 97.0557 20.995 96.7971 20.826C96.5386 20.657 96.3398 20.4241 96.2006 20.1275C96.0613 19.8308 95.9917 19.492 95.9917 19.1108C95.9917 18.723 96.063 18.3808 96.2055 18.0842C96.3497 17.7859 96.5502 17.553 96.8071 17.3857C97.0656 17.2166 97.3672 17.1321 97.7119 17.1321C97.9804 17.1321 98.2223 17.1818 98.4378 17.2812C98.6532 17.3807 98.8297 17.5199 98.9672 17.6989C99.1048 17.8778 99.1901 18.0866 99.2233 18.3253H98.6366C98.5919 18.1513 98.4925 17.9972 98.3383 17.8629C98.1859 17.727 97.9804 17.6591 97.7219 17.6591C97.4932 17.6591 97.2926 17.7187 97.1203 17.8381C96.9496 17.9557 96.8162 18.1223 96.7201 18.3377C96.6256 18.5515 96.5784 18.8026 96.5784 19.0909C96.5784 19.3859 96.6248 19.6428 96.7176 19.8615C96.8121 20.0803 96.9446 20.2501 97.1153 20.3711C97.2877 20.4921 97.4898 20.5526 97.7219 20.5526C97.8743 20.5526 98.0127 20.526 98.137 20.473C98.2613 20.42 98.3665 20.3438 98.4527 20.2443C98.5389 20.1449 98.6002 20.0256 98.6366 19.8864H99.2233C99.1901 20.1117 99.1081 20.3147 98.9772 20.4954C98.8479 20.6744 98.6764 20.8169 98.4626 20.9229C98.2505 21.0273 98.0036 21.0795 97.7219 21.0795ZM101.632 21.0795C101.287 21.0795 100.985 20.9975 100.725 20.8335C100.466 20.6694 100.264 20.4399 100.118 20.1449C99.974 19.8499 99.9019 19.5052 99.9019 19.1108C99.9019 18.7131 99.974 18.3659 100.118 18.0692C100.264 17.7726 100.466 17.5423 100.725 17.3782C100.985 17.2141 101.287 17.1321 101.632 17.1321C101.977 17.1321 102.278 17.2141 102.537 17.3782C102.797 17.5423 102.999 17.7726 103.143 18.0692C103.289 18.3659 103.362 18.7131 103.362 19.1108C103.362 19.5052 103.289 19.8499 103.143 20.1449C102.999 20.4399 102.797 20.6694 102.537 20.8335C102.278 20.9975 101.977 21.0795 101.632 21.0795ZM101.632 20.5526C101.894 20.5526 102.109 20.4854 102.278 20.3512C102.447 20.217 102.572 20.0405 102.654 19.8217C102.735 19.603 102.775 19.366 102.775 19.1108C102.775 18.8556 102.735 18.6178 102.654 18.3974C102.572 18.177 102.447 17.9988 102.278 17.8629C102.109 17.727 101.894 17.6591 101.632 17.6591C101.37 17.6591 101.155 17.727 100.986 17.8629C100.817 17.9988 100.692 18.177 100.61 18.3974C100.529 18.6178 100.489 18.8556 100.489 19.1108C100.489 19.366 100.529 19.603 100.61 19.8217C100.692 20.0405 100.817 20.217 100.986 20.3512C101.155 20.4854 101.37 20.5526 101.632 20.5526ZM104.258 21V17.1818H104.824V17.7784H104.874C104.954 17.5746 105.082 17.4163 105.259 17.3036C105.437 17.1893 105.65 17.1321 105.898 17.1321C106.15 17.1321 106.36 17.1893 106.527 17.3036C106.696 17.4163 106.828 17.5746 106.922 17.7784H106.962C107.06 17.5812 107.207 17.4246 107.402 17.3086C107.598 17.1909 107.832 17.1321 108.106 17.1321C108.447 17.1321 108.726 17.239 108.943 17.4528C109.16 17.6649 109.269 17.9955 109.269 18.4446V21H108.682V18.4446C108.682 18.1629 108.605 17.9615 108.451 17.8406C108.297 17.7196 108.116 17.6591 107.907 17.6591C107.638 17.6591 107.43 17.7403 107.283 17.9027C107.135 18.0634 107.062 18.2673 107.062 18.5142V21H106.465V18.3849C106.465 18.1679 106.395 17.993 106.254 17.8604C106.113 17.7262 105.931 17.6591 105.709 17.6591C105.557 17.6591 105.414 17.6997 105.282 17.7809C105.151 17.8621 105.045 17.9748 104.964 18.119C104.884 18.2615 104.844 18.4264 104.844 18.6136V21H104.258ZM110.342 22.4318V17.1818H110.908V17.7884H110.978C111.021 17.7221 111.081 17.6375 111.157 17.5348C111.235 17.4304 111.346 17.3376 111.49 17.2564C111.636 17.1735 111.833 17.1321 112.082 17.1321C112.403 17.1321 112.687 17.2125 112.932 17.3732C113.177 17.534 113.368 17.7618 113.506 18.0568C113.644 18.3518 113.712 18.6998 113.712 19.1009C113.712 19.5052 113.644 19.8557 113.506 20.1523C113.368 20.4473 113.178 20.676 112.934 20.8384C112.691 20.9992 112.41 21.0795 112.092 21.0795C111.846 21.0795 111.65 21.0389 111.502 20.9577C111.355 20.8749 111.241 20.7812 111.162 20.6768C111.082 20.5708 111.021 20.483 110.978 20.4134H110.928V22.4318H110.342ZM110.918 19.0909C110.918 19.3793 110.961 19.6336 111.045 19.854C111.13 20.0728 111.253 20.2443 111.415 20.3686C111.578 20.4912 111.777 20.5526 112.012 20.5526C112.257 20.5526 112.462 20.4879 112.626 20.3587C112.792 20.2277 112.916 20.0521 112.999 19.8317C113.083 19.6096 113.126 19.3627 113.126 19.0909C113.126 18.8224 113.084 18.5805 113.001 18.3651C112.92 18.148 112.797 17.9764 112.631 17.8505C112.467 17.7229 112.261 17.6591 112.012 17.6591C111.773 17.6591 111.573 17.7196 111.411 17.8406C111.248 17.9599 111.125 18.1272 111.043 18.3427C110.96 18.5565 110.918 18.8059 110.918 19.0909ZM116.158 21.0795C115.814 21.0795 115.511 20.9975 115.251 20.8335C114.993 20.6694 114.79 20.4399 114.645 20.1449C114.5 19.8499 114.428 19.5052 114.428 19.1108C114.428 18.7131 114.5 18.3659 114.645 18.0692C114.79 17.7726 114.993 17.5423 115.251 17.3782C115.511 17.2141 115.814 17.1321 116.158 17.1321C116.503 17.1321 116.805 17.2141 117.063 17.3782C117.323 17.5423 117.526 17.7726 117.67 18.0692C117.816 18.3659 117.888 18.7131 117.888 19.1108C117.888 19.5052 117.816 19.8499 117.67 20.1449C117.526 20.4399 117.323 20.6694 117.063 20.8335C116.805 20.9975 116.503 21.0795 116.158 21.0795ZM116.158 20.5526C116.42 20.5526 116.636 20.4854 116.805 20.3512C116.974 20.217 117.099 20.0405 117.18 19.8217C117.261 19.603 117.302 19.366 117.302 19.1108C117.302 18.8556 117.261 18.6178 117.18 18.3974C117.099 18.177 116.974 17.9988 116.805 17.8629C116.636 17.727 116.42 17.6591 116.158 17.6591C115.897 17.6591 115.681 17.727 115.512 17.8629C115.343 17.9988 115.218 18.177 115.137 18.3974C115.056 18.6178 115.015 18.8556 115.015 19.1108C115.015 19.366 115.056 19.603 115.137 19.8217C115.218 20.0405 115.343 20.217 115.512 20.3512C115.681 20.4854 115.897 20.5526 116.158 20.5526ZM119.371 18.7031V21H118.784V17.1818H119.351V17.7784H119.4C119.49 17.5845 119.626 17.4287 119.808 17.3111C119.99 17.1918 120.226 17.1321 120.514 17.1321C120.773 17.1321 120.999 17.1851 121.193 17.2912C121.387 17.3956 121.537 17.5547 121.645 17.7685C121.753 17.9806 121.807 18.2491 121.807 18.5739V21H121.22V18.6136C121.22 18.3137 121.142 18.08 120.986 17.9126C120.831 17.7436 120.617 17.6591 120.345 17.6591C120.158 17.6591 119.99 17.6997 119.843 17.7809C119.697 17.8621 119.582 17.9806 119.497 18.1364C119.413 18.2921 119.371 18.4811 119.371 18.7031ZM124.48 21.0795C124.112 21.0795 123.794 20.9983 123.528 20.8359C123.262 20.6719 123.058 20.4432 122.914 20.1499C122.771 19.8549 122.7 19.5118 122.7 19.1207C122.7 18.7296 122.771 18.3849 122.914 18.0866C123.058 17.7867 123.258 17.553 123.515 17.3857C123.774 17.2166 124.075 17.1321 124.42 17.1321C124.619 17.1321 124.815 17.1652 125.009 17.2315C125.203 17.2978 125.379 17.4055 125.539 17.5547C125.698 17.7022 125.824 17.8977 125.919 18.1413C126.013 18.3849 126.061 18.6849 126.061 19.0412V19.2898H123.117V18.7827H125.464C125.464 18.5672 125.421 18.375 125.335 18.206C125.25 18.0369 125.129 17.9035 124.972 17.8058C124.816 17.708 124.632 17.6591 124.42 17.6591C124.186 17.6591 123.984 17.7171 123.813 17.8331C123.644 17.9474 123.514 18.0966 123.423 18.2805C123.332 18.4645 123.286 18.6617 123.286 18.8722V19.2102C123.286 19.4986 123.336 19.743 123.436 19.9435C123.537 20.1424 123.677 20.294 123.856 20.3984C124.035 20.5012 124.243 20.5526 124.48 20.5526C124.634 20.5526 124.773 20.531 124.897 20.4879C125.023 20.4432 125.132 20.3769 125.223 20.2891C125.314 20.1996 125.384 20.0885 125.434 19.956L126.001 20.1151C125.941 20.3073 125.841 20.4763 125.7 20.6222C125.559 20.7663 125.385 20.879 125.178 20.9602C124.971 21.0398 124.738 21.0795 124.48 21.0795ZM127.54 18.7031V21H126.953V17.1818H127.52V17.7784H127.569C127.659 17.5845 127.795 17.4287 127.977 17.3111C128.159 17.1918 128.395 17.1321 128.683 17.1321C128.942 17.1321 129.168 17.1851 129.362 17.2912C129.556 17.3956 129.706 17.5547 129.814 17.7685C129.922 17.9806 129.976 18.2491 129.976 18.5739V21H129.389V18.6136C129.389 18.3137 129.311 18.08 129.155 17.9126C129 17.7436 128.786 17.6591 128.514 17.6591C128.327 17.6591 128.159 17.6997 128.012 17.7809C127.866 17.8621 127.751 17.9806 127.666 18.1364C127.582 18.2921 127.54 18.4811 127.54 18.7031ZM132.708 17.1818V17.679H130.729V17.1818H132.708ZM131.306 16.267H131.893V19.9062C131.893 20.072 131.917 20.1963 131.965 20.2791C132.015 20.3603 132.078 20.415 132.154 20.4432C132.232 20.4697 132.314 20.483 132.4 20.483C132.465 20.483 132.518 20.4796 132.559 20.473C132.6 20.4647 132.634 20.4581 132.658 20.4531L132.778 20.9801C132.738 20.995 132.682 21.0099 132.611 21.0249C132.54 21.0414 132.45 21.0497 132.34 21.0497C132.175 21.0497 132.012 21.0141 131.853 20.9428C131.696 20.8716 131.565 20.763 131.46 20.6172C131.358 20.4714 131.306 20.2874 131.306 20.0653V16.267Z" fill="#878787"/>
</svg>
